G75*
G70*
%OFA0B0*%
%FSLAX24Y24*%
%IPPOS*%
%LPD*%
%AMOC8*
5,1,8,0,0,1.08239X$1,22.5*
%
%ADD10C,0.0400*%
%ADD11C,0.0300*%
%ADD12R,0.0197X0.0787*%
%ADD13R,0.0787X0.0197*%
%ADD14R,0.0512X0.0591*%
%ADD15C,0.0520*%
%ADD16R,0.0299X0.0299*%
%ADD17R,0.0394X0.1575*%
%ADD18R,0.0591X0.1378*%
%ADD19R,0.0197X0.0886*%
%ADD20C,0.0886*%
%ADD21R,0.1000X0.0500*%
%ADD22R,0.0591X0.0512*%
%ADD23R,0.0866X0.0236*%
%ADD24OC8,0.0850*%
%ADD25OC8,0.0600*%
%ADD26R,0.0500X0.1000*%
%ADD27R,0.1024X0.0551*%
%ADD28R,0.0551X0.1024*%
%ADD29O,0.0560X0.1120*%
%ADD30C,0.0827*%
%ADD31C,0.0476*%
%ADD32C,0.0100*%
%ADD33C,0.0440*%
%ADD34C,0.0160*%
D10*
X027101Y036474D02*
X027901Y036474D01*
X028168Y036741D01*
X028168Y037008D01*
X027901Y037275D01*
X027101Y037275D01*
X027101Y038075D02*
X027101Y036474D01*
X027901Y037275D02*
X028168Y037541D01*
X028168Y037808D01*
X027901Y038075D01*
X027101Y038075D01*
X028942Y037808D02*
X028942Y036741D01*
X029209Y036474D01*
X029743Y036474D01*
X030010Y036741D01*
X030010Y037808D01*
X029743Y038075D01*
X029209Y038075D01*
X028942Y037808D01*
X030784Y037541D02*
X030784Y036474D01*
X030784Y037275D02*
X031851Y037275D01*
X031851Y037541D02*
X031851Y036474D01*
X032625Y036474D02*
X032625Y038075D01*
X033426Y038075D01*
X033693Y037808D01*
X033693Y037275D01*
X033426Y037008D01*
X032625Y037008D01*
X033159Y037008D02*
X033693Y036474D01*
X034467Y036474D02*
X035268Y036474D01*
X035534Y036741D01*
X035534Y037808D01*
X035268Y038075D01*
X034467Y038075D01*
X034467Y036474D01*
X031851Y037541D02*
X031318Y038075D01*
X030784Y037541D01*
X038150Y038075D02*
X038150Y036474D01*
X039218Y036474D02*
X039218Y038075D01*
X039992Y037541D02*
X040525Y038075D01*
X041059Y037541D01*
X041059Y036474D01*
X041833Y036474D02*
X041833Y038075D01*
X042367Y037541D01*
X042901Y038075D01*
X042901Y036474D01*
X043675Y036474D02*
X044742Y036474D01*
X045516Y036474D02*
X045516Y036741D01*
X045783Y036741D01*
X045783Y036474D01*
X045516Y036474D01*
X045516Y037275D02*
X045516Y037541D01*
X045783Y037541D01*
X045783Y037275D01*
X045516Y037275D01*
X044208Y037275D02*
X043675Y037275D01*
X043675Y038075D02*
X043675Y036474D01*
X041059Y037275D02*
X039992Y037275D01*
X039992Y037541D02*
X039992Y036474D01*
X039218Y036474D02*
X038150Y038075D01*
X043675Y038075D02*
X044742Y038075D01*
X048278Y038075D02*
X048278Y036474D01*
X049346Y036474D02*
X049346Y038075D01*
X050120Y038075D02*
X050120Y036474D01*
X051188Y036474D01*
X051961Y036474D02*
X051961Y038075D01*
X052762Y038075D01*
X053029Y037808D01*
X053029Y037275D01*
X052762Y037008D01*
X051961Y037008D01*
X052495Y037008D02*
X053029Y036474D01*
X053803Y036474D02*
X054604Y036474D01*
X054871Y036741D01*
X054871Y037808D01*
X054604Y038075D01*
X053803Y038075D01*
X053803Y036474D01*
X055645Y036474D02*
X056712Y036474D01*
X056178Y036474D02*
X056178Y038075D01*
X055645Y037541D01*
X051188Y038075D02*
X050120Y038075D01*
X049346Y036474D02*
X048278Y038075D01*
X050120Y037275D02*
X050654Y037275D01*
D11*
X027351Y017824D02*
X027151Y018024D01*
X027151Y018825D01*
X027351Y019025D01*
X027751Y019025D01*
X027951Y018825D01*
X028532Y018825D02*
X028532Y018024D01*
X028732Y017824D01*
X029132Y017824D01*
X029333Y018024D01*
X029333Y018825D01*
X029132Y019025D01*
X028732Y019025D01*
X028532Y018825D01*
X027951Y018024D02*
X027751Y017824D01*
X027351Y017824D01*
X029913Y017824D02*
X029913Y019025D01*
X030313Y018625D01*
X030714Y019025D01*
X030714Y017824D01*
X031294Y017824D02*
X031294Y019025D01*
X031895Y019025D01*
X032095Y018825D01*
X032095Y018424D01*
X031895Y018224D01*
X031294Y018224D01*
X032675Y018024D02*
X032876Y017824D01*
X033276Y017824D01*
X033476Y018024D01*
X033476Y018825D01*
X033276Y019025D01*
X032876Y019025D01*
X032675Y018825D01*
X032675Y018024D01*
X034056Y017824D02*
X034056Y019025D01*
X034857Y017824D01*
X034857Y019025D01*
X035438Y019025D02*
X035438Y017824D01*
X036238Y017824D01*
X036819Y017824D02*
X036819Y019025D01*
X037619Y017824D01*
X037619Y019025D01*
X038200Y019025D02*
X039001Y019025D01*
X038600Y019025D02*
X038600Y017824D01*
X036238Y019025D02*
X035438Y019025D01*
X035438Y018424D02*
X035838Y018424D01*
X040962Y018625D02*
X041162Y018424D01*
X041563Y018424D01*
X041763Y018224D01*
X041763Y018024D01*
X041563Y017824D01*
X041162Y017824D01*
X040962Y018024D01*
X040962Y018625D02*
X040962Y018825D01*
X041162Y019025D01*
X041563Y019025D01*
X041763Y018825D01*
X042343Y019025D02*
X042744Y019025D01*
X042544Y019025D02*
X042544Y017824D01*
X042744Y017824D02*
X042343Y017824D01*
X043264Y017824D02*
X043865Y017824D01*
X044065Y018024D01*
X044065Y018825D01*
X043865Y019025D01*
X043264Y019025D01*
X043264Y017824D01*
X044645Y017824D02*
X045446Y017824D01*
X045046Y018424D02*
X044645Y018424D01*
X044645Y017824D02*
X044645Y019025D01*
X045446Y019025D01*
D12*
X046626Y027133D03*
X046941Y027133D03*
X047256Y027133D03*
X047571Y027133D03*
X047886Y027133D03*
X048201Y027133D03*
X048516Y027133D03*
X048831Y027133D03*
X049146Y027133D03*
X049461Y027133D03*
X049776Y027133D03*
X049776Y032015D03*
X049461Y032015D03*
X049146Y032015D03*
X048831Y032015D03*
X048516Y032015D03*
X048201Y032015D03*
X047886Y032015D03*
X047571Y032015D03*
X047256Y032015D03*
X046941Y032015D03*
X046626Y032015D03*
D13*
X045760Y031149D03*
X045760Y030834D03*
X045760Y030519D03*
X045760Y030204D03*
X045760Y029889D03*
X045760Y029574D03*
X045760Y029259D03*
X045760Y028944D03*
X045760Y028629D03*
X045760Y028314D03*
X045760Y027999D03*
X050642Y027999D03*
X050642Y028314D03*
X050642Y028629D03*
X050642Y028944D03*
X050642Y029259D03*
X050642Y029574D03*
X050642Y029889D03*
X050642Y030204D03*
X050642Y030519D03*
X050642Y030834D03*
X050642Y031149D03*
D14*
X051766Y026574D03*
X052435Y026574D03*
X052435Y025574D03*
X051766Y025574D03*
X050335Y021774D03*
X049666Y021774D03*
X048335Y021774D03*
X047666Y021774D03*
X035335Y025474D03*
X034666Y025474D03*
X034666Y026374D03*
X035335Y026374D03*
X031935Y030374D03*
X031266Y030374D03*
X030966Y032274D03*
X031635Y032274D03*
X034266Y032474D03*
X034935Y032474D03*
D15*
X047951Y023324D03*
X049851Y023324D03*
D16*
X031902Y031300D03*
X031001Y031674D03*
X031001Y030926D03*
D17*
X064283Y031956D03*
X065070Y031956D03*
X065858Y031956D03*
X066645Y031956D03*
X067432Y031956D03*
X068220Y031956D03*
X069007Y031956D03*
X069795Y031956D03*
X070582Y031956D03*
X071369Y031956D03*
X072157Y031956D03*
X072944Y031956D03*
X073732Y031956D03*
X074519Y031956D03*
X075306Y031956D03*
X075287Y024174D03*
X074500Y024174D03*
X073713Y024174D03*
X072925Y024174D03*
X072138Y024174D03*
X071350Y024174D03*
X070563Y024174D03*
X069776Y024174D03*
X068988Y024174D03*
X068201Y024174D03*
X076075Y024174D03*
X076862Y024174D03*
X077650Y024174D03*
X078437Y024174D03*
X079224Y024174D03*
D18*
X080307Y022107D03*
X067118Y022107D03*
X063200Y034023D03*
X076389Y034023D03*
D19*
X032236Y024179D03*
X031921Y024179D03*
X031606Y024179D03*
X031291Y024179D03*
X030976Y024179D03*
D20*
X030169Y023931D03*
X033043Y023931D03*
X033043Y021845D03*
X030169Y021845D03*
D21*
X031001Y028474D03*
X031001Y029474D03*
D22*
X039101Y031739D03*
X039901Y031739D03*
X039901Y032409D03*
X039101Y032409D03*
X044501Y032409D03*
X045801Y032409D03*
X045801Y031739D03*
X044501Y031739D03*
X044501Y028409D03*
X044501Y027739D03*
X045801Y027409D03*
X045801Y026739D03*
X050601Y026739D03*
X050601Y025809D03*
X050601Y025139D03*
X050601Y027409D03*
X050601Y031739D03*
X050601Y032409D03*
D23*
X043612Y032324D03*
X043612Y031824D03*
X043612Y031324D03*
X043612Y030824D03*
X040990Y030824D03*
X040990Y031324D03*
X040990Y031824D03*
X040990Y032324D03*
D24*
X038101Y028474D03*
X037101Y028474D03*
X036101Y028474D03*
X035301Y027474D03*
X029501Y026374D03*
X027601Y026374D03*
X034301Y023974D03*
X035301Y023974D03*
X034301Y022974D03*
X046901Y025774D03*
X053401Y025674D03*
X065701Y028474D03*
X066701Y028474D03*
X067701Y028474D03*
X068701Y028474D03*
X069701Y028474D03*
X070701Y028474D03*
X071701Y028474D03*
X072701Y028474D03*
X074201Y028474D03*
X072201Y029974D03*
X029701Y033674D03*
D25*
X034101Y031474D03*
X035101Y031474D03*
X036101Y031474D03*
X037101Y031474D03*
X037101Y030474D03*
X036101Y030474D03*
X035101Y030474D03*
X034101Y030474D03*
D26*
X033001Y033674D03*
X032001Y033674D03*
D27*
X032508Y026974D03*
X030894Y026974D03*
D28*
X075701Y028667D03*
X075701Y030281D03*
D29*
X056401Y025674D03*
X055401Y025674D03*
X054401Y025674D03*
D30*
X051710Y024074D03*
X057891Y024074D03*
D31*
X056376Y024074D03*
X054801Y024074D03*
X054013Y024074D03*
X053226Y024074D03*
D32*
X052426Y024874D01*
X051301Y024874D01*
X051101Y024674D01*
X045601Y024674D01*
X044001Y026274D01*
X044001Y026874D01*
X044601Y026274D02*
X045801Y025074D01*
X050535Y025074D01*
X050601Y025139D01*
X050601Y025074D01*
X053801Y025074D01*
X054801Y024074D01*
X053401Y025674D02*
X052501Y025674D01*
X052401Y025574D01*
X052435Y025574D01*
X052301Y025574D02*
X052301Y026574D01*
X052301Y026674D02*
X052401Y026574D01*
X052403Y026567D01*
X052407Y026561D01*
X052414Y026557D01*
X052422Y026557D01*
X052429Y026561D01*
X052433Y026567D01*
X052435Y026574D01*
X052601Y026574D01*
X052301Y026674D02*
X052301Y026974D01*
X051501Y027774D01*
X051501Y027974D01*
X051161Y028314D01*
X050642Y028314D01*
X050601Y028674D02*
X051201Y028674D01*
X051901Y027974D01*
X051901Y028574D02*
X051601Y028574D01*
X051201Y028974D01*
X050701Y028974D01*
X050601Y029274D02*
X051201Y029274D01*
X051301Y029174D01*
X051901Y029174D01*
X051501Y029574D02*
X050601Y029574D01*
X050601Y029874D02*
X051201Y029874D01*
X051301Y029974D01*
X051901Y029974D01*
X051501Y030174D02*
X050701Y030174D01*
X050701Y030474D02*
X051201Y030474D01*
X051901Y031174D01*
X051501Y031074D02*
X051301Y030874D01*
X050701Y030874D01*
X051051Y031082D02*
X051051Y031791D01*
X050868Y031974D01*
X050301Y031974D01*
X050201Y031874D01*
X050201Y031574D01*
X050201Y031574D01*
X050201Y031541D01*
X050084Y031424D01*
X050051Y031424D01*
X049301Y031424D01*
X049201Y031324D01*
X049201Y030874D01*
X049351Y030724D01*
X049801Y030724D01*
X050151Y031074D01*
X050178Y031074D01*
X050186Y031082D01*
X051051Y031082D01*
X051051Y031124D02*
X049201Y031124D01*
X049201Y031222D02*
X051051Y031222D01*
X051051Y031321D02*
X049201Y031321D01*
X049296Y031419D02*
X051051Y031419D01*
X051051Y031518D02*
X050178Y031518D01*
X050201Y031617D02*
X051051Y031617D01*
X051051Y031715D02*
X050201Y031715D01*
X050201Y031814D02*
X051028Y031814D01*
X050930Y031912D02*
X050239Y031912D01*
X050136Y032109D02*
X049709Y032109D01*
X049709Y032011D02*
X050038Y032011D01*
X050001Y031974D02*
X050001Y031624D01*
X049709Y031624D01*
X049709Y032382D01*
X050001Y032674D01*
X051201Y032674D01*
X051501Y032374D01*
X051501Y032074D01*
X051401Y031974D01*
X051151Y031974D01*
X050951Y032174D01*
X050201Y032174D01*
X050001Y031974D01*
X050001Y031912D02*
X049709Y031912D01*
X049709Y031814D02*
X050001Y031814D01*
X050001Y031715D02*
X049709Y031715D01*
X049709Y032208D02*
X051501Y032208D01*
X051501Y032306D02*
X049709Y032306D01*
X049732Y032405D02*
X051470Y032405D01*
X051371Y032503D02*
X049830Y032503D01*
X049929Y032602D02*
X051273Y032602D01*
X051501Y032109D02*
X051015Y032109D01*
X051114Y032011D02*
X051438Y032011D01*
X051501Y031574D02*
X051501Y031074D01*
X051901Y030574D02*
X051501Y030174D01*
X050102Y031025D02*
X049201Y031025D01*
X049201Y030927D02*
X050004Y030927D01*
X049905Y030828D02*
X049246Y030828D01*
X049345Y030730D02*
X049807Y030730D01*
X048801Y031974D02*
X048801Y032574D01*
X048201Y033174D01*
X037801Y033174D01*
X036101Y031474D01*
X035501Y031518D02*
X034701Y031518D01*
X034701Y031617D02*
X035501Y031617D01*
X035501Y031715D02*
X034701Y031715D01*
X034701Y031814D02*
X035501Y031814D01*
X035501Y031912D02*
X034701Y031912D01*
X034701Y032011D02*
X035538Y032011D01*
X035501Y031974D02*
X035501Y030174D01*
X035301Y029974D01*
X034901Y029974D01*
X034701Y030174D01*
X034701Y032924D01*
X034701Y032924D01*
X034701Y032957D01*
X034584Y033074D01*
X034484Y033174D01*
X034451Y033174D01*
X032801Y033174D01*
X032801Y034174D01*
X036701Y034174D01*
X037201Y033674D01*
X037201Y032874D01*
X037001Y032674D01*
X036201Y032674D01*
X035501Y031974D01*
X035636Y032109D02*
X034701Y032109D01*
X034701Y032208D02*
X035735Y032208D01*
X035833Y032306D02*
X034701Y032306D01*
X034701Y032405D02*
X035932Y032405D01*
X036030Y032503D02*
X034701Y032503D01*
X034701Y032602D02*
X036129Y032602D01*
X037027Y032701D02*
X034701Y032701D01*
X034701Y032799D02*
X037126Y032799D01*
X037201Y032898D02*
X034701Y032898D01*
X034661Y032996D02*
X037201Y032996D01*
X037201Y033095D02*
X034563Y033095D01*
X034451Y033174D02*
X034451Y033174D01*
X034401Y032974D02*
X034501Y032874D01*
X034501Y030174D01*
X033401Y029374D01*
X033401Y026374D01*
X033101Y026074D01*
X032101Y026074D01*
X031901Y026274D01*
X031901Y029974D01*
X031701Y030174D01*
X031701Y030774D01*
X031251Y031224D01*
X031214Y031224D01*
X031213Y031225D01*
X030789Y031225D01*
X030787Y031224D01*
X030701Y031224D01*
X030701Y031374D01*
X031201Y031374D01*
X031201Y031374D01*
X031213Y031374D01*
X031300Y031462D01*
X031300Y031473D01*
X031401Y031574D01*
X031401Y032574D01*
X031801Y032974D01*
X034401Y032974D01*
X034477Y032898D02*
X031725Y032898D01*
X031626Y032799D02*
X034501Y032799D01*
X034501Y032701D02*
X031527Y032701D01*
X031429Y032602D02*
X034501Y032602D01*
X034501Y032503D02*
X031401Y032503D01*
X031401Y032405D02*
X034501Y032405D01*
X034501Y032306D02*
X031401Y032306D01*
X031401Y032208D02*
X034501Y032208D01*
X034501Y032109D02*
X031401Y032109D01*
X031401Y032011D02*
X034501Y032011D01*
X034501Y031912D02*
X031401Y031912D01*
X031401Y031814D02*
X034501Y031814D01*
X034501Y031715D02*
X031401Y031715D01*
X031401Y031617D02*
X034501Y031617D01*
X034501Y031518D02*
X031345Y031518D01*
X031258Y031419D02*
X034501Y031419D01*
X034501Y031321D02*
X030701Y031321D01*
X030801Y031574D02*
X029201Y033174D01*
X029201Y033874D01*
X029501Y034174D01*
X032201Y034174D01*
X032201Y033174D01*
X031701Y033174D01*
X031201Y032674D01*
X031201Y031657D01*
X031118Y031574D01*
X030801Y031574D01*
X030758Y031617D02*
X031161Y031617D01*
X031201Y031715D02*
X030660Y031715D01*
X030561Y031814D02*
X031201Y031814D01*
X031201Y031912D02*
X030462Y031912D01*
X030364Y032011D02*
X031201Y032011D01*
X031201Y032109D02*
X030265Y032109D01*
X030167Y032208D02*
X031201Y032208D01*
X031201Y032306D02*
X030068Y032306D01*
X029970Y032405D02*
X031201Y032405D01*
X031201Y032503D02*
X029871Y032503D01*
X029773Y032602D02*
X031201Y032602D01*
X031227Y032701D02*
X029674Y032701D01*
X029576Y032799D02*
X031326Y032799D01*
X031425Y032898D02*
X029477Y032898D01*
X029379Y032996D02*
X031523Y032996D01*
X031622Y033095D02*
X029280Y033095D01*
X029201Y033193D02*
X032201Y033193D01*
X032201Y033292D02*
X029201Y033292D01*
X029201Y033390D02*
X032201Y033390D01*
X032201Y033489D02*
X029201Y033489D01*
X029201Y033587D02*
X032201Y033587D01*
X032201Y033686D02*
X029201Y033686D01*
X029201Y033784D02*
X032201Y033784D01*
X032201Y033883D02*
X029210Y033883D01*
X029309Y033982D02*
X032201Y033982D01*
X032201Y034080D02*
X029407Y034080D01*
X032801Y034080D02*
X036795Y034080D01*
X036893Y033982D02*
X032801Y033982D01*
X032801Y033883D02*
X036992Y033883D01*
X037090Y033784D02*
X032801Y033784D01*
X032801Y033686D02*
X037189Y033686D01*
X037201Y033587D02*
X032801Y033587D01*
X032801Y033489D02*
X037201Y033489D01*
X037201Y033390D02*
X032801Y033390D01*
X032801Y033292D02*
X037201Y033292D01*
X037201Y033193D02*
X032801Y033193D01*
X034701Y031419D02*
X035501Y031419D01*
X035501Y031321D02*
X034701Y031321D01*
X034701Y031222D02*
X035501Y031222D01*
X035501Y031124D02*
X034701Y031124D01*
X034701Y031025D02*
X035501Y031025D01*
X035501Y030927D02*
X034701Y030927D01*
X034701Y030828D02*
X035501Y030828D01*
X035501Y030730D02*
X034701Y030730D01*
X034701Y030631D02*
X035501Y030631D01*
X035501Y030533D02*
X034701Y030533D01*
X034701Y030434D02*
X035501Y030434D01*
X035501Y030335D02*
X034701Y030335D01*
X034701Y030237D02*
X035501Y030237D01*
X035465Y030138D02*
X034736Y030138D01*
X034835Y030040D02*
X035367Y030040D01*
X036101Y030474D02*
X037316Y029259D01*
X045760Y029259D01*
X045701Y028974D02*
X044101Y028974D01*
X043771Y028644D01*
X042571Y028644D01*
X040101Y026174D01*
X035301Y026174D01*
X035301Y026374D02*
X035301Y027474D01*
X035335Y026374D02*
X035301Y026374D01*
X034601Y026174D02*
X034201Y026174D01*
X033901Y025874D01*
X031701Y025874D01*
X031291Y025465D01*
X031291Y024179D01*
X031043Y024226D02*
X030749Y024226D01*
X030801Y024174D02*
X029001Y025974D01*
X029001Y026674D01*
X029901Y027574D01*
X029901Y028174D01*
X030401Y028574D01*
X030401Y028474D01*
X030601Y028474D01*
X030601Y028274D01*
X030401Y028274D01*
X030401Y028074D01*
X030801Y028074D01*
X030801Y028274D01*
X031201Y028274D01*
X031201Y028074D01*
X031601Y028074D01*
X031601Y026074D01*
X031101Y025574D01*
X031101Y025557D01*
X031091Y025547D01*
X031091Y025382D01*
X031091Y024732D01*
X031043Y024684D01*
X031043Y023774D01*
X030801Y023774D01*
X030801Y024174D01*
X030801Y024127D02*
X031043Y024127D01*
X031043Y024029D02*
X030801Y024029D01*
X030801Y023930D02*
X031043Y023930D01*
X031043Y023832D02*
X030801Y023832D01*
X030650Y024324D02*
X031043Y024324D01*
X031043Y024423D02*
X030552Y024423D01*
X030453Y024521D02*
X031043Y024521D01*
X031043Y024620D02*
X030355Y024620D01*
X030256Y024719D02*
X031078Y024719D01*
X031091Y024817D02*
X030158Y024817D01*
X030059Y024916D02*
X031091Y024916D01*
X031091Y025014D02*
X029961Y025014D01*
X029862Y025113D02*
X031091Y025113D01*
X031091Y025211D02*
X029763Y025211D01*
X029665Y025310D02*
X031091Y025310D01*
X031091Y025408D02*
X029566Y025408D01*
X029468Y025507D02*
X031091Y025507D01*
X031132Y025605D02*
X029369Y025605D01*
X029271Y025704D02*
X031231Y025704D01*
X031329Y025802D02*
X029172Y025802D01*
X029074Y025901D02*
X031428Y025901D01*
X031526Y026000D02*
X029001Y026000D01*
X029001Y026098D02*
X031601Y026098D01*
X031601Y026197D02*
X029001Y026197D01*
X029001Y026295D02*
X031601Y026295D01*
X031601Y026394D02*
X029001Y026394D01*
X029001Y026492D02*
X031601Y026492D01*
X031601Y026591D02*
X029001Y026591D01*
X029016Y026689D02*
X031601Y026689D01*
X031601Y026788D02*
X029115Y026788D01*
X029213Y026886D02*
X031601Y026886D01*
X031601Y026985D02*
X029312Y026985D01*
X029410Y027084D02*
X031601Y027084D01*
X031601Y027182D02*
X029509Y027182D01*
X029608Y027281D02*
X031601Y027281D01*
X031601Y027379D02*
X029706Y027379D01*
X029805Y027478D02*
X031601Y027478D01*
X031601Y027576D02*
X029901Y027576D01*
X029901Y027675D02*
X031601Y027675D01*
X031601Y027773D02*
X029901Y027773D01*
X029901Y027872D02*
X031601Y027872D01*
X031601Y027970D02*
X029901Y027970D01*
X029901Y028069D02*
X031601Y028069D01*
X031901Y028069D02*
X033401Y028069D01*
X033401Y028168D02*
X031901Y028168D01*
X031901Y028266D02*
X033401Y028266D01*
X033401Y028365D02*
X031901Y028365D01*
X031901Y028463D02*
X033401Y028463D01*
X033401Y028562D02*
X031901Y028562D01*
X031901Y028660D02*
X033401Y028660D01*
X033401Y028759D02*
X031901Y028759D01*
X031901Y028857D02*
X033401Y028857D01*
X033401Y028956D02*
X031901Y028956D01*
X031901Y029054D02*
X033401Y029054D01*
X033401Y029153D02*
X031901Y029153D01*
X031901Y029251D02*
X033401Y029251D01*
X033401Y029350D02*
X031901Y029350D01*
X031901Y029449D02*
X033504Y029449D01*
X033639Y029547D02*
X031901Y029547D01*
X031901Y029646D02*
X033775Y029646D01*
X033910Y029744D02*
X031901Y029744D01*
X031901Y029843D02*
X034046Y029843D01*
X034181Y029941D02*
X031901Y029941D01*
X031835Y030040D02*
X034317Y030040D01*
X034452Y030138D02*
X031736Y030138D01*
X031701Y030237D02*
X034501Y030237D01*
X034501Y030335D02*
X031701Y030335D01*
X031701Y030434D02*
X034501Y030434D01*
X034501Y030533D02*
X031701Y030533D01*
X031701Y030631D02*
X034501Y030631D01*
X034501Y030730D02*
X031701Y030730D01*
X031646Y030828D02*
X034501Y030828D01*
X034501Y030927D02*
X031548Y030927D01*
X031449Y031025D02*
X034501Y031025D01*
X034501Y031124D02*
X031351Y031124D01*
X031252Y031222D02*
X034501Y031222D01*
X037101Y031474D02*
X038601Y032974D01*
X048101Y032974D01*
X048501Y032574D01*
X048501Y032074D01*
X048516Y032059D01*
X048516Y032015D01*
X048801Y031974D02*
X048831Y032004D01*
X048831Y032015D01*
X046693Y032011D02*
X046301Y032011D01*
X046301Y032057D02*
X046201Y032157D01*
X046201Y032174D01*
X038701Y032174D01*
X038701Y032574D01*
X038801Y032674D01*
X046401Y032674D01*
X046693Y032382D01*
X046693Y031574D01*
X046484Y031574D01*
X046301Y031757D01*
X046301Y032057D01*
X046248Y032109D02*
X046693Y032109D01*
X046693Y032208D02*
X038701Y032208D01*
X038701Y032306D02*
X046693Y032306D01*
X046670Y032405D02*
X038701Y032405D01*
X038701Y032503D02*
X046571Y032503D01*
X046473Y032602D02*
X038729Y032602D01*
X039101Y031739D02*
X039101Y030874D01*
X039801Y030174D01*
X042201Y030174D01*
X042801Y030774D01*
X043601Y030774D01*
X044201Y030774D01*
X044401Y030574D01*
X044401Y030174D01*
X044801Y030474D02*
X044601Y030674D01*
X044601Y030974D01*
X044290Y031285D01*
X044190Y031285D01*
X043612Y031285D01*
X043612Y031324D01*
X043612Y031285D02*
X043601Y031274D01*
X043001Y031274D01*
X042101Y030374D01*
X040501Y030374D01*
X039901Y030974D01*
X039901Y031739D01*
X040601Y031715D02*
X046101Y031715D01*
X046101Y031674D02*
X046701Y031074D01*
X046701Y030074D01*
X046451Y029824D01*
X045401Y029824D01*
X045401Y029974D01*
X046201Y029974D01*
X046301Y030074D01*
X046301Y030355D01*
X046304Y030358D01*
X046304Y030679D01*
X046304Y030994D01*
X046216Y031082D01*
X045315Y031082D01*
X045314Y031083D01*
X045210Y031187D01*
X045074Y031244D01*
X044927Y031244D01*
X044791Y031187D01*
X044739Y031135D01*
X044401Y031474D01*
X044384Y031474D01*
X044373Y031485D01*
X044207Y031485D01*
X044195Y031485D01*
X044195Y031504D01*
X044107Y031592D01*
X043117Y031592D01*
X043099Y031574D01*
X043001Y031574D01*
X042101Y030674D01*
X040601Y030674D01*
X040601Y031974D01*
X046101Y031974D01*
X046101Y031674D01*
X046158Y031617D02*
X040601Y031617D01*
X040601Y031518D02*
X042945Y031518D01*
X042846Y031419D02*
X040601Y031419D01*
X040601Y031321D02*
X042748Y031321D01*
X042649Y031222D02*
X040601Y031222D01*
X040601Y031124D02*
X042551Y031124D01*
X042452Y031025D02*
X040601Y031025D01*
X040601Y030927D02*
X042354Y030927D01*
X042255Y030828D02*
X040601Y030828D01*
X040601Y030730D02*
X042157Y030730D01*
X043601Y030774D02*
X043612Y030785D01*
X043612Y030824D01*
X044181Y031518D02*
X046257Y031518D01*
X046355Y031419D02*
X044455Y031419D01*
X044554Y031321D02*
X046454Y031321D01*
X046552Y031222D02*
X045126Y031222D01*
X045274Y031124D02*
X046651Y031124D01*
X046701Y031025D02*
X046272Y031025D01*
X046304Y030927D02*
X046701Y030927D01*
X046701Y030828D02*
X046304Y030828D01*
X046304Y030730D02*
X046701Y030730D01*
X046701Y030631D02*
X046304Y030631D01*
X046304Y030533D02*
X046701Y030533D01*
X046701Y030434D02*
X046304Y030434D01*
X046301Y030335D02*
X046701Y030335D01*
X046701Y030237D02*
X046301Y030237D01*
X046301Y030138D02*
X046701Y030138D01*
X046667Y030040D02*
X046267Y030040D01*
X046470Y029843D02*
X045401Y029843D01*
X045401Y029941D02*
X046568Y029941D01*
X045760Y029889D02*
X045716Y029889D01*
X045701Y029874D01*
X045001Y029874D01*
X044901Y029974D01*
X044901Y030074D01*
X045001Y030174D01*
X045701Y030174D01*
X045731Y030204D01*
X045760Y030204D01*
X045701Y030474D02*
X044801Y030474D01*
X045001Y030874D02*
X045800Y030874D01*
X045760Y030834D01*
X045800Y030874D02*
X045801Y030874D01*
X045760Y030519D02*
X045746Y030519D01*
X045701Y030474D01*
X044875Y031222D02*
X044652Y031222D01*
X046101Y031814D02*
X040601Y031814D01*
X040601Y031912D02*
X046101Y031912D01*
X046301Y031912D02*
X046693Y031912D01*
X046693Y031814D02*
X046301Y031814D01*
X046342Y031715D02*
X046693Y031715D01*
X046693Y031617D02*
X046441Y031617D01*
X045760Y029574D02*
X038001Y029574D01*
X037101Y030474D01*
X033401Y027970D02*
X031901Y027970D01*
X031901Y027872D02*
X033401Y027872D01*
X033401Y027773D02*
X031901Y027773D01*
X031901Y027675D02*
X033401Y027675D01*
X033401Y027576D02*
X031901Y027576D01*
X031901Y027478D02*
X033401Y027478D01*
X033401Y027379D02*
X031901Y027379D01*
X031901Y027281D02*
X033401Y027281D01*
X033401Y027182D02*
X031901Y027182D01*
X031901Y027084D02*
X033401Y027084D01*
X033401Y026985D02*
X031901Y026985D01*
X031901Y026886D02*
X033401Y026886D01*
X033401Y026788D02*
X031901Y026788D01*
X031901Y026689D02*
X033401Y026689D01*
X033401Y026591D02*
X031901Y026591D01*
X031901Y026492D02*
X033401Y026492D01*
X033401Y026394D02*
X031901Y026394D01*
X031901Y026295D02*
X033322Y026295D01*
X033224Y026197D02*
X031978Y026197D01*
X032077Y026098D02*
X033125Y026098D01*
X032801Y025474D02*
X032101Y025474D01*
X031921Y025294D01*
X031921Y024179D01*
X032170Y024226D02*
X032453Y024226D01*
X032401Y024174D02*
X032401Y023774D01*
X032170Y023774D01*
X032170Y024684D01*
X032121Y024732D01*
X032121Y025194D01*
X032201Y025274D01*
X032701Y025274D01*
X032801Y025174D01*
X032801Y024574D01*
X032401Y024174D01*
X032401Y024127D02*
X032170Y024127D01*
X032170Y024029D02*
X032401Y024029D01*
X032401Y023930D02*
X032170Y023930D01*
X032170Y023832D02*
X032401Y023832D01*
X032551Y024324D02*
X032170Y024324D01*
X032170Y024423D02*
X032650Y024423D01*
X032748Y024521D02*
X032170Y024521D01*
X032170Y024620D02*
X032801Y024620D01*
X032801Y024719D02*
X032135Y024719D01*
X032121Y024817D02*
X032801Y024817D01*
X032801Y024916D02*
X032121Y024916D01*
X032121Y025014D02*
X032801Y025014D01*
X032801Y025113D02*
X032121Y025113D01*
X032138Y025211D02*
X032763Y025211D01*
X032801Y025474D02*
X034301Y023974D01*
X035301Y023974D02*
X035301Y025474D01*
X035335Y025474D01*
X035401Y025674D02*
X035801Y025674D01*
X036101Y025974D01*
X040201Y025974D01*
X042635Y028409D01*
X044501Y028409D01*
X044935Y028409D01*
X045201Y028674D01*
X045801Y028674D01*
X045760Y028633D01*
X045760Y028629D01*
X045760Y028944D02*
X045731Y028944D01*
X045701Y028974D01*
X045741Y028314D02*
X045760Y028314D01*
X045741Y028314D02*
X045701Y028274D01*
X045201Y028274D01*
X045101Y028174D01*
X045101Y027874D01*
X044966Y027739D01*
X044501Y027739D01*
X045401Y027773D02*
X046217Y027773D01*
X046201Y027757D02*
X046201Y027591D01*
X046201Y027574D01*
X046201Y027357D01*
X046018Y027174D01*
X045401Y027174D01*
X045401Y028066D01*
X046216Y028066D01*
X046304Y028153D01*
X046304Y028475D01*
X046304Y028677D01*
X046501Y028874D01*
X046801Y028874D01*
X046901Y028774D01*
X046901Y028274D01*
X046901Y028274D01*
X046884Y028274D01*
X046718Y028274D01*
X046201Y027757D01*
X046201Y027675D02*
X045401Y027675D01*
X045401Y027576D02*
X046201Y027576D01*
X046201Y027478D02*
X045401Y027478D01*
X045401Y027379D02*
X046201Y027379D01*
X046125Y027281D02*
X045401Y027281D01*
X045401Y027182D02*
X046026Y027182D01*
X046130Y027003D02*
X046158Y027003D01*
X046246Y027090D01*
X046246Y027119D01*
X046401Y027274D01*
X046401Y027674D01*
X046801Y028074D01*
X048201Y028074D01*
X048601Y027674D01*
X048601Y027607D01*
X048582Y027589D01*
X048582Y026774D01*
X047201Y026774D01*
X047201Y027574D01*
X047189Y027574D01*
X047189Y027589D01*
X047101Y027677D01*
X046780Y027677D01*
X046693Y027589D01*
X046693Y026766D01*
X046401Y026474D01*
X045001Y026474D01*
X044901Y026574D01*
X044901Y026874D01*
X045001Y026974D01*
X046101Y026974D01*
X046130Y027003D01*
X046112Y026985D02*
X046693Y026985D01*
X046693Y027084D02*
X046239Y027084D01*
X046309Y027182D02*
X046693Y027182D01*
X046693Y027281D02*
X046401Y027281D01*
X046401Y027379D02*
X046693Y027379D01*
X046693Y027478D02*
X046401Y027478D01*
X046401Y027576D02*
X046693Y027576D01*
X046779Y027675D02*
X046402Y027675D01*
X046500Y027773D02*
X048501Y027773D01*
X048600Y027675D02*
X047103Y027675D01*
X047189Y027576D02*
X048582Y027576D01*
X048582Y027478D02*
X047201Y027478D01*
X047201Y027379D02*
X048582Y027379D01*
X048582Y027281D02*
X047201Y027281D01*
X047201Y027182D02*
X048582Y027182D01*
X048582Y027084D02*
X047201Y027084D01*
X047201Y026985D02*
X048582Y026985D01*
X048582Y026886D02*
X047201Y026886D01*
X047201Y026788D02*
X048582Y026788D01*
X049394Y026788D02*
X051104Y026788D01*
X051202Y026689D02*
X049535Y026689D01*
X049451Y026774D02*
X049394Y026774D01*
X049394Y027589D01*
X049306Y027677D01*
X049301Y027677D01*
X049301Y028274D01*
X049501Y028474D01*
X049801Y028474D01*
X050001Y028274D01*
X050001Y027174D01*
X050101Y027074D01*
X050118Y027074D01*
X050218Y026974D01*
X050384Y026974D01*
X050918Y026974D01*
X051301Y026591D01*
X051301Y026074D01*
X051401Y025974D01*
X052001Y025974D01*
X052001Y025274D01*
X051046Y025274D01*
X051046Y025457D01*
X050958Y025545D01*
X050351Y025545D01*
X050351Y025874D01*
X049451Y026774D01*
X049394Y026886D02*
X051005Y026886D01*
X051190Y026985D02*
X052001Y026985D01*
X052001Y026991D02*
X052001Y026274D01*
X051501Y026274D01*
X051501Y026674D01*
X051001Y027174D01*
X050301Y027174D01*
X050301Y028066D01*
X051098Y028066D01*
X051106Y028074D01*
X051118Y028074D01*
X051301Y027891D01*
X051301Y027857D01*
X051301Y027691D01*
X052001Y026991D01*
X052001Y026886D02*
X051288Y026886D01*
X051387Y026788D02*
X052001Y026788D01*
X052001Y026689D02*
X051485Y026689D01*
X051501Y026591D02*
X052001Y026591D01*
X052001Y026492D02*
X051501Y026492D01*
X051501Y026394D02*
X052001Y026394D01*
X052001Y026295D02*
X051501Y026295D01*
X051301Y026295D02*
X049929Y026295D01*
X049831Y026394D02*
X051301Y026394D01*
X051301Y026492D02*
X049732Y026492D01*
X049634Y026591D02*
X051301Y026591D01*
X051301Y026197D02*
X050028Y026197D01*
X050127Y026098D02*
X051301Y026098D01*
X051375Y026000D02*
X050225Y026000D01*
X050324Y025901D02*
X052001Y025901D01*
X052001Y025802D02*
X050351Y025802D01*
X050351Y025704D02*
X052001Y025704D01*
X052001Y025605D02*
X050351Y025605D01*
X050996Y025507D02*
X052001Y025507D01*
X052001Y025408D02*
X051046Y025408D01*
X051046Y025310D02*
X052001Y025310D01*
X051908Y027084D02*
X051091Y027084D01*
X051514Y027478D02*
X050301Y027478D01*
X050301Y027576D02*
X051416Y027576D01*
X051317Y027675D02*
X050301Y027675D01*
X050301Y027773D02*
X051301Y027773D01*
X051301Y027872D02*
X050301Y027872D01*
X050301Y027970D02*
X051221Y027970D01*
X051123Y028069D02*
X051101Y028069D01*
X051613Y027379D02*
X050301Y027379D01*
X050301Y027281D02*
X051711Y027281D01*
X051810Y027182D02*
X050301Y027182D01*
X050207Y026985D02*
X049394Y026985D01*
X049394Y027084D02*
X050091Y027084D01*
X050001Y027182D02*
X049394Y027182D01*
X049394Y027281D02*
X050001Y027281D01*
X050001Y027379D02*
X049394Y027379D01*
X049394Y027478D02*
X050001Y027478D01*
X050001Y027576D02*
X049394Y027576D01*
X049308Y027675D02*
X050001Y027675D01*
X050001Y027773D02*
X049301Y027773D01*
X049301Y027872D02*
X050001Y027872D01*
X050001Y027970D02*
X049301Y027970D01*
X049301Y028069D02*
X050001Y028069D01*
X050001Y028168D02*
X049301Y028168D01*
X049301Y028266D02*
X050001Y028266D01*
X049910Y028365D02*
X049392Y028365D01*
X049490Y028463D02*
X049811Y028463D01*
X048403Y027872D02*
X046599Y027872D01*
X046697Y027970D02*
X048304Y027970D01*
X048206Y028069D02*
X046796Y028069D01*
X046612Y028168D02*
X046304Y028168D01*
X046304Y028266D02*
X046710Y028266D01*
X046901Y028365D02*
X046304Y028365D01*
X046304Y028463D02*
X046901Y028463D01*
X046901Y028562D02*
X046304Y028562D01*
X046304Y028660D02*
X046901Y028660D01*
X046901Y028759D02*
X046386Y028759D01*
X046484Y028857D02*
X046817Y028857D01*
X046513Y028069D02*
X046219Y028069D01*
X046415Y027970D02*
X045401Y027970D01*
X045401Y027872D02*
X046316Y027872D01*
X046941Y027133D02*
X046941Y027114D01*
X046901Y027074D01*
X046901Y025774D01*
X046419Y026492D02*
X044982Y026492D01*
X044901Y026591D02*
X046518Y026591D01*
X046616Y026689D02*
X044901Y026689D01*
X044901Y026788D02*
X046693Y026788D01*
X046693Y026886D02*
X044913Y026886D01*
X048072Y022074D02*
X049930Y022074D01*
X049930Y021424D01*
X048072Y021424D01*
X048072Y022074D01*
X048072Y022058D02*
X049930Y022058D01*
X049930Y021959D02*
X048072Y021959D01*
X048072Y021861D02*
X049930Y021861D01*
X049930Y021762D02*
X048072Y021762D01*
X048072Y021664D02*
X049930Y021664D01*
X049930Y021565D02*
X048072Y021565D01*
X048072Y021467D02*
X049930Y021467D01*
X055701Y027774D02*
X056801Y026674D01*
X070901Y026674D01*
X072701Y028474D01*
X072701Y027774D01*
X070701Y025774D01*
X070701Y024274D01*
X070601Y024174D01*
X070910Y024127D02*
X071004Y024127D01*
X071004Y024029D02*
X070910Y024029D01*
X070910Y023930D02*
X071004Y023930D01*
X071004Y023832D02*
X070910Y023832D01*
X070910Y023733D02*
X071004Y023733D01*
X071004Y023635D02*
X070910Y023635D01*
X070910Y023536D02*
X071004Y023536D01*
X071004Y023437D02*
X070910Y023437D01*
X070910Y023339D02*
X071004Y023339D01*
X071004Y023324D02*
X071091Y023236D01*
X071609Y023236D01*
X071697Y023324D01*
X071697Y025023D01*
X071609Y025111D01*
X071091Y025111D01*
X071004Y025023D01*
X071004Y023324D01*
X070910Y023324D02*
X070910Y025023D01*
X070901Y025032D01*
X070901Y025691D01*
X072784Y027574D01*
X072901Y027691D01*
X072901Y027899D01*
X072939Y027899D01*
X073276Y028236D01*
X073276Y028712D01*
X072939Y029049D01*
X072901Y029049D01*
X072901Y029391D01*
X073144Y029634D01*
X073144Y029800D01*
X073144Y031019D01*
X073203Y031019D01*
X073291Y031107D01*
X073291Y032806D01*
X073203Y032894D01*
X072685Y032894D01*
X072597Y032806D01*
X072597Y031107D01*
X072685Y031019D01*
X072744Y031019D01*
X072744Y030243D01*
X072439Y030549D01*
X072401Y030549D01*
X072401Y030857D01*
X072357Y030901D01*
X072357Y031019D01*
X072416Y031019D01*
X072504Y031107D01*
X072504Y032806D01*
X072416Y032894D01*
X071898Y032894D01*
X071810Y032806D01*
X071810Y031107D01*
X071898Y031019D01*
X071957Y031019D01*
X071957Y030901D01*
X071957Y030735D01*
X072001Y030691D01*
X072001Y030549D01*
X071963Y030549D01*
X071626Y030212D01*
X071626Y029832D01*
X071569Y029888D01*
X071569Y031019D01*
X071628Y031019D01*
X071716Y031107D01*
X071716Y032806D01*
X071628Y032894D01*
X071110Y032894D01*
X071023Y032806D01*
X071023Y031107D01*
X071110Y031019D01*
X071169Y031019D01*
X071169Y029888D01*
X071169Y029722D01*
X071501Y029391D01*
X071501Y029049D01*
X071463Y029049D01*
X071201Y028787D01*
X070939Y029049D01*
X070901Y029049D01*
X070901Y029557D01*
X070784Y029674D01*
X070782Y029675D01*
X070782Y031019D01*
X070841Y031019D01*
X070929Y031107D01*
X070929Y032806D01*
X070841Y032894D01*
X070323Y032894D01*
X070235Y032806D01*
X070235Y031107D01*
X070323Y031019D01*
X070382Y031019D01*
X070382Y029675D01*
X070382Y029510D01*
X070501Y029391D01*
X070501Y029049D01*
X070463Y029049D01*
X070201Y028787D01*
X069939Y029049D01*
X069901Y029049D01*
X069901Y029391D01*
X069995Y029485D01*
X069995Y029651D01*
X069995Y031019D01*
X070054Y031019D01*
X070141Y031107D01*
X070141Y032806D01*
X070054Y032894D01*
X069536Y032894D01*
X069448Y032806D01*
X069448Y031107D01*
X069536Y031019D01*
X069595Y031019D01*
X069595Y029651D01*
X069501Y029557D01*
X069501Y029049D01*
X069463Y029049D01*
X069201Y028787D01*
X068939Y029049D01*
X068901Y029049D01*
X068901Y029391D01*
X069207Y029697D01*
X069207Y029863D01*
X069207Y031019D01*
X069266Y031019D01*
X069354Y031107D01*
X069354Y032806D01*
X069266Y032894D01*
X068748Y032894D01*
X068660Y032806D01*
X068660Y031107D01*
X068748Y031019D01*
X068807Y031019D01*
X068807Y029863D01*
X068618Y029674D01*
X068501Y029557D01*
X068501Y029049D01*
X068463Y029049D01*
X068201Y028787D01*
X067939Y029049D01*
X067901Y029049D01*
X067901Y029391D01*
X068420Y029910D01*
X068420Y030076D01*
X068420Y031019D01*
X068479Y031019D01*
X068567Y031107D01*
X068567Y032806D01*
X068479Y032894D01*
X067961Y032894D01*
X067873Y032806D01*
X067873Y031107D01*
X067961Y031019D01*
X068020Y031019D01*
X068020Y030076D01*
X067618Y029674D01*
X067501Y029557D01*
X067501Y029049D01*
X067463Y029049D01*
X067201Y028787D01*
X066939Y029049D01*
X066901Y029049D01*
X066901Y029391D01*
X067632Y030123D01*
X067632Y030288D01*
X067632Y031019D01*
X067691Y031019D01*
X067779Y031107D01*
X067779Y032806D01*
X067691Y032894D01*
X067173Y032894D01*
X067086Y032806D01*
X067086Y031107D01*
X067173Y031019D01*
X067232Y031019D01*
X067232Y030288D01*
X066618Y029674D01*
X066501Y029557D01*
X066501Y029049D01*
X066463Y029049D01*
X066201Y028787D01*
X065939Y029049D01*
X065901Y029049D01*
X065901Y029391D01*
X066845Y030335D01*
X066845Y030501D01*
X066845Y031019D01*
X066904Y031019D01*
X066992Y031107D01*
X066992Y032806D01*
X066904Y032894D01*
X066386Y032894D01*
X066298Y032806D01*
X066298Y031107D01*
X066386Y031019D01*
X066445Y031019D01*
X066445Y030501D01*
X065618Y029674D01*
X065501Y029557D01*
X065501Y029049D01*
X065463Y029049D01*
X065294Y028880D01*
X062401Y031774D01*
X062401Y034674D01*
X062755Y034674D01*
X062755Y034073D01*
X063150Y034073D01*
X063150Y033973D01*
X062755Y033973D01*
X062755Y033272D01*
X062843Y033184D01*
X063150Y033184D01*
X063150Y033973D01*
X063250Y033973D01*
X063250Y033184D01*
X063558Y033184D01*
X063646Y033272D01*
X063646Y033973D01*
X063250Y033973D01*
X063250Y034073D01*
X063646Y034073D01*
X063646Y034674D01*
X075944Y034674D01*
X075944Y034073D01*
X076339Y034073D01*
X076339Y033973D01*
X075944Y033973D01*
X075944Y033272D01*
X076032Y033184D01*
X076339Y033184D01*
X076339Y033973D01*
X076439Y033973D01*
X076439Y033184D01*
X076747Y033184D01*
X076835Y033272D01*
X076835Y033973D01*
X076439Y033973D01*
X076439Y034073D01*
X076835Y034073D01*
X076835Y034674D01*
X080763Y034674D01*
X080763Y021424D01*
X080752Y021424D01*
X080752Y022057D01*
X080357Y022057D01*
X080357Y022157D01*
X080752Y022157D01*
X080752Y022858D01*
X080664Y022946D01*
X080357Y022946D01*
X080357Y022157D01*
X080257Y022157D01*
X080257Y022946D01*
X079949Y022946D01*
X079862Y022858D01*
X079862Y022157D01*
X080257Y022157D01*
X080257Y022057D01*
X079862Y022057D01*
X079862Y021424D01*
X077074Y021424D01*
X077114Y021464D01*
X077171Y021600D01*
X077171Y021747D01*
X077114Y021883D01*
X077010Y021987D01*
X077001Y021991D01*
X077001Y023236D01*
X077121Y023236D01*
X077209Y023324D01*
X077209Y025023D01*
X077121Y025111D01*
X076603Y025111D01*
X076515Y025023D01*
X076515Y023324D01*
X076601Y023239D01*
X076601Y021991D01*
X076591Y021987D01*
X076487Y021883D01*
X076431Y021747D01*
X076431Y021600D01*
X076487Y021464D01*
X076528Y021424D01*
X067563Y021424D01*
X067563Y022057D01*
X067168Y022057D01*
X067168Y022157D01*
X067563Y022157D01*
X067563Y022774D01*
X067601Y022774D01*
X067709Y022882D01*
X067718Y022874D01*
X070084Y022874D01*
X070201Y022991D01*
X070401Y023191D01*
X070401Y023236D01*
X070822Y023236D01*
X070910Y023324D01*
X070826Y023240D02*
X071087Y023240D01*
X071613Y023240D02*
X071875Y023240D01*
X071879Y023236D02*
X072397Y023236D01*
X072485Y023324D01*
X072485Y025023D01*
X072397Y025111D01*
X072301Y025111D01*
X072301Y025956D01*
X072310Y025960D01*
X072414Y026064D01*
X072471Y026200D01*
X072471Y026347D01*
X072414Y026483D01*
X072310Y026587D01*
X072174Y026644D01*
X072027Y026644D01*
X071891Y026587D01*
X071787Y026483D01*
X071731Y026347D01*
X071731Y026200D01*
X071787Y026064D01*
X071891Y025960D01*
X071901Y025956D01*
X071901Y025111D01*
X071879Y025111D01*
X071791Y025023D01*
X071791Y023324D01*
X071879Y023236D01*
X071791Y023339D02*
X071697Y023339D01*
X071697Y023437D02*
X071791Y023437D01*
X071791Y023536D02*
X071697Y023536D01*
X071697Y023635D02*
X071791Y023635D01*
X071791Y023733D02*
X071697Y023733D01*
X071697Y023832D02*
X071791Y023832D01*
X071791Y023930D02*
X071697Y023930D01*
X071697Y024029D02*
X071791Y024029D01*
X071791Y024127D02*
X071697Y024127D01*
X071697Y024226D02*
X071791Y024226D01*
X071791Y024324D02*
X071697Y024324D01*
X071697Y024423D02*
X071791Y024423D01*
X071791Y024521D02*
X071697Y024521D01*
X071697Y024620D02*
X071791Y024620D01*
X071791Y024719D02*
X071697Y024719D01*
X071697Y024817D02*
X071791Y024817D01*
X071791Y024916D02*
X071697Y024916D01*
X071697Y025014D02*
X071791Y025014D01*
X071901Y025113D02*
X070901Y025113D01*
X070901Y025211D02*
X071901Y025211D01*
X071901Y025310D02*
X070901Y025310D01*
X070901Y025408D02*
X071901Y025408D01*
X071901Y025507D02*
X070901Y025507D01*
X070901Y025605D02*
X071901Y025605D01*
X071901Y025704D02*
X070914Y025704D01*
X071012Y025802D02*
X071901Y025802D01*
X071901Y025901D02*
X071111Y025901D01*
X071209Y026000D02*
X071852Y026000D01*
X071773Y026098D02*
X071308Y026098D01*
X071406Y026197D02*
X071732Y026197D01*
X071731Y026295D02*
X071505Y026295D01*
X071603Y026394D02*
X071750Y026394D01*
X071796Y026492D02*
X071702Y026492D01*
X071801Y026591D02*
X071899Y026591D01*
X071899Y026689D02*
X080763Y026689D01*
X080763Y026591D02*
X072302Y026591D01*
X072406Y026492D02*
X080763Y026492D01*
X080763Y026394D02*
X072452Y026394D01*
X072471Y026295D02*
X080763Y026295D01*
X080763Y026197D02*
X073088Y026197D01*
X073110Y026187D02*
X072974Y026244D01*
X072827Y026244D01*
X072691Y026187D01*
X072587Y026083D01*
X072531Y025947D01*
X072531Y025800D01*
X072587Y025664D01*
X072691Y025560D01*
X072701Y025556D01*
X072701Y025111D01*
X072666Y025111D01*
X072578Y025023D01*
X072578Y023324D01*
X072666Y023236D01*
X073184Y023236D01*
X073272Y023324D01*
X073272Y025023D01*
X073184Y025111D01*
X073101Y025111D01*
X073101Y025556D01*
X073110Y025560D01*
X073214Y025664D01*
X073271Y025800D01*
X073271Y025947D01*
X073214Y026083D01*
X073110Y026187D01*
X073200Y026098D02*
X080763Y026098D01*
X080763Y026000D02*
X073249Y026000D01*
X073271Y025901D02*
X080763Y025901D01*
X080763Y025802D02*
X073874Y025802D01*
X073910Y025787D02*
X073774Y025844D01*
X073627Y025844D01*
X073491Y025787D01*
X073387Y025683D01*
X073331Y025547D01*
X073331Y025400D01*
X073387Y025264D01*
X073491Y025160D01*
X073501Y025156D01*
X073501Y025111D01*
X073454Y025111D01*
X073366Y025023D01*
X073366Y023324D01*
X073454Y023236D01*
X073972Y023236D01*
X074059Y023324D01*
X074059Y025023D01*
X073972Y025111D01*
X073901Y025111D01*
X073901Y025156D01*
X073910Y025160D01*
X074014Y025264D01*
X074071Y025400D01*
X074071Y025547D01*
X074014Y025683D01*
X073910Y025787D01*
X073994Y025704D02*
X080763Y025704D01*
X080763Y025605D02*
X074047Y025605D01*
X074071Y025507D02*
X080763Y025507D01*
X080763Y025408D02*
X074071Y025408D01*
X074033Y025310D02*
X080763Y025310D01*
X080763Y025211D02*
X073961Y025211D01*
X073901Y025113D02*
X080763Y025113D01*
X080763Y025014D02*
X079571Y025014D01*
X079571Y025023D02*
X079483Y025111D01*
X079273Y025111D01*
X079273Y024223D01*
X079176Y024223D01*
X079176Y025111D01*
X078965Y025111D01*
X078878Y025023D01*
X078878Y024222D01*
X079176Y024222D01*
X079176Y024125D01*
X079273Y024125D01*
X079273Y023236D01*
X079483Y023236D01*
X079571Y023324D01*
X079571Y024125D01*
X079273Y024125D01*
X079273Y024222D01*
X079571Y024222D01*
X079571Y025023D01*
X079571Y024916D02*
X080763Y024916D01*
X080763Y024817D02*
X079571Y024817D01*
X079571Y024719D02*
X080763Y024719D01*
X080763Y024620D02*
X079571Y024620D01*
X079571Y024521D02*
X080763Y024521D01*
X080763Y024423D02*
X079571Y024423D01*
X079571Y024324D02*
X080763Y024324D01*
X080763Y024226D02*
X079571Y024226D01*
X079571Y024029D02*
X080763Y024029D01*
X080763Y024127D02*
X079273Y024127D01*
X079176Y024125D02*
X079176Y023236D01*
X078965Y023236D01*
X078878Y023324D01*
X078878Y024125D01*
X079176Y024125D01*
X079176Y024127D02*
X078486Y024127D01*
X078486Y024125D02*
X078486Y024222D01*
X078784Y024222D01*
X078784Y025023D01*
X078696Y025111D01*
X078485Y025111D01*
X078485Y024223D01*
X078389Y024223D01*
X078389Y025111D01*
X078178Y025111D01*
X078090Y025023D01*
X078090Y024222D01*
X078388Y024222D01*
X078388Y024125D01*
X078090Y024125D01*
X078090Y023324D01*
X078178Y023236D01*
X078389Y023236D01*
X078389Y024125D01*
X078485Y024125D01*
X078485Y023236D01*
X078696Y023236D01*
X078784Y023324D01*
X078784Y024125D01*
X078486Y024125D01*
X078485Y024029D02*
X078389Y024029D01*
X078388Y024127D02*
X077698Y024127D01*
X077698Y024125D02*
X077698Y024222D01*
X077996Y024222D01*
X077996Y025023D01*
X077909Y025111D01*
X077698Y025111D01*
X077698Y024223D01*
X077601Y024223D01*
X077601Y025111D01*
X077391Y025111D01*
X077303Y025023D01*
X077303Y024222D01*
X077601Y024222D01*
X077601Y024125D01*
X077698Y024125D01*
X077698Y023236D01*
X077909Y023236D01*
X077996Y023324D01*
X077996Y024125D01*
X077698Y024125D01*
X077698Y024029D02*
X077601Y024029D01*
X077601Y024125D02*
X077601Y023236D01*
X077391Y023236D01*
X077303Y023324D01*
X077303Y024125D01*
X077601Y024125D01*
X077601Y024127D02*
X077209Y024127D01*
X077209Y024029D02*
X077303Y024029D01*
X077303Y023930D02*
X077209Y023930D01*
X077209Y023832D02*
X077303Y023832D01*
X077303Y023733D02*
X077209Y023733D01*
X077209Y023635D02*
X077303Y023635D01*
X077303Y023536D02*
X077209Y023536D01*
X077209Y023437D02*
X077303Y023437D01*
X077303Y023339D02*
X077209Y023339D01*
X077125Y023240D02*
X077387Y023240D01*
X077601Y023240D02*
X077698Y023240D01*
X077698Y023339D02*
X077601Y023339D01*
X077601Y023437D02*
X077698Y023437D01*
X077698Y023536D02*
X077601Y023536D01*
X077601Y023635D02*
X077698Y023635D01*
X077698Y023733D02*
X077601Y023733D01*
X077601Y023832D02*
X077698Y023832D01*
X077698Y023930D02*
X077601Y023930D01*
X077601Y024226D02*
X077698Y024226D01*
X077698Y024324D02*
X077601Y024324D01*
X077601Y024423D02*
X077698Y024423D01*
X077698Y024521D02*
X077601Y024521D01*
X077601Y024620D02*
X077698Y024620D01*
X077698Y024719D02*
X077601Y024719D01*
X077601Y024817D02*
X077698Y024817D01*
X077698Y024916D02*
X077601Y024916D01*
X077601Y025014D02*
X077698Y025014D01*
X077996Y025014D02*
X078090Y025014D01*
X078090Y024916D02*
X077996Y024916D01*
X077996Y024817D02*
X078090Y024817D01*
X078090Y024719D02*
X077996Y024719D01*
X077996Y024620D02*
X078090Y024620D01*
X078090Y024521D02*
X077996Y024521D01*
X077996Y024423D02*
X078090Y024423D01*
X078090Y024324D02*
X077996Y024324D01*
X077996Y024226D02*
X078090Y024226D01*
X078090Y024029D02*
X077996Y024029D01*
X077996Y023930D02*
X078090Y023930D01*
X078090Y023832D02*
X077996Y023832D01*
X077996Y023733D02*
X078090Y023733D01*
X078090Y023635D02*
X077996Y023635D01*
X077996Y023536D02*
X078090Y023536D01*
X078090Y023437D02*
X077996Y023437D01*
X077996Y023339D02*
X078090Y023339D01*
X078174Y023240D02*
X077912Y023240D01*
X078389Y023240D02*
X078485Y023240D01*
X078485Y023339D02*
X078389Y023339D01*
X078389Y023437D02*
X078485Y023437D01*
X078485Y023536D02*
X078389Y023536D01*
X078389Y023635D02*
X078485Y023635D01*
X078485Y023733D02*
X078389Y023733D01*
X078389Y023832D02*
X078485Y023832D01*
X078485Y023930D02*
X078389Y023930D01*
X078389Y024226D02*
X078485Y024226D01*
X078485Y024324D02*
X078389Y024324D01*
X078389Y024423D02*
X078485Y024423D01*
X078485Y024521D02*
X078389Y024521D01*
X078389Y024620D02*
X078485Y024620D01*
X078485Y024719D02*
X078389Y024719D01*
X078389Y024817D02*
X078485Y024817D01*
X078485Y024916D02*
X078389Y024916D01*
X078389Y025014D02*
X078485Y025014D01*
X078784Y025014D02*
X078878Y025014D01*
X078878Y024916D02*
X078784Y024916D01*
X078784Y024817D02*
X078878Y024817D01*
X078878Y024719D02*
X078784Y024719D01*
X078784Y024620D02*
X078878Y024620D01*
X078878Y024521D02*
X078784Y024521D01*
X078784Y024423D02*
X078878Y024423D01*
X078878Y024324D02*
X078784Y024324D01*
X078784Y024226D02*
X078878Y024226D01*
X078878Y024029D02*
X078784Y024029D01*
X078784Y023930D02*
X078878Y023930D01*
X078878Y023832D02*
X078784Y023832D01*
X078784Y023733D02*
X078878Y023733D01*
X078878Y023635D02*
X078784Y023635D01*
X078784Y023536D02*
X078878Y023536D01*
X078878Y023437D02*
X078784Y023437D01*
X078784Y023339D02*
X078878Y023339D01*
X078961Y023240D02*
X078700Y023240D01*
X079176Y023240D02*
X079273Y023240D01*
X079273Y023339D02*
X079176Y023339D01*
X079176Y023437D02*
X079273Y023437D01*
X079273Y023536D02*
X079176Y023536D01*
X079176Y023635D02*
X079273Y023635D01*
X079273Y023733D02*
X079176Y023733D01*
X079176Y023832D02*
X079273Y023832D01*
X079273Y023930D02*
X079176Y023930D01*
X079176Y024029D02*
X079273Y024029D01*
X079273Y024226D02*
X079176Y024226D01*
X079176Y024324D02*
X079273Y024324D01*
X079273Y024423D02*
X079176Y024423D01*
X079176Y024521D02*
X079273Y024521D01*
X079273Y024620D02*
X079176Y024620D01*
X079176Y024719D02*
X079273Y024719D01*
X079273Y024817D02*
X079176Y024817D01*
X079176Y024916D02*
X079273Y024916D01*
X079273Y025014D02*
X079176Y025014D01*
X079571Y023930D02*
X080763Y023930D01*
X080763Y023832D02*
X079571Y023832D01*
X079571Y023733D02*
X080763Y023733D01*
X080763Y023635D02*
X079571Y023635D01*
X079571Y023536D02*
X080763Y023536D01*
X080763Y023437D02*
X079571Y023437D01*
X079571Y023339D02*
X080763Y023339D01*
X080763Y023240D02*
X079487Y023240D01*
X079862Y022846D02*
X077001Y022846D01*
X077001Y022748D02*
X079862Y022748D01*
X079862Y022649D02*
X077001Y022649D01*
X077001Y022551D02*
X079862Y022551D01*
X079862Y022452D02*
X077001Y022452D01*
X077001Y022353D02*
X079862Y022353D01*
X079862Y022255D02*
X077001Y022255D01*
X077001Y022156D02*
X080257Y022156D01*
X080257Y022058D02*
X077001Y022058D01*
X077039Y021959D02*
X079862Y021959D01*
X079862Y021861D02*
X077124Y021861D01*
X077165Y021762D02*
X079862Y021762D01*
X079862Y021664D02*
X077171Y021664D01*
X077156Y021565D02*
X079862Y021565D01*
X079862Y021467D02*
X077115Y021467D01*
X076801Y021674D02*
X076801Y024174D01*
X076515Y024127D02*
X076422Y024127D01*
X076422Y024029D02*
X076515Y024029D01*
X076515Y023930D02*
X076422Y023930D01*
X076422Y023832D02*
X076515Y023832D01*
X076515Y023733D02*
X076422Y023733D01*
X076422Y023635D02*
X076515Y023635D01*
X076515Y023536D02*
X076422Y023536D01*
X076422Y023437D02*
X076515Y023437D01*
X076515Y023339D02*
X076422Y023339D01*
X076422Y023324D02*
X076422Y025023D01*
X076334Y025111D01*
X075816Y025111D01*
X075728Y025023D01*
X075728Y023324D01*
X075801Y023251D01*
X075801Y022391D01*
X075791Y022387D01*
X075687Y022283D01*
X075631Y022147D01*
X075631Y022000D01*
X075687Y021864D01*
X075791Y021760D01*
X075927Y021704D01*
X076074Y021704D01*
X076210Y021760D01*
X076314Y021864D01*
X076371Y022000D01*
X076371Y022147D01*
X076314Y022283D01*
X076210Y022387D01*
X076201Y022391D01*
X076201Y023236D01*
X076334Y023236D01*
X076422Y023324D01*
X076338Y023240D02*
X076599Y023240D01*
X076601Y023142D02*
X076201Y023142D01*
X076201Y023043D02*
X076601Y023043D01*
X076601Y022945D02*
X076201Y022945D01*
X076201Y022846D02*
X076601Y022846D01*
X076601Y022748D02*
X076201Y022748D01*
X076201Y022649D02*
X076601Y022649D01*
X076601Y022551D02*
X076201Y022551D01*
X076201Y022452D02*
X076601Y022452D01*
X076601Y022353D02*
X076244Y022353D01*
X076326Y022255D02*
X076601Y022255D01*
X076601Y022156D02*
X076367Y022156D01*
X076371Y022058D02*
X076601Y022058D01*
X076563Y021959D02*
X076354Y021959D01*
X076311Y021861D02*
X076478Y021861D01*
X076437Y021762D02*
X076212Y021762D01*
X076431Y021664D02*
X067563Y021664D01*
X067563Y021762D02*
X075789Y021762D01*
X075691Y021861D02*
X067563Y021861D01*
X067563Y021959D02*
X075648Y021959D01*
X075631Y022058D02*
X067168Y022058D01*
X067168Y022156D02*
X075000Y022156D01*
X074991Y022160D02*
X075127Y022104D01*
X075274Y022104D01*
X075410Y022160D01*
X075514Y022264D01*
X075571Y022400D01*
X075571Y022547D01*
X075514Y022683D01*
X075410Y022787D01*
X075401Y022791D01*
X075401Y023236D01*
X075546Y023236D01*
X075634Y023324D01*
X075634Y025023D01*
X075546Y025111D01*
X075028Y025111D01*
X074941Y025023D01*
X074941Y023324D01*
X075001Y023264D01*
X075001Y022791D01*
X074991Y022787D01*
X074887Y022683D01*
X074831Y022547D01*
X074831Y022400D01*
X074887Y022264D01*
X074991Y022160D01*
X074896Y022255D02*
X067563Y022255D01*
X067563Y022353D02*
X074850Y022353D01*
X074831Y022452D02*
X067563Y022452D01*
X067563Y022551D02*
X074214Y022551D01*
X074191Y022560D02*
X074327Y022504D01*
X074474Y022504D01*
X074610Y022560D01*
X074714Y022664D01*
X074771Y022800D01*
X074771Y022947D01*
X074714Y023083D01*
X074610Y023187D01*
X074601Y023191D01*
X074601Y023236D01*
X074759Y023236D01*
X074847Y023324D01*
X074847Y025023D01*
X074759Y025111D01*
X074241Y025111D01*
X074153Y025023D01*
X074153Y023324D01*
X074201Y023277D01*
X074201Y023191D01*
X074191Y023187D01*
X074087Y023083D01*
X074031Y022947D01*
X074031Y022800D01*
X074087Y022664D01*
X074191Y022560D01*
X074102Y022649D02*
X067563Y022649D01*
X067563Y022748D02*
X074053Y022748D01*
X074031Y022846D02*
X067673Y022846D01*
X067801Y023074D02*
X067401Y023474D01*
X067401Y025274D01*
X067901Y025774D01*
X070301Y025774D01*
X070501Y025574D01*
X070501Y025174D01*
X070438Y025111D01*
X070304Y025111D01*
X070216Y025023D01*
X070216Y024889D01*
X070201Y024874D01*
X070201Y023274D01*
X070001Y023074D01*
X067801Y023074D01*
X067733Y023142D02*
X070069Y023142D01*
X070035Y023236D02*
X070122Y023324D01*
X070122Y024125D01*
X069824Y024125D01*
X069824Y023236D01*
X070035Y023236D01*
X070038Y023240D02*
X070167Y023240D01*
X070201Y023339D02*
X070122Y023339D01*
X070122Y023437D02*
X070201Y023437D01*
X070201Y023536D02*
X070122Y023536D01*
X070122Y023635D02*
X070201Y023635D01*
X070201Y023733D02*
X070122Y023733D01*
X070122Y023832D02*
X070201Y023832D01*
X070201Y023930D02*
X070122Y023930D01*
X070122Y024029D02*
X070201Y024029D01*
X070201Y024127D02*
X069824Y024127D01*
X069824Y024125D02*
X069824Y024222D01*
X070122Y024222D01*
X070122Y025023D01*
X070035Y025111D01*
X069824Y025111D01*
X069824Y024223D01*
X069727Y024223D01*
X069727Y025111D01*
X069517Y025111D01*
X069429Y025023D01*
X069429Y024222D01*
X069727Y024222D01*
X069727Y024125D01*
X069824Y024125D01*
X069824Y024029D02*
X069727Y024029D01*
X069727Y024125D02*
X069727Y023236D01*
X069517Y023236D01*
X069429Y023324D01*
X069429Y024125D01*
X069727Y024125D01*
X069727Y024127D02*
X069037Y024127D01*
X069037Y024125D02*
X069037Y024222D01*
X069335Y024222D01*
X069335Y025023D01*
X069247Y025111D01*
X069037Y025111D01*
X069037Y024223D01*
X068940Y024223D01*
X068940Y025111D01*
X068729Y025111D01*
X068641Y025023D01*
X068641Y024222D01*
X068939Y024222D01*
X068939Y024125D01*
X068641Y024125D01*
X068641Y023324D01*
X068729Y023236D01*
X068940Y023236D01*
X068940Y024125D01*
X069037Y024125D01*
X069335Y024125D01*
X069335Y023324D01*
X069247Y023236D01*
X069037Y023236D01*
X069037Y024125D01*
X069037Y024029D02*
X068940Y024029D01*
X068939Y024127D02*
X068249Y024127D01*
X068249Y024125D02*
X068249Y024222D01*
X068249Y024223D02*
X068152Y024223D01*
X068152Y025111D01*
X067942Y025111D01*
X067854Y025023D01*
X067854Y024222D01*
X068152Y024222D01*
X068152Y024125D01*
X068249Y024125D01*
X068249Y023236D01*
X068460Y023236D01*
X068548Y023324D01*
X068548Y024125D01*
X068249Y024125D01*
X068249Y024029D02*
X068152Y024029D01*
X068152Y024125D02*
X068152Y023236D01*
X067942Y023236D01*
X067854Y023324D01*
X067854Y024125D01*
X068152Y024125D01*
X068152Y024127D02*
X067401Y024127D01*
X067401Y024029D02*
X067854Y024029D01*
X067854Y023930D02*
X067401Y023930D01*
X067401Y023832D02*
X067854Y023832D01*
X067854Y023733D02*
X067401Y023733D01*
X067401Y023635D02*
X067854Y023635D01*
X067854Y023536D02*
X067401Y023536D01*
X067437Y023437D02*
X067854Y023437D01*
X067854Y023339D02*
X067536Y023339D01*
X067634Y023240D02*
X067938Y023240D01*
X068152Y023240D02*
X068249Y023240D01*
X068249Y023339D02*
X068152Y023339D01*
X068152Y023437D02*
X068249Y023437D01*
X068249Y023536D02*
X068152Y023536D01*
X068152Y023635D02*
X068249Y023635D01*
X068249Y023733D02*
X068152Y023733D01*
X068152Y023832D02*
X068249Y023832D01*
X068249Y023930D02*
X068152Y023930D01*
X068152Y024226D02*
X068249Y024226D01*
X068249Y024223D02*
X068249Y025111D01*
X068460Y025111D01*
X068548Y025023D01*
X068548Y024222D01*
X068249Y024222D01*
X068249Y024324D02*
X068152Y024324D01*
X068152Y024423D02*
X068249Y024423D01*
X068249Y024521D02*
X068152Y024521D01*
X068152Y024620D02*
X068249Y024620D01*
X068249Y024719D02*
X068152Y024719D01*
X068152Y024817D02*
X068249Y024817D01*
X068249Y024916D02*
X068152Y024916D01*
X068152Y025014D02*
X068249Y025014D01*
X068548Y025014D02*
X068641Y025014D01*
X068641Y024916D02*
X068548Y024916D01*
X068548Y024817D02*
X068641Y024817D01*
X068641Y024719D02*
X068548Y024719D01*
X068548Y024620D02*
X068641Y024620D01*
X068641Y024521D02*
X068548Y024521D01*
X068548Y024423D02*
X068641Y024423D01*
X068641Y024324D02*
X068548Y024324D01*
X068548Y024226D02*
X068641Y024226D01*
X068641Y024029D02*
X068548Y024029D01*
X068548Y023930D02*
X068641Y023930D01*
X068641Y023832D02*
X068548Y023832D01*
X068548Y023733D02*
X068641Y023733D01*
X068641Y023635D02*
X068548Y023635D01*
X068548Y023536D02*
X068641Y023536D01*
X068641Y023437D02*
X068548Y023437D01*
X068548Y023339D02*
X068641Y023339D01*
X068725Y023240D02*
X068464Y023240D01*
X068940Y023240D02*
X069037Y023240D01*
X069037Y023339D02*
X068940Y023339D01*
X068940Y023437D02*
X069037Y023437D01*
X069037Y023536D02*
X068940Y023536D01*
X068940Y023635D02*
X069037Y023635D01*
X069037Y023733D02*
X068940Y023733D01*
X068940Y023832D02*
X069037Y023832D01*
X069037Y023930D02*
X068940Y023930D01*
X068940Y024226D02*
X069037Y024226D01*
X069037Y024324D02*
X068940Y024324D01*
X068940Y024423D02*
X069037Y024423D01*
X069037Y024521D02*
X068940Y024521D01*
X068940Y024620D02*
X069037Y024620D01*
X069037Y024719D02*
X068940Y024719D01*
X068940Y024817D02*
X069037Y024817D01*
X069037Y024916D02*
X068940Y024916D01*
X068940Y025014D02*
X069037Y025014D01*
X069335Y025014D02*
X069429Y025014D01*
X069429Y024916D02*
X069335Y024916D01*
X069335Y024817D02*
X069429Y024817D01*
X069429Y024719D02*
X069335Y024719D01*
X069335Y024620D02*
X069429Y024620D01*
X069429Y024521D02*
X069335Y024521D01*
X069335Y024423D02*
X069429Y024423D01*
X069429Y024324D02*
X069335Y024324D01*
X069335Y024226D02*
X069429Y024226D01*
X069429Y024029D02*
X069335Y024029D01*
X069335Y023930D02*
X069429Y023930D01*
X069429Y023832D02*
X069335Y023832D01*
X069335Y023733D02*
X069429Y023733D01*
X069429Y023635D02*
X069335Y023635D01*
X069335Y023536D02*
X069429Y023536D01*
X069429Y023437D02*
X069335Y023437D01*
X069335Y023339D02*
X069429Y023339D01*
X069513Y023240D02*
X069251Y023240D01*
X069727Y023240D02*
X069824Y023240D01*
X069824Y023339D02*
X069727Y023339D01*
X069727Y023437D02*
X069824Y023437D01*
X069824Y023536D02*
X069727Y023536D01*
X069727Y023635D02*
X069824Y023635D01*
X069824Y023733D02*
X069727Y023733D01*
X069727Y023832D02*
X069824Y023832D01*
X069824Y023930D02*
X069727Y023930D01*
X069727Y024226D02*
X069824Y024226D01*
X069824Y024324D02*
X069727Y024324D01*
X069727Y024423D02*
X069824Y024423D01*
X069824Y024521D02*
X069727Y024521D01*
X069727Y024620D02*
X069824Y024620D01*
X069824Y024719D02*
X069727Y024719D01*
X069727Y024817D02*
X069824Y024817D01*
X069824Y024916D02*
X069727Y024916D01*
X069727Y025014D02*
X069824Y025014D01*
X070122Y025014D02*
X070216Y025014D01*
X070216Y024916D02*
X070122Y024916D01*
X070122Y024817D02*
X070201Y024817D01*
X070201Y024719D02*
X070122Y024719D01*
X070122Y024620D02*
X070201Y024620D01*
X070201Y024521D02*
X070122Y024521D01*
X070122Y024423D02*
X070201Y024423D01*
X070201Y024324D02*
X070122Y024324D01*
X070122Y024226D02*
X070201Y024226D01*
X070910Y024226D02*
X071004Y024226D01*
X071004Y024324D02*
X070910Y024324D01*
X070910Y024423D02*
X071004Y024423D01*
X071004Y024521D02*
X070910Y024521D01*
X070910Y024620D02*
X071004Y024620D01*
X071004Y024719D02*
X070910Y024719D01*
X070910Y024817D02*
X071004Y024817D01*
X071004Y024916D02*
X070910Y024916D01*
X070910Y025014D02*
X071004Y025014D01*
X070501Y025211D02*
X067401Y025211D01*
X067401Y025113D02*
X070440Y025113D01*
X070501Y025310D02*
X067437Y025310D01*
X067535Y025408D02*
X070501Y025408D01*
X070501Y025507D02*
X067634Y025507D01*
X067732Y025605D02*
X070469Y025605D01*
X070371Y025704D02*
X067831Y025704D01*
X067854Y025014D02*
X067401Y025014D01*
X067401Y024916D02*
X067854Y024916D01*
X067854Y024817D02*
X067401Y024817D01*
X067401Y024719D02*
X067854Y024719D01*
X067854Y024620D02*
X067401Y024620D01*
X067401Y024521D02*
X067854Y024521D01*
X067854Y024423D02*
X067401Y024423D01*
X067401Y024324D02*
X067854Y024324D01*
X067854Y024226D02*
X067401Y024226D01*
X070154Y022945D02*
X074031Y022945D01*
X074071Y023043D02*
X070253Y023043D01*
X070352Y023142D02*
X074146Y023142D01*
X074201Y023240D02*
X073975Y023240D01*
X074059Y023339D02*
X074153Y023339D01*
X074153Y023437D02*
X074059Y023437D01*
X074059Y023536D02*
X074153Y023536D01*
X074153Y023635D02*
X074059Y023635D01*
X074059Y023733D02*
X074153Y023733D01*
X074153Y023832D02*
X074059Y023832D01*
X074059Y023930D02*
X074153Y023930D01*
X074153Y024029D02*
X074059Y024029D01*
X074059Y024127D02*
X074153Y024127D01*
X074153Y024226D02*
X074059Y024226D01*
X074059Y024324D02*
X074153Y024324D01*
X074153Y024423D02*
X074059Y024423D01*
X074059Y024521D02*
X074153Y024521D01*
X074153Y024620D02*
X074059Y024620D01*
X074059Y024719D02*
X074153Y024719D01*
X074153Y024817D02*
X074059Y024817D01*
X074059Y024916D02*
X074153Y024916D01*
X074153Y025014D02*
X074059Y025014D01*
X073501Y025113D02*
X073101Y025113D01*
X073101Y025211D02*
X073440Y025211D01*
X073368Y025310D02*
X073101Y025310D01*
X073101Y025408D02*
X073331Y025408D01*
X073331Y025507D02*
X073101Y025507D01*
X073156Y025605D02*
X073355Y025605D01*
X073408Y025704D02*
X073231Y025704D01*
X073271Y025802D02*
X073527Y025802D01*
X073701Y025474D02*
X073701Y024174D01*
X073366Y024127D02*
X073272Y024127D01*
X073272Y024029D02*
X073366Y024029D01*
X073366Y023930D02*
X073272Y023930D01*
X073272Y023832D02*
X073366Y023832D01*
X073366Y023733D02*
X073272Y023733D01*
X073272Y023635D02*
X073366Y023635D01*
X073366Y023536D02*
X073272Y023536D01*
X073272Y023437D02*
X073366Y023437D01*
X073366Y023339D02*
X073272Y023339D01*
X073188Y023240D02*
X073450Y023240D01*
X072662Y023240D02*
X072401Y023240D01*
X072485Y023339D02*
X072578Y023339D01*
X072578Y023437D02*
X072485Y023437D01*
X072485Y023536D02*
X072578Y023536D01*
X072578Y023635D02*
X072485Y023635D01*
X072485Y023733D02*
X072578Y023733D01*
X072578Y023832D02*
X072485Y023832D01*
X072485Y023930D02*
X072578Y023930D01*
X072578Y024029D02*
X072485Y024029D01*
X072485Y024127D02*
X072578Y024127D01*
X072578Y024226D02*
X072485Y024226D01*
X072485Y024324D02*
X072578Y024324D01*
X072578Y024423D02*
X072485Y024423D01*
X072485Y024521D02*
X072578Y024521D01*
X072578Y024620D02*
X072485Y024620D01*
X072485Y024719D02*
X072578Y024719D01*
X072578Y024817D02*
X072485Y024817D01*
X072485Y024916D02*
X072578Y024916D01*
X072578Y025014D02*
X072485Y025014D01*
X072301Y025113D02*
X072701Y025113D01*
X072701Y025211D02*
X072301Y025211D01*
X072301Y025310D02*
X072701Y025310D01*
X072701Y025408D02*
X072301Y025408D01*
X072301Y025507D02*
X072701Y025507D01*
X072646Y025605D02*
X072301Y025605D01*
X072301Y025704D02*
X072571Y025704D01*
X072531Y025802D02*
X072301Y025802D01*
X072301Y025901D02*
X072531Y025901D01*
X072552Y026000D02*
X072350Y026000D01*
X072428Y026098D02*
X072602Y026098D01*
X072713Y026197D02*
X072469Y026197D01*
X072101Y026274D02*
X072101Y024174D01*
X072138Y024174D01*
X072901Y024174D02*
X072901Y025874D01*
X073272Y025014D02*
X073366Y025014D01*
X073366Y024916D02*
X073272Y024916D01*
X073272Y024817D02*
X073366Y024817D01*
X073366Y024719D02*
X073272Y024719D01*
X073272Y024620D02*
X073366Y024620D01*
X073366Y024521D02*
X073272Y024521D01*
X073272Y024423D02*
X073366Y024423D01*
X073366Y024324D02*
X073272Y024324D01*
X073272Y024226D02*
X073366Y024226D01*
X074401Y024174D02*
X074401Y022874D01*
X074656Y023142D02*
X075001Y023142D01*
X075001Y023240D02*
X074763Y023240D01*
X074847Y023339D02*
X074941Y023339D01*
X074941Y023437D02*
X074847Y023437D01*
X074847Y023536D02*
X074941Y023536D01*
X074941Y023635D02*
X074847Y023635D01*
X074847Y023733D02*
X074941Y023733D01*
X074941Y023832D02*
X074847Y023832D01*
X074847Y023930D02*
X074941Y023930D01*
X074941Y024029D02*
X074847Y024029D01*
X074847Y024127D02*
X074941Y024127D01*
X074941Y024226D02*
X074847Y024226D01*
X074847Y024324D02*
X074941Y024324D01*
X074941Y024423D02*
X074847Y024423D01*
X074847Y024521D02*
X074941Y024521D01*
X074941Y024620D02*
X074847Y024620D01*
X074847Y024719D02*
X074941Y024719D01*
X074941Y024817D02*
X074847Y024817D01*
X074847Y024916D02*
X074941Y024916D01*
X074941Y025014D02*
X074847Y025014D01*
X075634Y025014D02*
X075728Y025014D01*
X075728Y024916D02*
X075634Y024916D01*
X075634Y024817D02*
X075728Y024817D01*
X075728Y024719D02*
X075634Y024719D01*
X075634Y024620D02*
X075728Y024620D01*
X075728Y024521D02*
X075634Y024521D01*
X075634Y024423D02*
X075728Y024423D01*
X075728Y024324D02*
X075634Y024324D01*
X075634Y024226D02*
X075728Y024226D01*
X075728Y024127D02*
X075634Y024127D01*
X075634Y024029D02*
X075728Y024029D01*
X075728Y023930D02*
X075634Y023930D01*
X075634Y023832D02*
X075728Y023832D01*
X075728Y023733D02*
X075634Y023733D01*
X075634Y023635D02*
X075728Y023635D01*
X075728Y023536D02*
X075634Y023536D01*
X075634Y023437D02*
X075728Y023437D01*
X075728Y023339D02*
X075634Y023339D01*
X075550Y023240D02*
X075801Y023240D01*
X075801Y023142D02*
X075401Y023142D01*
X075401Y023043D02*
X075801Y023043D01*
X075801Y022945D02*
X075401Y022945D01*
X075401Y022846D02*
X075801Y022846D01*
X075801Y022748D02*
X075450Y022748D01*
X075529Y022649D02*
X075801Y022649D01*
X075801Y022551D02*
X075569Y022551D01*
X075571Y022452D02*
X075801Y022452D01*
X075757Y022353D02*
X075551Y022353D01*
X075505Y022255D02*
X075675Y022255D01*
X075635Y022156D02*
X075401Y022156D01*
X075201Y022474D02*
X075201Y024174D01*
X076001Y024174D02*
X076001Y022074D01*
X076445Y021565D02*
X067563Y021565D01*
X067563Y021467D02*
X076486Y021467D01*
X074832Y022551D02*
X074587Y022551D01*
X074699Y022649D02*
X074873Y022649D01*
X074951Y022748D02*
X074749Y022748D01*
X074771Y022846D02*
X075001Y022846D01*
X075001Y022945D02*
X074771Y022945D01*
X074731Y023043D02*
X075001Y023043D01*
X076422Y024226D02*
X076515Y024226D01*
X076515Y024324D02*
X076422Y024324D01*
X076422Y024423D02*
X076515Y024423D01*
X076515Y024521D02*
X076422Y024521D01*
X076422Y024620D02*
X076515Y024620D01*
X076515Y024719D02*
X076422Y024719D01*
X076422Y024817D02*
X076515Y024817D01*
X076515Y024916D02*
X076422Y024916D01*
X076422Y025014D02*
X076515Y025014D01*
X077209Y025014D02*
X077303Y025014D01*
X077303Y024916D02*
X077209Y024916D01*
X077209Y024817D02*
X077303Y024817D01*
X077303Y024719D02*
X077209Y024719D01*
X077209Y024620D02*
X077303Y024620D01*
X077303Y024521D02*
X077209Y024521D01*
X077209Y024423D02*
X077303Y024423D01*
X077303Y024324D02*
X077209Y024324D01*
X077209Y024226D02*
X077303Y024226D01*
X077001Y023142D02*
X080763Y023142D01*
X080763Y023043D02*
X077001Y023043D01*
X077001Y022945D02*
X079948Y022945D01*
X080257Y022945D02*
X080357Y022945D01*
X080357Y022846D02*
X080257Y022846D01*
X080257Y022748D02*
X080357Y022748D01*
X080357Y022649D02*
X080257Y022649D01*
X080257Y022551D02*
X080357Y022551D01*
X080357Y022452D02*
X080257Y022452D01*
X080257Y022353D02*
X080357Y022353D01*
X080357Y022255D02*
X080257Y022255D01*
X080357Y022156D02*
X080763Y022156D01*
X080763Y022058D02*
X080357Y022058D01*
X080752Y021959D02*
X080763Y021959D01*
X080752Y021861D02*
X080763Y021861D01*
X080752Y021762D02*
X080763Y021762D01*
X080752Y021664D02*
X080763Y021664D01*
X080752Y021565D02*
X080763Y021565D01*
X080752Y021467D02*
X080763Y021467D01*
X080752Y022255D02*
X080763Y022255D01*
X080752Y022353D02*
X080763Y022353D01*
X080752Y022452D02*
X080763Y022452D01*
X080752Y022551D02*
X080763Y022551D01*
X080752Y022649D02*
X080763Y022649D01*
X080752Y022748D02*
X080763Y022748D01*
X080752Y022846D02*
X080763Y022846D01*
X080763Y022945D02*
X080666Y022945D01*
X080763Y026788D02*
X071998Y026788D01*
X072096Y026886D02*
X080763Y026886D01*
X080763Y026985D02*
X072195Y026985D01*
X072293Y027084D02*
X080763Y027084D01*
X080763Y027182D02*
X072392Y027182D01*
X072490Y027281D02*
X080763Y027281D01*
X080763Y027379D02*
X072589Y027379D01*
X072687Y027478D02*
X080763Y027478D01*
X080763Y027576D02*
X072786Y027576D01*
X072885Y027675D02*
X080763Y027675D01*
X080763Y027773D02*
X072901Y027773D01*
X072901Y027872D02*
X080763Y027872D01*
X080763Y027970D02*
X074511Y027970D01*
X074439Y027899D02*
X074776Y028236D01*
X074776Y028424D01*
X074251Y028424D01*
X074251Y028524D01*
X074776Y028524D01*
X074776Y028712D01*
X074439Y029049D01*
X074251Y029049D01*
X074251Y028524D01*
X074151Y028524D01*
X074151Y029049D01*
X073963Y029049D01*
X073626Y028712D01*
X073626Y028524D01*
X074151Y028524D01*
X074151Y028424D01*
X074251Y028424D01*
X074251Y027899D01*
X074439Y027899D01*
X074251Y027970D02*
X074151Y027970D01*
X074151Y027899D02*
X074151Y028424D01*
X073626Y028424D01*
X073626Y028236D01*
X073963Y027899D01*
X074151Y027899D01*
X074151Y028069D02*
X074251Y028069D01*
X074251Y028168D02*
X074151Y028168D01*
X074151Y028266D02*
X074251Y028266D01*
X074251Y028365D02*
X074151Y028365D01*
X074151Y028463D02*
X073276Y028463D01*
X073276Y028365D02*
X073626Y028365D01*
X073626Y028266D02*
X073276Y028266D01*
X073208Y028168D02*
X073694Y028168D01*
X073792Y028069D02*
X073109Y028069D01*
X073011Y027970D02*
X073891Y027970D01*
X074251Y028463D02*
X075275Y028463D01*
X075275Y028365D02*
X074776Y028365D01*
X074776Y028266D02*
X075275Y028266D01*
X075275Y028168D02*
X074708Y028168D01*
X074609Y028069D02*
X075299Y028069D01*
X075275Y028093D02*
X075363Y028005D01*
X075651Y028005D01*
X075651Y028617D01*
X075275Y028617D01*
X075275Y028093D01*
X075651Y028069D02*
X075751Y028069D01*
X075751Y028005D02*
X076039Y028005D01*
X076126Y028093D01*
X076126Y028617D01*
X075751Y028617D01*
X075751Y028717D01*
X075651Y028717D01*
X075651Y029329D01*
X075363Y029329D01*
X075275Y029241D01*
X075275Y028717D01*
X075651Y028717D01*
X075651Y028617D01*
X075751Y028617D01*
X075751Y028005D01*
X075751Y028168D02*
X075651Y028168D01*
X075651Y028266D02*
X075751Y028266D01*
X075751Y028365D02*
X075651Y028365D01*
X075651Y028463D02*
X075751Y028463D01*
X075751Y028562D02*
X075651Y028562D01*
X075651Y028660D02*
X074776Y028660D01*
X074776Y028562D02*
X075275Y028562D01*
X075275Y028759D02*
X074729Y028759D01*
X074630Y028857D02*
X075275Y028857D01*
X075275Y028956D02*
X074532Y028956D01*
X074484Y029074D02*
X074984Y029074D01*
X075101Y029191D01*
X075529Y029619D01*
X076039Y029619D01*
X076126Y029707D01*
X076126Y030855D01*
X076101Y030880D01*
X076101Y032657D01*
X075984Y032774D01*
X075584Y033174D01*
X075418Y033174D01*
X073584Y033174D01*
X073418Y033174D01*
X073301Y033057D01*
X073301Y030091D01*
X073418Y029974D01*
X074318Y029074D01*
X074484Y029074D01*
X074401Y029274D02*
X073501Y030174D01*
X073501Y031019D01*
X073683Y031019D01*
X073683Y031907D01*
X073780Y031907D01*
X073780Y031019D01*
X073991Y031019D01*
X074078Y031107D01*
X074078Y031908D01*
X073780Y031908D01*
X073780Y032005D01*
X073683Y032005D01*
X073683Y032894D01*
X073501Y032894D01*
X073501Y032974D01*
X075501Y032974D01*
X075901Y032574D01*
X075901Y030943D01*
X075751Y030943D01*
X075751Y030331D01*
X075651Y030331D01*
X075651Y030943D01*
X075363Y030943D01*
X075275Y030855D01*
X075275Y030331D01*
X075651Y030331D01*
X075651Y030231D01*
X075275Y030231D01*
X075275Y029707D01*
X075305Y029678D01*
X074901Y029274D01*
X074401Y029274D01*
X074325Y029350D02*
X074977Y029350D01*
X075076Y029449D02*
X074226Y029449D01*
X074128Y029547D02*
X075174Y029547D01*
X075273Y029646D02*
X074029Y029646D01*
X073930Y029744D02*
X075275Y029744D01*
X075275Y029843D02*
X073832Y029843D01*
X073733Y029941D02*
X075275Y029941D01*
X075275Y030040D02*
X073635Y030040D01*
X073536Y030138D02*
X075275Y030138D01*
X075275Y030335D02*
X073501Y030335D01*
X073501Y030237D02*
X075651Y030237D01*
X075651Y030335D02*
X075751Y030335D01*
X075751Y030434D02*
X075651Y030434D01*
X075651Y030533D02*
X075751Y030533D01*
X075751Y030631D02*
X075651Y030631D01*
X075651Y030730D02*
X075751Y030730D01*
X075751Y030828D02*
X075651Y030828D01*
X075651Y030927D02*
X075751Y030927D01*
X075901Y031025D02*
X075572Y031025D01*
X075565Y031019D02*
X075653Y031107D01*
X075653Y031908D01*
X075355Y031908D01*
X075355Y032005D01*
X075258Y032005D01*
X075258Y032894D01*
X075047Y032894D01*
X074960Y032806D01*
X074960Y032005D01*
X075258Y032005D01*
X075258Y031908D01*
X074960Y031908D01*
X074960Y031107D01*
X075047Y031019D01*
X075258Y031019D01*
X075258Y031907D01*
X075355Y031907D01*
X075355Y031019D01*
X075565Y031019D01*
X075653Y031124D02*
X075901Y031124D01*
X075901Y031222D02*
X075653Y031222D01*
X075653Y031321D02*
X075901Y031321D01*
X075901Y031419D02*
X075653Y031419D01*
X075653Y031518D02*
X075901Y031518D01*
X075901Y031617D02*
X075653Y031617D01*
X075653Y031715D02*
X075901Y031715D01*
X075901Y031814D02*
X075653Y031814D01*
X075653Y032005D02*
X075653Y032806D01*
X075565Y032894D01*
X075355Y032894D01*
X075355Y032005D01*
X075653Y032005D01*
X075653Y032011D02*
X075901Y032011D01*
X075901Y032109D02*
X075653Y032109D01*
X075653Y032208D02*
X075901Y032208D01*
X075901Y032306D02*
X075653Y032306D01*
X075653Y032405D02*
X075901Y032405D01*
X075901Y032503D02*
X075653Y032503D01*
X075653Y032602D02*
X075873Y032602D01*
X075774Y032701D02*
X075653Y032701D01*
X075653Y032799D02*
X075676Y032799D01*
X075577Y032898D02*
X073501Y032898D01*
X073301Y032898D02*
X062401Y032898D01*
X062401Y032996D02*
X073301Y032996D01*
X073339Y033095D02*
X062401Y033095D01*
X062401Y033193D02*
X062834Y033193D01*
X062755Y033292D02*
X062401Y033292D01*
X062401Y033390D02*
X062755Y033390D01*
X062755Y033489D02*
X062401Y033489D01*
X062401Y033587D02*
X062755Y033587D01*
X062755Y033686D02*
X062401Y033686D01*
X062401Y033784D02*
X062755Y033784D01*
X062755Y033883D02*
X062401Y033883D01*
X062401Y033982D02*
X063150Y033982D01*
X063150Y033883D02*
X063250Y033883D01*
X063250Y033784D02*
X063150Y033784D01*
X063150Y033686D02*
X063250Y033686D01*
X063250Y033587D02*
X063150Y033587D01*
X063150Y033489D02*
X063250Y033489D01*
X063250Y033390D02*
X063150Y033390D01*
X063150Y033292D02*
X063250Y033292D01*
X063250Y033193D02*
X063150Y033193D01*
X063567Y033193D02*
X076023Y033193D01*
X075944Y033292D02*
X063646Y033292D01*
X063646Y033390D02*
X075944Y033390D01*
X075944Y033489D02*
X063646Y033489D01*
X063646Y033587D02*
X075944Y033587D01*
X075944Y033686D02*
X063646Y033686D01*
X063646Y033784D02*
X075944Y033784D01*
X075944Y033883D02*
X063646Y033883D01*
X063646Y034080D02*
X075944Y034080D01*
X075944Y034179D02*
X063646Y034179D01*
X063646Y034277D02*
X075944Y034277D01*
X075944Y034376D02*
X063646Y034376D01*
X063646Y034474D02*
X075944Y034474D01*
X075944Y034573D02*
X063646Y034573D01*
X063646Y034671D02*
X075944Y034671D01*
X076339Y033982D02*
X063250Y033982D01*
X062755Y034080D02*
X062401Y034080D01*
X062401Y034179D02*
X062755Y034179D01*
X062755Y034277D02*
X062401Y034277D01*
X062401Y034376D02*
X062755Y034376D01*
X062755Y034474D02*
X062401Y034474D01*
X062401Y034573D02*
X062755Y034573D01*
X062755Y034671D02*
X062401Y034671D01*
X064024Y032894D02*
X063936Y032806D01*
X063936Y032005D01*
X064234Y032005D01*
X064234Y032894D01*
X064024Y032894D01*
X063936Y032799D02*
X062401Y032799D01*
X062401Y032701D02*
X063936Y032701D01*
X063936Y032602D02*
X062401Y032602D01*
X062401Y032503D02*
X063936Y032503D01*
X063936Y032405D02*
X062401Y032405D01*
X062401Y032306D02*
X063936Y032306D01*
X063936Y032208D02*
X062401Y032208D01*
X062401Y032109D02*
X063936Y032109D01*
X063936Y032011D02*
X062401Y032011D01*
X062401Y031912D02*
X064234Y031912D01*
X064234Y031908D02*
X063936Y031908D01*
X063936Y031107D01*
X064024Y031019D01*
X064234Y031019D01*
X064234Y031907D01*
X064331Y031907D01*
X064331Y031019D01*
X064542Y031019D01*
X064630Y031107D01*
X064630Y031908D01*
X064331Y031908D01*
X064331Y032005D01*
X064234Y032005D01*
X064234Y031908D01*
X064234Y031814D02*
X064331Y031814D01*
X064331Y031912D02*
X065022Y031912D01*
X065022Y031908D02*
X064723Y031908D01*
X064723Y031107D01*
X064811Y031019D01*
X065022Y031019D01*
X065022Y031907D01*
X065119Y031907D01*
X065119Y031019D01*
X065329Y031019D01*
X065417Y031107D01*
X065417Y031908D01*
X065119Y031908D01*
X065119Y032005D01*
X065022Y032005D01*
X065022Y032894D01*
X064811Y032894D01*
X064723Y032806D01*
X064723Y032005D01*
X065022Y032005D01*
X065022Y031908D01*
X065022Y031814D02*
X065119Y031814D01*
X065119Y031912D02*
X065809Y031912D01*
X065809Y031908D02*
X065511Y031908D01*
X065511Y031107D01*
X065599Y031019D01*
X065809Y031019D01*
X065809Y031907D01*
X065906Y031907D01*
X065906Y031019D01*
X066117Y031019D01*
X066204Y031107D01*
X066204Y031908D01*
X065906Y031908D01*
X065906Y032005D01*
X065809Y032005D01*
X065809Y032894D01*
X065599Y032894D01*
X065511Y032806D01*
X065511Y032005D01*
X065809Y032005D01*
X065809Y031908D01*
X065809Y031814D02*
X065906Y031814D01*
X065906Y031912D02*
X066298Y031912D01*
X066298Y031814D02*
X066204Y031814D01*
X066204Y031715D02*
X066298Y031715D01*
X066298Y031617D02*
X066204Y031617D01*
X066204Y031518D02*
X066298Y031518D01*
X066298Y031419D02*
X066204Y031419D01*
X066204Y031321D02*
X066298Y031321D01*
X066298Y031222D02*
X066204Y031222D01*
X066204Y031124D02*
X066298Y031124D01*
X066380Y031025D02*
X066123Y031025D01*
X065906Y031025D02*
X065809Y031025D01*
X065809Y031124D02*
X065906Y031124D01*
X065906Y031222D02*
X065809Y031222D01*
X065809Y031321D02*
X065906Y031321D01*
X065906Y031419D02*
X065809Y031419D01*
X065809Y031518D02*
X065906Y031518D01*
X065906Y031617D02*
X065809Y031617D01*
X065809Y031715D02*
X065906Y031715D01*
X065906Y032005D02*
X066204Y032005D01*
X066204Y032806D01*
X066117Y032894D01*
X065906Y032894D01*
X065906Y032005D01*
X065906Y032011D02*
X065809Y032011D01*
X065809Y032109D02*
X065906Y032109D01*
X065906Y032208D02*
X065809Y032208D01*
X065809Y032306D02*
X065906Y032306D01*
X065906Y032405D02*
X065809Y032405D01*
X065809Y032503D02*
X065906Y032503D01*
X065906Y032602D02*
X065809Y032602D01*
X065809Y032701D02*
X065906Y032701D01*
X065906Y032799D02*
X065809Y032799D01*
X065511Y032799D02*
X065417Y032799D01*
X065417Y032806D02*
X065329Y032894D01*
X065119Y032894D01*
X065119Y032005D01*
X065417Y032005D01*
X065417Y032806D01*
X065417Y032701D02*
X065511Y032701D01*
X065511Y032602D02*
X065417Y032602D01*
X065417Y032503D02*
X065511Y032503D01*
X065511Y032405D02*
X065417Y032405D01*
X065417Y032306D02*
X065511Y032306D01*
X065511Y032208D02*
X065417Y032208D01*
X065417Y032109D02*
X065511Y032109D01*
X065511Y032011D02*
X065417Y032011D01*
X065417Y031814D02*
X065511Y031814D01*
X065511Y031715D02*
X065417Y031715D01*
X065417Y031617D02*
X065511Y031617D01*
X065511Y031518D02*
X065417Y031518D01*
X065417Y031419D02*
X065511Y031419D01*
X065511Y031321D02*
X065417Y031321D01*
X065417Y031222D02*
X065511Y031222D01*
X065511Y031124D02*
X065417Y031124D01*
X065336Y031025D02*
X065592Y031025D01*
X065119Y031025D02*
X065022Y031025D01*
X065022Y031124D02*
X065119Y031124D01*
X065119Y031222D02*
X065022Y031222D01*
X065022Y031321D02*
X065119Y031321D01*
X065119Y031419D02*
X065022Y031419D01*
X065022Y031518D02*
X065119Y031518D01*
X065119Y031617D02*
X065022Y031617D01*
X065022Y031715D02*
X065119Y031715D01*
X065119Y032011D02*
X065022Y032011D01*
X065022Y032109D02*
X065119Y032109D01*
X065119Y032208D02*
X065022Y032208D01*
X065022Y032306D02*
X065119Y032306D01*
X065119Y032405D02*
X065022Y032405D01*
X065022Y032503D02*
X065119Y032503D01*
X065119Y032602D02*
X065022Y032602D01*
X065022Y032701D02*
X065119Y032701D01*
X065119Y032799D02*
X065022Y032799D01*
X064723Y032799D02*
X064630Y032799D01*
X064630Y032806D02*
X064542Y032894D01*
X064331Y032894D01*
X064331Y032005D01*
X064630Y032005D01*
X064630Y032806D01*
X064630Y032701D02*
X064723Y032701D01*
X064723Y032602D02*
X064630Y032602D01*
X064630Y032503D02*
X064723Y032503D01*
X064723Y032405D02*
X064630Y032405D01*
X064630Y032306D02*
X064723Y032306D01*
X064723Y032208D02*
X064630Y032208D01*
X064630Y032109D02*
X064723Y032109D01*
X064723Y032011D02*
X064630Y032011D01*
X064630Y031814D02*
X064723Y031814D01*
X064723Y031715D02*
X064630Y031715D01*
X064630Y031617D02*
X064723Y031617D01*
X064723Y031518D02*
X064630Y031518D01*
X064630Y031419D02*
X064723Y031419D01*
X064723Y031321D02*
X064630Y031321D01*
X064630Y031222D02*
X064723Y031222D01*
X064723Y031124D02*
X064630Y031124D01*
X064548Y031025D02*
X064805Y031025D01*
X064331Y031025D02*
X064234Y031025D01*
X064234Y031124D02*
X064331Y031124D01*
X064331Y031222D02*
X064234Y031222D01*
X064234Y031321D02*
X064331Y031321D01*
X064331Y031419D02*
X064234Y031419D01*
X064234Y031518D02*
X064331Y031518D01*
X064331Y031617D02*
X064234Y031617D01*
X064234Y031715D02*
X064331Y031715D01*
X064331Y032011D02*
X064234Y032011D01*
X064234Y032109D02*
X064331Y032109D01*
X064331Y032208D02*
X064234Y032208D01*
X064234Y032306D02*
X064331Y032306D01*
X064331Y032405D02*
X064234Y032405D01*
X064234Y032503D02*
X064331Y032503D01*
X064331Y032602D02*
X064234Y032602D01*
X064234Y032701D02*
X064331Y032701D01*
X064331Y032799D02*
X064234Y032799D01*
X063936Y031814D02*
X062401Y031814D01*
X062460Y031715D02*
X063936Y031715D01*
X063936Y031617D02*
X062558Y031617D01*
X062657Y031518D02*
X063936Y031518D01*
X063936Y031419D02*
X062755Y031419D01*
X062854Y031321D02*
X063936Y031321D01*
X063936Y031222D02*
X062952Y031222D01*
X063051Y031124D02*
X063936Y031124D01*
X064017Y031025D02*
X063149Y031025D01*
X063248Y030927D02*
X066445Y030927D01*
X066445Y030828D02*
X063346Y030828D01*
X063445Y030730D02*
X066445Y030730D01*
X066445Y030631D02*
X063544Y030631D01*
X063642Y030533D02*
X066445Y030533D01*
X066378Y030434D02*
X063741Y030434D01*
X063839Y030335D02*
X066280Y030335D01*
X066181Y030237D02*
X063938Y030237D01*
X064036Y030138D02*
X066083Y030138D01*
X065984Y030040D02*
X064135Y030040D01*
X064233Y029941D02*
X065885Y029941D01*
X065787Y029843D02*
X064332Y029843D01*
X064430Y029744D02*
X065688Y029744D01*
X065590Y029646D02*
X064529Y029646D01*
X064628Y029547D02*
X065501Y029547D01*
X065501Y029449D02*
X064726Y029449D01*
X064825Y029350D02*
X065501Y029350D01*
X065501Y029251D02*
X064923Y029251D01*
X065022Y029153D02*
X065501Y029153D01*
X065501Y029054D02*
X065120Y029054D01*
X065219Y028956D02*
X065370Y028956D01*
X065901Y029054D02*
X066501Y029054D01*
X066501Y029153D02*
X065901Y029153D01*
X065901Y029251D02*
X066501Y029251D01*
X066501Y029350D02*
X065901Y029350D01*
X065958Y029449D02*
X066501Y029449D01*
X066501Y029547D02*
X066057Y029547D01*
X066155Y029646D02*
X066590Y029646D01*
X066688Y029744D02*
X066254Y029744D01*
X066352Y029843D02*
X066787Y029843D01*
X066885Y029941D02*
X066451Y029941D01*
X066550Y030040D02*
X066984Y030040D01*
X067083Y030138D02*
X066648Y030138D01*
X066747Y030237D02*
X067181Y030237D01*
X067232Y030335D02*
X066845Y030335D01*
X066845Y030434D02*
X067232Y030434D01*
X067232Y030533D02*
X066845Y030533D01*
X066845Y030631D02*
X067232Y030631D01*
X067232Y030730D02*
X066845Y030730D01*
X066845Y030828D02*
X067232Y030828D01*
X067232Y030927D02*
X066845Y030927D01*
X066911Y031025D02*
X067167Y031025D01*
X067086Y031124D02*
X066992Y031124D01*
X066992Y031222D02*
X067086Y031222D01*
X067086Y031321D02*
X066992Y031321D01*
X066992Y031419D02*
X067086Y031419D01*
X067086Y031518D02*
X066992Y031518D01*
X066992Y031617D02*
X067086Y031617D01*
X067086Y031715D02*
X066992Y031715D01*
X066992Y031814D02*
X067086Y031814D01*
X067086Y031912D02*
X066992Y031912D01*
X066992Y032011D02*
X067086Y032011D01*
X067086Y032109D02*
X066992Y032109D01*
X066992Y032208D02*
X067086Y032208D01*
X067086Y032306D02*
X066992Y032306D01*
X066992Y032405D02*
X067086Y032405D01*
X067086Y032503D02*
X066992Y032503D01*
X066992Y032602D02*
X067086Y032602D01*
X067086Y032701D02*
X066992Y032701D01*
X066992Y032799D02*
X067086Y032799D01*
X067779Y032799D02*
X067873Y032799D01*
X067873Y032701D02*
X067779Y032701D01*
X067779Y032602D02*
X067873Y032602D01*
X067873Y032503D02*
X067779Y032503D01*
X067779Y032405D02*
X067873Y032405D01*
X067873Y032306D02*
X067779Y032306D01*
X067779Y032208D02*
X067873Y032208D01*
X067873Y032109D02*
X067779Y032109D01*
X067779Y032011D02*
X067873Y032011D01*
X067873Y031912D02*
X067779Y031912D01*
X067779Y031814D02*
X067873Y031814D01*
X067873Y031715D02*
X067779Y031715D01*
X067779Y031617D02*
X067873Y031617D01*
X067873Y031518D02*
X067779Y031518D01*
X067779Y031419D02*
X067873Y031419D01*
X067873Y031321D02*
X067779Y031321D01*
X067779Y031222D02*
X067873Y031222D01*
X067873Y031124D02*
X067779Y031124D01*
X067698Y031025D02*
X067954Y031025D01*
X068020Y030927D02*
X067632Y030927D01*
X067632Y030828D02*
X068020Y030828D01*
X068020Y030730D02*
X067632Y030730D01*
X067632Y030631D02*
X068020Y030631D01*
X068020Y030533D02*
X067632Y030533D01*
X067632Y030434D02*
X068020Y030434D01*
X068020Y030335D02*
X067632Y030335D01*
X067632Y030237D02*
X068020Y030237D01*
X068020Y030138D02*
X067632Y030138D01*
X067550Y030040D02*
X067984Y030040D01*
X067885Y029941D02*
X067451Y029941D01*
X067352Y029843D02*
X067787Y029843D01*
X067688Y029744D02*
X067254Y029744D01*
X067155Y029646D02*
X067590Y029646D01*
X067618Y029674D02*
X067618Y029674D01*
X067501Y029547D02*
X067057Y029547D01*
X066958Y029449D02*
X067501Y029449D01*
X067501Y029350D02*
X066901Y029350D01*
X066901Y029251D02*
X067501Y029251D01*
X067501Y029153D02*
X066901Y029153D01*
X066901Y029054D02*
X067501Y029054D01*
X067370Y028956D02*
X067032Y028956D01*
X067130Y028857D02*
X067271Y028857D01*
X067701Y028474D02*
X066901Y027674D01*
X058801Y027674D01*
X057901Y028574D01*
X057901Y029174D02*
X059201Y027874D01*
X066101Y027874D01*
X066701Y028474D01*
X066701Y029474D01*
X067432Y030206D01*
X067432Y031956D01*
X066645Y031956D02*
X066645Y030418D01*
X065701Y029474D01*
X065701Y028474D01*
X059201Y028474D01*
X057901Y029774D01*
X057501Y029574D02*
X056501Y030574D01*
X056501Y029974D02*
X057101Y029374D01*
X057101Y027574D01*
X057601Y027074D01*
X069301Y027074D01*
X070701Y028474D01*
X070701Y029474D01*
X070582Y029593D01*
X070582Y031956D01*
X070235Y031912D02*
X070141Y031912D01*
X070141Y031814D02*
X070235Y031814D01*
X070235Y031715D02*
X070141Y031715D01*
X070141Y031617D02*
X070235Y031617D01*
X070235Y031518D02*
X070141Y031518D01*
X070141Y031419D02*
X070235Y031419D01*
X070235Y031321D02*
X070141Y031321D01*
X070141Y031222D02*
X070235Y031222D01*
X070235Y031124D02*
X070141Y031124D01*
X070060Y031025D02*
X070317Y031025D01*
X070382Y030927D02*
X069995Y030927D01*
X069995Y030828D02*
X070382Y030828D01*
X070382Y030730D02*
X069995Y030730D01*
X069995Y030631D02*
X070382Y030631D01*
X070382Y030533D02*
X069995Y030533D01*
X069995Y030434D02*
X070382Y030434D01*
X070382Y030335D02*
X069995Y030335D01*
X069995Y030237D02*
X070382Y030237D01*
X070382Y030138D02*
X069995Y030138D01*
X069995Y030040D02*
X070382Y030040D01*
X070382Y029941D02*
X069995Y029941D01*
X069995Y029843D02*
X070382Y029843D01*
X070382Y029744D02*
X069995Y029744D01*
X069995Y029646D02*
X070382Y029646D01*
X070382Y029547D02*
X069995Y029547D01*
X069958Y029449D02*
X070443Y029449D01*
X070501Y029350D02*
X069901Y029350D01*
X069901Y029251D02*
X070501Y029251D01*
X070501Y029153D02*
X069901Y029153D01*
X069901Y029054D02*
X070501Y029054D01*
X070370Y028956D02*
X070032Y028956D01*
X070130Y028857D02*
X070271Y028857D01*
X070901Y029054D02*
X071501Y029054D01*
X071501Y029153D02*
X070901Y029153D01*
X070901Y029251D02*
X071501Y029251D01*
X071501Y029350D02*
X070901Y029350D01*
X070901Y029449D02*
X071443Y029449D01*
X071345Y029547D02*
X070901Y029547D01*
X070812Y029646D02*
X071246Y029646D01*
X071169Y029744D02*
X070782Y029744D01*
X070782Y029843D02*
X071169Y029843D01*
X071169Y029941D02*
X070782Y029941D01*
X070782Y030040D02*
X071169Y030040D01*
X071169Y030138D02*
X070782Y030138D01*
X070782Y030237D02*
X071169Y030237D01*
X071169Y030335D02*
X070782Y030335D01*
X070782Y030434D02*
X071169Y030434D01*
X071169Y030533D02*
X070782Y030533D01*
X070782Y030631D02*
X071169Y030631D01*
X071169Y030730D02*
X070782Y030730D01*
X070782Y030828D02*
X071169Y030828D01*
X071169Y030927D02*
X070782Y030927D01*
X070848Y031025D02*
X071104Y031025D01*
X071023Y031124D02*
X070929Y031124D01*
X070929Y031222D02*
X071023Y031222D01*
X071023Y031321D02*
X070929Y031321D01*
X070929Y031419D02*
X071023Y031419D01*
X071023Y031518D02*
X070929Y031518D01*
X070929Y031617D02*
X071023Y031617D01*
X071023Y031715D02*
X070929Y031715D01*
X070929Y031814D02*
X071023Y031814D01*
X071023Y031912D02*
X070929Y031912D01*
X070929Y032011D02*
X071023Y032011D01*
X071023Y032109D02*
X070929Y032109D01*
X070929Y032208D02*
X071023Y032208D01*
X071023Y032306D02*
X070929Y032306D01*
X070929Y032405D02*
X071023Y032405D01*
X071023Y032503D02*
X070929Y032503D01*
X070929Y032602D02*
X071023Y032602D01*
X071023Y032701D02*
X070929Y032701D01*
X070929Y032799D02*
X071023Y032799D01*
X071716Y032799D02*
X071810Y032799D01*
X071810Y032701D02*
X071716Y032701D01*
X071716Y032602D02*
X071810Y032602D01*
X071810Y032503D02*
X071716Y032503D01*
X071716Y032405D02*
X071810Y032405D01*
X071810Y032306D02*
X071716Y032306D01*
X071716Y032208D02*
X071810Y032208D01*
X071810Y032109D02*
X071716Y032109D01*
X071716Y032011D02*
X071810Y032011D01*
X071810Y031912D02*
X071716Y031912D01*
X071716Y031814D02*
X071810Y031814D01*
X071810Y031715D02*
X071716Y031715D01*
X071716Y031617D02*
X071810Y031617D01*
X071810Y031518D02*
X071716Y031518D01*
X071716Y031419D02*
X071810Y031419D01*
X071810Y031321D02*
X071716Y031321D01*
X071716Y031222D02*
X071810Y031222D01*
X071810Y031124D02*
X071716Y031124D01*
X071635Y031025D02*
X071891Y031025D01*
X071957Y030927D02*
X071569Y030927D01*
X071569Y030828D02*
X071957Y030828D01*
X071962Y030730D02*
X071569Y030730D01*
X071569Y030631D02*
X072001Y030631D01*
X071946Y030533D02*
X071569Y030533D01*
X071569Y030434D02*
X071848Y030434D01*
X071749Y030335D02*
X071569Y030335D01*
X071569Y030237D02*
X071651Y030237D01*
X071626Y030138D02*
X071569Y030138D01*
X071569Y030040D02*
X071626Y030040D01*
X071626Y029941D02*
X071569Y029941D01*
X071615Y029843D02*
X071626Y029843D01*
X071369Y029805D02*
X071701Y029474D01*
X071701Y028474D01*
X070101Y026874D01*
X057201Y026874D01*
X056701Y027374D01*
X056701Y028974D01*
X056101Y029574D01*
X055701Y030774D02*
X055701Y027774D01*
X057501Y027774D02*
X058001Y027274D01*
X068501Y027274D01*
X069701Y028474D01*
X069701Y029474D01*
X069795Y029568D01*
X069795Y031956D01*
X069448Y031912D02*
X069354Y031912D01*
X069354Y031814D02*
X069448Y031814D01*
X069448Y031715D02*
X069354Y031715D01*
X069354Y031617D02*
X069448Y031617D01*
X069448Y031518D02*
X069354Y031518D01*
X069354Y031419D02*
X069448Y031419D01*
X069448Y031321D02*
X069354Y031321D01*
X069354Y031222D02*
X069448Y031222D01*
X069448Y031124D02*
X069354Y031124D01*
X069273Y031025D02*
X069529Y031025D01*
X069595Y030927D02*
X069207Y030927D01*
X069207Y030828D02*
X069595Y030828D01*
X069595Y030730D02*
X069207Y030730D01*
X069207Y030631D02*
X069595Y030631D01*
X069595Y030533D02*
X069207Y030533D01*
X069207Y030434D02*
X069595Y030434D01*
X069595Y030335D02*
X069207Y030335D01*
X069207Y030237D02*
X069595Y030237D01*
X069595Y030138D02*
X069207Y030138D01*
X069207Y030040D02*
X069595Y030040D01*
X069595Y029941D02*
X069207Y029941D01*
X069207Y029843D02*
X069595Y029843D01*
X069595Y029744D02*
X069207Y029744D01*
X069155Y029646D02*
X069590Y029646D01*
X069501Y029547D02*
X069057Y029547D01*
X068958Y029449D02*
X069501Y029449D01*
X069501Y029350D02*
X068901Y029350D01*
X068901Y029251D02*
X069501Y029251D01*
X069501Y029153D02*
X068901Y029153D01*
X068901Y029054D02*
X069501Y029054D01*
X069370Y028956D02*
X069032Y028956D01*
X069130Y028857D02*
X069271Y028857D01*
X068701Y028474D02*
X067701Y027474D01*
X058401Y027474D01*
X057901Y027974D01*
X057501Y027774D02*
X057501Y029574D01*
X066032Y028956D02*
X066370Y028956D01*
X066271Y028857D02*
X066130Y028857D01*
X067701Y028474D02*
X067701Y029474D01*
X068220Y029993D01*
X068220Y031956D01*
X068567Y031912D02*
X068660Y031912D01*
X068660Y031814D02*
X068567Y031814D01*
X068567Y031715D02*
X068660Y031715D01*
X068660Y031617D02*
X068567Y031617D01*
X068567Y031518D02*
X068660Y031518D01*
X068660Y031419D02*
X068567Y031419D01*
X068567Y031321D02*
X068660Y031321D01*
X068660Y031222D02*
X068567Y031222D01*
X068567Y031124D02*
X068660Y031124D01*
X068742Y031025D02*
X068485Y031025D01*
X068420Y030927D02*
X068807Y030927D01*
X068807Y030828D02*
X068420Y030828D01*
X068420Y030730D02*
X068807Y030730D01*
X068807Y030631D02*
X068420Y030631D01*
X068420Y030533D02*
X068807Y030533D01*
X068807Y030434D02*
X068420Y030434D01*
X068420Y030335D02*
X068807Y030335D01*
X068807Y030237D02*
X068420Y030237D01*
X068420Y030138D02*
X068807Y030138D01*
X068807Y030040D02*
X068420Y030040D01*
X068420Y029941D02*
X068807Y029941D01*
X068787Y029843D02*
X068352Y029843D01*
X068254Y029744D02*
X068688Y029744D01*
X068590Y029646D02*
X068155Y029646D01*
X068057Y029547D02*
X068501Y029547D01*
X068501Y029449D02*
X067958Y029449D01*
X067901Y029350D02*
X068501Y029350D01*
X068501Y029251D02*
X067901Y029251D01*
X067901Y029153D02*
X068501Y029153D01*
X068501Y029054D02*
X067901Y029054D01*
X068032Y028956D02*
X068370Y028956D01*
X068271Y028857D02*
X068130Y028857D01*
X068701Y028474D02*
X068701Y029474D01*
X069007Y029780D01*
X069007Y031956D01*
X068660Y032011D02*
X068567Y032011D01*
X068567Y032109D02*
X068660Y032109D01*
X068660Y032208D02*
X068567Y032208D01*
X068567Y032306D02*
X068660Y032306D01*
X068660Y032405D02*
X068567Y032405D01*
X068567Y032503D02*
X068660Y032503D01*
X068660Y032602D02*
X068567Y032602D01*
X068567Y032701D02*
X068660Y032701D01*
X068660Y032799D02*
X068567Y032799D01*
X069354Y032799D02*
X069448Y032799D01*
X069448Y032701D02*
X069354Y032701D01*
X069354Y032602D02*
X069448Y032602D01*
X069448Y032503D02*
X069354Y032503D01*
X069354Y032405D02*
X069448Y032405D01*
X069448Y032306D02*
X069354Y032306D01*
X069354Y032208D02*
X069448Y032208D01*
X069448Y032109D02*
X069354Y032109D01*
X069354Y032011D02*
X069448Y032011D01*
X070141Y032011D02*
X070235Y032011D01*
X070235Y032109D02*
X070141Y032109D01*
X070141Y032208D02*
X070235Y032208D01*
X070235Y032306D02*
X070141Y032306D01*
X070141Y032405D02*
X070235Y032405D01*
X070235Y032503D02*
X070141Y032503D01*
X070141Y032602D02*
X070235Y032602D01*
X070235Y032701D02*
X070141Y032701D01*
X070141Y032799D02*
X070235Y032799D01*
X071369Y031956D02*
X071369Y029805D01*
X072201Y029974D02*
X072201Y030774D01*
X072157Y030818D01*
X072157Y031956D01*
X072504Y031912D02*
X072597Y031912D01*
X072597Y031814D02*
X072504Y031814D01*
X072504Y031715D02*
X072597Y031715D01*
X072597Y031617D02*
X072504Y031617D01*
X072504Y031518D02*
X072597Y031518D01*
X072597Y031419D02*
X072504Y031419D01*
X072504Y031321D02*
X072597Y031321D01*
X072597Y031222D02*
X072504Y031222D01*
X072504Y031124D02*
X072597Y031124D01*
X072679Y031025D02*
X072422Y031025D01*
X072357Y030927D02*
X072744Y030927D01*
X072744Y030828D02*
X072401Y030828D01*
X072401Y030730D02*
X072744Y030730D01*
X072744Y030631D02*
X072401Y030631D01*
X072455Y030533D02*
X072744Y030533D01*
X072744Y030434D02*
X072554Y030434D01*
X072652Y030335D02*
X072744Y030335D01*
X073144Y030335D02*
X073301Y030335D01*
X073301Y030237D02*
X073144Y030237D01*
X073144Y030138D02*
X073301Y030138D01*
X073352Y030040D02*
X073144Y030040D01*
X073144Y029941D02*
X073451Y029941D01*
X073549Y029843D02*
X073144Y029843D01*
X073144Y029744D02*
X073648Y029744D01*
X073746Y029646D02*
X073144Y029646D01*
X073057Y029547D02*
X073845Y029547D01*
X073943Y029449D02*
X072958Y029449D01*
X072901Y029350D02*
X074042Y029350D01*
X074140Y029251D02*
X072901Y029251D01*
X072901Y029153D02*
X074239Y029153D01*
X074251Y028956D02*
X074151Y028956D01*
X074151Y028857D02*
X074251Y028857D01*
X074251Y028759D02*
X074151Y028759D01*
X074151Y028660D02*
X074251Y028660D01*
X074251Y028562D02*
X074151Y028562D01*
X073771Y028857D02*
X073130Y028857D01*
X073032Y028956D02*
X073870Y028956D01*
X073673Y028759D02*
X073229Y028759D01*
X073276Y028660D02*
X073626Y028660D01*
X073626Y028562D02*
X073276Y028562D01*
X072701Y028474D02*
X072701Y029474D01*
X072944Y029717D01*
X072944Y031956D01*
X073291Y031912D02*
X073301Y031912D01*
X073291Y031814D02*
X073301Y031814D01*
X073291Y031715D02*
X073301Y031715D01*
X073291Y031617D02*
X073301Y031617D01*
X073291Y031518D02*
X073301Y031518D01*
X073291Y031419D02*
X073301Y031419D01*
X073291Y031321D02*
X073301Y031321D01*
X073291Y031222D02*
X073301Y031222D01*
X073291Y031124D02*
X073301Y031124D01*
X073301Y031025D02*
X073210Y031025D01*
X073144Y030927D02*
X073301Y030927D01*
X073301Y030828D02*
X073144Y030828D01*
X073144Y030730D02*
X073301Y030730D01*
X073301Y030631D02*
X073144Y030631D01*
X073144Y030533D02*
X073301Y030533D01*
X073301Y030434D02*
X073144Y030434D01*
X073501Y030434D02*
X075275Y030434D01*
X075275Y030533D02*
X073501Y030533D01*
X073501Y030631D02*
X075275Y030631D01*
X075275Y030730D02*
X073501Y030730D01*
X073501Y030828D02*
X075275Y030828D01*
X075347Y030927D02*
X073501Y030927D01*
X073683Y031025D02*
X073780Y031025D01*
X073780Y031124D02*
X073683Y031124D01*
X073683Y031222D02*
X073780Y031222D01*
X073780Y031321D02*
X073683Y031321D01*
X073683Y031419D02*
X073780Y031419D01*
X073780Y031518D02*
X073683Y031518D01*
X073683Y031617D02*
X073780Y031617D01*
X073780Y031715D02*
X073683Y031715D01*
X073683Y031814D02*
X073780Y031814D01*
X073780Y031912D02*
X074470Y031912D01*
X074470Y031908D02*
X074172Y031908D01*
X074172Y031107D01*
X074260Y031019D01*
X074471Y031019D01*
X074471Y031907D01*
X074567Y031907D01*
X074567Y031019D01*
X074778Y031019D01*
X074866Y031107D01*
X074866Y031908D01*
X074568Y031908D01*
X074568Y032005D01*
X074866Y032005D01*
X074866Y032806D01*
X074778Y032894D01*
X074567Y032894D01*
X074567Y032005D01*
X074471Y032005D01*
X074471Y032894D01*
X074260Y032894D01*
X074172Y032806D01*
X074172Y032005D01*
X074470Y032005D01*
X074470Y031908D01*
X074471Y031814D02*
X074567Y031814D01*
X074568Y031912D02*
X075258Y031912D01*
X075355Y031912D02*
X075901Y031912D01*
X076101Y031912D02*
X080763Y031912D01*
X080763Y031814D02*
X076101Y031814D01*
X076101Y031715D02*
X080763Y031715D01*
X080763Y031617D02*
X076101Y031617D01*
X076101Y031518D02*
X080763Y031518D01*
X080763Y031419D02*
X076101Y031419D01*
X076101Y031321D02*
X080763Y031321D01*
X080763Y031222D02*
X076101Y031222D01*
X076101Y031124D02*
X080763Y031124D01*
X080763Y031025D02*
X076101Y031025D01*
X076101Y030927D02*
X080763Y030927D01*
X080763Y030828D02*
X076126Y030828D01*
X076126Y030730D02*
X080763Y030730D01*
X080763Y030631D02*
X076126Y030631D01*
X076126Y030533D02*
X080763Y030533D01*
X080763Y030434D02*
X076126Y030434D01*
X076126Y030335D02*
X080763Y030335D01*
X080763Y030237D02*
X076126Y030237D01*
X076126Y030138D02*
X080763Y030138D01*
X080763Y030040D02*
X076126Y030040D01*
X076126Y029941D02*
X080763Y029941D01*
X080763Y029843D02*
X076126Y029843D01*
X076126Y029744D02*
X080763Y029744D01*
X080763Y029646D02*
X076065Y029646D01*
X076039Y029329D02*
X075751Y029329D01*
X075751Y028717D01*
X076126Y028717D01*
X076126Y029241D01*
X076039Y029329D01*
X076116Y029251D02*
X080763Y029251D01*
X080763Y029153D02*
X076126Y029153D01*
X076126Y029054D02*
X080763Y029054D01*
X080763Y028956D02*
X076126Y028956D01*
X076126Y028857D02*
X080763Y028857D01*
X080763Y028759D02*
X076126Y028759D01*
X076126Y028562D02*
X080763Y028562D01*
X080763Y028660D02*
X075751Y028660D01*
X075751Y028759D02*
X075651Y028759D01*
X075651Y028857D02*
X075751Y028857D01*
X075751Y028956D02*
X075651Y028956D01*
X075651Y029054D02*
X075751Y029054D01*
X075751Y029153D02*
X075651Y029153D01*
X075651Y029251D02*
X075751Y029251D01*
X075457Y029547D02*
X080763Y029547D01*
X080763Y029449D02*
X075358Y029449D01*
X075260Y029350D02*
X080763Y029350D01*
X080763Y028463D02*
X076126Y028463D01*
X076126Y028365D02*
X080763Y028365D01*
X080763Y028266D02*
X076126Y028266D01*
X076126Y028168D02*
X080763Y028168D01*
X080763Y028069D02*
X076103Y028069D01*
X075275Y029054D02*
X072901Y029054D01*
X071370Y028956D02*
X071032Y028956D01*
X071130Y028857D02*
X071271Y028857D01*
X073997Y031025D02*
X074254Y031025D01*
X074172Y031124D02*
X074078Y031124D01*
X074078Y031222D02*
X074172Y031222D01*
X074172Y031321D02*
X074078Y031321D01*
X074078Y031419D02*
X074172Y031419D01*
X074172Y031518D02*
X074078Y031518D01*
X074078Y031617D02*
X074172Y031617D01*
X074172Y031715D02*
X074078Y031715D01*
X074078Y031814D02*
X074172Y031814D01*
X074172Y032011D02*
X074078Y032011D01*
X074078Y032005D02*
X074078Y032806D01*
X073991Y032894D01*
X073780Y032894D01*
X073780Y032005D01*
X074078Y032005D01*
X074078Y032109D02*
X074172Y032109D01*
X074172Y032208D02*
X074078Y032208D01*
X074078Y032306D02*
X074172Y032306D01*
X074172Y032405D02*
X074078Y032405D01*
X074078Y032503D02*
X074172Y032503D01*
X074172Y032602D02*
X074078Y032602D01*
X074078Y032701D02*
X074172Y032701D01*
X074172Y032799D02*
X074078Y032799D01*
X073780Y032799D02*
X073683Y032799D01*
X073683Y032701D02*
X073780Y032701D01*
X073780Y032602D02*
X073683Y032602D01*
X073683Y032503D02*
X073780Y032503D01*
X073780Y032405D02*
X073683Y032405D01*
X073683Y032306D02*
X073780Y032306D01*
X073780Y032208D02*
X073683Y032208D01*
X073683Y032109D02*
X073780Y032109D01*
X073780Y032011D02*
X073683Y032011D01*
X073301Y032011D02*
X073291Y032011D01*
X073291Y032109D02*
X073301Y032109D01*
X073291Y032208D02*
X073301Y032208D01*
X073291Y032306D02*
X073301Y032306D01*
X073291Y032405D02*
X073301Y032405D01*
X073291Y032503D02*
X073301Y032503D01*
X073291Y032602D02*
X073301Y032602D01*
X073291Y032701D02*
X073301Y032701D01*
X073291Y032799D02*
X073301Y032799D01*
X072597Y032799D02*
X072504Y032799D01*
X072504Y032701D02*
X072597Y032701D01*
X072597Y032602D02*
X072504Y032602D01*
X072504Y032503D02*
X072597Y032503D01*
X072597Y032405D02*
X072504Y032405D01*
X072504Y032306D02*
X072597Y032306D01*
X072597Y032208D02*
X072504Y032208D01*
X072504Y032109D02*
X072597Y032109D01*
X072597Y032011D02*
X072504Y032011D01*
X074471Y032011D02*
X074567Y032011D01*
X074567Y032109D02*
X074471Y032109D01*
X074471Y032208D02*
X074567Y032208D01*
X074567Y032306D02*
X074471Y032306D01*
X074471Y032405D02*
X074567Y032405D01*
X074567Y032503D02*
X074471Y032503D01*
X074471Y032602D02*
X074567Y032602D01*
X074567Y032701D02*
X074471Y032701D01*
X074471Y032799D02*
X074567Y032799D01*
X074866Y032799D02*
X074960Y032799D01*
X074960Y032701D02*
X074866Y032701D01*
X074866Y032602D02*
X074960Y032602D01*
X074960Y032503D02*
X074866Y032503D01*
X074866Y032405D02*
X074960Y032405D01*
X074960Y032306D02*
X074866Y032306D01*
X074866Y032208D02*
X074960Y032208D01*
X074960Y032109D02*
X074866Y032109D01*
X074866Y032011D02*
X074960Y032011D01*
X074960Y031814D02*
X074866Y031814D01*
X074866Y031715D02*
X074960Y031715D01*
X074960Y031617D02*
X074866Y031617D01*
X074866Y031518D02*
X074960Y031518D01*
X074960Y031419D02*
X074866Y031419D01*
X074866Y031321D02*
X074960Y031321D01*
X074960Y031222D02*
X074866Y031222D01*
X074866Y031124D02*
X074960Y031124D01*
X075041Y031025D02*
X074785Y031025D01*
X074567Y031025D02*
X074471Y031025D01*
X074471Y031124D02*
X074567Y031124D01*
X074567Y031222D02*
X074471Y031222D01*
X074471Y031321D02*
X074567Y031321D01*
X074567Y031419D02*
X074471Y031419D01*
X074471Y031518D02*
X074567Y031518D01*
X074567Y031617D02*
X074471Y031617D01*
X074471Y031715D02*
X074567Y031715D01*
X075258Y031715D02*
X075355Y031715D01*
X075355Y031617D02*
X075258Y031617D01*
X075258Y031518D02*
X075355Y031518D01*
X075355Y031419D02*
X075258Y031419D01*
X075258Y031321D02*
X075355Y031321D01*
X075355Y031222D02*
X075258Y031222D01*
X075258Y031124D02*
X075355Y031124D01*
X075355Y031025D02*
X075258Y031025D01*
X075258Y031814D02*
X075355Y031814D01*
X075355Y032011D02*
X075258Y032011D01*
X075258Y032109D02*
X075355Y032109D01*
X075355Y032208D02*
X075258Y032208D01*
X075258Y032306D02*
X075355Y032306D01*
X075355Y032405D02*
X075258Y032405D01*
X075258Y032503D02*
X075355Y032503D01*
X075355Y032602D02*
X075258Y032602D01*
X075258Y032701D02*
X075355Y032701D01*
X075355Y032799D02*
X075258Y032799D01*
X075663Y033095D02*
X080763Y033095D01*
X080763Y033193D02*
X076756Y033193D01*
X076835Y033292D02*
X080763Y033292D01*
X080763Y033390D02*
X076835Y033390D01*
X076835Y033489D02*
X080763Y033489D01*
X080763Y033587D02*
X076835Y033587D01*
X076835Y033686D02*
X080763Y033686D01*
X080763Y033784D02*
X076835Y033784D01*
X076835Y033883D02*
X080763Y033883D01*
X080763Y033982D02*
X076439Y033982D01*
X076439Y033883D02*
X076339Y033883D01*
X076339Y033784D02*
X076439Y033784D01*
X076439Y033686D02*
X076339Y033686D01*
X076339Y033587D02*
X076439Y033587D01*
X076439Y033489D02*
X076339Y033489D01*
X076339Y033390D02*
X076439Y033390D01*
X076439Y033292D02*
X076339Y033292D01*
X076339Y033193D02*
X076439Y033193D01*
X075958Y032799D02*
X080763Y032799D01*
X080763Y032701D02*
X076057Y032701D01*
X076101Y032602D02*
X080763Y032602D01*
X080763Y032503D02*
X076101Y032503D01*
X076101Y032405D02*
X080763Y032405D01*
X080763Y032306D02*
X076101Y032306D01*
X076101Y032208D02*
X080763Y032208D01*
X080763Y032109D02*
X076101Y032109D01*
X076101Y032011D02*
X080763Y032011D01*
X080763Y032898D02*
X075860Y032898D01*
X075761Y032996D02*
X080763Y032996D01*
X080763Y034080D02*
X076835Y034080D01*
X076835Y034179D02*
X080763Y034179D01*
X080763Y034277D02*
X076835Y034277D01*
X076835Y034376D02*
X080763Y034376D01*
X080763Y034474D02*
X076835Y034474D01*
X076835Y034573D02*
X080763Y034573D01*
X080763Y034671D02*
X076835Y034671D01*
X075286Y029251D02*
X075161Y029251D01*
X075063Y029153D02*
X075275Y029153D01*
X066298Y032011D02*
X066204Y032011D01*
X066204Y032109D02*
X066298Y032109D01*
X066298Y032208D02*
X066204Y032208D01*
X066204Y032306D02*
X066298Y032306D01*
X066298Y032405D02*
X066204Y032405D01*
X066204Y032503D02*
X066298Y032503D01*
X066298Y032602D02*
X066204Y032602D01*
X066204Y032701D02*
X066298Y032701D01*
X066298Y032799D02*
X066204Y032799D01*
X034701Y025674D02*
X031901Y025674D01*
X031606Y025379D01*
X031606Y024179D01*
X031201Y028168D02*
X030801Y028168D01*
X030801Y028266D02*
X031201Y028266D01*
X030601Y028365D02*
X030139Y028365D01*
X030262Y028463D02*
X030601Y028463D01*
X030401Y028562D02*
X030386Y028562D01*
X030401Y028266D02*
X030016Y028266D01*
X029901Y028168D02*
X030401Y028168D01*
X030401Y029274D02*
X030301Y029374D01*
X030301Y030474D01*
X030851Y031024D01*
X031168Y031024D01*
X031501Y030691D01*
X031501Y029274D01*
X030401Y029274D01*
X030325Y029350D02*
X031501Y029350D01*
X031501Y029449D02*
X030301Y029449D01*
X030301Y029547D02*
X031501Y029547D01*
X031501Y029646D02*
X030301Y029646D01*
X030301Y029744D02*
X031501Y029744D01*
X031501Y029843D02*
X030301Y029843D01*
X030301Y029941D02*
X031501Y029941D01*
X031501Y030040D02*
X030301Y030040D01*
X030301Y030138D02*
X031501Y030138D01*
X031501Y030237D02*
X030301Y030237D01*
X030301Y030335D02*
X031501Y030335D01*
X031501Y030434D02*
X030301Y030434D01*
X030359Y030533D02*
X031501Y030533D01*
X031501Y030631D02*
X030458Y030631D01*
X030557Y030730D02*
X031462Y030730D01*
X031364Y030828D02*
X030655Y030828D01*
X030754Y030927D02*
X031265Y030927D01*
D33*
X032251Y032074D03*
X032651Y032374D03*
X033051Y032674D03*
X033051Y032074D03*
X032251Y032674D03*
X035601Y032974D03*
X036201Y032974D03*
X036801Y032974D03*
X036801Y033574D03*
X036201Y033574D03*
X035601Y033574D03*
X044401Y030174D03*
X045001Y030874D03*
X045151Y031724D03*
X045151Y032424D03*
X049601Y031074D03*
X051501Y031574D03*
X051901Y031174D03*
X051901Y030574D03*
X051901Y029974D03*
X051501Y029574D03*
X051901Y029174D03*
X051901Y028574D03*
X051901Y027974D03*
X051401Y027174D03*
X049651Y028074D03*
X049401Y026274D03*
X048601Y026274D03*
X045151Y026724D03*
X044601Y026274D03*
X044001Y026874D03*
X046601Y028574D03*
X051251Y032224D03*
X055701Y030774D03*
X056501Y030574D03*
X056501Y029974D03*
X056101Y029574D03*
X057901Y029774D03*
X057901Y029174D03*
X057901Y028574D03*
X057901Y027974D03*
X069151Y025424D03*
X069701Y025424D03*
X070251Y025424D03*
X072101Y026274D03*
X072901Y025874D03*
X073701Y025474D03*
X074401Y022874D03*
X075201Y022474D03*
X076001Y022074D03*
X076801Y021674D03*
X077101Y028474D03*
X077101Y029074D03*
X077101Y029674D03*
X076501Y029674D03*
X076501Y029074D03*
X076501Y028474D03*
X074601Y029574D03*
X074901Y030074D03*
X075001Y030674D03*
X074401Y030674D03*
X073801Y030674D03*
X074101Y030074D03*
X051001Y021924D03*
X049001Y021774D03*
X047001Y021924D03*
X032401Y024974D03*
X032401Y026374D03*
D34*
X047001Y021924D02*
X047551Y021924D01*
X047701Y021774D01*
X047666Y021774D01*
X050301Y021774D02*
X050451Y021924D01*
X051001Y021924D01*
X050335Y021774D02*
X050301Y021774D01*
X049401Y026274D02*
X049146Y026529D01*
X049146Y027133D01*
X048831Y027133D02*
X048831Y026504D01*
X048601Y026274D01*
M02*
