G75*
G70*
%OFA0B0*%
%FSLAX24Y24*%
%IPPOS*%
%LPD*%
%AMOC8*
5,1,8,0,0,1.08239X$1,22.5*
%
%ADD10C,0.0300*%
%ADD11C,0.0400*%
%ADD12C,0.0520*%
%ADD13C,0.0886*%
%ADD14OC8,0.0850*%
%ADD15OC8,0.0600*%
%ADD16O,0.0560X0.1120*%
%ADD17C,0.0827*%
%ADD18C,0.0476*%
%ADD19C,0.0100*%
%ADD20C,0.0440*%
%ADD21C,0.0160*%
D10*
X027151Y018024D02*
X027351Y017824D01*
X027751Y017824D01*
X027951Y018024D01*
X027951Y018224D01*
X027751Y018424D01*
X027351Y018424D01*
X027151Y018625D01*
X027151Y018825D01*
X027351Y019025D01*
X027751Y019025D01*
X027951Y018825D01*
X028532Y018825D02*
X028532Y018024D01*
X028732Y017824D01*
X029132Y017824D01*
X029333Y018024D01*
X029333Y018825D01*
X029132Y019025D01*
X028732Y019025D01*
X028532Y018825D01*
X029913Y019025D02*
X029913Y017824D01*
X030714Y017824D01*
X031294Y017824D02*
X031895Y017824D01*
X032095Y018024D01*
X032095Y018825D01*
X031895Y019025D01*
X031294Y019025D01*
X031294Y017824D01*
X032675Y017824D02*
X033476Y017824D01*
X034056Y017824D02*
X034056Y019025D01*
X034657Y019025D01*
X034857Y018825D01*
X034857Y018424D01*
X034657Y018224D01*
X034056Y018224D01*
X034457Y018224D02*
X034857Y017824D01*
X036819Y018024D02*
X037019Y017824D01*
X037419Y017824D01*
X037619Y018024D01*
X037619Y018224D01*
X037419Y018424D01*
X037019Y018424D01*
X036819Y018625D01*
X036819Y018825D01*
X037019Y019025D01*
X037419Y019025D01*
X037619Y018825D01*
X038200Y019025D02*
X038600Y019025D01*
X038400Y019025D02*
X038400Y017824D01*
X038200Y017824D02*
X038600Y017824D01*
X039121Y017824D02*
X039721Y017824D01*
X039921Y018024D01*
X039921Y018825D01*
X039721Y019025D01*
X039121Y019025D01*
X039121Y017824D01*
X040502Y017824D02*
X041302Y017824D01*
X040902Y018424D02*
X040502Y018424D01*
X040502Y017824D02*
X040502Y019025D01*
X041302Y019025D01*
X033476Y019025D02*
X032675Y019025D01*
X032675Y017824D01*
X032675Y018424D02*
X033076Y018424D01*
D11*
X032625Y036474D02*
X032625Y038075D01*
X033426Y038075D01*
X033693Y037808D01*
X033693Y037275D01*
X033426Y037008D01*
X032625Y037008D01*
X033159Y037008D02*
X033693Y036474D01*
X034467Y036474D02*
X035268Y036474D01*
X035534Y036741D01*
X035534Y037808D01*
X035268Y038075D01*
X034467Y038075D01*
X034467Y036474D01*
X031851Y036474D02*
X031851Y037541D01*
X031318Y038075D01*
X030784Y037541D01*
X030784Y036474D01*
X030784Y037275D02*
X031851Y037275D01*
X030010Y037808D02*
X029743Y038075D01*
X029209Y038075D01*
X028942Y037808D01*
X028942Y036741D01*
X029209Y036474D01*
X029743Y036474D01*
X030010Y036741D01*
X030010Y037808D01*
X028168Y037808D02*
X028168Y037541D01*
X027901Y037275D01*
X027101Y037275D01*
X027101Y038075D02*
X027101Y036474D01*
X027901Y036474D01*
X028168Y036741D01*
X028168Y037008D01*
X027901Y037275D01*
X028168Y037808D02*
X027901Y038075D01*
X027101Y038075D01*
X038150Y038075D02*
X038150Y036474D01*
X039218Y036474D02*
X039218Y038075D01*
X039992Y037541D02*
X040525Y038075D01*
X041059Y037541D01*
X041059Y036474D01*
X041833Y036474D02*
X041833Y038075D01*
X042367Y037541D01*
X042901Y038075D01*
X042901Y036474D01*
X043675Y036474D02*
X044742Y036474D01*
X045516Y036474D02*
X045516Y036741D01*
X045783Y036741D01*
X045783Y036474D01*
X045516Y036474D01*
X045516Y037275D02*
X045516Y037541D01*
X045783Y037541D01*
X045783Y037275D01*
X045516Y037275D01*
X044208Y037275D02*
X043675Y037275D01*
X043675Y038075D02*
X043675Y036474D01*
X041059Y037275D02*
X039992Y037275D01*
X039992Y037541D02*
X039992Y036474D01*
X039218Y036474D02*
X038150Y038075D01*
X043675Y038075D02*
X044742Y038075D01*
X048278Y038075D02*
X048278Y036474D01*
X049346Y036474D02*
X049346Y038075D01*
X050120Y038075D02*
X050120Y036474D01*
X051188Y036474D01*
X051961Y036474D02*
X051961Y038075D01*
X052762Y038075D01*
X053029Y037808D01*
X053029Y037275D01*
X052762Y037008D01*
X051961Y037008D01*
X052495Y037008D02*
X053029Y036474D01*
X053803Y036474D02*
X054604Y036474D01*
X054871Y036741D01*
X054871Y037808D01*
X054604Y038075D01*
X053803Y038075D01*
X053803Y036474D01*
X055645Y036474D02*
X056712Y036474D01*
X056178Y036474D02*
X056178Y038075D01*
X055645Y037541D01*
X051188Y038075D02*
X050120Y038075D01*
X049346Y036474D02*
X048278Y038075D01*
X050120Y037275D02*
X050654Y037275D01*
D12*
X049851Y023324D03*
X047951Y023324D03*
D13*
X033043Y023931D03*
X030169Y023931D03*
X030169Y021845D03*
X033043Y021845D03*
D14*
X034301Y022974D03*
X034301Y023974D03*
X035301Y023974D03*
X029501Y026374D03*
X027601Y026374D03*
X035301Y027474D03*
X036101Y028474D03*
X037101Y028474D03*
X038101Y028474D03*
X046901Y025774D03*
X053401Y025674D03*
X065701Y028474D03*
X066701Y028474D03*
X067701Y028474D03*
X068701Y028474D03*
X069701Y028474D03*
X070701Y028474D03*
X071701Y028474D03*
X072701Y028474D03*
X074201Y028474D03*
X072201Y029974D03*
X029701Y033674D03*
D15*
X034101Y031474D03*
X035101Y031474D03*
X036101Y031474D03*
X037101Y031474D03*
X037101Y030474D03*
X036101Y030474D03*
X035101Y030474D03*
X034101Y030474D03*
D16*
X054401Y025674D03*
X055401Y025674D03*
X056401Y025674D03*
D17*
X057891Y024074D03*
X051710Y024074D03*
D18*
X053226Y024074D03*
X054013Y024074D03*
X054801Y024074D03*
X056376Y024074D03*
D19*
X056732Y024226D02*
X057344Y024226D01*
X057328Y024186D02*
X057328Y024124D01*
X057841Y024124D01*
X057841Y024024D01*
X057328Y024024D01*
X057328Y023962D01*
X057414Y023755D01*
X057572Y023596D01*
X057779Y023510D01*
X057841Y023510D01*
X057841Y024024D01*
X057941Y024024D01*
X057941Y023510D01*
X058003Y023510D01*
X058210Y023596D01*
X058369Y023755D01*
X058455Y023962D01*
X058455Y024024D01*
X057941Y024024D01*
X057941Y024124D01*
X057841Y024124D01*
X057841Y024637D01*
X057779Y024637D01*
X057572Y024551D01*
X057414Y024393D01*
X057328Y024186D01*
X057328Y024127D02*
X056763Y024127D01*
X056763Y024151D02*
X056704Y024294D01*
X056595Y024403D01*
X056453Y024462D01*
X056298Y024462D01*
X056156Y024403D01*
X056047Y024294D01*
X055988Y024151D01*
X055988Y023997D01*
X056047Y023854D01*
X056156Y023745D01*
X056298Y023686D01*
X056453Y023686D01*
X056595Y023745D01*
X056704Y023854D01*
X056763Y023997D01*
X056763Y024151D01*
X056763Y024029D02*
X057841Y024029D01*
X057841Y024127D02*
X057941Y024127D01*
X057941Y024124D02*
X057941Y024637D01*
X058003Y024637D01*
X058210Y024551D01*
X058369Y024393D01*
X058455Y024186D01*
X058455Y024124D01*
X057941Y024124D01*
X057941Y024029D02*
X061939Y024029D01*
X061886Y023983D02*
X061818Y023914D01*
X061765Y023892D01*
X061599Y023726D01*
X061551Y023610D01*
X061537Y023592D01*
X061391Y023375D01*
X061317Y023240D01*
X061231Y023154D01*
X061141Y022937D01*
X061141Y022845D01*
X061079Y022656D01*
X061048Y022522D01*
X060959Y022308D01*
X060959Y022073D01*
X060978Y022025D01*
X060972Y021879D01*
X060978Y021744D01*
X060931Y021631D01*
X060931Y021424D01*
X033461Y021424D01*
X033546Y021509D01*
X033636Y021727D01*
X033636Y021795D01*
X033094Y021795D01*
X033094Y021894D01*
X033636Y021894D01*
X033636Y021962D01*
X033546Y022180D01*
X033379Y022347D01*
X033161Y022437D01*
X033093Y022437D01*
X033093Y021895D01*
X032993Y021895D01*
X032993Y022437D01*
X032925Y022437D01*
X032708Y022347D01*
X032541Y022180D01*
X032451Y021962D01*
X032451Y021894D01*
X032993Y021894D01*
X032993Y021795D01*
X032451Y021795D01*
X032451Y021727D01*
X032541Y021509D01*
X032626Y021424D01*
X030587Y021424D01*
X030672Y021509D01*
X030762Y021727D01*
X030762Y021795D01*
X030220Y021795D01*
X030220Y021894D01*
X030762Y021894D01*
X030762Y021962D01*
X030672Y022180D01*
X030505Y022347D01*
X030287Y022437D01*
X030219Y022437D01*
X030219Y021895D01*
X030119Y021895D01*
X030119Y022437D01*
X030051Y022437D01*
X029834Y022347D01*
X029700Y022213D01*
X029715Y022326D01*
X029725Y022549D01*
X029715Y022772D01*
X029685Y022992D01*
X029635Y023210D01*
X029565Y023422D01*
X029476Y023626D01*
X029369Y023822D01*
X029244Y024007D01*
X029104Y024180D01*
X029104Y024180D01*
X028948Y024339D01*
X028778Y024484D01*
X028596Y024613D01*
X028403Y024724D01*
X028200Y024818D01*
X027990Y024892D01*
X027774Y024947D01*
X027554Y024983D01*
X027331Y024998D01*
X027108Y024993D01*
X026887Y024968D01*
X026887Y024968D01*
X026668Y024922D01*
X026455Y024857D01*
X026249Y024773D01*
X026248Y024773D01*
X026151Y024722D01*
X026151Y034697D01*
X080763Y034697D01*
X080763Y021424D01*
X077074Y021424D01*
X077114Y021464D01*
X077171Y021600D01*
X077171Y021747D01*
X077114Y021883D01*
X077010Y021987D01*
X076874Y022044D01*
X076727Y022044D01*
X076591Y021987D01*
X076487Y021883D01*
X076483Y021874D01*
X076318Y021874D01*
X076371Y022000D01*
X076371Y022147D01*
X076314Y022283D01*
X076210Y022387D01*
X076074Y022444D01*
X075927Y022444D01*
X075791Y022387D01*
X075687Y022283D01*
X075683Y022274D01*
X075518Y022274D01*
X075571Y022400D01*
X075571Y022547D01*
X075514Y022683D01*
X075410Y022787D01*
X075274Y022844D01*
X075127Y022844D01*
X074991Y022787D01*
X074887Y022683D01*
X074883Y022674D01*
X074718Y022674D01*
X074771Y022800D01*
X074771Y022947D01*
X074714Y023083D01*
X074610Y023187D01*
X074474Y023244D01*
X074327Y023244D01*
X074191Y023187D01*
X074087Y023083D01*
X074083Y023074D01*
X069784Y023074D01*
X068901Y023957D01*
X068901Y024874D01*
X068984Y024874D01*
X070118Y024874D01*
X071118Y023874D01*
X071284Y023874D01*
X074384Y023874D01*
X074501Y023991D01*
X075601Y025091D01*
X075601Y025257D01*
X075601Y031057D01*
X075484Y031174D01*
X073084Y033574D01*
X072918Y033574D01*
X054784Y033574D01*
X054284Y034074D01*
X054118Y034074D01*
X035418Y034074D01*
X035301Y033957D01*
X035001Y033657D01*
X035001Y033491D01*
X035001Y032891D01*
X035118Y032774D01*
X035301Y032591D01*
X035418Y032474D01*
X044318Y032474D01*
X044818Y031974D01*
X044984Y031974D01*
X045618Y031974D01*
X046101Y031491D01*
X046101Y028391D01*
X046218Y028274D01*
X046918Y027574D01*
X047084Y027574D01*
X049884Y027574D01*
X050001Y027691D01*
X050101Y027791D01*
X050101Y027957D01*
X050101Y032291D01*
X050384Y032574D01*
X053318Y032574D01*
X053918Y031974D01*
X054084Y031974D01*
X071418Y031974D01*
X074343Y029049D01*
X074251Y029049D01*
X074251Y028524D01*
X074151Y028524D01*
X074151Y029049D01*
X073963Y029049D01*
X073626Y028712D01*
X073626Y028524D01*
X074151Y028524D01*
X074151Y028424D01*
X074251Y028424D01*
X074251Y027899D01*
X074439Y027899D01*
X074601Y028061D01*
X074601Y025465D01*
X073926Y024874D01*
X071584Y024874D01*
X070484Y025974D01*
X070318Y025974D01*
X068901Y025974D01*
X068901Y027899D01*
X068939Y027899D01*
X069201Y028161D01*
X069463Y027899D01*
X069501Y027899D01*
X069501Y027491D01*
X069618Y027374D01*
X071718Y025274D01*
X071884Y025274D01*
X073383Y025274D01*
X073387Y025264D01*
X073491Y025160D01*
X073627Y025104D01*
X073774Y025104D01*
X073910Y025160D01*
X074014Y025264D01*
X074071Y025400D01*
X074071Y025547D01*
X074014Y025683D01*
X073910Y025787D01*
X073774Y025844D01*
X073627Y025844D01*
X073491Y025787D01*
X073387Y025683D01*
X073383Y025674D01*
X073218Y025674D01*
X073271Y025800D01*
X073271Y025947D01*
X073214Y026083D01*
X073110Y026187D01*
X072974Y026244D01*
X072827Y026244D01*
X072691Y026187D01*
X072587Y026083D01*
X072583Y026074D01*
X072418Y026074D01*
X072471Y026200D01*
X072471Y026347D01*
X072414Y026483D01*
X072310Y026587D01*
X072174Y026644D01*
X072027Y026644D01*
X072018Y026640D01*
X071901Y026757D01*
X071901Y027899D01*
X071939Y027899D01*
X072201Y028161D01*
X072463Y027899D01*
X072939Y027899D01*
X073276Y028236D01*
X073276Y028712D01*
X072939Y029049D01*
X072463Y029049D01*
X072201Y028787D01*
X071939Y029049D01*
X071463Y029049D01*
X071201Y028787D01*
X070939Y029049D01*
X070463Y029049D01*
X070201Y028787D01*
X069939Y029049D01*
X069463Y029049D01*
X069201Y028787D01*
X068939Y029049D01*
X068463Y029049D01*
X068201Y028787D01*
X067939Y029049D01*
X067463Y029049D01*
X067201Y028787D01*
X066939Y029049D01*
X066463Y029049D01*
X066201Y028787D01*
X065939Y029049D01*
X065463Y029049D01*
X065126Y028712D01*
X065126Y028236D01*
X065463Y027899D01*
X065501Y027899D01*
X065501Y024691D01*
X065618Y024574D01*
X068718Y021474D01*
X068884Y021474D01*
X076483Y021474D01*
X076487Y021464D01*
X076528Y021424D01*
X066746Y021424D01*
X066746Y021631D01*
X066721Y021692D01*
X066726Y021748D01*
X066726Y022010D01*
X066718Y022093D01*
X066718Y022308D01*
X066677Y022408D01*
X066655Y022529D01*
X066584Y022781D01*
X066536Y022907D01*
X066536Y022937D01*
X066446Y023154D01*
X066411Y023189D01*
X066375Y023262D01*
X066239Y023485D01*
X066099Y023675D01*
X066078Y023726D01*
X065912Y023892D01*
X065905Y023895D01*
X065717Y024070D01*
X065510Y024231D01*
X065462Y024262D01*
X065390Y024334D01*
X065258Y024389D01*
X065057Y024493D01*
X064814Y024592D01*
X064745Y024613D01*
X064577Y024683D01*
X064494Y024683D01*
X064307Y024721D01*
X064047Y024751D01*
X063995Y024752D01*
X063955Y024769D01*
X063720Y024769D01*
X063673Y024750D01*
X063523Y024739D01*
X063265Y024698D01*
X063205Y024683D01*
X063100Y024683D01*
X062883Y024593D01*
X062875Y024585D01*
X062764Y024545D01*
X062526Y024435D01*
X062506Y024424D01*
X062504Y024424D01*
X062287Y024334D01*
X062157Y024204D01*
X062085Y024153D01*
X061886Y023983D01*
X061834Y023930D02*
X058442Y023930D01*
X058401Y023832D02*
X061705Y023832D01*
X061606Y023733D02*
X058347Y023733D01*
X058249Y023635D02*
X061561Y023635D01*
X061499Y023536D02*
X058065Y023536D01*
X057941Y023536D02*
X057841Y023536D01*
X057841Y023635D02*
X057941Y023635D01*
X057941Y023733D02*
X057841Y023733D01*
X057841Y023832D02*
X057941Y023832D01*
X057941Y023930D02*
X057841Y023930D01*
X057841Y024226D02*
X057941Y024226D01*
X057941Y024324D02*
X057841Y024324D01*
X057841Y024423D02*
X057941Y024423D01*
X057941Y024521D02*
X057841Y024521D01*
X057841Y024620D02*
X057941Y024620D01*
X058045Y024620D02*
X062949Y024620D01*
X062713Y024521D02*
X058240Y024521D01*
X058339Y024423D02*
X062502Y024423D01*
X062278Y024324D02*
X058397Y024324D01*
X058438Y024226D02*
X062179Y024226D01*
X062055Y024127D02*
X058455Y024127D01*
X057738Y024620D02*
X055601Y024620D01*
X055601Y024591D02*
X055601Y024986D01*
X055831Y025216D01*
X055831Y026132D01*
X055579Y026384D01*
X055223Y026384D01*
X054971Y026132D01*
X054971Y025216D01*
X055201Y024986D01*
X055201Y024757D01*
X054898Y024453D01*
X054878Y024462D01*
X054724Y024462D01*
X054581Y024403D01*
X054472Y024294D01*
X054413Y024151D01*
X054413Y023997D01*
X054472Y023854D01*
X054581Y023745D01*
X054724Y023686D01*
X054878Y023686D01*
X055020Y023745D01*
X055130Y023854D01*
X055189Y023997D01*
X055189Y024151D01*
X055180Y024171D01*
X055484Y024474D01*
X055601Y024591D01*
X055531Y024521D02*
X057542Y024521D01*
X057444Y024423D02*
X056546Y024423D01*
X056674Y024324D02*
X057385Y024324D01*
X057341Y023930D02*
X056736Y023930D01*
X056682Y023832D02*
X057382Y023832D01*
X057435Y023733D02*
X056566Y023733D01*
X056185Y023733D02*
X054991Y023733D01*
X055107Y023832D02*
X056069Y023832D01*
X056015Y023930D02*
X055161Y023930D01*
X055189Y024029D02*
X055988Y024029D01*
X055988Y024127D02*
X055189Y024127D01*
X055235Y024226D02*
X056019Y024226D01*
X056078Y024324D02*
X055334Y024324D01*
X055433Y024423D02*
X056205Y024423D01*
X056223Y024964D02*
X055971Y025216D01*
X055971Y026132D01*
X056223Y026384D01*
X056579Y026384D01*
X056831Y026132D01*
X056831Y025216D01*
X056579Y024964D01*
X056223Y024964D01*
X056172Y025014D02*
X055629Y025014D01*
X055601Y024916D02*
X065501Y024916D01*
X065501Y025014D02*
X056629Y025014D01*
X056728Y025113D02*
X065501Y025113D01*
X065501Y025211D02*
X056826Y025211D01*
X056831Y025310D02*
X065501Y025310D01*
X065501Y025408D02*
X056831Y025408D01*
X056831Y025507D02*
X065501Y025507D01*
X065501Y025605D02*
X056831Y025605D01*
X056831Y025704D02*
X065501Y025704D01*
X065501Y025802D02*
X056831Y025802D01*
X056831Y025901D02*
X065501Y025901D01*
X065501Y026000D02*
X056831Y026000D01*
X056831Y026098D02*
X065501Y026098D01*
X065501Y026197D02*
X056766Y026197D01*
X056667Y026295D02*
X065501Y026295D01*
X065501Y026394D02*
X049752Y026394D01*
X049771Y026347D02*
X049714Y026483D01*
X049610Y026587D01*
X049474Y026644D01*
X049327Y026644D01*
X049191Y026587D01*
X049087Y026483D01*
X049031Y026347D01*
X049031Y026200D01*
X049087Y026064D01*
X049171Y025981D01*
X049171Y023869D01*
X049171Y023679D01*
X049442Y023408D01*
X049441Y023405D01*
X049441Y023242D01*
X049503Y023092D01*
X049619Y022976D01*
X049621Y022975D01*
X049621Y022329D01*
X049756Y022194D01*
X050256Y021694D01*
X050446Y021694D01*
X050708Y021694D01*
X050791Y021610D01*
X050927Y021554D01*
X051074Y021554D01*
X051210Y021610D01*
X051314Y021714D01*
X051371Y021850D01*
X051371Y021997D01*
X051314Y022133D01*
X051210Y022237D01*
X051074Y022294D01*
X050927Y022294D01*
X050791Y022237D01*
X050708Y022154D01*
X050446Y022154D01*
X050081Y022519D01*
X050081Y022975D01*
X050083Y022976D01*
X050198Y023092D01*
X050261Y023242D01*
X050261Y023405D01*
X050198Y023556D01*
X050083Y023671D01*
X049932Y023734D01*
X049769Y023734D01*
X049767Y023733D01*
X049631Y023869D01*
X049631Y025981D01*
X049714Y026064D01*
X049771Y026200D01*
X049771Y026347D01*
X049771Y026295D02*
X054134Y026295D01*
X054223Y026384D02*
X053971Y026132D01*
X053971Y025917D01*
X053639Y026249D01*
X053163Y026249D01*
X052826Y025912D01*
X052826Y025436D01*
X053163Y025099D01*
X053639Y025099D01*
X053971Y025431D01*
X053971Y025216D01*
X054201Y024986D01*
X054201Y024957D01*
X053813Y024569D01*
X053813Y024411D01*
X053794Y024403D01*
X053685Y024294D01*
X053676Y024274D01*
X053563Y024274D01*
X053555Y024294D01*
X053446Y024403D01*
X053303Y024462D01*
X053149Y024462D01*
X053006Y024403D01*
X052897Y024294D01*
X052838Y024151D01*
X052838Y023997D01*
X052897Y023854D01*
X053006Y023745D01*
X053149Y023686D01*
X053303Y023686D01*
X053446Y023745D01*
X053555Y023854D01*
X053563Y023874D01*
X053676Y023874D01*
X053685Y023854D01*
X053794Y023745D01*
X053936Y023686D01*
X054091Y023686D01*
X054233Y023745D01*
X054342Y023854D01*
X054401Y023997D01*
X054401Y024151D01*
X054342Y024294D01*
X054233Y024403D01*
X054218Y024409D01*
X054484Y024674D01*
X054601Y024791D01*
X054601Y024986D01*
X054831Y025216D01*
X054831Y026132D01*
X054579Y026384D01*
X054223Y026384D01*
X054036Y026197D02*
X053691Y026197D01*
X053790Y026098D02*
X053971Y026098D01*
X053971Y026000D02*
X053888Y026000D01*
X053948Y025408D02*
X053971Y025408D01*
X053971Y025310D02*
X053850Y025310D01*
X053751Y025211D02*
X053975Y025211D01*
X054074Y025113D02*
X053653Y025113D01*
X053963Y024719D02*
X049631Y024719D01*
X049631Y024817D02*
X054061Y024817D01*
X054160Y024916D02*
X049631Y024916D01*
X049631Y025014D02*
X054172Y025014D01*
X054401Y024874D02*
X054013Y024486D01*
X054013Y024074D01*
X053226Y024074D01*
X052869Y024226D02*
X052257Y024226D01*
X052274Y024186D02*
X052188Y024393D01*
X052029Y024551D01*
X051822Y024637D01*
X051760Y024637D01*
X051760Y024124D01*
X051660Y024124D01*
X051660Y024024D01*
X051147Y024024D01*
X051147Y023962D01*
X051233Y023755D01*
X051391Y023596D01*
X051598Y023510D01*
X051660Y023510D01*
X051660Y024024D01*
X051760Y024024D01*
X051760Y023510D01*
X051822Y023510D01*
X052029Y023596D01*
X052188Y023755D01*
X052274Y023962D01*
X052274Y024024D01*
X051760Y024024D01*
X051760Y024124D01*
X052274Y024124D01*
X052274Y024186D01*
X052274Y024127D02*
X052838Y024127D01*
X052838Y024029D02*
X051760Y024029D01*
X051760Y024127D02*
X051660Y024127D01*
X051660Y024124D02*
X051660Y024637D01*
X051598Y024637D01*
X051391Y024551D01*
X051233Y024393D01*
X051147Y024186D01*
X051147Y024124D01*
X051660Y024124D01*
X051660Y024029D02*
X049631Y024029D01*
X049631Y024127D02*
X051147Y024127D01*
X051163Y024226D02*
X049631Y024226D01*
X049631Y024324D02*
X051204Y024324D01*
X051263Y024423D02*
X049631Y024423D01*
X049631Y024521D02*
X051361Y024521D01*
X051557Y024620D02*
X049631Y024620D01*
X049171Y024620D02*
X048831Y024620D01*
X048831Y024719D02*
X049171Y024719D01*
X049171Y024817D02*
X048831Y024817D01*
X048831Y024916D02*
X049171Y024916D01*
X049171Y025014D02*
X048831Y025014D01*
X048831Y025113D02*
X049171Y025113D01*
X049171Y025211D02*
X048831Y025211D01*
X048831Y025310D02*
X049171Y025310D01*
X049171Y025408D02*
X048831Y025408D01*
X048831Y025507D02*
X049171Y025507D01*
X049171Y025605D02*
X048831Y025605D01*
X048831Y025704D02*
X049171Y025704D01*
X049171Y025802D02*
X048831Y025802D01*
X048831Y025901D02*
X049171Y025901D01*
X049152Y026000D02*
X048850Y026000D01*
X048831Y025981D02*
X048914Y026064D01*
X048971Y026200D01*
X048971Y026347D01*
X048914Y026483D01*
X048810Y026587D01*
X048674Y026644D01*
X048527Y026644D01*
X048391Y026587D01*
X048287Y026483D01*
X048231Y026347D01*
X048231Y026200D01*
X048287Y026064D01*
X048371Y025981D01*
X048371Y024069D01*
X048035Y023733D01*
X048034Y023733D01*
X048035Y023733D02*
X048032Y023734D01*
X047869Y023734D01*
X047719Y023671D01*
X047603Y023556D01*
X047541Y023405D01*
X047541Y023242D01*
X047603Y023092D01*
X047719Y022976D01*
X047721Y022975D01*
X047721Y022619D01*
X047275Y022173D01*
X047210Y022237D01*
X047074Y022294D01*
X046927Y022294D01*
X046791Y022237D01*
X046687Y022133D01*
X046631Y021997D01*
X046631Y021850D01*
X046687Y021714D01*
X046791Y021610D01*
X046927Y021554D01*
X047074Y021554D01*
X047210Y021610D01*
X047294Y021694D01*
X047446Y021694D01*
X048181Y022429D01*
X048181Y022619D01*
X048181Y022975D01*
X048183Y022976D01*
X048298Y023092D01*
X048361Y023242D01*
X048361Y023405D01*
X048360Y023408D01*
X048831Y023879D01*
X048831Y024069D01*
X048831Y025981D01*
X048928Y026098D02*
X049073Y026098D01*
X049032Y026197D02*
X048969Y026197D01*
X048971Y026295D02*
X049031Y026295D01*
X049050Y026394D02*
X048952Y026394D01*
X048906Y026492D02*
X049096Y026492D01*
X049199Y026591D02*
X048802Y026591D01*
X048399Y026591D02*
X044802Y026591D01*
X044801Y026591D02*
X044801Y026791D01*
X045201Y027191D01*
X045201Y027357D01*
X045201Y030556D01*
X045210Y030560D01*
X045314Y030664D01*
X045371Y030800D01*
X045371Y030947D01*
X045314Y031083D01*
X045210Y031187D01*
X045074Y031244D01*
X044927Y031244D01*
X044791Y031187D01*
X044687Y031083D01*
X044631Y030947D01*
X044631Y030800D01*
X044687Y030664D01*
X044791Y030560D01*
X044801Y030556D01*
X044801Y027357D01*
X044518Y027074D01*
X044401Y026957D01*
X044401Y026591D01*
X044391Y026587D01*
X044287Y026483D01*
X044231Y026347D01*
X044231Y026200D01*
X044287Y026064D01*
X044391Y025960D01*
X044527Y025904D01*
X044674Y025904D01*
X044810Y025960D01*
X044914Y026064D01*
X044971Y026200D01*
X044971Y026347D01*
X044914Y026483D01*
X044810Y026587D01*
X044801Y026591D01*
X044801Y026689D02*
X065501Y026689D01*
X065501Y026591D02*
X049602Y026591D01*
X049706Y026492D02*
X065501Y026492D01*
X065501Y026788D02*
X044801Y026788D01*
X044896Y026886D02*
X065501Y026886D01*
X065501Y026985D02*
X044995Y026985D01*
X045093Y027084D02*
X065501Y027084D01*
X065501Y027182D02*
X045192Y027182D01*
X045201Y027281D02*
X065501Y027281D01*
X065501Y027379D02*
X045201Y027379D01*
X045201Y027478D02*
X065501Y027478D01*
X065501Y027576D02*
X049886Y027576D01*
X049985Y027675D02*
X051677Y027675D01*
X051691Y027660D02*
X051827Y027604D01*
X051974Y027604D01*
X052110Y027660D01*
X052214Y027764D01*
X052271Y027900D01*
X052271Y028047D01*
X052267Y028057D01*
X052784Y028574D01*
X057018Y028574D01*
X057535Y028057D01*
X057531Y028047D01*
X057531Y027900D01*
X057587Y027764D01*
X057691Y027660D01*
X057827Y027604D01*
X057974Y027604D01*
X058110Y027660D01*
X058214Y027764D01*
X058271Y027900D01*
X058271Y028047D01*
X058214Y028183D01*
X058124Y028274D01*
X058214Y028364D01*
X058271Y028500D01*
X058271Y028647D01*
X058214Y028783D01*
X058124Y028874D01*
X058214Y028964D01*
X058271Y029100D01*
X058271Y029247D01*
X058214Y029383D01*
X058124Y029474D01*
X058214Y029564D01*
X058271Y029700D01*
X058271Y029847D01*
X058214Y029983D01*
X058110Y030087D01*
X057974Y030144D01*
X057827Y030144D01*
X057801Y030133D01*
X057101Y030763D01*
X057101Y030857D01*
X056984Y030974D01*
X056784Y031174D01*
X056618Y031174D01*
X056218Y031174D01*
X056101Y031057D01*
X056018Y030974D01*
X056014Y030983D01*
X055910Y031087D01*
X055774Y031144D01*
X055627Y031144D01*
X055491Y031087D01*
X055387Y030983D01*
X055331Y030847D01*
X055331Y030700D01*
X055335Y030691D01*
X055018Y030374D01*
X053984Y030374D01*
X052584Y031774D01*
X052418Y031774D01*
X051818Y031774D01*
X051814Y031783D01*
X051710Y031887D01*
X051574Y031944D01*
X051427Y031944D01*
X051291Y031887D01*
X051187Y031783D01*
X051131Y031647D01*
X051131Y031500D01*
X051187Y031364D01*
X051291Y031260D01*
X051427Y031204D01*
X051531Y031204D01*
X051531Y031100D01*
X051587Y030964D01*
X051678Y030874D01*
X051587Y030783D01*
X051531Y030647D01*
X051531Y030500D01*
X051587Y030364D01*
X051678Y030274D01*
X051587Y030183D01*
X051531Y030047D01*
X051531Y029944D01*
X051427Y029944D01*
X051291Y029887D01*
X051187Y029783D01*
X051131Y029647D01*
X051131Y029500D01*
X051187Y029364D01*
X051291Y029260D01*
X051427Y029204D01*
X051531Y029204D01*
X051531Y029100D01*
X051587Y028964D01*
X051678Y028874D01*
X051587Y028783D01*
X051531Y028647D01*
X051531Y028500D01*
X051587Y028364D01*
X051678Y028274D01*
X051587Y028183D01*
X051531Y028047D01*
X051531Y027900D01*
X051587Y027764D01*
X051691Y027660D01*
X051583Y027773D02*
X050083Y027773D01*
X050101Y027872D02*
X051543Y027872D01*
X051531Y027970D02*
X050101Y027970D01*
X050101Y028069D02*
X051540Y028069D01*
X051581Y028168D02*
X050101Y028168D01*
X050101Y028266D02*
X051670Y028266D01*
X051587Y028365D02*
X050101Y028365D01*
X050101Y028463D02*
X051546Y028463D01*
X051531Y028562D02*
X050101Y028562D01*
X050101Y028660D02*
X051536Y028660D01*
X051577Y028759D02*
X050101Y028759D01*
X050101Y028857D02*
X051661Y028857D01*
X051596Y028956D02*
X050101Y028956D01*
X050101Y029054D02*
X051550Y029054D01*
X051531Y029153D02*
X050101Y029153D01*
X050101Y029251D02*
X051312Y029251D01*
X051201Y029350D02*
X050101Y029350D01*
X050101Y029449D02*
X051152Y029449D01*
X051131Y029547D02*
X050101Y029547D01*
X050101Y029646D02*
X051131Y029646D01*
X051171Y029744D02*
X050101Y029744D01*
X050101Y029843D02*
X051246Y029843D01*
X051421Y029941D02*
X050101Y029941D01*
X050101Y030040D02*
X051531Y030040D01*
X051569Y030138D02*
X050101Y030138D01*
X050101Y030237D02*
X051641Y030237D01*
X051616Y030335D02*
X050101Y030335D01*
X050101Y030434D02*
X051558Y030434D01*
X051531Y030533D02*
X050101Y030533D01*
X050101Y030631D02*
X051531Y030631D01*
X051565Y030730D02*
X050101Y030730D01*
X050101Y030828D02*
X051632Y030828D01*
X051625Y030927D02*
X050101Y030927D01*
X050101Y031025D02*
X051562Y031025D01*
X051531Y031124D02*
X050101Y031124D01*
X050101Y031222D02*
X051382Y031222D01*
X051230Y031321D02*
X050101Y031321D01*
X050101Y031419D02*
X051164Y031419D01*
X051131Y031518D02*
X050101Y031518D01*
X050101Y031617D02*
X051131Y031617D01*
X051159Y031715D02*
X050101Y031715D01*
X050101Y031814D02*
X051217Y031814D01*
X051351Y031912D02*
X050101Y031912D01*
X050101Y032011D02*
X053881Y032011D01*
X053783Y032109D02*
X050101Y032109D01*
X050101Y032208D02*
X053684Y032208D01*
X053585Y032306D02*
X050116Y032306D01*
X050215Y032405D02*
X053487Y032405D01*
X053388Y032503D02*
X050313Y032503D01*
X050129Y032602D02*
X044473Y032602D01*
X044401Y032674D02*
X035501Y032674D01*
X035201Y032974D01*
X035201Y033574D01*
X035501Y033874D01*
X054201Y033874D01*
X054701Y033374D01*
X073001Y033374D01*
X075401Y030974D01*
X075401Y025174D01*
X074301Y024074D01*
X071201Y024074D01*
X070201Y025074D01*
X068901Y025074D01*
X068901Y025774D01*
X070401Y025774D01*
X071501Y024674D01*
X074001Y024674D01*
X074801Y025374D01*
X074801Y028874D01*
X071501Y032174D01*
X054001Y032174D01*
X053401Y032774D01*
X050301Y032774D01*
X049901Y032374D01*
X049901Y027874D01*
X049801Y027774D01*
X047001Y027774D01*
X046301Y028474D01*
X046301Y031574D01*
X045701Y032174D01*
X044901Y032174D01*
X044401Y032674D01*
X044571Y032503D02*
X050030Y032503D01*
X049932Y032405D02*
X044670Y032405D01*
X044768Y032306D02*
X049901Y032306D01*
X049901Y032208D02*
X044867Y032208D01*
X044683Y032109D02*
X026151Y032109D01*
X026151Y032011D02*
X044781Y032011D01*
X044584Y032208D02*
X026151Y032208D01*
X026151Y032306D02*
X044485Y032306D01*
X044387Y032405D02*
X026151Y032405D01*
X026151Y032503D02*
X035388Y032503D01*
X035301Y032591D02*
X035301Y032591D01*
X035290Y032602D02*
X026151Y032602D01*
X026151Y032701D02*
X035191Y032701D01*
X035118Y032774D02*
X035118Y032774D01*
X035093Y032799D02*
X026151Y032799D01*
X026151Y032898D02*
X035001Y032898D01*
X035001Y032996D02*
X026151Y032996D01*
X026151Y033095D02*
X035001Y033095D01*
X035001Y033193D02*
X030033Y033193D01*
X029939Y033099D02*
X030276Y033436D01*
X030276Y033912D01*
X029939Y034249D01*
X029463Y034249D01*
X029126Y033912D01*
X029126Y033436D01*
X029463Y033099D01*
X029939Y033099D01*
X030132Y033292D02*
X035001Y033292D01*
X035001Y033390D02*
X030230Y033390D01*
X030276Y033489D02*
X035001Y033489D01*
X035001Y033587D02*
X030276Y033587D01*
X030276Y033686D02*
X035030Y033686D01*
X035129Y033784D02*
X030276Y033784D01*
X030276Y033883D02*
X035227Y033883D01*
X035326Y033982D02*
X030206Y033982D01*
X030108Y034080D02*
X080763Y034080D01*
X080763Y033982D02*
X054376Y033982D01*
X054474Y033883D02*
X080763Y033883D01*
X080763Y033784D02*
X054573Y033784D01*
X054671Y033686D02*
X080763Y033686D01*
X080763Y033587D02*
X054770Y033587D01*
X054586Y033489D02*
X035201Y033489D01*
X035201Y033390D02*
X054684Y033390D01*
X054487Y033587D02*
X035214Y033587D01*
X035313Y033686D02*
X054389Y033686D01*
X054290Y033784D02*
X035411Y033784D01*
X035201Y033292D02*
X073083Y033292D01*
X073181Y033193D02*
X035201Y033193D01*
X035201Y033095D02*
X073280Y033095D01*
X073379Y032996D02*
X035201Y032996D01*
X035277Y032898D02*
X073477Y032898D01*
X073576Y032799D02*
X035376Y032799D01*
X035474Y032701D02*
X050227Y032701D01*
X049901Y032109D02*
X045765Y032109D01*
X045864Y032011D02*
X049901Y032011D01*
X049901Y031912D02*
X045962Y031912D01*
X046061Y031814D02*
X049901Y031814D01*
X049901Y031715D02*
X046160Y031715D01*
X046258Y031617D02*
X049901Y031617D01*
X049901Y031518D02*
X046301Y031518D01*
X046301Y031419D02*
X049901Y031419D01*
X049901Y031321D02*
X046301Y031321D01*
X046301Y031222D02*
X049901Y031222D01*
X049901Y031124D02*
X046301Y031124D01*
X046301Y031025D02*
X049901Y031025D01*
X049901Y030927D02*
X046301Y030927D01*
X046301Y030828D02*
X049901Y030828D01*
X049901Y030730D02*
X046301Y030730D01*
X046301Y030631D02*
X049901Y030631D01*
X049901Y030533D02*
X046301Y030533D01*
X046301Y030434D02*
X049901Y030434D01*
X049901Y030335D02*
X046301Y030335D01*
X046301Y030237D02*
X049901Y030237D01*
X049901Y030138D02*
X046301Y030138D01*
X046301Y030040D02*
X049901Y030040D01*
X049901Y029941D02*
X046301Y029941D01*
X046301Y029843D02*
X049901Y029843D01*
X049901Y029744D02*
X046301Y029744D01*
X046301Y029646D02*
X049901Y029646D01*
X049901Y029547D02*
X046301Y029547D01*
X046301Y029449D02*
X049901Y029449D01*
X049901Y029350D02*
X046301Y029350D01*
X046301Y029251D02*
X049901Y029251D01*
X049901Y029153D02*
X046301Y029153D01*
X046301Y029054D02*
X049901Y029054D01*
X049901Y028956D02*
X046301Y028956D01*
X046301Y028857D02*
X049901Y028857D01*
X049901Y028759D02*
X046301Y028759D01*
X046301Y028660D02*
X049901Y028660D01*
X049901Y028562D02*
X046301Y028562D01*
X046311Y028463D02*
X049901Y028463D01*
X049901Y028365D02*
X046410Y028365D01*
X046509Y028266D02*
X049901Y028266D01*
X049901Y028168D02*
X046607Y028168D01*
X046706Y028069D02*
X049901Y028069D01*
X049901Y027970D02*
X046804Y027970D01*
X046903Y027872D02*
X049899Y027872D01*
X051901Y027974D02*
X052701Y028774D01*
X057101Y028774D01*
X057901Y027974D01*
X058271Y027970D02*
X065391Y027970D01*
X065292Y028069D02*
X058262Y028069D01*
X058221Y028168D02*
X065194Y028168D01*
X065126Y028266D02*
X058132Y028266D01*
X058215Y028365D02*
X065126Y028365D01*
X065126Y028463D02*
X058255Y028463D01*
X058271Y028562D02*
X065126Y028562D01*
X065126Y028660D02*
X058265Y028660D01*
X058225Y028759D02*
X065173Y028759D01*
X065271Y028857D02*
X058141Y028857D01*
X058206Y028956D02*
X065370Y028956D01*
X065701Y028474D02*
X065701Y024774D01*
X068801Y021674D01*
X076801Y021674D01*
X077171Y021664D02*
X080763Y021664D01*
X080763Y021762D02*
X077165Y021762D01*
X077124Y021861D02*
X080763Y021861D01*
X080763Y021959D02*
X077039Y021959D01*
X077156Y021565D02*
X080763Y021565D01*
X080763Y021467D02*
X077115Y021467D01*
X076486Y021467D02*
X066746Y021467D01*
X066746Y021565D02*
X068627Y021565D01*
X068528Y021664D02*
X066733Y021664D01*
X066726Y021762D02*
X068430Y021762D01*
X068331Y021861D02*
X066726Y021861D01*
X066726Y021959D02*
X068233Y021959D01*
X068134Y022058D02*
X066722Y022058D01*
X066718Y022156D02*
X068035Y022156D01*
X067937Y022255D02*
X066718Y022255D01*
X066700Y022353D02*
X067838Y022353D01*
X067740Y022452D02*
X066669Y022452D01*
X066649Y022551D02*
X067641Y022551D01*
X067543Y022649D02*
X066621Y022649D01*
X066593Y022748D02*
X067444Y022748D01*
X067346Y022846D02*
X066559Y022846D01*
X066533Y022945D02*
X067247Y022945D01*
X067149Y023043D02*
X066492Y023043D01*
X066451Y023142D02*
X067050Y023142D01*
X066951Y023240D02*
X066386Y023240D01*
X066328Y023339D02*
X066853Y023339D01*
X066754Y023437D02*
X066269Y023437D01*
X066202Y023536D02*
X066656Y023536D01*
X066557Y023635D02*
X066129Y023635D01*
X066071Y023733D02*
X066459Y023733D01*
X066360Y023832D02*
X065972Y023832D01*
X065868Y023930D02*
X066262Y023930D01*
X066163Y024029D02*
X065762Y024029D01*
X065644Y024127D02*
X066065Y024127D01*
X065966Y024226D02*
X065517Y024226D01*
X065400Y024324D02*
X065867Y024324D01*
X065769Y024423D02*
X065192Y024423D01*
X064987Y024521D02*
X065670Y024521D01*
X065572Y024620D02*
X064728Y024620D01*
X064322Y024719D02*
X065501Y024719D01*
X065501Y024817D02*
X055601Y024817D01*
X055601Y024719D02*
X063394Y024719D01*
X061433Y023437D02*
X050247Y023437D01*
X050261Y023339D02*
X061371Y023339D01*
X061317Y023240D02*
X050260Y023240D01*
X050219Y023142D02*
X061226Y023142D01*
X061185Y023043D02*
X050150Y023043D01*
X050081Y022945D02*
X061144Y022945D01*
X061141Y022846D02*
X050081Y022846D01*
X050081Y022748D02*
X061109Y022748D01*
X061077Y022649D02*
X050081Y022649D01*
X050081Y022551D02*
X061054Y022551D01*
X061018Y022452D02*
X050148Y022452D01*
X050246Y022353D02*
X060978Y022353D01*
X060959Y022255D02*
X051168Y022255D01*
X051291Y022156D02*
X060959Y022156D01*
X060965Y022058D02*
X051346Y022058D01*
X051371Y021959D02*
X060975Y021959D01*
X060973Y021861D02*
X051371Y021861D01*
X051334Y021762D02*
X060977Y021762D01*
X060945Y021664D02*
X051264Y021664D01*
X051102Y021565D02*
X060931Y021565D01*
X060931Y021467D02*
X033504Y021467D01*
X033569Y021565D02*
X046900Y021565D01*
X046738Y021664D02*
X033610Y021664D01*
X033636Y021762D02*
X046667Y021762D01*
X046631Y021861D02*
X033094Y021861D01*
X033093Y021959D02*
X032993Y021959D01*
X032993Y021861D02*
X030220Y021861D01*
X030219Y021959D02*
X030119Y021959D01*
X030119Y022058D02*
X030219Y022058D01*
X030219Y022156D02*
X030119Y022156D01*
X030119Y022255D02*
X030219Y022255D01*
X030219Y022353D02*
X030119Y022353D01*
X029849Y022353D02*
X029716Y022353D01*
X029715Y022326D02*
X029715Y022326D01*
X029706Y022255D02*
X029741Y022255D01*
X029721Y022452D02*
X034009Y022452D01*
X034063Y022399D02*
X034251Y022399D01*
X034251Y022924D01*
X034351Y022924D01*
X034351Y023024D01*
X034876Y023024D01*
X034876Y023212D01*
X034614Y023474D01*
X034801Y023661D01*
X035063Y023399D01*
X035539Y023399D01*
X035876Y023736D01*
X035876Y024212D01*
X035539Y024549D01*
X035063Y024549D01*
X034801Y024287D01*
X034539Y024549D01*
X034063Y024549D01*
X033726Y024212D01*
X033726Y023736D01*
X033988Y023474D01*
X033726Y023212D01*
X033726Y023024D01*
X034251Y023024D01*
X034251Y022924D01*
X033726Y022924D01*
X033726Y022736D01*
X034063Y022399D01*
X034251Y022452D02*
X034351Y022452D01*
X034351Y022399D02*
X034539Y022399D01*
X034876Y022736D01*
X034876Y022924D01*
X034351Y022924D01*
X034351Y022399D01*
X034351Y022551D02*
X034251Y022551D01*
X034251Y022649D02*
X034351Y022649D01*
X034351Y022748D02*
X034251Y022748D01*
X034251Y022846D02*
X034351Y022846D01*
X034351Y022945D02*
X047721Y022945D01*
X047721Y022846D02*
X034876Y022846D01*
X034876Y022748D02*
X047721Y022748D01*
X047721Y022649D02*
X034789Y022649D01*
X034691Y022551D02*
X047652Y022551D01*
X047554Y022452D02*
X034592Y022452D01*
X034251Y022945D02*
X032892Y022945D01*
X032923Y023019D02*
X032923Y023269D01*
X032887Y023354D01*
X032925Y023338D01*
X032993Y023338D01*
X032993Y023881D01*
X032451Y023881D01*
X032451Y023813D01*
X032478Y023747D01*
X032420Y023771D01*
X032171Y023771D01*
X031940Y023675D01*
X031764Y023499D01*
X031668Y023269D01*
X031668Y023019D01*
X031764Y022789D01*
X031940Y022612D01*
X032171Y022517D01*
X032420Y022517D01*
X032651Y022612D01*
X032827Y022789D01*
X032923Y023019D01*
X032923Y023043D02*
X033726Y023043D01*
X033726Y023142D02*
X032923Y023142D01*
X032923Y023240D02*
X033754Y023240D01*
X033853Y023339D02*
X033163Y023339D01*
X033161Y023338D02*
X033379Y023429D01*
X033546Y023595D01*
X033636Y023813D01*
X033636Y023881D01*
X033094Y023881D01*
X033094Y023981D01*
X033636Y023981D01*
X033636Y024049D01*
X033546Y024267D01*
X033379Y024434D01*
X033161Y024524D01*
X033093Y024524D01*
X033093Y023981D01*
X032993Y023981D01*
X032993Y023881D01*
X033093Y023881D01*
X033093Y023338D01*
X033161Y023338D01*
X033093Y023339D02*
X032993Y023339D01*
X032924Y023339D02*
X032893Y023339D01*
X032993Y023437D02*
X033093Y023437D01*
X033093Y023536D02*
X032993Y023536D01*
X032993Y023635D02*
X033093Y023635D01*
X033093Y023733D02*
X032993Y023733D01*
X032993Y023832D02*
X033093Y023832D01*
X033094Y023930D02*
X033726Y023930D01*
X033726Y023832D02*
X033636Y023832D01*
X033603Y023733D02*
X033728Y023733D01*
X033827Y023635D02*
X033562Y023635D01*
X033487Y023536D02*
X033925Y023536D01*
X033951Y023437D02*
X033388Y023437D01*
X032993Y023930D02*
X030220Y023930D01*
X030220Y023881D02*
X030220Y023981D01*
X030762Y023981D01*
X030762Y024049D01*
X030672Y024267D01*
X030505Y024434D01*
X030287Y024524D01*
X030219Y024524D01*
X030219Y023981D01*
X030119Y023981D01*
X030119Y023881D01*
X029576Y023881D01*
X029576Y023813D01*
X029667Y023595D01*
X029834Y023429D01*
X030051Y023338D01*
X030119Y023338D01*
X030119Y023881D01*
X030219Y023881D01*
X030219Y023338D01*
X030287Y023338D01*
X030326Y023354D01*
X030290Y023269D01*
X030290Y023019D01*
X030386Y022789D01*
X030562Y022612D01*
X030793Y022517D01*
X031042Y022517D01*
X031273Y022612D01*
X031449Y022789D01*
X031545Y023019D01*
X031545Y023269D01*
X031449Y023499D01*
X031273Y023675D01*
X031042Y023771D01*
X030793Y023771D01*
X030735Y023747D01*
X030762Y023813D01*
X030762Y023881D01*
X030220Y023881D01*
X030219Y023832D02*
X030119Y023832D01*
X030119Y023930D02*
X029296Y023930D01*
X029362Y023832D02*
X029576Y023832D01*
X029610Y023733D02*
X029417Y023733D01*
X029471Y023635D02*
X029651Y023635D01*
X029726Y023536D02*
X029515Y023536D01*
X029558Y023437D02*
X029825Y023437D01*
X030050Y023339D02*
X029592Y023339D01*
X029624Y023240D02*
X030290Y023240D01*
X030290Y023142D02*
X029650Y023142D01*
X029673Y023043D02*
X030290Y023043D01*
X030321Y022945D02*
X029691Y022945D01*
X029705Y022846D02*
X030362Y022846D01*
X030427Y022748D02*
X029716Y022748D01*
X029721Y022649D02*
X030525Y022649D01*
X030711Y022551D02*
X029725Y022551D01*
X030490Y022353D02*
X032723Y022353D01*
X032615Y022255D02*
X030597Y022255D01*
X030682Y022156D02*
X032531Y022156D01*
X032490Y022058D02*
X030723Y022058D01*
X030762Y021959D02*
X032451Y021959D01*
X032451Y021762D02*
X030762Y021762D01*
X030736Y021664D02*
X032477Y021664D01*
X032517Y021565D02*
X030695Y021565D01*
X030630Y021467D02*
X032583Y021467D01*
X032993Y022058D02*
X033093Y022058D01*
X033093Y022156D02*
X032993Y022156D01*
X032993Y022255D02*
X033093Y022255D01*
X033093Y022353D02*
X032993Y022353D01*
X033364Y022353D02*
X047455Y022353D01*
X047357Y022255D02*
X047168Y022255D01*
X046833Y022255D02*
X033471Y022255D01*
X033556Y022156D02*
X046710Y022156D01*
X046656Y022058D02*
X033597Y022058D01*
X033636Y021959D02*
X046631Y021959D01*
X047102Y021565D02*
X050900Y021565D01*
X050738Y021664D02*
X047264Y021664D01*
X047514Y021762D02*
X050187Y021762D01*
X050089Y021861D02*
X047613Y021861D01*
X047711Y021959D02*
X049990Y021959D01*
X049892Y022058D02*
X047810Y022058D01*
X047909Y022156D02*
X049793Y022156D01*
X049694Y022255D02*
X048007Y022255D01*
X048106Y022353D02*
X049621Y022353D01*
X049621Y022452D02*
X048181Y022452D01*
X048181Y022551D02*
X049621Y022551D01*
X049621Y022649D02*
X048181Y022649D01*
X048181Y022748D02*
X049621Y022748D01*
X049621Y022846D02*
X048181Y022846D01*
X048181Y022945D02*
X049621Y022945D01*
X049552Y023043D02*
X048250Y023043D01*
X048319Y023142D02*
X049482Y023142D01*
X049442Y023240D02*
X048360Y023240D01*
X048361Y023339D02*
X049441Y023339D01*
X049412Y023437D02*
X048390Y023437D01*
X048488Y023536D02*
X049313Y023536D01*
X049215Y023635D02*
X048587Y023635D01*
X048685Y023733D02*
X049171Y023733D01*
X049171Y023832D02*
X048784Y023832D01*
X048831Y023930D02*
X049171Y023930D01*
X049171Y024029D02*
X048831Y024029D01*
X048831Y024127D02*
X049171Y024127D01*
X049171Y024226D02*
X048831Y024226D01*
X048831Y024324D02*
X049171Y024324D01*
X049171Y024423D02*
X048831Y024423D01*
X048831Y024521D02*
X049171Y024521D01*
X049631Y023930D02*
X051160Y023930D01*
X051201Y023832D02*
X049668Y023832D01*
X049767Y023733D02*
X049767Y023733D01*
X049934Y023733D02*
X051254Y023733D01*
X051353Y023635D02*
X050120Y023635D01*
X050207Y023536D02*
X051537Y023536D01*
X051660Y023536D02*
X051760Y023536D01*
X051760Y023635D02*
X051660Y023635D01*
X051660Y023733D02*
X051760Y023733D01*
X051760Y023832D02*
X051660Y023832D01*
X051660Y023930D02*
X051760Y023930D01*
X051760Y024226D02*
X051660Y024226D01*
X051660Y024324D02*
X051760Y024324D01*
X051760Y024423D02*
X051660Y024423D01*
X051660Y024521D02*
X051760Y024521D01*
X051760Y024620D02*
X051660Y024620D01*
X051864Y024620D02*
X053864Y024620D01*
X053813Y024521D02*
X052059Y024521D01*
X052158Y024423D02*
X053055Y024423D01*
X052928Y024324D02*
X052216Y024324D01*
X052260Y023930D02*
X052866Y023930D01*
X052920Y023832D02*
X052220Y023832D01*
X052166Y023733D02*
X053035Y023733D01*
X053417Y023733D02*
X053823Y023733D01*
X053707Y023832D02*
X053532Y023832D01*
X053524Y024324D02*
X053715Y024324D01*
X053813Y024423D02*
X053397Y024423D01*
X053149Y025113D02*
X049631Y025113D01*
X049631Y025211D02*
X053050Y025211D01*
X052952Y025310D02*
X049631Y025310D01*
X049631Y025408D02*
X052853Y025408D01*
X052826Y025507D02*
X049631Y025507D01*
X049631Y025605D02*
X052826Y025605D01*
X052826Y025704D02*
X049631Y025704D01*
X049631Y025802D02*
X052826Y025802D01*
X052826Y025901D02*
X049631Y025901D01*
X049650Y026000D02*
X052913Y026000D01*
X053012Y026098D02*
X049728Y026098D01*
X049769Y026197D02*
X053110Y026197D01*
X054401Y025674D02*
X054401Y024874D01*
X054528Y024719D02*
X055163Y024719D01*
X055201Y024817D02*
X054601Y024817D01*
X054601Y024916D02*
X055201Y024916D01*
X055172Y025014D02*
X054629Y025014D01*
X054728Y025113D02*
X055074Y025113D01*
X054975Y025211D02*
X054826Y025211D01*
X054831Y025310D02*
X054971Y025310D01*
X054971Y025408D02*
X054831Y025408D01*
X054831Y025507D02*
X054971Y025507D01*
X054971Y025605D02*
X054831Y025605D01*
X054831Y025704D02*
X054971Y025704D01*
X054971Y025802D02*
X054831Y025802D01*
X054831Y025901D02*
X054971Y025901D01*
X054971Y026000D02*
X054831Y026000D01*
X054831Y026098D02*
X054971Y026098D01*
X055036Y026197D02*
X054766Y026197D01*
X054667Y026295D02*
X055134Y026295D01*
X055667Y026295D02*
X056134Y026295D01*
X056036Y026197D02*
X055766Y026197D01*
X055831Y026098D02*
X055971Y026098D01*
X055971Y026000D02*
X055831Y026000D01*
X055831Y025901D02*
X055971Y025901D01*
X055971Y025802D02*
X055831Y025802D01*
X055831Y025704D02*
X055971Y025704D01*
X055971Y025605D02*
X055831Y025605D01*
X055831Y025507D02*
X055971Y025507D01*
X055971Y025408D02*
X055831Y025408D01*
X055831Y025310D02*
X055971Y025310D01*
X055975Y025211D02*
X055826Y025211D01*
X055728Y025113D02*
X056074Y025113D01*
X055401Y024674D02*
X055401Y025674D01*
X055401Y024674D02*
X054801Y024074D01*
X054444Y024226D02*
X054370Y024226D01*
X054401Y024127D02*
X054413Y024127D01*
X054401Y024029D02*
X054413Y024029D01*
X054441Y023930D02*
X054374Y023930D01*
X054320Y023832D02*
X054495Y023832D01*
X054610Y023733D02*
X054204Y023733D01*
X054311Y024324D02*
X054503Y024324D01*
X054630Y024423D02*
X054233Y024423D01*
X054331Y024521D02*
X054966Y024521D01*
X055064Y024620D02*
X054430Y024620D01*
X052068Y023635D02*
X057534Y023635D01*
X057718Y023536D02*
X051884Y023536D01*
X050833Y022255D02*
X050345Y022255D01*
X050443Y022156D02*
X050710Y022156D01*
X047652Y023043D02*
X034876Y023043D01*
X034876Y023142D02*
X047582Y023142D01*
X047542Y023240D02*
X034847Y023240D01*
X034749Y023339D02*
X047541Y023339D01*
X047554Y023437D02*
X035578Y023437D01*
X035676Y023536D02*
X047595Y023536D01*
X047682Y023635D02*
X035775Y023635D01*
X035873Y023733D02*
X047867Y023733D01*
X048133Y023832D02*
X035876Y023832D01*
X035876Y023930D02*
X048232Y023930D01*
X048330Y024029D02*
X035876Y024029D01*
X035876Y024127D02*
X048371Y024127D01*
X048371Y024226D02*
X035862Y024226D01*
X035763Y024324D02*
X048371Y024324D01*
X048371Y024423D02*
X035665Y024423D01*
X035566Y024521D02*
X048371Y024521D01*
X048371Y024620D02*
X032888Y024620D01*
X032925Y024524D02*
X032708Y024434D01*
X032541Y024267D01*
X032451Y024049D01*
X032451Y023981D01*
X032993Y023981D01*
X032993Y024524D01*
X032925Y024524D01*
X032919Y024521D02*
X032790Y024521D01*
X032801Y024532D02*
X033001Y024732D01*
X033001Y024815D01*
X033001Y026615D01*
X032942Y026674D01*
X032742Y026874D01*
X032659Y026874D01*
X032142Y026874D01*
X032059Y026874D01*
X031801Y026615D01*
X031801Y026532D01*
X031801Y024732D01*
X031859Y024674D01*
X032059Y024474D01*
X032142Y024474D01*
X032742Y024474D01*
X032801Y024532D01*
X032697Y024423D02*
X030516Y024423D01*
X030615Y024324D02*
X032598Y024324D01*
X032524Y024226D02*
X030689Y024226D01*
X030730Y024127D02*
X032483Y024127D01*
X032451Y024029D02*
X030762Y024029D01*
X030762Y023832D02*
X032451Y023832D01*
X032079Y023733D02*
X031134Y023733D01*
X031314Y023635D02*
X031899Y023635D01*
X031801Y023536D02*
X031412Y023536D01*
X031475Y023437D02*
X031738Y023437D01*
X031697Y023339D02*
X031515Y023339D01*
X031545Y023240D02*
X031668Y023240D01*
X031668Y023142D02*
X031545Y023142D01*
X031545Y023043D02*
X031668Y023043D01*
X031699Y022945D02*
X031514Y022945D01*
X031473Y022846D02*
X031740Y022846D01*
X031805Y022748D02*
X031408Y022748D01*
X031310Y022649D02*
X031903Y022649D01*
X032089Y022551D02*
X031124Y022551D01*
X032502Y022551D02*
X033911Y022551D01*
X033812Y022649D02*
X032688Y022649D01*
X032786Y022748D02*
X033726Y022748D01*
X033726Y022846D02*
X032851Y022846D01*
X034650Y023437D02*
X035024Y023437D01*
X034925Y023536D02*
X034676Y023536D01*
X034775Y023635D02*
X034827Y023635D01*
X034838Y024324D02*
X034763Y024324D01*
X034665Y024423D02*
X034937Y024423D01*
X035035Y024521D02*
X034566Y024521D01*
X034035Y024521D02*
X033168Y024521D01*
X033093Y024521D02*
X032993Y024521D01*
X032993Y024423D02*
X033093Y024423D01*
X033093Y024324D02*
X032993Y024324D01*
X032993Y024226D02*
X033093Y024226D01*
X033093Y024127D02*
X032993Y024127D01*
X032993Y024029D02*
X033093Y024029D01*
X033390Y024423D02*
X033937Y024423D01*
X033838Y024324D02*
X033489Y024324D01*
X033563Y024226D02*
X033740Y024226D01*
X033726Y024127D02*
X033604Y024127D01*
X033636Y024029D02*
X033726Y024029D01*
X032987Y024719D02*
X048371Y024719D01*
X048371Y024817D02*
X033001Y024817D01*
X033001Y024916D02*
X048371Y024916D01*
X048371Y025014D02*
X033001Y025014D01*
X033001Y025113D02*
X048371Y025113D01*
X048371Y025211D02*
X047151Y025211D01*
X047139Y025199D02*
X047476Y025536D01*
X047476Y026012D01*
X047139Y026349D01*
X046663Y026349D01*
X046326Y026012D01*
X046326Y025536D01*
X046663Y025199D01*
X047139Y025199D01*
X047250Y025310D02*
X048371Y025310D01*
X048371Y025408D02*
X047348Y025408D01*
X047447Y025507D02*
X048371Y025507D01*
X048371Y025605D02*
X047476Y025605D01*
X047476Y025704D02*
X048371Y025704D01*
X048371Y025802D02*
X047476Y025802D01*
X047476Y025901D02*
X048371Y025901D01*
X048352Y026000D02*
X047476Y026000D01*
X047390Y026098D02*
X048273Y026098D01*
X048232Y026197D02*
X047291Y026197D01*
X047193Y026295D02*
X048231Y026295D01*
X048250Y026394D02*
X044952Y026394D01*
X044971Y026295D02*
X046609Y026295D01*
X046510Y026197D02*
X044969Y026197D01*
X044928Y026098D02*
X046412Y026098D01*
X046326Y026000D02*
X044850Y026000D01*
X044601Y026274D02*
X044601Y026874D01*
X045001Y027274D01*
X045001Y030874D01*
X045341Y030730D02*
X046101Y030730D01*
X046101Y030828D02*
X045371Y030828D01*
X045371Y030927D02*
X046101Y030927D01*
X046101Y031025D02*
X045339Y031025D01*
X045274Y031124D02*
X046101Y031124D01*
X046101Y031222D02*
X045126Y031222D01*
X044875Y031222D02*
X037486Y031222D01*
X037551Y031287D02*
X037551Y031660D01*
X037287Y031924D01*
X036914Y031924D01*
X036651Y031660D01*
X036651Y031307D01*
X036518Y031174D01*
X036401Y031057D01*
X036401Y030810D01*
X036287Y030924D01*
X035914Y030924D01*
X035801Y030810D01*
X035801Y030891D01*
X035934Y031024D01*
X036287Y031024D01*
X036551Y031287D01*
X036551Y031660D01*
X036287Y031924D01*
X035914Y031924D01*
X035651Y031660D01*
X035651Y031307D01*
X035518Y031174D01*
X035401Y031057D01*
X035401Y030810D01*
X035287Y030924D01*
X034914Y030924D01*
X034651Y030660D01*
X034651Y030287D01*
X034914Y030024D01*
X035287Y030024D01*
X035401Y030138D01*
X035401Y029057D01*
X035401Y028891D01*
X035553Y028739D01*
X035526Y028712D01*
X035526Y028236D01*
X035863Y027899D01*
X036339Y027899D01*
X036601Y028161D01*
X036863Y027899D01*
X037339Y027899D01*
X037601Y028161D01*
X037863Y027899D01*
X038051Y027899D01*
X038051Y028424D01*
X038151Y028424D01*
X038151Y028524D01*
X038676Y028524D01*
X038676Y028712D01*
X038339Y029049D01*
X038151Y029049D01*
X038151Y028524D01*
X038051Y028524D01*
X038051Y029049D01*
X037863Y029049D01*
X037601Y028787D01*
X037339Y029049D01*
X036863Y029049D01*
X036836Y029022D01*
X036801Y029057D01*
X036801Y030138D01*
X036914Y030024D01*
X037287Y030024D01*
X037551Y030287D01*
X037551Y030660D01*
X037287Y030924D01*
X036914Y030924D01*
X036801Y030810D01*
X036801Y030891D01*
X036934Y031024D01*
X037287Y031024D01*
X037551Y031287D01*
X037551Y031321D02*
X046101Y031321D01*
X046101Y031419D02*
X037551Y031419D01*
X037551Y031518D02*
X046074Y031518D01*
X045975Y031617D02*
X037551Y031617D01*
X037496Y031715D02*
X045877Y031715D01*
X045778Y031814D02*
X037397Y031814D01*
X037299Y031912D02*
X045680Y031912D01*
X044728Y031124D02*
X037387Y031124D01*
X037289Y031025D02*
X044663Y031025D01*
X044631Y030927D02*
X036836Y030927D01*
X036819Y030828D02*
X036801Y030828D01*
X036601Y030974D02*
X036601Y028974D01*
X037101Y028474D01*
X037509Y028069D02*
X037692Y028069D01*
X037791Y027970D02*
X037410Y027970D01*
X036791Y027970D02*
X036411Y027970D01*
X036509Y028069D02*
X036692Y028069D01*
X036101Y028474D02*
X035601Y028974D01*
X035601Y030974D01*
X036101Y031474D01*
X036397Y031814D02*
X036804Y031814D01*
X036903Y031912D02*
X036299Y031912D01*
X036496Y031715D02*
X036706Y031715D01*
X036651Y031617D02*
X036551Y031617D01*
X036551Y031518D02*
X036651Y031518D01*
X036651Y031419D02*
X036551Y031419D01*
X036551Y031321D02*
X036651Y031321D01*
X036566Y031222D02*
X036486Y031222D01*
X036468Y031124D02*
X036387Y031124D01*
X036401Y031025D02*
X036289Y031025D01*
X036401Y030927D02*
X035836Y030927D01*
X035819Y030828D02*
X035801Y030828D01*
X035401Y030828D02*
X035383Y030828D01*
X035401Y030927D02*
X026151Y030927D01*
X026151Y031025D02*
X033913Y031025D01*
X033914Y031024D02*
X034051Y031024D01*
X034051Y031424D01*
X034151Y031424D01*
X034151Y031524D01*
X034551Y031524D01*
X034551Y031660D01*
X034287Y031924D01*
X034151Y031924D01*
X034151Y031524D01*
X034051Y031524D01*
X034051Y031924D01*
X033914Y031924D01*
X033651Y031660D01*
X033651Y031524D01*
X034051Y031524D01*
X034051Y031424D01*
X033651Y031424D01*
X033651Y031287D01*
X033914Y031024D01*
X033914Y030924D02*
X033651Y030660D01*
X033651Y030524D01*
X034051Y030524D01*
X034051Y030924D01*
X033914Y030924D01*
X033819Y030828D02*
X026151Y030828D01*
X026151Y030730D02*
X033720Y030730D01*
X033651Y030631D02*
X026151Y030631D01*
X026151Y030533D02*
X033651Y030533D01*
X033651Y030424D02*
X033651Y030287D01*
X033914Y030024D01*
X034051Y030024D01*
X034051Y030424D01*
X034151Y030424D01*
X034151Y030524D01*
X034551Y030524D01*
X034551Y030660D01*
X034287Y030924D01*
X034151Y030924D01*
X034151Y030524D01*
X034051Y030524D01*
X034051Y030424D01*
X033651Y030424D01*
X033651Y030335D02*
X026151Y030335D01*
X026151Y030237D02*
X033701Y030237D01*
X033800Y030138D02*
X026151Y030138D01*
X026151Y030040D02*
X033898Y030040D01*
X034051Y030040D02*
X034151Y030040D01*
X034151Y030024D02*
X034287Y030024D01*
X034551Y030287D01*
X034551Y030424D01*
X034151Y030424D01*
X034151Y030024D01*
X034151Y030138D02*
X034051Y030138D01*
X034051Y030237D02*
X034151Y030237D01*
X034151Y030335D02*
X034051Y030335D01*
X034051Y030434D02*
X026151Y030434D01*
X026151Y029941D02*
X035401Y029941D01*
X035401Y029843D02*
X026151Y029843D01*
X026151Y029744D02*
X035401Y029744D01*
X035401Y029646D02*
X026151Y029646D01*
X026151Y029547D02*
X035401Y029547D01*
X035401Y029449D02*
X026151Y029449D01*
X026151Y029350D02*
X035401Y029350D01*
X035401Y029251D02*
X026151Y029251D01*
X026151Y029153D02*
X035401Y029153D01*
X035401Y029054D02*
X026151Y029054D01*
X026151Y028956D02*
X035401Y028956D01*
X035434Y028857D02*
X026151Y028857D01*
X026151Y028759D02*
X035533Y028759D01*
X035526Y028660D02*
X026151Y028660D01*
X026151Y028562D02*
X035526Y028562D01*
X035526Y028463D02*
X026151Y028463D01*
X026151Y028365D02*
X035526Y028365D01*
X035526Y028266D02*
X026151Y028266D01*
X026151Y028168D02*
X035594Y028168D01*
X035539Y028049D02*
X035063Y028049D01*
X034726Y027712D01*
X034726Y027236D01*
X035063Y026899D01*
X035539Y026899D01*
X035876Y027236D01*
X035876Y027712D01*
X035539Y028049D01*
X035617Y027970D02*
X035791Y027970D01*
X035716Y027872D02*
X044201Y027872D01*
X044201Y027970D02*
X038411Y027970D01*
X038339Y027899D02*
X038676Y028236D01*
X038676Y028424D01*
X038151Y028424D01*
X038151Y027899D01*
X038339Y027899D01*
X038151Y027970D02*
X038051Y027970D01*
X038051Y028069D02*
X038151Y028069D01*
X038151Y028168D02*
X038051Y028168D01*
X038051Y028266D02*
X038151Y028266D01*
X038151Y028365D02*
X038051Y028365D01*
X038151Y028463D02*
X044201Y028463D01*
X044201Y028365D02*
X038676Y028365D01*
X038676Y028266D02*
X044201Y028266D01*
X044201Y028168D02*
X038608Y028168D01*
X038509Y028069D02*
X044201Y028069D01*
X044201Y027773D02*
X035814Y027773D01*
X035876Y027675D02*
X044201Y027675D01*
X044201Y027576D02*
X035876Y027576D01*
X035876Y027478D02*
X044201Y027478D01*
X044201Y027379D02*
X035876Y027379D01*
X035876Y027281D02*
X044125Y027281D01*
X044084Y027240D02*
X044201Y027357D01*
X044201Y029856D01*
X044191Y029860D01*
X044087Y029964D01*
X044031Y030100D01*
X044031Y030247D01*
X044087Y030383D01*
X044191Y030487D01*
X044327Y030544D01*
X044474Y030544D01*
X044610Y030487D01*
X044714Y030383D01*
X044771Y030247D01*
X044771Y030100D01*
X044714Y029964D01*
X044610Y029860D01*
X044601Y029856D01*
X044601Y027357D01*
X044601Y027191D01*
X044367Y026957D01*
X044371Y026947D01*
X044371Y026800D01*
X044314Y026664D01*
X044210Y026560D01*
X044074Y026504D01*
X043927Y026504D01*
X043791Y026560D01*
X043687Y026664D01*
X043631Y026800D01*
X043631Y026947D01*
X043687Y027083D01*
X043791Y027187D01*
X043927Y027244D01*
X044074Y027244D01*
X044084Y027240D01*
X043786Y027182D02*
X035822Y027182D01*
X035724Y027084D02*
X043687Y027084D01*
X043646Y026985D02*
X035625Y026985D01*
X034976Y026985D02*
X026151Y026985D01*
X026151Y027084D02*
X034878Y027084D01*
X034779Y027182D02*
X026151Y027182D01*
X026151Y027281D02*
X034726Y027281D01*
X034726Y027379D02*
X026151Y027379D01*
X026151Y027478D02*
X034726Y027478D01*
X034726Y027576D02*
X026151Y027576D01*
X026151Y027675D02*
X034726Y027675D01*
X034787Y027773D02*
X026151Y027773D01*
X026151Y027872D02*
X034886Y027872D01*
X034984Y027970D02*
X026151Y027970D01*
X026151Y028069D02*
X035692Y028069D01*
X036803Y029054D02*
X044201Y029054D01*
X044201Y028956D02*
X038432Y028956D01*
X038530Y028857D02*
X044201Y028857D01*
X044201Y028759D02*
X038629Y028759D01*
X038676Y028660D02*
X044201Y028660D01*
X044201Y028562D02*
X038676Y028562D01*
X038151Y028562D02*
X038051Y028562D01*
X038051Y028660D02*
X038151Y028660D01*
X038151Y028759D02*
X038051Y028759D01*
X038051Y028857D02*
X038151Y028857D01*
X038151Y028956D02*
X038051Y028956D01*
X037770Y028956D02*
X037432Y028956D01*
X037530Y028857D02*
X037671Y028857D01*
X036801Y029153D02*
X044201Y029153D01*
X044201Y029251D02*
X036801Y029251D01*
X036801Y029350D02*
X044201Y029350D01*
X044201Y029449D02*
X036801Y029449D01*
X036801Y029547D02*
X044201Y029547D01*
X044201Y029646D02*
X036801Y029646D01*
X036801Y029744D02*
X044201Y029744D01*
X044201Y029843D02*
X036801Y029843D01*
X036801Y029941D02*
X044110Y029941D01*
X044056Y030040D02*
X037303Y030040D01*
X037402Y030138D02*
X044031Y030138D01*
X044031Y030237D02*
X037500Y030237D01*
X037551Y030335D02*
X044067Y030335D01*
X044138Y030434D02*
X037551Y030434D01*
X037551Y030533D02*
X044300Y030533D01*
X044502Y030533D02*
X044801Y030533D01*
X044801Y030434D02*
X044664Y030434D01*
X044734Y030335D02*
X044801Y030335D01*
X044801Y030237D02*
X044771Y030237D01*
X044771Y030138D02*
X044801Y030138D01*
X044801Y030040D02*
X044746Y030040D01*
X044691Y029941D02*
X044801Y029941D01*
X044801Y029843D02*
X044601Y029843D01*
X044601Y029744D02*
X044801Y029744D01*
X044801Y029646D02*
X044601Y029646D01*
X044601Y029547D02*
X044801Y029547D01*
X044801Y029449D02*
X044601Y029449D01*
X044601Y029350D02*
X044801Y029350D01*
X044801Y029251D02*
X044601Y029251D01*
X044601Y029153D02*
X044801Y029153D01*
X044801Y029054D02*
X044601Y029054D01*
X044601Y028956D02*
X044801Y028956D01*
X044801Y028857D02*
X044601Y028857D01*
X044601Y028759D02*
X044801Y028759D01*
X044801Y028660D02*
X044601Y028660D01*
X044601Y028562D02*
X044801Y028562D01*
X044801Y028463D02*
X044601Y028463D01*
X044601Y028365D02*
X044801Y028365D01*
X044801Y028266D02*
X044601Y028266D01*
X044601Y028168D02*
X044801Y028168D01*
X044801Y028069D02*
X044601Y028069D01*
X044601Y027970D02*
X044801Y027970D01*
X044801Y027872D02*
X044601Y027872D01*
X044601Y027773D02*
X044801Y027773D01*
X044801Y027675D02*
X044601Y027675D01*
X044601Y027576D02*
X044801Y027576D01*
X044801Y027478D02*
X044601Y027478D01*
X044601Y027379D02*
X044801Y027379D01*
X044725Y027281D02*
X044601Y027281D01*
X044592Y027182D02*
X044626Y027182D01*
X044528Y027084D02*
X044493Y027084D01*
X044429Y026985D02*
X044395Y026985D01*
X044401Y026886D02*
X044371Y026886D01*
X044366Y026788D02*
X044401Y026788D01*
X044401Y026689D02*
X044325Y026689D01*
X044399Y026591D02*
X044241Y026591D01*
X044296Y026492D02*
X033001Y026492D01*
X033001Y026394D02*
X044250Y026394D01*
X044231Y026295D02*
X033001Y026295D01*
X033001Y026197D02*
X044232Y026197D01*
X044273Y026098D02*
X033001Y026098D01*
X033001Y026000D02*
X044352Y026000D01*
X044906Y026492D02*
X048296Y026492D01*
X046916Y027576D02*
X045201Y027576D01*
X045201Y027675D02*
X046817Y027675D01*
X046718Y027773D02*
X045201Y027773D01*
X045201Y027872D02*
X046620Y027872D01*
X046521Y027970D02*
X045201Y027970D01*
X045201Y028069D02*
X046423Y028069D01*
X046324Y028168D02*
X045201Y028168D01*
X045201Y028266D02*
X046226Y028266D01*
X046127Y028365D02*
X045201Y028365D01*
X045201Y028463D02*
X046101Y028463D01*
X046101Y028562D02*
X045201Y028562D01*
X045201Y028660D02*
X046101Y028660D01*
X046101Y028759D02*
X045201Y028759D01*
X045201Y028857D02*
X046101Y028857D01*
X046101Y028956D02*
X045201Y028956D01*
X045201Y029054D02*
X046101Y029054D01*
X046101Y029153D02*
X045201Y029153D01*
X045201Y029251D02*
X046101Y029251D01*
X046101Y029350D02*
X045201Y029350D01*
X045201Y029449D02*
X046101Y029449D01*
X046101Y029547D02*
X045201Y029547D01*
X045201Y029646D02*
X046101Y029646D01*
X046101Y029744D02*
X045201Y029744D01*
X045201Y029843D02*
X046101Y029843D01*
X046101Y029941D02*
X045201Y029941D01*
X045201Y030040D02*
X046101Y030040D01*
X046101Y030138D02*
X045201Y030138D01*
X045201Y030237D02*
X046101Y030237D01*
X046101Y030335D02*
X045201Y030335D01*
X045201Y030434D02*
X046101Y030434D01*
X046101Y030533D02*
X045201Y030533D01*
X045281Y030631D02*
X046101Y030631D01*
X044720Y030631D02*
X037551Y030631D01*
X037481Y030730D02*
X044660Y030730D01*
X044631Y030828D02*
X037383Y030828D01*
X037101Y031474D02*
X036601Y030974D01*
X036401Y030828D02*
X036383Y030828D01*
X035651Y031321D02*
X035551Y031321D01*
X035551Y031287D02*
X035551Y031660D01*
X035287Y031924D01*
X034914Y031924D01*
X034651Y031660D01*
X034651Y031287D01*
X034914Y031024D01*
X035287Y031024D01*
X035551Y031287D01*
X035566Y031222D02*
X035486Y031222D01*
X035468Y031124D02*
X035387Y031124D01*
X035401Y031025D02*
X035289Y031025D01*
X034913Y031025D02*
X034289Y031025D01*
X034287Y031024D02*
X034551Y031287D01*
X034551Y031424D01*
X034151Y031424D01*
X034151Y031024D01*
X034287Y031024D01*
X034151Y031025D02*
X034051Y031025D01*
X034051Y031124D02*
X034151Y031124D01*
X034151Y031222D02*
X034051Y031222D01*
X034051Y031321D02*
X034151Y031321D01*
X034151Y031419D02*
X034051Y031419D01*
X034051Y031518D02*
X026151Y031518D01*
X026151Y031617D02*
X033651Y031617D01*
X033706Y031715D02*
X026151Y031715D01*
X026151Y031814D02*
X033804Y031814D01*
X033903Y031912D02*
X026151Y031912D01*
X026151Y031419D02*
X033651Y031419D01*
X033651Y031321D02*
X026151Y031321D01*
X026151Y031222D02*
X033716Y031222D01*
X033814Y031124D02*
X026151Y031124D01*
X026151Y033193D02*
X029368Y033193D01*
X029270Y033292D02*
X026151Y033292D01*
X026151Y033390D02*
X029171Y033390D01*
X029126Y033489D02*
X026151Y033489D01*
X026151Y033587D02*
X029126Y033587D01*
X029126Y033686D02*
X026151Y033686D01*
X026151Y033784D02*
X029126Y033784D01*
X029126Y033883D02*
X026151Y033883D01*
X026151Y033982D02*
X029195Y033982D01*
X029294Y034080D02*
X026151Y034080D01*
X026151Y034179D02*
X029392Y034179D01*
X030009Y034179D02*
X080763Y034179D01*
X080763Y034277D02*
X026151Y034277D01*
X026151Y034376D02*
X080763Y034376D01*
X080763Y034474D02*
X026151Y034474D01*
X026151Y034573D02*
X080763Y034573D01*
X080763Y034671D02*
X026151Y034671D01*
X034051Y031912D02*
X034151Y031912D01*
X034151Y031814D02*
X034051Y031814D01*
X034051Y031715D02*
X034151Y031715D01*
X034151Y031617D02*
X034051Y031617D01*
X034151Y031518D02*
X034651Y031518D01*
X034651Y031617D02*
X034551Y031617D01*
X034496Y031715D02*
X034706Y031715D01*
X034804Y031814D02*
X034397Y031814D01*
X034299Y031912D02*
X034903Y031912D01*
X035299Y031912D02*
X035903Y031912D01*
X035804Y031814D02*
X035397Y031814D01*
X035496Y031715D02*
X035706Y031715D01*
X035651Y031617D02*
X035551Y031617D01*
X035551Y031518D02*
X035651Y031518D01*
X035651Y031419D02*
X035551Y031419D01*
X034814Y031124D02*
X034387Y031124D01*
X034486Y031222D02*
X034716Y031222D01*
X034651Y031321D02*
X034551Y031321D01*
X034551Y031419D02*
X034651Y031419D01*
X034819Y030828D02*
X034383Y030828D01*
X034481Y030730D02*
X034720Y030730D01*
X034651Y030631D02*
X034551Y030631D01*
X034551Y030533D02*
X034651Y030533D01*
X034651Y030434D02*
X034151Y030434D01*
X034151Y030533D02*
X034051Y030533D01*
X034051Y030631D02*
X034151Y030631D01*
X034151Y030730D02*
X034051Y030730D01*
X034051Y030828D02*
X034151Y030828D01*
X034551Y030335D02*
X034651Y030335D01*
X034701Y030237D02*
X034500Y030237D01*
X034402Y030138D02*
X034800Y030138D01*
X034898Y030040D02*
X034303Y030040D01*
X035303Y030040D02*
X035401Y030040D01*
X036801Y030040D02*
X036898Y030040D01*
X032828Y026788D02*
X043636Y026788D01*
X043631Y026886D02*
X029801Y026886D01*
X029739Y026949D02*
X029263Y026949D01*
X028926Y026612D01*
X028926Y026136D01*
X029263Y025799D01*
X029739Y025799D01*
X030076Y026136D01*
X030076Y026612D01*
X029739Y026949D01*
X029900Y026788D02*
X031973Y026788D01*
X031875Y026689D02*
X029998Y026689D01*
X030076Y026591D02*
X031801Y026591D01*
X031801Y026492D02*
X030076Y026492D01*
X030076Y026394D02*
X031801Y026394D01*
X031801Y026295D02*
X030076Y026295D01*
X030076Y026197D02*
X031801Y026197D01*
X031801Y026098D02*
X030038Y026098D01*
X029940Y026000D02*
X031801Y026000D01*
X031801Y025901D02*
X029841Y025901D01*
X029743Y025802D02*
X031801Y025802D01*
X031801Y025704D02*
X026151Y025704D01*
X026151Y025802D02*
X027359Y025802D01*
X027363Y025799D02*
X027551Y025799D01*
X027551Y026324D01*
X027651Y026324D01*
X027651Y026424D01*
X028176Y026424D01*
X028176Y026612D01*
X027839Y026949D01*
X027651Y026949D01*
X027651Y026424D01*
X027551Y026424D01*
X027551Y026949D01*
X027363Y026949D01*
X027026Y026612D01*
X027026Y026424D01*
X027551Y026424D01*
X027551Y026324D01*
X027026Y026324D01*
X027026Y026136D01*
X027363Y025799D01*
X027260Y025901D02*
X026151Y025901D01*
X026151Y026000D02*
X027162Y026000D01*
X027063Y026098D02*
X026151Y026098D01*
X026151Y026197D02*
X027026Y026197D01*
X027026Y026295D02*
X026151Y026295D01*
X026151Y026394D02*
X027551Y026394D01*
X027551Y026492D02*
X027651Y026492D01*
X027651Y026394D02*
X028926Y026394D01*
X028926Y026492D02*
X028176Y026492D01*
X028176Y026591D02*
X028926Y026591D01*
X029003Y026689D02*
X028098Y026689D01*
X028000Y026788D02*
X029102Y026788D01*
X029200Y026886D02*
X027901Y026886D01*
X027651Y026886D02*
X027551Y026886D01*
X027551Y026788D02*
X027651Y026788D01*
X027651Y026689D02*
X027551Y026689D01*
X027551Y026591D02*
X027651Y026591D01*
X027651Y026324D02*
X028176Y026324D01*
X028176Y026136D01*
X027839Y025799D01*
X027651Y025799D01*
X027651Y026324D01*
X027651Y026295D02*
X027551Y026295D01*
X027551Y026197D02*
X027651Y026197D01*
X027651Y026098D02*
X027551Y026098D01*
X027551Y026000D02*
X027651Y026000D01*
X027651Y025901D02*
X027551Y025901D01*
X027551Y025802D02*
X027651Y025802D01*
X027843Y025802D02*
X029259Y025802D01*
X029160Y025901D02*
X027941Y025901D01*
X028040Y026000D02*
X029062Y026000D01*
X028963Y026098D02*
X028138Y026098D01*
X028176Y026197D02*
X028926Y026197D01*
X028926Y026295D02*
X028176Y026295D01*
X027300Y026886D02*
X026151Y026886D01*
X026151Y026788D02*
X027202Y026788D01*
X027103Y026689D02*
X026151Y026689D01*
X026151Y026591D02*
X027026Y026591D01*
X027026Y026492D02*
X026151Y026492D01*
X026151Y025605D02*
X031801Y025605D01*
X031801Y025507D02*
X026151Y025507D01*
X026151Y025408D02*
X031801Y025408D01*
X031801Y025310D02*
X026151Y025310D01*
X026151Y025211D02*
X031801Y025211D01*
X031801Y025113D02*
X026151Y025113D01*
X026151Y025014D02*
X031801Y025014D01*
X031801Y024916D02*
X027899Y024916D01*
X027990Y024892D02*
X027990Y024892D01*
X028200Y024818D02*
X028200Y024818D01*
X028201Y024817D02*
X031801Y024817D01*
X031815Y024719D02*
X028412Y024719D01*
X028403Y024724D02*
X028403Y024724D01*
X028583Y024620D02*
X031913Y024620D01*
X032012Y024521D02*
X030294Y024521D01*
X030219Y024521D02*
X030119Y024521D01*
X030119Y024524D02*
X030051Y024524D01*
X029834Y024434D01*
X029667Y024267D01*
X029576Y024049D01*
X029576Y023981D01*
X030119Y023981D01*
X030119Y024524D01*
X030045Y024521D02*
X028725Y024521D01*
X028850Y024423D02*
X029823Y024423D01*
X029724Y024324D02*
X028962Y024324D01*
X029059Y024226D02*
X029650Y024226D01*
X029609Y024127D02*
X029146Y024127D01*
X029226Y024029D02*
X029576Y024029D01*
X030119Y024029D02*
X030219Y024029D01*
X030219Y024127D02*
X030119Y024127D01*
X030119Y024226D02*
X030219Y024226D01*
X030219Y024324D02*
X030119Y024324D01*
X030119Y024423D02*
X030219Y024423D01*
X030219Y023733D02*
X030119Y023733D01*
X030119Y023635D02*
X030219Y023635D01*
X030219Y023536D02*
X030119Y023536D01*
X030119Y023437D02*
X030219Y023437D01*
X030219Y023339D02*
X030119Y023339D01*
X030289Y023339D02*
X030319Y023339D01*
X032001Y024815D02*
X032142Y024674D01*
X032659Y024674D01*
X032801Y024815D01*
X032801Y026532D01*
X032659Y026674D01*
X032142Y026674D01*
X032001Y026532D01*
X032001Y024815D01*
X032001Y024817D02*
X032801Y024817D01*
X032801Y024916D02*
X032001Y024916D01*
X032001Y025014D02*
X032801Y025014D01*
X032801Y025113D02*
X032001Y025113D01*
X032001Y025211D02*
X032801Y025211D01*
X032801Y025310D02*
X032001Y025310D01*
X032001Y025408D02*
X032801Y025408D01*
X032801Y025507D02*
X032001Y025507D01*
X032001Y025605D02*
X032801Y025605D01*
X032801Y025704D02*
X032001Y025704D01*
X032001Y025802D02*
X032801Y025802D01*
X032801Y025901D02*
X032001Y025901D01*
X032001Y026000D02*
X032801Y026000D01*
X032801Y026098D02*
X032001Y026098D01*
X032001Y026197D02*
X032801Y026197D01*
X032801Y026295D02*
X032001Y026295D01*
X032001Y026394D02*
X032801Y026394D01*
X032801Y026492D02*
X032001Y026492D01*
X032059Y026591D02*
X032742Y026591D01*
X032927Y026689D02*
X043677Y026689D01*
X043761Y026591D02*
X033001Y026591D01*
X033001Y025901D02*
X046326Y025901D01*
X046326Y025802D02*
X033001Y025802D01*
X033001Y025704D02*
X046326Y025704D01*
X046326Y025605D02*
X033001Y025605D01*
X033001Y025507D02*
X046355Y025507D01*
X046453Y025408D02*
X033001Y025408D01*
X033001Y025310D02*
X046552Y025310D01*
X046650Y025211D02*
X033001Y025211D01*
X032704Y024719D02*
X032097Y024719D01*
X027774Y024947D02*
X027774Y024947D01*
X027554Y024983D02*
X027554Y024983D01*
X027331Y024998D02*
X027331Y024998D01*
X027108Y024993D02*
X027108Y024993D01*
X026668Y024922D02*
X026668Y024922D01*
X026646Y024916D02*
X026151Y024916D01*
X026151Y024817D02*
X026356Y024817D01*
X026455Y024857D02*
X026455Y024857D01*
X044001Y026874D02*
X044401Y027274D01*
X044401Y030174D01*
X051501Y029574D02*
X052101Y029574D01*
X052301Y029374D01*
X055501Y029374D01*
X055701Y029574D01*
X056101Y029574D01*
X055801Y029974D02*
X055401Y029574D01*
X052701Y029574D01*
X052301Y029974D01*
X051901Y029974D01*
X051901Y030574D02*
X052301Y030574D01*
X053101Y029774D01*
X055301Y029774D01*
X055701Y030174D01*
X056101Y030174D01*
X056501Y030574D01*
X056101Y030574D02*
X056101Y030774D01*
X056301Y030974D01*
X056701Y030974D01*
X056901Y030774D01*
X056901Y030674D01*
X057901Y029774D01*
X058158Y030040D02*
X071626Y030040D01*
X071626Y030138D02*
X057988Y030138D01*
X057814Y030138D02*
X057795Y030138D01*
X057685Y030237D02*
X071651Y030237D01*
X071626Y030212D02*
X071626Y029736D01*
X071963Y029399D01*
X072439Y029399D01*
X072776Y029736D01*
X072776Y030212D01*
X072439Y030549D01*
X071963Y030549D01*
X071626Y030212D01*
X071749Y030335D02*
X057576Y030335D01*
X057466Y030434D02*
X071848Y030434D01*
X071946Y030533D02*
X057357Y030533D01*
X057247Y030631D02*
X072761Y030631D01*
X072859Y030533D02*
X072455Y030533D01*
X072554Y030434D02*
X072958Y030434D01*
X073056Y030335D02*
X072652Y030335D01*
X072751Y030237D02*
X073155Y030237D01*
X073253Y030138D02*
X072776Y030138D01*
X072776Y030040D02*
X073352Y030040D01*
X073451Y029941D02*
X072776Y029941D01*
X072776Y029843D02*
X073549Y029843D01*
X073648Y029744D02*
X072776Y029744D01*
X072686Y029646D02*
X073746Y029646D01*
X073845Y029547D02*
X072587Y029547D01*
X072489Y029449D02*
X073943Y029449D01*
X074042Y029350D02*
X058228Y029350D01*
X058269Y029251D02*
X074140Y029251D01*
X074239Y029153D02*
X058271Y029153D01*
X058252Y029054D02*
X074337Y029054D01*
X074251Y028956D02*
X074151Y028956D01*
X074151Y028857D02*
X074251Y028857D01*
X074251Y028759D02*
X074151Y028759D01*
X074151Y028660D02*
X074251Y028660D01*
X074251Y028562D02*
X074151Y028562D01*
X074151Y028463D02*
X073276Y028463D01*
X073276Y028365D02*
X073626Y028365D01*
X073626Y028424D02*
X073626Y028236D01*
X073963Y027899D01*
X074151Y027899D01*
X074151Y028424D01*
X073626Y028424D01*
X073626Y028562D02*
X073276Y028562D01*
X073276Y028660D02*
X073626Y028660D01*
X073673Y028759D02*
X073229Y028759D01*
X073130Y028857D02*
X073771Y028857D01*
X073870Y028956D02*
X073032Y028956D01*
X072370Y028956D02*
X072032Y028956D01*
X072130Y028857D02*
X072271Y028857D01*
X071701Y028474D02*
X071701Y026674D01*
X072101Y026274D01*
X072471Y026295D02*
X074601Y026295D01*
X074601Y026197D02*
X073088Y026197D01*
X073200Y026098D02*
X074601Y026098D01*
X074601Y026000D02*
X073249Y026000D01*
X073271Y025901D02*
X074601Y025901D01*
X074601Y025802D02*
X073874Y025802D01*
X073994Y025704D02*
X074601Y025704D01*
X074601Y025605D02*
X074047Y025605D01*
X074071Y025507D02*
X074601Y025507D01*
X074536Y025408D02*
X074071Y025408D01*
X074033Y025310D02*
X074424Y025310D01*
X074311Y025211D02*
X073961Y025211D01*
X073796Y025113D02*
X074199Y025113D01*
X074086Y025014D02*
X071443Y025014D01*
X071345Y025113D02*
X073606Y025113D01*
X073440Y025211D02*
X071246Y025211D01*
X071148Y025310D02*
X071682Y025310D01*
X071584Y025408D02*
X071049Y025408D01*
X070951Y025507D02*
X071485Y025507D01*
X071386Y025605D02*
X070852Y025605D01*
X070753Y025704D02*
X071288Y025704D01*
X071189Y025802D02*
X070655Y025802D01*
X070556Y025901D02*
X071091Y025901D01*
X070992Y026000D02*
X068901Y026000D01*
X068901Y026098D02*
X070894Y026098D01*
X070795Y026197D02*
X068901Y026197D01*
X068901Y026295D02*
X070697Y026295D01*
X070598Y026394D02*
X068901Y026394D01*
X068901Y026492D02*
X070500Y026492D01*
X070401Y026591D02*
X068901Y026591D01*
X068901Y026689D02*
X070302Y026689D01*
X070204Y026788D02*
X068901Y026788D01*
X068901Y026886D02*
X070105Y026886D01*
X070007Y026985D02*
X068901Y026985D01*
X068901Y027084D02*
X069908Y027084D01*
X069810Y027182D02*
X068901Y027182D01*
X068901Y027281D02*
X069711Y027281D01*
X069613Y027379D02*
X068901Y027379D01*
X068901Y027478D02*
X069514Y027478D01*
X069501Y027576D02*
X068901Y027576D01*
X068901Y027675D02*
X069501Y027675D01*
X069501Y027773D02*
X068901Y027773D01*
X068901Y027872D02*
X069501Y027872D01*
X069391Y027970D02*
X069011Y027970D01*
X069109Y028069D02*
X069292Y028069D01*
X069701Y028474D02*
X069701Y027574D01*
X071801Y025474D01*
X073701Y025474D01*
X073527Y025802D02*
X073271Y025802D01*
X073231Y025704D02*
X073408Y025704D01*
X072901Y025874D02*
X071901Y025874D01*
X070701Y027074D01*
X070701Y028474D01*
X071130Y028857D02*
X071271Y028857D01*
X071370Y028956D02*
X071032Y028956D01*
X070370Y028956D02*
X070032Y028956D01*
X070130Y028857D02*
X070271Y028857D01*
X069370Y028956D02*
X069032Y028956D01*
X069130Y028857D02*
X069271Y028857D01*
X068701Y028474D02*
X068701Y023874D01*
X069701Y022874D01*
X074401Y022874D01*
X074656Y023142D02*
X080763Y023142D01*
X080763Y023240D02*
X074483Y023240D01*
X074319Y023240D02*
X069617Y023240D01*
X069716Y023142D02*
X074146Y023142D01*
X074731Y023043D02*
X080763Y023043D01*
X080763Y022945D02*
X074771Y022945D01*
X074771Y022846D02*
X080763Y022846D01*
X080763Y022748D02*
X075450Y022748D01*
X075529Y022649D02*
X080763Y022649D01*
X080763Y022551D02*
X075569Y022551D01*
X075571Y022452D02*
X080763Y022452D01*
X080763Y022353D02*
X076244Y022353D01*
X076326Y022255D02*
X080763Y022255D01*
X080763Y022156D02*
X076367Y022156D01*
X076371Y022058D02*
X080763Y022058D01*
X080763Y023339D02*
X069519Y023339D01*
X069420Y023437D02*
X080763Y023437D01*
X080763Y023536D02*
X069321Y023536D01*
X069223Y023635D02*
X080763Y023635D01*
X080763Y023733D02*
X069124Y023733D01*
X069026Y023832D02*
X080763Y023832D01*
X080763Y023930D02*
X074440Y023930D01*
X074538Y024029D02*
X080763Y024029D01*
X080763Y024127D02*
X074637Y024127D01*
X074736Y024226D02*
X080763Y024226D01*
X080763Y024324D02*
X074834Y024324D01*
X074933Y024423D02*
X080763Y024423D01*
X080763Y024521D02*
X075031Y024521D01*
X075130Y024620D02*
X080763Y024620D01*
X080763Y024719D02*
X075228Y024719D01*
X075327Y024817D02*
X080763Y024817D01*
X080763Y024916D02*
X075425Y024916D01*
X075524Y025014D02*
X080763Y025014D01*
X080763Y025113D02*
X075601Y025113D01*
X075601Y025211D02*
X080763Y025211D01*
X080763Y025310D02*
X075601Y025310D01*
X075601Y025408D02*
X080763Y025408D01*
X080763Y025507D02*
X075601Y025507D01*
X075601Y025605D02*
X080763Y025605D01*
X080763Y025704D02*
X075601Y025704D01*
X075601Y025802D02*
X080763Y025802D01*
X080763Y025901D02*
X075601Y025901D01*
X075601Y026000D02*
X080763Y026000D01*
X080763Y026098D02*
X075601Y026098D01*
X075601Y026197D02*
X080763Y026197D01*
X080763Y026295D02*
X075601Y026295D01*
X075601Y026394D02*
X080763Y026394D01*
X080763Y026492D02*
X075601Y026492D01*
X075601Y026591D02*
X080763Y026591D01*
X080763Y026689D02*
X075601Y026689D01*
X075601Y026788D02*
X080763Y026788D01*
X080763Y026886D02*
X075601Y026886D01*
X075601Y026985D02*
X080763Y026985D01*
X080763Y027084D02*
X075601Y027084D01*
X075601Y027182D02*
X080763Y027182D01*
X080763Y027281D02*
X075601Y027281D01*
X075601Y027379D02*
X080763Y027379D01*
X080763Y027478D02*
X075601Y027478D01*
X075601Y027576D02*
X080763Y027576D01*
X080763Y027675D02*
X075601Y027675D01*
X075601Y027773D02*
X080763Y027773D01*
X080763Y027872D02*
X075601Y027872D01*
X075601Y027970D02*
X080763Y027970D01*
X080763Y028069D02*
X075601Y028069D01*
X075601Y028168D02*
X080763Y028168D01*
X080763Y028266D02*
X075601Y028266D01*
X075601Y028365D02*
X080763Y028365D01*
X080763Y028463D02*
X075601Y028463D01*
X075601Y028562D02*
X080763Y028562D01*
X080763Y028660D02*
X075601Y028660D01*
X075601Y028759D02*
X080763Y028759D01*
X080763Y028857D02*
X075601Y028857D01*
X075601Y028956D02*
X080763Y028956D01*
X080763Y029054D02*
X075601Y029054D01*
X075601Y029153D02*
X080763Y029153D01*
X080763Y029251D02*
X075601Y029251D01*
X075601Y029350D02*
X080763Y029350D01*
X080763Y029449D02*
X075601Y029449D01*
X075601Y029547D02*
X080763Y029547D01*
X080763Y029646D02*
X075601Y029646D01*
X075601Y029744D02*
X080763Y029744D01*
X080763Y029843D02*
X075601Y029843D01*
X075601Y029941D02*
X080763Y029941D01*
X080763Y030040D02*
X075601Y030040D01*
X075601Y030138D02*
X080763Y030138D01*
X080763Y030237D02*
X075601Y030237D01*
X075601Y030335D02*
X080763Y030335D01*
X080763Y030434D02*
X075601Y030434D01*
X075601Y030533D02*
X080763Y030533D01*
X080763Y030631D02*
X075601Y030631D01*
X075601Y030730D02*
X080763Y030730D01*
X080763Y030828D02*
X075601Y030828D01*
X075601Y030927D02*
X080763Y030927D01*
X080763Y031025D02*
X075601Y031025D01*
X075534Y031124D02*
X080763Y031124D01*
X080763Y031222D02*
X075435Y031222D01*
X075336Y031321D02*
X080763Y031321D01*
X080763Y031419D02*
X075238Y031419D01*
X075139Y031518D02*
X080763Y031518D01*
X080763Y031617D02*
X075041Y031617D01*
X074942Y031715D02*
X080763Y031715D01*
X080763Y031814D02*
X074844Y031814D01*
X074745Y031912D02*
X080763Y031912D01*
X080763Y032011D02*
X074647Y032011D01*
X074548Y032109D02*
X080763Y032109D01*
X080763Y032208D02*
X074450Y032208D01*
X074351Y032306D02*
X080763Y032306D01*
X080763Y032405D02*
X074253Y032405D01*
X074154Y032503D02*
X080763Y032503D01*
X080763Y032602D02*
X074055Y032602D01*
X073957Y032701D02*
X080763Y032701D01*
X080763Y032799D02*
X073858Y032799D01*
X073760Y032898D02*
X080763Y032898D01*
X080763Y032996D02*
X073661Y032996D01*
X073563Y033095D02*
X080763Y033095D01*
X080763Y033193D02*
X073464Y033193D01*
X073366Y033292D02*
X080763Y033292D01*
X080763Y033390D02*
X073267Y033390D01*
X073169Y033489D02*
X080763Y033489D01*
X075401Y030927D02*
X072748Y030927D01*
X072649Y031025D02*
X075349Y031025D01*
X075251Y031124D02*
X072551Y031124D01*
X072452Y031222D02*
X075152Y031222D01*
X075054Y031321D02*
X072354Y031321D01*
X072255Y031419D02*
X074955Y031419D01*
X074857Y031518D02*
X072157Y031518D01*
X072058Y031617D02*
X074758Y031617D01*
X074660Y031715D02*
X071960Y031715D01*
X071861Y031814D02*
X074561Y031814D01*
X074462Y031912D02*
X071762Y031912D01*
X071664Y032011D02*
X074364Y032011D01*
X074265Y032109D02*
X071565Y032109D01*
X071480Y031912D02*
X051651Y031912D01*
X051784Y031814D02*
X071578Y031814D01*
X071677Y031715D02*
X052642Y031715D01*
X052741Y031617D02*
X071775Y031617D01*
X071874Y031518D02*
X052839Y031518D01*
X052938Y031419D02*
X071972Y031419D01*
X072071Y031321D02*
X053036Y031321D01*
X053135Y031222D02*
X072169Y031222D01*
X072268Y031124D02*
X056834Y031124D01*
X056932Y031025D02*
X072367Y031025D01*
X072465Y030927D02*
X057031Y030927D01*
X057101Y030828D02*
X072564Y030828D01*
X072662Y030730D02*
X057138Y030730D01*
X056501Y029974D02*
X055801Y029974D01*
X055901Y030374D02*
X056101Y030574D01*
X055901Y030374D02*
X055601Y030374D01*
X055201Y029974D01*
X053501Y029974D01*
X052301Y031174D01*
X051901Y031174D01*
X051501Y031574D02*
X052501Y031574D01*
X053901Y030174D01*
X055101Y030174D01*
X055701Y030774D01*
X055973Y031025D02*
X056069Y031025D01*
X056168Y031124D02*
X055823Y031124D01*
X055579Y031124D02*
X053234Y031124D01*
X053332Y031025D02*
X055429Y031025D01*
X055364Y030927D02*
X053431Y030927D01*
X053529Y030828D02*
X055331Y030828D01*
X055331Y030730D02*
X053628Y030730D01*
X053726Y030631D02*
X055275Y030631D01*
X055177Y030533D02*
X053825Y030533D01*
X053923Y030434D02*
X055078Y030434D01*
X053967Y032208D02*
X074167Y032208D01*
X074068Y032306D02*
X053868Y032306D01*
X053770Y032405D02*
X073970Y032405D01*
X073871Y032503D02*
X053671Y032503D01*
X053573Y032602D02*
X073773Y032602D01*
X073674Y032701D02*
X053474Y032701D01*
X058232Y029941D02*
X071626Y029941D01*
X071626Y029843D02*
X058271Y029843D01*
X058271Y029744D02*
X071626Y029744D01*
X071716Y029646D02*
X058248Y029646D01*
X058197Y029547D02*
X071814Y029547D01*
X071913Y029449D02*
X058149Y029449D01*
X057901Y029174D02*
X051901Y029174D01*
X052301Y028974D02*
X051901Y028574D01*
X052301Y028974D02*
X057501Y028974D01*
X057901Y028574D01*
X057424Y028168D02*
X052377Y028168D01*
X052476Y028266D02*
X057326Y028266D01*
X057227Y028365D02*
X052574Y028365D01*
X052673Y028463D02*
X057129Y028463D01*
X057030Y028562D02*
X052771Y028562D01*
X052279Y028069D02*
X057523Y028069D01*
X057531Y027970D02*
X052271Y027970D01*
X052259Y027872D02*
X057543Y027872D01*
X057583Y027773D02*
X052218Y027773D01*
X052125Y027675D02*
X057677Y027675D01*
X058125Y027675D02*
X065501Y027675D01*
X065501Y027773D02*
X058218Y027773D01*
X058259Y027872D02*
X065501Y027872D01*
X066701Y028474D02*
X066701Y024474D01*
X069101Y022074D01*
X076001Y022074D01*
X075757Y022353D02*
X075551Y022353D01*
X075201Y022474D02*
X069401Y022474D01*
X067701Y024174D01*
X067701Y028474D01*
X068130Y028857D02*
X068271Y028857D01*
X068370Y028956D02*
X068032Y028956D01*
X067370Y028956D02*
X067032Y028956D01*
X067130Y028857D02*
X067271Y028857D01*
X066370Y028956D02*
X066032Y028956D01*
X066130Y028857D02*
X066271Y028857D01*
X071901Y027872D02*
X074601Y027872D01*
X074601Y027970D02*
X074510Y027970D01*
X074601Y027773D02*
X071901Y027773D01*
X071901Y027675D02*
X074601Y027675D01*
X074601Y027576D02*
X071901Y027576D01*
X071901Y027478D02*
X074601Y027478D01*
X074601Y027379D02*
X071901Y027379D01*
X071901Y027281D02*
X074601Y027281D01*
X074601Y027182D02*
X071901Y027182D01*
X071901Y027084D02*
X074601Y027084D01*
X074601Y026985D02*
X071901Y026985D01*
X071901Y026886D02*
X074601Y026886D01*
X074601Y026788D02*
X071901Y026788D01*
X071968Y026689D02*
X074601Y026689D01*
X074601Y026591D02*
X072302Y026591D01*
X072406Y026492D02*
X074601Y026492D01*
X074601Y026394D02*
X072452Y026394D01*
X072469Y026197D02*
X072713Y026197D01*
X072602Y026098D02*
X072428Y026098D01*
X070865Y025310D02*
X068901Y025310D01*
X068901Y025408D02*
X070766Y025408D01*
X070668Y025507D02*
X068901Y025507D01*
X068901Y025605D02*
X070569Y025605D01*
X070471Y025704D02*
X068901Y025704D01*
X068901Y025211D02*
X070963Y025211D01*
X071062Y025113D02*
X068901Y025113D01*
X068901Y024817D02*
X070175Y024817D01*
X070273Y024719D02*
X068901Y024719D01*
X068901Y024620D02*
X070372Y024620D01*
X070470Y024521D02*
X068901Y024521D01*
X068901Y024423D02*
X070569Y024423D01*
X070667Y024324D02*
X068901Y024324D01*
X068901Y024226D02*
X070766Y024226D01*
X070865Y024127D02*
X068901Y024127D01*
X068901Y024029D02*
X070963Y024029D01*
X071062Y023930D02*
X068927Y023930D01*
X070556Y024719D02*
X071456Y024719D01*
X071358Y024817D02*
X070458Y024817D01*
X070359Y024916D02*
X071259Y024916D01*
X071161Y025014D02*
X070261Y025014D01*
X070655Y024620D02*
X074847Y024620D01*
X074945Y024719D02*
X074052Y024719D01*
X074164Y024817D02*
X075044Y024817D01*
X075143Y024916D02*
X074277Y024916D01*
X074390Y025014D02*
X075241Y025014D01*
X075340Y025113D02*
X074502Y025113D01*
X074615Y025211D02*
X075401Y025211D01*
X075401Y025310D02*
X074728Y025310D01*
X074801Y025408D02*
X075401Y025408D01*
X075401Y025507D02*
X074801Y025507D01*
X074801Y025605D02*
X075401Y025605D01*
X075401Y025704D02*
X074801Y025704D01*
X074801Y025802D02*
X075401Y025802D01*
X075401Y025901D02*
X074801Y025901D01*
X074801Y026000D02*
X075401Y026000D01*
X075401Y026098D02*
X074801Y026098D01*
X074801Y026197D02*
X075401Y026197D01*
X075401Y026295D02*
X074801Y026295D01*
X074801Y026394D02*
X075401Y026394D01*
X075401Y026492D02*
X074801Y026492D01*
X074801Y026591D02*
X075401Y026591D01*
X075401Y026689D02*
X074801Y026689D01*
X074801Y026788D02*
X075401Y026788D01*
X075401Y026886D02*
X074801Y026886D01*
X074801Y026985D02*
X075401Y026985D01*
X075401Y027084D02*
X074801Y027084D01*
X074801Y027182D02*
X075401Y027182D01*
X075401Y027281D02*
X074801Y027281D01*
X074801Y027379D02*
X075401Y027379D01*
X075401Y027478D02*
X074801Y027478D01*
X074801Y027576D02*
X075401Y027576D01*
X075401Y027675D02*
X074801Y027675D01*
X074801Y027773D02*
X075401Y027773D01*
X075401Y027872D02*
X074801Y027872D01*
X074801Y027970D02*
X075401Y027970D01*
X075401Y028069D02*
X074801Y028069D01*
X074801Y028168D02*
X075401Y028168D01*
X075401Y028266D02*
X074801Y028266D01*
X074801Y028365D02*
X075401Y028365D01*
X075401Y028463D02*
X074801Y028463D01*
X074801Y028562D02*
X075401Y028562D01*
X075401Y028660D02*
X074801Y028660D01*
X074801Y028759D02*
X075401Y028759D01*
X075401Y028857D02*
X074801Y028857D01*
X074719Y028956D02*
X075401Y028956D01*
X075401Y029054D02*
X074620Y029054D01*
X074522Y029153D02*
X075401Y029153D01*
X075401Y029251D02*
X074423Y029251D01*
X074325Y029350D02*
X075401Y029350D01*
X075401Y029449D02*
X074226Y029449D01*
X074128Y029547D02*
X075401Y029547D01*
X075401Y029646D02*
X074029Y029646D01*
X073930Y029744D02*
X075401Y029744D01*
X075401Y029843D02*
X073832Y029843D01*
X073733Y029941D02*
X075401Y029941D01*
X075401Y030040D02*
X073635Y030040D01*
X073536Y030138D02*
X075401Y030138D01*
X075401Y030237D02*
X073438Y030237D01*
X073339Y030335D02*
X075401Y030335D01*
X075401Y030434D02*
X073241Y030434D01*
X073142Y030533D02*
X075401Y030533D01*
X075401Y030631D02*
X073044Y030631D01*
X072945Y030730D02*
X075401Y030730D01*
X075401Y030828D02*
X072846Y030828D01*
X074151Y028365D02*
X074251Y028365D01*
X074251Y028266D02*
X074151Y028266D01*
X074151Y028168D02*
X074251Y028168D01*
X074251Y028069D02*
X074151Y028069D01*
X074151Y027970D02*
X074251Y027970D01*
X073891Y027970D02*
X073011Y027970D01*
X073109Y028069D02*
X073792Y028069D01*
X073694Y028168D02*
X073208Y028168D01*
X073276Y028266D02*
X073626Y028266D01*
X072391Y027970D02*
X072011Y027970D01*
X072109Y028069D02*
X072292Y028069D01*
X071542Y024916D02*
X073973Y024916D01*
X074551Y024324D02*
X070950Y024324D01*
X070852Y024423D02*
X074650Y024423D01*
X074748Y024521D02*
X070753Y024521D01*
X071049Y024226D02*
X074453Y024226D01*
X074354Y024127D02*
X071147Y024127D01*
X074749Y022748D02*
X074951Y022748D01*
X076354Y021959D02*
X076563Y021959D01*
D20*
X076801Y021674D03*
X076001Y022074D03*
X075201Y022474D03*
X074401Y022874D03*
X073701Y025474D03*
X072901Y025874D03*
X072101Y026274D03*
X070251Y025424D03*
X069701Y025424D03*
X069151Y025424D03*
X076501Y028474D03*
X077101Y028474D03*
X077101Y029074D03*
X077101Y029674D03*
X076501Y029674D03*
X076501Y029074D03*
X074901Y030074D03*
X074601Y029574D03*
X074101Y030074D03*
X074401Y030674D03*
X075001Y030674D03*
X073801Y030674D03*
X057901Y029774D03*
X057901Y029174D03*
X057901Y028574D03*
X057901Y027974D03*
X056101Y029574D03*
X056501Y029974D03*
X056501Y030574D03*
X055701Y030774D03*
X051901Y030574D03*
X051901Y031174D03*
X051501Y031574D03*
X051251Y032224D03*
X049601Y031074D03*
X051901Y029974D03*
X051501Y029574D03*
X051901Y029174D03*
X051901Y028574D03*
X051901Y027974D03*
X051401Y027174D03*
X049651Y028074D03*
X049401Y026274D03*
X048601Y026274D03*
X045151Y026724D03*
X044601Y026274D03*
X044001Y026874D03*
X046601Y028574D03*
X044401Y030174D03*
X045001Y030874D03*
X045151Y031724D03*
X045151Y032424D03*
X036801Y032974D03*
X036801Y033574D03*
X036201Y033574D03*
X036201Y032974D03*
X035601Y032974D03*
X035601Y033574D03*
X033051Y032674D03*
X032651Y032374D03*
X033051Y032074D03*
X032251Y032074D03*
X032251Y032674D03*
X032401Y026374D03*
X032401Y024974D03*
X047001Y021924D03*
X049001Y021774D03*
X051001Y021924D03*
D21*
X050351Y021924D01*
X049851Y022424D01*
X049851Y023324D01*
X049401Y023774D01*
X049401Y026274D01*
X048601Y026274D02*
X048601Y023974D01*
X047951Y023324D01*
X047951Y022524D01*
X047351Y021924D01*
X047001Y021924D01*
M02*
