G75*
G70*
%OFA0B0*%
%FSLAX24Y24*%
%IPPOS*%
%LPD*%
%AMOC8*
5,1,8,0,0,1.08239X$1,22.5*
%
%ADD10C,0.0000*%
%ADD11C,0.0100*%
%ADD12C,0.0080*%
%ADD13C,0.0200*%
%ADD14C,0.0300*%
%ADD15R,0.5100X0.2800*%
%ADD16C,0.0400*%
D10*
X025701Y020974D02*
X081213Y020974D01*
X081213Y035147D01*
X025701Y035147D01*
X025701Y020974D01*
X026291Y022549D02*
X026295Y022638D01*
X026307Y022727D01*
X026327Y022814D01*
X026356Y022900D01*
X026391Y022982D01*
X026434Y023060D01*
X026484Y023135D01*
X026541Y023204D01*
X026603Y023268D01*
X026672Y023326D01*
X026745Y023378D01*
X026822Y023423D01*
X026904Y023460D01*
X026988Y023490D01*
X027075Y023512D01*
X027163Y023527D01*
X027253Y023533D01*
X027342Y023531D01*
X027431Y023521D01*
X027519Y023502D01*
X027605Y023476D01*
X027687Y023442D01*
X027767Y023401D01*
X027842Y023353D01*
X027913Y023298D01*
X027979Y023237D01*
X028038Y023170D01*
X028092Y023098D01*
X028138Y023021D01*
X028178Y022941D01*
X028209Y022857D01*
X028234Y022771D01*
X028250Y022683D01*
X028258Y022594D01*
X028258Y022504D01*
X028250Y022415D01*
X028234Y022327D01*
X028209Y022241D01*
X028178Y022157D01*
X028138Y022077D01*
X028092Y022000D01*
X028038Y021928D01*
X027979Y021861D01*
X027913Y021800D01*
X027842Y021745D01*
X027767Y021697D01*
X027687Y021656D01*
X027605Y021622D01*
X027519Y021596D01*
X027431Y021577D01*
X027342Y021567D01*
X027253Y021565D01*
X027163Y021571D01*
X027075Y021586D01*
X026988Y021608D01*
X026904Y021638D01*
X026822Y021675D01*
X026745Y021720D01*
X026672Y021772D01*
X026603Y021830D01*
X026541Y021894D01*
X026484Y021963D01*
X026434Y022038D01*
X026391Y022116D01*
X026356Y022198D01*
X026327Y022284D01*
X026307Y022371D01*
X026295Y022460D01*
X026291Y022549D01*
X030740Y023144D02*
X030742Y023171D01*
X030748Y023197D01*
X030758Y023223D01*
X030772Y023246D01*
X030789Y023267D01*
X030810Y023285D01*
X030832Y023299D01*
X030857Y023311D01*
X030883Y023318D01*
X030910Y023321D01*
X030937Y023320D01*
X030964Y023315D01*
X030989Y023306D01*
X031013Y023293D01*
X031035Y023276D01*
X031054Y023257D01*
X031069Y023234D01*
X031081Y023210D01*
X031089Y023184D01*
X031093Y023158D01*
X031093Y023130D01*
X031089Y023104D01*
X031081Y023078D01*
X031069Y023054D01*
X031054Y023031D01*
X031035Y023012D01*
X031013Y022995D01*
X030989Y022982D01*
X030964Y022973D01*
X030937Y022968D01*
X030910Y022967D01*
X030883Y022970D01*
X030857Y022977D01*
X030832Y022989D01*
X030810Y023003D01*
X030789Y023021D01*
X030772Y023042D01*
X030758Y023065D01*
X030748Y023091D01*
X030742Y023117D01*
X030740Y023144D01*
X032118Y023144D02*
X032120Y023171D01*
X032126Y023197D01*
X032136Y023223D01*
X032150Y023246D01*
X032167Y023267D01*
X032188Y023285D01*
X032210Y023299D01*
X032235Y023311D01*
X032261Y023318D01*
X032288Y023321D01*
X032315Y023320D01*
X032342Y023315D01*
X032367Y023306D01*
X032391Y023293D01*
X032413Y023276D01*
X032432Y023257D01*
X032447Y023234D01*
X032459Y023210D01*
X032467Y023184D01*
X032471Y023158D01*
X032471Y023130D01*
X032467Y023104D01*
X032459Y023078D01*
X032447Y023054D01*
X032432Y023031D01*
X032413Y023012D01*
X032391Y022995D01*
X032367Y022982D01*
X032342Y022973D01*
X032315Y022968D01*
X032288Y022967D01*
X032261Y022970D01*
X032235Y022977D01*
X032210Y022989D01*
X032188Y023003D01*
X032167Y023021D01*
X032150Y023042D01*
X032136Y023065D01*
X032126Y023091D01*
X032120Y023117D01*
X032118Y023144D01*
X061409Y022190D02*
X061411Y022214D01*
X061417Y022237D01*
X061427Y022258D01*
X061440Y022278D01*
X061457Y022295D01*
X061476Y022309D01*
X061497Y022320D01*
X061520Y022327D01*
X061543Y022330D01*
X061567Y022329D01*
X061590Y022324D01*
X061612Y022315D01*
X061632Y022303D01*
X061650Y022287D01*
X061665Y022268D01*
X061677Y022248D01*
X061684Y022225D01*
X061688Y022202D01*
X061688Y022178D01*
X061684Y022155D01*
X061677Y022132D01*
X061665Y022112D01*
X061650Y022093D01*
X061632Y022077D01*
X061612Y022065D01*
X061590Y022056D01*
X061567Y022051D01*
X061543Y022050D01*
X061520Y022053D01*
X061497Y022060D01*
X061476Y022071D01*
X061457Y022085D01*
X061440Y022102D01*
X061427Y022122D01*
X061417Y022143D01*
X061411Y022166D01*
X061409Y022190D01*
X061381Y021514D02*
X061383Y021538D01*
X061389Y021561D01*
X061399Y021582D01*
X061412Y021602D01*
X061429Y021619D01*
X061448Y021633D01*
X061469Y021644D01*
X061492Y021651D01*
X061515Y021654D01*
X061539Y021653D01*
X061562Y021648D01*
X061584Y021639D01*
X061604Y021627D01*
X061622Y021611D01*
X061637Y021592D01*
X061649Y021572D01*
X061656Y021549D01*
X061660Y021526D01*
X061660Y021502D01*
X061656Y021479D01*
X061649Y021456D01*
X061637Y021436D01*
X061622Y021417D01*
X061604Y021401D01*
X061584Y021389D01*
X061562Y021380D01*
X061539Y021375D01*
X061515Y021374D01*
X061492Y021377D01*
X061469Y021384D01*
X061448Y021395D01*
X061429Y021409D01*
X061412Y021426D01*
X061399Y021446D01*
X061389Y021467D01*
X061383Y021490D01*
X061381Y021514D01*
X061591Y022820D02*
X061593Y022844D01*
X061599Y022867D01*
X061609Y022888D01*
X061622Y022908D01*
X061639Y022925D01*
X061658Y022939D01*
X061679Y022950D01*
X061702Y022957D01*
X061725Y022960D01*
X061749Y022959D01*
X061772Y022954D01*
X061794Y022945D01*
X061814Y022933D01*
X061832Y022917D01*
X061847Y022898D01*
X061859Y022878D01*
X061866Y022855D01*
X061870Y022832D01*
X061870Y022808D01*
X061866Y022785D01*
X061859Y022762D01*
X061847Y022742D01*
X061832Y022723D01*
X061814Y022707D01*
X061794Y022695D01*
X061772Y022686D01*
X061749Y022681D01*
X061725Y022680D01*
X061702Y022683D01*
X061679Y022690D01*
X061658Y022701D01*
X061639Y022715D01*
X061622Y022732D01*
X061609Y022752D01*
X061599Y022773D01*
X061593Y022796D01*
X061591Y022820D01*
X061960Y023392D02*
X061962Y023416D01*
X061968Y023439D01*
X061978Y023460D01*
X061991Y023480D01*
X062008Y023497D01*
X062027Y023511D01*
X062048Y023522D01*
X062071Y023529D01*
X062094Y023532D01*
X062118Y023531D01*
X062141Y023526D01*
X062163Y023517D01*
X062183Y023505D01*
X062201Y023489D01*
X062216Y023470D01*
X062228Y023450D01*
X062235Y023427D01*
X062239Y023404D01*
X062239Y023380D01*
X062235Y023357D01*
X062228Y023334D01*
X062216Y023314D01*
X062201Y023295D01*
X062183Y023279D01*
X062163Y023267D01*
X062141Y023258D01*
X062118Y023253D01*
X062094Y023252D01*
X062071Y023255D01*
X062048Y023262D01*
X062027Y023273D01*
X062008Y023287D01*
X061991Y023304D01*
X061978Y023324D01*
X061968Y023345D01*
X061962Y023368D01*
X061960Y023392D01*
X062481Y023834D02*
X062483Y023858D01*
X062489Y023881D01*
X062499Y023902D01*
X062512Y023922D01*
X062529Y023939D01*
X062548Y023953D01*
X062569Y023964D01*
X062592Y023971D01*
X062615Y023974D01*
X062639Y023973D01*
X062662Y023968D01*
X062684Y023959D01*
X062704Y023947D01*
X062722Y023931D01*
X062737Y023912D01*
X062749Y023892D01*
X062756Y023869D01*
X062760Y023846D01*
X062760Y023822D01*
X062756Y023799D01*
X062749Y023776D01*
X062737Y023756D01*
X062722Y023737D01*
X062704Y023721D01*
X062684Y023709D01*
X062662Y023700D01*
X062639Y023695D01*
X062615Y023694D01*
X062592Y023697D01*
X062569Y023704D01*
X062548Y023715D01*
X062529Y023729D01*
X062512Y023746D01*
X062499Y023766D01*
X062489Y023787D01*
X062483Y023810D01*
X062481Y023834D01*
X063078Y024093D02*
X063080Y024117D01*
X063086Y024140D01*
X063096Y024161D01*
X063109Y024181D01*
X063126Y024198D01*
X063145Y024212D01*
X063166Y024223D01*
X063189Y024230D01*
X063212Y024233D01*
X063236Y024232D01*
X063259Y024227D01*
X063281Y024218D01*
X063301Y024206D01*
X063319Y024190D01*
X063334Y024171D01*
X063346Y024151D01*
X063353Y024128D01*
X063357Y024105D01*
X063357Y024081D01*
X063353Y024058D01*
X063346Y024035D01*
X063334Y024015D01*
X063319Y023996D01*
X063301Y023980D01*
X063281Y023968D01*
X063259Y023959D01*
X063236Y023954D01*
X063212Y023953D01*
X063189Y023956D01*
X063166Y023963D01*
X063145Y023974D01*
X063126Y023988D01*
X063109Y024005D01*
X063096Y024025D01*
X063086Y024046D01*
X063080Y024069D01*
X063078Y024093D01*
X063697Y024179D02*
X063699Y024203D01*
X063705Y024226D01*
X063715Y024247D01*
X063728Y024267D01*
X063745Y024284D01*
X063764Y024298D01*
X063785Y024309D01*
X063808Y024316D01*
X063831Y024319D01*
X063855Y024318D01*
X063878Y024313D01*
X063900Y024304D01*
X063920Y024292D01*
X063938Y024276D01*
X063953Y024257D01*
X063965Y024237D01*
X063972Y024214D01*
X063976Y024191D01*
X063976Y024167D01*
X063972Y024144D01*
X063965Y024121D01*
X063953Y024101D01*
X063938Y024082D01*
X063920Y024066D01*
X063900Y024054D01*
X063878Y024045D01*
X063855Y024040D01*
X063831Y024039D01*
X063808Y024042D01*
X063785Y024049D01*
X063764Y024060D01*
X063745Y024074D01*
X063728Y024091D01*
X063715Y024111D01*
X063705Y024132D01*
X063699Y024155D01*
X063697Y024179D01*
X064320Y024093D02*
X064322Y024117D01*
X064328Y024140D01*
X064338Y024161D01*
X064351Y024181D01*
X064368Y024198D01*
X064387Y024212D01*
X064408Y024223D01*
X064431Y024230D01*
X064454Y024233D01*
X064478Y024232D01*
X064501Y024227D01*
X064523Y024218D01*
X064543Y024206D01*
X064561Y024190D01*
X064576Y024171D01*
X064588Y024151D01*
X064595Y024128D01*
X064599Y024105D01*
X064599Y024081D01*
X064595Y024058D01*
X064588Y024035D01*
X064576Y024015D01*
X064561Y023996D01*
X064543Y023980D01*
X064523Y023968D01*
X064501Y023959D01*
X064478Y023954D01*
X064454Y023953D01*
X064431Y023956D01*
X064408Y023963D01*
X064387Y023974D01*
X064368Y023988D01*
X064351Y024005D01*
X064338Y024025D01*
X064328Y024046D01*
X064322Y024069D01*
X064320Y024093D01*
X064916Y023834D02*
X064918Y023858D01*
X064924Y023881D01*
X064934Y023902D01*
X064947Y023922D01*
X064964Y023939D01*
X064983Y023953D01*
X065004Y023964D01*
X065027Y023971D01*
X065050Y023974D01*
X065074Y023973D01*
X065097Y023968D01*
X065119Y023959D01*
X065139Y023947D01*
X065157Y023931D01*
X065172Y023912D01*
X065184Y023892D01*
X065191Y023869D01*
X065195Y023846D01*
X065195Y023822D01*
X065191Y023799D01*
X065184Y023776D01*
X065172Y023756D01*
X065157Y023737D01*
X065139Y023721D01*
X065119Y023709D01*
X065097Y023700D01*
X065074Y023695D01*
X065050Y023694D01*
X065027Y023697D01*
X065004Y023704D01*
X064983Y023715D01*
X064964Y023729D01*
X064947Y023746D01*
X064934Y023766D01*
X064924Y023787D01*
X064918Y023810D01*
X064916Y023834D01*
X065438Y023392D02*
X065440Y023416D01*
X065446Y023439D01*
X065456Y023460D01*
X065469Y023480D01*
X065486Y023497D01*
X065505Y023511D01*
X065526Y023522D01*
X065549Y023529D01*
X065572Y023532D01*
X065596Y023531D01*
X065619Y023526D01*
X065641Y023517D01*
X065661Y023505D01*
X065679Y023489D01*
X065694Y023470D01*
X065706Y023450D01*
X065713Y023427D01*
X065717Y023404D01*
X065717Y023380D01*
X065713Y023357D01*
X065706Y023334D01*
X065694Y023314D01*
X065679Y023295D01*
X065661Y023279D01*
X065641Y023267D01*
X065619Y023258D01*
X065596Y023253D01*
X065572Y023252D01*
X065549Y023255D01*
X065526Y023262D01*
X065505Y023273D01*
X065486Y023287D01*
X065469Y023304D01*
X065456Y023324D01*
X065446Y023345D01*
X065440Y023368D01*
X065438Y023392D01*
X065806Y022820D02*
X065808Y022844D01*
X065814Y022867D01*
X065824Y022888D01*
X065837Y022908D01*
X065854Y022925D01*
X065873Y022939D01*
X065894Y022950D01*
X065917Y022957D01*
X065940Y022960D01*
X065964Y022959D01*
X065987Y022954D01*
X066009Y022945D01*
X066029Y022933D01*
X066047Y022917D01*
X066062Y022898D01*
X066074Y022878D01*
X066081Y022855D01*
X066085Y022832D01*
X066085Y022808D01*
X066081Y022785D01*
X066074Y022762D01*
X066062Y022742D01*
X066047Y022723D01*
X066029Y022707D01*
X066009Y022695D01*
X065987Y022686D01*
X065964Y022681D01*
X065940Y022680D01*
X065917Y022683D01*
X065894Y022690D01*
X065873Y022701D01*
X065854Y022715D01*
X065837Y022732D01*
X065824Y022752D01*
X065814Y022773D01*
X065808Y022796D01*
X065806Y022820D01*
X065989Y022190D02*
X065991Y022214D01*
X065997Y022237D01*
X066007Y022258D01*
X066020Y022278D01*
X066037Y022295D01*
X066056Y022309D01*
X066077Y022320D01*
X066100Y022327D01*
X066123Y022330D01*
X066147Y022329D01*
X066170Y022324D01*
X066192Y022315D01*
X066212Y022303D01*
X066230Y022287D01*
X066245Y022268D01*
X066257Y022248D01*
X066264Y022225D01*
X066268Y022202D01*
X066268Y022178D01*
X066264Y022155D01*
X066257Y022132D01*
X066245Y022112D01*
X066230Y022093D01*
X066212Y022077D01*
X066192Y022065D01*
X066170Y022056D01*
X066147Y022051D01*
X066123Y022050D01*
X066100Y022053D01*
X066077Y022060D01*
X066056Y022071D01*
X066037Y022085D01*
X066020Y022102D01*
X066007Y022122D01*
X065997Y022143D01*
X065991Y022166D01*
X065989Y022190D01*
X066016Y021514D02*
X066018Y021538D01*
X066024Y021561D01*
X066034Y021582D01*
X066047Y021602D01*
X066064Y021619D01*
X066083Y021633D01*
X066104Y021644D01*
X066127Y021651D01*
X066150Y021654D01*
X066174Y021653D01*
X066197Y021648D01*
X066219Y021639D01*
X066239Y021627D01*
X066257Y021611D01*
X066272Y021592D01*
X066284Y021572D01*
X066291Y021549D01*
X066295Y021526D01*
X066295Y021502D01*
X066291Y021479D01*
X066284Y021456D01*
X066272Y021436D01*
X066257Y021417D01*
X066239Y021401D01*
X066219Y021389D01*
X066197Y021380D01*
X066174Y021375D01*
X066150Y021374D01*
X066127Y021377D01*
X066104Y021384D01*
X066083Y021395D01*
X066064Y021409D01*
X066047Y021426D01*
X066034Y021446D01*
X066024Y021467D01*
X066018Y021490D01*
X066016Y021514D01*
D11*
X066291Y021840D02*
X066291Y021053D01*
X067807Y021418D02*
X079618Y021418D01*
X080406Y023190D02*
X080406Y024371D01*
X079815Y024371D01*
X079884Y024724D02*
X079750Y024857D01*
X080151Y024857D01*
X080151Y024724D02*
X080151Y024991D01*
X080084Y025184D02*
X080151Y025251D01*
X080151Y025384D01*
X080084Y025451D01*
X079951Y025451D01*
X079884Y025384D01*
X079884Y025318D01*
X079951Y025184D01*
X079750Y025184D01*
X079750Y025451D01*
X080217Y027771D02*
X080150Y027838D01*
X080150Y027972D01*
X080217Y028038D01*
X080284Y028038D01*
X080551Y027771D01*
X080551Y028038D01*
X080484Y028232D02*
X080217Y028499D01*
X080484Y028499D01*
X080551Y028432D01*
X080551Y028299D01*
X080484Y028232D01*
X080217Y028232D01*
X080150Y028299D01*
X080150Y028432D01*
X080217Y028499D01*
X080217Y028692D02*
X080150Y028759D01*
X080150Y028892D01*
X080217Y028959D01*
X080484Y028692D01*
X080551Y028759D01*
X080551Y028892D01*
X080484Y028959D01*
X080217Y028959D01*
X080351Y029153D02*
X080351Y029353D01*
X080417Y029419D01*
X080484Y029419D01*
X080551Y029353D01*
X080551Y029219D01*
X080484Y029153D01*
X080351Y029153D01*
X080217Y029286D01*
X080150Y029419D01*
X079951Y029526D02*
X079951Y029660D01*
X079884Y029726D01*
X079817Y029726D01*
X079751Y029660D01*
X079751Y029460D01*
X079884Y029460D01*
X079951Y029526D01*
X079751Y029460D02*
X079617Y029593D01*
X079550Y029726D01*
X079617Y029920D02*
X079550Y029987D01*
X079550Y030120D01*
X079617Y030187D01*
X079884Y029920D01*
X079951Y029987D01*
X079951Y030120D01*
X079884Y030187D01*
X079617Y030187D01*
X079684Y030380D02*
X079550Y030514D01*
X079951Y030514D01*
X079951Y030647D02*
X079951Y030380D01*
X080284Y030273D02*
X080351Y030340D01*
X080551Y030340D01*
X080551Y030140D01*
X080484Y030073D01*
X080417Y030140D01*
X080417Y030340D01*
X080284Y030273D02*
X080284Y030140D01*
X080150Y029880D02*
X080551Y029613D01*
X079951Y029199D02*
X079951Y029066D01*
X079884Y028999D01*
X079617Y029266D01*
X079884Y029266D01*
X079951Y029199D01*
X079884Y028999D02*
X079617Y028999D01*
X079550Y029066D01*
X079550Y029199D01*
X079617Y029266D01*
X080217Y028692D02*
X080484Y028692D01*
X079884Y029920D02*
X079617Y029920D01*
X080284Y030534D02*
X080484Y030534D01*
X080551Y030600D01*
X080551Y030800D01*
X080284Y030800D01*
X080284Y030994D02*
X080284Y031127D01*
X080217Y031061D02*
X080484Y031061D01*
X080551Y031127D01*
X080484Y031301D02*
X080551Y031368D01*
X080551Y031501D01*
X080484Y031568D01*
X080351Y031568D01*
X080284Y031501D01*
X080284Y031368D01*
X080351Y031301D01*
X080484Y031301D01*
X080551Y031761D02*
X080284Y031761D01*
X080284Y031828D01*
X080351Y031895D01*
X080284Y031961D01*
X080351Y032028D01*
X080551Y032028D01*
X080551Y031895D02*
X080351Y031895D01*
X080351Y032222D02*
X080284Y032288D01*
X080284Y032422D01*
X080351Y032488D01*
X080417Y032488D01*
X080417Y032222D01*
X080351Y032222D02*
X080484Y032222D01*
X080551Y032288D01*
X080551Y032422D01*
X080484Y032749D02*
X080551Y032815D01*
X080484Y032749D02*
X080217Y032749D01*
X080284Y032682D02*
X080284Y032815D01*
X080284Y033055D02*
X080284Y033189D01*
X080351Y033256D01*
X080551Y033256D01*
X080551Y033055D01*
X080484Y032989D01*
X080417Y033055D01*
X080417Y033256D01*
X080484Y033449D02*
X080484Y033516D01*
X080551Y033516D01*
X080551Y033449D01*
X080484Y033449D01*
X080417Y033679D02*
X080284Y033813D01*
X080284Y033879D01*
X080351Y034063D02*
X080484Y034063D01*
X080551Y034130D01*
X080551Y034263D01*
X080484Y034330D01*
X080351Y034330D01*
X080284Y034263D01*
X080284Y034130D01*
X080351Y034063D01*
X080284Y033679D02*
X080551Y033679D01*
X079951Y033669D02*
X079884Y033603D01*
X079617Y033870D01*
X079884Y033870D01*
X079951Y033803D01*
X079951Y033669D01*
X079884Y033603D02*
X079617Y033603D01*
X079550Y033669D01*
X079550Y033803D01*
X079617Y033870D01*
X079617Y034063D02*
X079550Y034130D01*
X079550Y034263D01*
X079617Y034330D01*
X079884Y034063D01*
X079951Y034130D01*
X079951Y034263D01*
X079884Y034330D01*
X079617Y034330D01*
X079617Y034063D02*
X079884Y034063D01*
X079251Y034063D02*
X079251Y034330D01*
X079251Y034197D02*
X078850Y034197D01*
X078984Y034063D01*
X078917Y033870D02*
X078850Y033803D01*
X078850Y033603D01*
X079251Y033603D01*
X079251Y033803D01*
X079184Y033870D01*
X078917Y033870D01*
X078917Y033410D02*
X079051Y033410D01*
X079117Y033343D01*
X079117Y033143D01*
X079117Y033276D02*
X079251Y033410D01*
X079251Y033143D02*
X078850Y033143D01*
X078850Y033343D01*
X078917Y033410D01*
X078850Y032949D02*
X078850Y032682D01*
X079251Y032682D01*
X079251Y032949D01*
X079051Y032816D02*
X079051Y032682D01*
X079251Y032489D02*
X078850Y032489D01*
X078850Y032222D02*
X079251Y032489D01*
X079251Y032222D02*
X078850Y032222D01*
X079550Y032288D02*
X079550Y032422D01*
X079617Y032489D01*
X079684Y032489D01*
X079751Y032422D01*
X079817Y032489D01*
X079884Y032489D01*
X079951Y032422D01*
X079951Y032288D01*
X079884Y032222D01*
X079751Y032355D02*
X079751Y032422D01*
X079617Y032222D02*
X079550Y032288D01*
X079684Y032028D02*
X079951Y032028D01*
X079751Y032028D02*
X079751Y031761D01*
X079684Y031761D02*
X079550Y031895D01*
X079684Y032028D01*
X079684Y031761D02*
X079951Y031761D01*
X079884Y031568D02*
X079951Y031501D01*
X079951Y031368D01*
X079884Y031301D01*
X079617Y031568D01*
X079884Y031568D01*
X079617Y031568D02*
X079550Y031501D01*
X079550Y031368D01*
X079617Y031301D01*
X079884Y031301D01*
X079884Y031107D02*
X079951Y031041D01*
X079951Y030907D01*
X079884Y030841D01*
X079751Y030974D02*
X079751Y031041D01*
X079817Y031107D01*
X079884Y031107D01*
X079751Y031041D02*
X079684Y031107D01*
X079617Y031107D01*
X079550Y031041D01*
X079550Y030907D01*
X079617Y030841D01*
X077156Y031892D02*
X077156Y032025D01*
X077090Y032092D01*
X077156Y032285D02*
X076756Y032285D01*
X077156Y032552D01*
X076756Y032552D01*
X076823Y032746D02*
X076756Y032812D01*
X076756Y032946D01*
X076823Y033013D01*
X076890Y033013D01*
X077156Y032746D01*
X077156Y033013D01*
X076488Y032940D02*
X076488Y031759D01*
X075897Y031759D01*
X076256Y031313D02*
X076256Y031046D01*
X076256Y031179D02*
X075856Y031179D01*
X075990Y031046D01*
X076075Y030497D02*
X076193Y030497D01*
X076724Y029966D01*
X076724Y028450D01*
X076075Y028450D01*
X075987Y027941D02*
X075987Y027541D01*
X075854Y027541D02*
X076121Y027541D01*
X076314Y027608D02*
X076581Y027875D01*
X076581Y027608D01*
X076514Y027541D01*
X076381Y027541D01*
X076314Y027608D01*
X076314Y027875D01*
X076381Y027941D01*
X076514Y027941D01*
X076581Y027875D01*
X075987Y027941D02*
X075854Y027808D01*
X075660Y027875D02*
X075593Y027941D01*
X075460Y027941D01*
X075393Y027875D01*
X075393Y027608D01*
X075460Y027541D01*
X075593Y027541D01*
X075660Y027608D01*
X074999Y027557D02*
X074932Y027624D01*
X074732Y027624D01*
X074732Y027491D01*
X074799Y027424D01*
X074932Y027424D01*
X074999Y027491D01*
X074999Y027557D01*
X074865Y027757D02*
X074732Y027624D01*
X074865Y027757D02*
X074999Y027824D01*
X074538Y027757D02*
X074472Y027824D01*
X074338Y027824D01*
X074271Y027757D01*
X074078Y027757D02*
X074078Y027624D01*
X074011Y027557D01*
X073811Y027557D01*
X073811Y027424D02*
X073811Y027824D01*
X074011Y027824D01*
X074078Y027757D01*
X074271Y027424D02*
X074538Y027691D01*
X074538Y027757D01*
X074538Y027424D02*
X074271Y027424D01*
X074271Y027224D02*
X074472Y027224D01*
X074538Y027157D01*
X074538Y026891D01*
X074472Y026824D01*
X074271Y026824D01*
X074271Y027224D01*
X074078Y027224D02*
X074078Y026824D01*
X073811Y027224D01*
X073811Y026824D01*
X073618Y026891D02*
X073618Y027024D01*
X073484Y027024D01*
X073351Y026891D02*
X073417Y026824D01*
X073551Y026824D01*
X073618Y026891D01*
X073618Y027157D02*
X073551Y027224D01*
X073417Y027224D01*
X073351Y027157D01*
X073351Y026891D01*
X073484Y027424D02*
X073484Y027824D01*
X073351Y027824D02*
X073618Y027824D01*
X072499Y027824D02*
X072365Y027757D01*
X072232Y027624D01*
X072432Y027624D01*
X072499Y027557D01*
X072499Y027491D01*
X072432Y027424D01*
X072299Y027424D01*
X072232Y027491D01*
X072232Y027624D01*
X072038Y027424D02*
X071771Y027424D01*
X071905Y027424D02*
X071905Y027824D01*
X071771Y027691D01*
X071578Y027757D02*
X071511Y027824D01*
X071311Y027824D01*
X071311Y027424D01*
X071311Y027557D02*
X071511Y027557D01*
X071578Y027624D01*
X071578Y027757D01*
X071118Y027824D02*
X070851Y027824D01*
X070984Y027824D02*
X070984Y027424D01*
X070499Y027491D02*
X070432Y027424D01*
X070299Y027424D01*
X070232Y027491D01*
X070232Y027557D01*
X070299Y027624D01*
X070432Y027624D01*
X070499Y027557D01*
X070499Y027491D01*
X070432Y027624D02*
X070499Y027691D01*
X070499Y027757D01*
X070432Y027824D01*
X070299Y027824D01*
X070232Y027757D01*
X070232Y027691D01*
X070299Y027624D01*
X070038Y027424D02*
X069771Y027424D01*
X069905Y027424D02*
X069905Y027824D01*
X069771Y027691D01*
X069578Y027757D02*
X069511Y027824D01*
X069311Y027824D01*
X069311Y027424D01*
X069311Y027557D02*
X069511Y027557D01*
X069578Y027624D01*
X069578Y027757D01*
X069118Y027824D02*
X068851Y027824D01*
X068984Y027824D02*
X068984Y027424D01*
X068499Y027491D02*
X068432Y027424D01*
X068299Y027424D01*
X068232Y027491D01*
X068499Y027757D01*
X068499Y027491D01*
X068499Y027757D02*
X068432Y027824D01*
X068299Y027824D01*
X068232Y027757D01*
X068232Y027491D01*
X068038Y027424D02*
X067771Y027424D01*
X068038Y027691D01*
X068038Y027757D01*
X067972Y027824D01*
X067838Y027824D01*
X067771Y027757D01*
X067578Y027757D02*
X067578Y027624D01*
X067511Y027557D01*
X067311Y027557D01*
X067311Y027424D02*
X067311Y027824D01*
X067511Y027824D01*
X067578Y027757D01*
X067118Y027824D02*
X066851Y027824D01*
X066984Y027824D02*
X066984Y027424D01*
X065099Y028324D02*
X064832Y028324D01*
X065099Y028591D01*
X065099Y028657D01*
X065032Y028724D01*
X064899Y028724D01*
X064832Y028657D01*
X064638Y028657D02*
X064572Y028724D01*
X064438Y028724D01*
X064371Y028657D01*
X064178Y028657D02*
X064178Y028524D01*
X064111Y028457D01*
X063911Y028457D01*
X063911Y028324D02*
X063911Y028724D01*
X064111Y028724D01*
X064178Y028657D01*
X064371Y028324D02*
X064638Y028591D01*
X064638Y028657D01*
X064638Y028324D02*
X064371Y028324D01*
X063718Y028724D02*
X063451Y028724D01*
X063584Y028724D02*
X063584Y028324D01*
X066084Y029024D02*
X066084Y029424D01*
X065951Y029424D02*
X066218Y029424D01*
X066411Y029424D02*
X066611Y029424D01*
X066678Y029357D01*
X066678Y029224D01*
X066611Y029157D01*
X066411Y029157D01*
X066411Y029024D02*
X066411Y029424D01*
X066871Y029357D02*
X066938Y029424D01*
X067072Y029424D01*
X067138Y029357D01*
X067138Y029291D01*
X066871Y029024D01*
X067138Y029024D01*
X067332Y029024D02*
X067599Y029024D01*
X067465Y029024D02*
X067465Y029424D01*
X067332Y029291D01*
X067951Y029424D02*
X068218Y029424D01*
X068084Y029424D02*
X068084Y029024D01*
X068411Y029024D02*
X068411Y029424D01*
X068611Y029424D01*
X068678Y029357D01*
X068678Y029224D01*
X068611Y029157D01*
X068411Y029157D01*
X068871Y029024D02*
X069138Y029024D01*
X069005Y029024D02*
X069005Y029424D01*
X068871Y029291D01*
X069332Y029291D02*
X069399Y029224D01*
X069599Y029224D01*
X069599Y029091D02*
X069599Y029357D01*
X069532Y029424D01*
X069399Y029424D01*
X069332Y029357D01*
X069332Y029291D01*
X069332Y029091D02*
X069399Y029024D01*
X069532Y029024D01*
X069599Y029091D01*
X069951Y029424D02*
X070218Y029424D01*
X070084Y029424D02*
X070084Y029024D01*
X070411Y029024D02*
X070411Y029424D01*
X070611Y029424D01*
X070678Y029357D01*
X070678Y029224D01*
X070611Y029157D01*
X070411Y029157D01*
X070871Y029024D02*
X071138Y029024D01*
X071005Y029024D02*
X071005Y029424D01*
X070871Y029291D01*
X070838Y029724D02*
X070771Y029791D01*
X070838Y029724D02*
X070972Y029724D01*
X071038Y029791D01*
X071038Y029857D01*
X070972Y029924D01*
X070905Y029924D01*
X070972Y029924D02*
X071038Y029991D01*
X071038Y030057D01*
X070972Y030124D01*
X070838Y030124D01*
X070771Y030057D01*
X070578Y030057D02*
X070578Y029924D01*
X070511Y029857D01*
X070311Y029857D01*
X070311Y029724D02*
X070311Y030124D01*
X070511Y030124D01*
X070578Y030057D01*
X070118Y030124D02*
X069851Y030124D01*
X069984Y030124D02*
X069984Y029724D01*
X071232Y029791D02*
X071299Y029724D01*
X071432Y029724D01*
X071499Y029791D01*
X071499Y029857D01*
X071432Y029924D01*
X071365Y029924D01*
X071432Y029924D02*
X071499Y029991D01*
X071499Y030057D01*
X071432Y030124D01*
X071299Y030124D01*
X071232Y030057D01*
X071332Y029424D02*
X071599Y029424D01*
X071599Y029357D01*
X071332Y029091D01*
X071332Y029024D01*
X071951Y029424D02*
X072218Y029424D01*
X072084Y029424D02*
X072084Y029024D01*
X072411Y029024D02*
X072411Y029424D01*
X072611Y029424D01*
X072678Y029357D01*
X072678Y029224D01*
X072611Y029157D01*
X072411Y029157D01*
X072871Y029024D02*
X073138Y029024D01*
X073005Y029024D02*
X073005Y029424D01*
X072871Y029291D01*
X073332Y029224D02*
X073465Y029291D01*
X073532Y029291D01*
X073599Y029224D01*
X073599Y029091D01*
X073532Y029024D01*
X073399Y029024D01*
X073332Y029091D01*
X073332Y029224D02*
X073332Y029424D01*
X073599Y029424D01*
X074677Y029966D02*
X075209Y030497D01*
X075327Y030497D01*
X074677Y029966D02*
X074677Y028450D01*
X075327Y028450D01*
X076036Y028569D02*
X076093Y028592D01*
X076148Y028619D01*
X076202Y028649D01*
X076254Y028683D01*
X076303Y028720D01*
X076350Y028760D01*
X076395Y028803D01*
X076436Y028849D01*
X076475Y028897D01*
X076510Y028948D01*
X076542Y029001D01*
X076571Y029056D01*
X076596Y029112D01*
X076617Y029170D01*
X076635Y029229D01*
X076648Y029290D01*
X076658Y029351D01*
X076664Y029412D01*
X076666Y029474D01*
X076664Y029536D01*
X076658Y029597D01*
X076648Y029658D01*
X076635Y029719D01*
X076617Y029778D01*
X076596Y029836D01*
X076571Y029892D01*
X076542Y029947D01*
X076510Y030000D01*
X076475Y030051D01*
X076436Y030099D01*
X076395Y030145D01*
X076350Y030188D01*
X076303Y030228D01*
X076254Y030265D01*
X076202Y030299D01*
X076148Y030329D01*
X076093Y030356D01*
X076036Y030379D01*
X075366Y030379D02*
X075309Y030356D01*
X075254Y030329D01*
X075200Y030299D01*
X075148Y030265D01*
X075099Y030228D01*
X075052Y030188D01*
X075007Y030145D01*
X074966Y030099D01*
X074927Y030051D01*
X074892Y030000D01*
X074860Y029947D01*
X074831Y029892D01*
X074806Y029836D01*
X074785Y029778D01*
X074767Y029719D01*
X074754Y029658D01*
X074744Y029597D01*
X074738Y029536D01*
X074736Y029474D01*
X074738Y029412D01*
X074744Y029351D01*
X074754Y029290D01*
X074767Y029229D01*
X074785Y029170D01*
X074806Y029112D01*
X074831Y029056D01*
X074860Y029001D01*
X074892Y028948D01*
X074927Y028897D01*
X074966Y028849D01*
X075007Y028803D01*
X075052Y028760D01*
X075099Y028720D01*
X075148Y028683D01*
X075200Y028649D01*
X075254Y028619D01*
X075309Y028592D01*
X075366Y028569D01*
X076823Y031825D02*
X077090Y031825D01*
X077156Y031892D01*
X076823Y031825D02*
X076756Y031892D01*
X076756Y032025D01*
X076823Y032092D01*
X079550Y032682D02*
X079550Y032882D01*
X079617Y032949D01*
X079684Y032949D01*
X079751Y032882D01*
X079751Y032682D01*
X079951Y032682D02*
X079550Y032682D01*
X079751Y032882D02*
X079817Y032949D01*
X079884Y032949D01*
X079951Y032882D01*
X079951Y032682D01*
X079951Y033142D02*
X079550Y033142D01*
X079550Y033343D01*
X079617Y033409D01*
X079884Y033409D01*
X079951Y033343D01*
X079951Y033142D01*
X075700Y034712D02*
X063889Y034712D01*
X063102Y032940D02*
X063102Y031759D01*
X063692Y031759D01*
X063690Y031313D02*
X063756Y031246D01*
X063756Y031112D01*
X063690Y031046D01*
X063556Y031046D02*
X063490Y031179D01*
X063490Y031246D01*
X063556Y031313D01*
X063690Y031313D01*
X063556Y031046D02*
X063356Y031046D01*
X063356Y031313D01*
X063356Y030719D02*
X063756Y030719D01*
X063756Y030852D02*
X063756Y030585D01*
X063490Y030585D02*
X063356Y030719D01*
X056388Y026774D02*
X056388Y026484D01*
X056292Y026484D02*
X056485Y026484D01*
X056292Y026677D02*
X056388Y026774D01*
X056057Y026974D02*
X055790Y026974D01*
X055924Y026974D02*
X055924Y027374D01*
X055790Y027241D01*
X055597Y027307D02*
X055597Y027174D01*
X055530Y027107D01*
X055330Y027107D01*
X055330Y026974D02*
X055330Y027374D01*
X055530Y027374D01*
X055597Y027307D01*
X055137Y027374D02*
X055003Y027374D01*
X055070Y027374D02*
X055070Y027041D01*
X055003Y026974D01*
X054936Y026974D01*
X054870Y027041D01*
X054485Y026726D02*
X054437Y026774D01*
X054340Y026774D01*
X054292Y026726D01*
X054388Y026629D02*
X054437Y026629D01*
X054485Y026581D01*
X054485Y026532D01*
X054437Y026484D01*
X054340Y026484D01*
X054292Y026532D01*
X054437Y026629D02*
X054485Y026677D01*
X054485Y026726D01*
X054801Y026274D02*
X054901Y026074D01*
X055101Y026274D01*
X055901Y026274D01*
X055901Y026074D01*
X056001Y026274D01*
X056801Y026274D01*
X056901Y026074D01*
X056901Y025274D01*
X056801Y025074D01*
X056001Y025074D01*
X055901Y025274D01*
X055801Y025074D01*
X055001Y025074D01*
X054901Y025274D01*
X054801Y025074D01*
X054001Y025074D01*
X053901Y025274D01*
X053901Y026074D01*
X054001Y026274D01*
X054801Y026274D01*
X055292Y026484D02*
X055485Y026677D01*
X055485Y026726D01*
X055437Y026774D01*
X055340Y026774D01*
X055292Y026726D01*
X055292Y026484D02*
X055485Y026484D01*
X053901Y026974D02*
X053901Y027674D01*
X053650Y027924D02*
X053650Y028191D01*
X053650Y028057D02*
X054051Y028057D01*
X054051Y028384D02*
X053650Y028384D01*
X053650Y028584D01*
X053717Y028651D01*
X053851Y028651D01*
X053917Y028584D01*
X053917Y028384D01*
X053984Y028845D02*
X054051Y028911D01*
X054051Y029045D01*
X053984Y029111D01*
X053917Y029111D01*
X053851Y029045D01*
X053851Y028978D01*
X053851Y029045D02*
X053784Y029111D01*
X053717Y029111D01*
X053650Y029045D01*
X053650Y028911D01*
X053717Y028845D01*
X053717Y029305D02*
X053650Y029372D01*
X053650Y029505D01*
X053717Y029572D01*
X053784Y029572D01*
X054051Y029305D01*
X054051Y029572D01*
X053284Y028601D02*
X053351Y028534D01*
X053351Y028401D01*
X053284Y028334D01*
X053151Y028468D02*
X053151Y028534D01*
X053217Y028601D01*
X053284Y028601D01*
X053151Y028534D02*
X053084Y028601D01*
X053017Y028601D01*
X052950Y028534D01*
X052950Y028401D01*
X053017Y028334D01*
X053017Y028141D02*
X052950Y028074D01*
X052950Y027941D01*
X053017Y027874D01*
X053284Y027874D01*
X053351Y027941D01*
X053351Y028074D01*
X053284Y028141D01*
X053301Y027674D02*
X053301Y026374D01*
X052901Y025974D01*
X051301Y025974D01*
X051301Y025174D01*
X052901Y025174D01*
X052901Y025974D01*
X052901Y026174D02*
X051301Y026174D01*
X051301Y026974D01*
X052901Y026974D01*
X052901Y026174D01*
X053601Y026174D02*
X053901Y026974D01*
X052578Y027224D02*
X052311Y027224D01*
X052445Y027224D02*
X052445Y027624D01*
X052311Y027491D01*
X052118Y027557D02*
X052118Y027424D01*
X052051Y027357D01*
X051851Y027357D01*
X051851Y027224D02*
X051851Y027624D01*
X052051Y027624D01*
X052118Y027557D01*
X051984Y027357D02*
X052118Y027224D01*
X051001Y027874D02*
X051001Y026274D01*
X051001Y024674D01*
X050201Y024674D01*
X050201Y026274D01*
X050201Y027874D01*
X051001Y027874D01*
X050091Y027842D02*
X049933Y027684D01*
X046469Y027684D01*
X046311Y027842D01*
X046311Y031306D01*
X046469Y031464D01*
X049933Y031464D01*
X050091Y031306D01*
X050091Y027842D01*
X049884Y026601D02*
X049951Y026534D01*
X049951Y026401D01*
X049884Y026334D01*
X049751Y026334D02*
X049684Y026468D01*
X049684Y026534D01*
X049751Y026601D01*
X049884Y026601D01*
X049751Y026334D02*
X049550Y026334D01*
X049550Y026601D01*
X049617Y026141D02*
X049550Y026074D01*
X049550Y025941D01*
X049617Y025874D01*
X049884Y025874D01*
X049951Y025941D01*
X049951Y026074D01*
X049884Y026141D01*
X050201Y026274D02*
X051001Y026274D01*
X049884Y025184D02*
X049617Y025451D01*
X049550Y025451D01*
X049550Y025184D01*
X049617Y024991D02*
X049751Y024991D01*
X049817Y024924D01*
X049817Y024724D01*
X049817Y024857D02*
X049951Y024991D01*
X049951Y025184D02*
X049884Y025184D01*
X049617Y024991D02*
X049550Y024924D01*
X049550Y024724D01*
X049951Y024724D01*
X050051Y024024D02*
X047751Y024024D01*
X047699Y024022D01*
X047647Y024016D01*
X047595Y024006D01*
X047545Y023993D01*
X047495Y023976D01*
X047447Y023955D01*
X047401Y023930D01*
X047357Y023902D01*
X047315Y023871D01*
X047275Y023837D01*
X047238Y023800D01*
X047204Y023760D01*
X047173Y023718D01*
X047145Y023674D01*
X047120Y023628D01*
X047099Y023580D01*
X047082Y023530D01*
X047069Y023480D01*
X047059Y023428D01*
X047053Y023376D01*
X047051Y023324D01*
X047053Y023272D01*
X047059Y023220D01*
X047069Y023168D01*
X047082Y023118D01*
X047099Y023068D01*
X047120Y023020D01*
X047145Y022974D01*
X047173Y022930D01*
X047204Y022888D01*
X047238Y022848D01*
X047275Y022811D01*
X047315Y022777D01*
X047357Y022746D01*
X047401Y022718D01*
X047447Y022693D01*
X047495Y022672D01*
X047545Y022655D01*
X047595Y022642D01*
X047647Y022632D01*
X047699Y022626D01*
X047751Y022624D01*
X050051Y022624D01*
X050801Y022174D02*
X049201Y022174D01*
X049201Y021374D01*
X050801Y021374D01*
X050801Y022174D01*
X051301Y021957D02*
X051301Y021691D01*
X051367Y021624D01*
X051501Y021624D01*
X051568Y021691D01*
X051761Y021691D02*
X051761Y021624D01*
X051761Y021691D02*
X052028Y021957D01*
X052028Y022024D01*
X051761Y022024D01*
X051568Y021957D02*
X051501Y022024D01*
X051367Y022024D01*
X051301Y021957D01*
X052832Y021418D02*
X052832Y022893D01*
X053450Y023011D02*
X053851Y023011D01*
X053851Y022745D02*
X053450Y022745D01*
X053584Y022878D01*
X053450Y023011D01*
X053517Y022551D02*
X053450Y022484D01*
X053450Y022351D01*
X053517Y022284D01*
X053784Y022284D01*
X053851Y022351D01*
X053851Y022484D01*
X053784Y022551D01*
X053517Y022551D01*
X053517Y022091D02*
X053651Y022091D01*
X053717Y022024D01*
X053717Y021824D01*
X053717Y021957D02*
X053851Y022091D01*
X053851Y021824D02*
X053450Y021824D01*
X053450Y022024D01*
X053517Y022091D01*
X054250Y022024D02*
X054317Y022091D01*
X054451Y022091D01*
X054517Y022024D01*
X054517Y021824D01*
X054517Y021957D02*
X054651Y022091D01*
X054584Y022284D02*
X054651Y022351D01*
X054651Y022484D01*
X054584Y022551D01*
X054317Y022551D01*
X054250Y022484D01*
X054250Y022351D01*
X054317Y022284D01*
X054584Y022284D01*
X054250Y022024D02*
X054250Y021824D01*
X054651Y021824D01*
X054565Y021536D02*
X054446Y021418D01*
X054407Y021418D01*
X054401Y021374D02*
X054401Y021574D01*
X054565Y021536D02*
X054683Y021418D01*
X054801Y021536D01*
X054919Y021418D01*
X055037Y021536D01*
X055155Y021418D01*
X055194Y021418D01*
X055201Y021374D02*
X055201Y022974D01*
X055450Y022984D02*
X055450Y022851D01*
X055517Y022784D01*
X055784Y022784D01*
X055851Y022851D01*
X055851Y022984D01*
X055784Y023051D01*
X055517Y023051D02*
X055450Y022984D01*
X055517Y022591D02*
X055651Y022591D01*
X055717Y022524D01*
X055717Y022324D01*
X055851Y022324D02*
X055450Y022324D01*
X055450Y022524D01*
X055517Y022591D01*
X054651Y022745D02*
X054250Y022745D01*
X054384Y022878D01*
X054250Y023011D01*
X054651Y023011D01*
X056769Y022893D02*
X056769Y021418D01*
X056576Y021418D01*
X057950Y023286D02*
X057950Y023483D01*
X057950Y023286D02*
X051651Y023286D01*
X051651Y023483D01*
X051651Y024664D02*
X051651Y024861D01*
X057950Y024861D01*
X057950Y024822D02*
X057950Y024625D01*
X058478Y024484D02*
X058878Y024484D01*
X058878Y024351D02*
X058878Y024618D01*
X058611Y024351D02*
X058478Y024484D01*
X058478Y024157D02*
X058878Y024157D01*
X058745Y024024D01*
X058878Y023890D01*
X058478Y023890D01*
X058545Y023697D02*
X058478Y023630D01*
X058478Y023497D01*
X058545Y023430D01*
X058611Y023430D01*
X058678Y023497D01*
X058678Y023630D01*
X058745Y023697D01*
X058812Y023697D01*
X058878Y023630D01*
X058878Y023497D01*
X058812Y023430D01*
X061370Y021840D02*
X061370Y021053D01*
X061370Y021840D02*
X061372Y021953D01*
X061379Y022065D01*
X061391Y022177D01*
X061408Y022289D01*
X061430Y022399D01*
X061457Y022508D01*
X061489Y022616D01*
X061526Y022723D01*
X061568Y022827D01*
X061615Y022930D01*
X061666Y023030D01*
X061722Y023128D01*
X061782Y023223D01*
X061846Y023315D01*
X061915Y023404D01*
X061988Y023490D01*
X062064Y023573D01*
X062144Y023652D01*
X062228Y023727D01*
X062315Y023799D01*
X062406Y023866D01*
X062499Y023929D01*
X062595Y023988D01*
X062693Y024042D01*
X062794Y024092D01*
X062898Y024137D01*
X063003Y024177D01*
X063110Y024213D01*
X063218Y024243D01*
X063328Y024269D01*
X063439Y024290D01*
X063550Y024305D01*
X063662Y024315D01*
X063775Y024320D01*
X063887Y024320D01*
X064000Y024315D01*
X064112Y024305D01*
X064223Y024290D01*
X064334Y024269D01*
X064444Y024243D01*
X064552Y024213D01*
X064659Y024177D01*
X064764Y024137D01*
X064868Y024092D01*
X064969Y024042D01*
X065067Y023988D01*
X065163Y023929D01*
X065256Y023866D01*
X065347Y023799D01*
X065434Y023727D01*
X065518Y023652D01*
X065598Y023573D01*
X065674Y023490D01*
X065747Y023404D01*
X065816Y023315D01*
X065880Y023223D01*
X065940Y023128D01*
X065996Y023030D01*
X066047Y022930D01*
X066094Y022827D01*
X066136Y022723D01*
X066173Y022616D01*
X066205Y022508D01*
X066232Y022399D01*
X066254Y022289D01*
X066271Y022177D01*
X066283Y022065D01*
X066290Y021953D01*
X066292Y021840D01*
X067020Y023190D02*
X067020Y024371D01*
X067610Y024371D01*
X067651Y024724D02*
X067651Y024991D01*
X067651Y024857D02*
X067250Y024857D01*
X067384Y024724D01*
X066751Y024651D02*
X066350Y024651D01*
X066417Y024845D02*
X066350Y024911D01*
X066350Y025045D01*
X066417Y025111D01*
X066484Y025111D01*
X066551Y025045D01*
X066617Y025111D01*
X066684Y025111D01*
X066751Y025045D01*
X066751Y024911D01*
X066684Y024845D01*
X066551Y024978D02*
X066551Y025045D01*
X066751Y024651D02*
X066350Y024384D01*
X066751Y024384D01*
X066684Y024191D02*
X066751Y024124D01*
X066751Y023991D01*
X066684Y023924D01*
X066417Y023924D01*
X066350Y023991D01*
X066350Y024124D01*
X066417Y024191D01*
X053026Y021418D02*
X052832Y021418D01*
X049151Y022974D02*
X049151Y023324D01*
X049401Y023324D01*
X049151Y023324D02*
X049151Y023674D01*
X049001Y023674D02*
X049001Y022974D01*
X048801Y022974D01*
X048801Y023674D01*
X049001Y023674D01*
X048651Y023674D02*
X048651Y023324D01*
X048401Y023324D01*
X048651Y023324D02*
X048651Y022974D01*
X050051Y022624D02*
X050103Y022626D01*
X050155Y022632D01*
X050207Y022642D01*
X050257Y022655D01*
X050307Y022672D01*
X050355Y022693D01*
X050401Y022718D01*
X050445Y022746D01*
X050487Y022777D01*
X050527Y022811D01*
X050564Y022848D01*
X050598Y022888D01*
X050629Y022930D01*
X050657Y022974D01*
X050682Y023020D01*
X050703Y023068D01*
X050720Y023118D01*
X050733Y023168D01*
X050743Y023220D01*
X050749Y023272D01*
X050751Y023324D01*
X050749Y023376D01*
X050743Y023428D01*
X050733Y023480D01*
X050720Y023530D01*
X050703Y023580D01*
X050682Y023628D01*
X050657Y023674D01*
X050629Y023718D01*
X050598Y023760D01*
X050564Y023800D01*
X050527Y023837D01*
X050487Y023871D01*
X050445Y023902D01*
X050401Y023930D01*
X050355Y023955D01*
X050307Y023976D01*
X050257Y023993D01*
X050207Y024006D01*
X050155Y024016D01*
X050103Y024022D01*
X050051Y024024D01*
X048832Y025424D02*
X048832Y025491D01*
X049099Y025757D01*
X049099Y025824D01*
X048832Y025824D01*
X048638Y025757D02*
X048572Y025824D01*
X048438Y025824D01*
X048371Y025757D01*
X048178Y025757D02*
X048178Y025624D01*
X048111Y025557D01*
X047911Y025557D01*
X047911Y025424D02*
X047911Y025824D01*
X048111Y025824D01*
X048178Y025757D01*
X048371Y025424D02*
X048638Y025691D01*
X048638Y025757D01*
X048638Y025424D02*
X048371Y025424D01*
X047718Y025824D02*
X047451Y025824D01*
X047584Y025824D02*
X047584Y025424D01*
X046051Y025486D02*
X045650Y025486D01*
X045784Y025353D01*
X045717Y025160D02*
X045650Y025093D01*
X045650Y024959D01*
X045717Y024893D01*
X045984Y024893D01*
X046051Y024959D01*
X046051Y025093D01*
X045984Y025160D01*
X046051Y025353D02*
X046051Y025620D01*
X046051Y025813D02*
X045784Y026080D01*
X045717Y026080D01*
X045650Y026014D01*
X045650Y025880D01*
X045717Y025813D01*
X046051Y025813D02*
X046051Y026080D01*
X046201Y026274D02*
X045401Y026274D01*
X045401Y027874D01*
X046201Y027874D01*
X046201Y026274D01*
X044901Y027274D02*
X044101Y027274D01*
X044101Y028874D01*
X044901Y028874D01*
X044901Y027274D01*
X043951Y027803D02*
X043550Y027803D01*
X043550Y028003D01*
X043617Y028070D01*
X043751Y028070D01*
X043817Y028003D01*
X043817Y027803D01*
X043817Y027937D02*
X043951Y028070D01*
X043751Y028263D02*
X043751Y028530D01*
X043951Y028464D02*
X043550Y028464D01*
X043751Y028263D01*
X046515Y027999D02*
X046517Y028020D01*
X046523Y028040D01*
X046533Y028059D01*
X046546Y028076D01*
X046562Y028089D01*
X046580Y028100D01*
X046600Y028107D01*
X046621Y028110D01*
X046642Y028109D01*
X046662Y028104D01*
X046681Y028095D01*
X046699Y028083D01*
X046713Y028068D01*
X046725Y028050D01*
X046733Y028030D01*
X046736Y028010D01*
X046736Y027988D01*
X046733Y027968D01*
X046725Y027948D01*
X046713Y027930D01*
X046699Y027915D01*
X046682Y027903D01*
X046662Y027894D01*
X046642Y027889D01*
X046621Y027888D01*
X046600Y027891D01*
X046580Y027898D01*
X046562Y027909D01*
X046546Y027922D01*
X046533Y027939D01*
X046523Y027958D01*
X046517Y027978D01*
X046515Y027999D01*
X043301Y030674D02*
X043301Y032474D01*
X043257Y032519D02*
X041541Y032519D01*
X041541Y030629D01*
X041344Y030629D01*
X041301Y030674D02*
X041301Y032474D01*
X041344Y032519D02*
X041541Y032519D01*
X041551Y032774D02*
X041618Y032841D01*
X041618Y033174D01*
X041811Y033107D02*
X041878Y033174D01*
X042011Y033174D01*
X042078Y033107D01*
X042078Y033041D01*
X042011Y032974D01*
X042078Y032907D01*
X042078Y032841D01*
X042011Y032774D01*
X041878Y032774D01*
X041811Y032841D01*
X041945Y032974D02*
X042011Y032974D01*
X041551Y032774D02*
X041417Y032774D01*
X041351Y032841D01*
X041351Y033174D01*
X040301Y032874D02*
X039501Y032874D01*
X039501Y031274D01*
X039650Y031051D02*
X039650Y030784D01*
X039851Y030784D01*
X039784Y030918D01*
X039784Y030984D01*
X039851Y031051D01*
X039984Y031051D01*
X040051Y030984D01*
X040051Y030851D01*
X039984Y030784D01*
X040051Y030591D02*
X039917Y030457D01*
X039917Y030524D02*
X039917Y030324D01*
X040051Y030324D02*
X039650Y030324D01*
X039650Y030524D01*
X039717Y030591D01*
X039851Y030591D01*
X039917Y030524D01*
X039251Y030591D02*
X039117Y030457D01*
X039117Y030524D02*
X039117Y030324D01*
X039251Y030324D02*
X038850Y030324D01*
X038850Y030524D01*
X038917Y030591D01*
X039051Y030591D01*
X039117Y030524D01*
X039051Y030784D02*
X039051Y030984D01*
X039117Y031051D01*
X039184Y031051D01*
X039251Y030984D01*
X039251Y030851D01*
X039184Y030784D01*
X039051Y030784D01*
X038917Y030918D01*
X038850Y031051D01*
X038701Y031274D02*
X040301Y031274D01*
X040301Y032874D01*
X039501Y032874D02*
X038701Y032874D01*
X038701Y031274D01*
X037601Y031724D02*
X037601Y030224D01*
X037351Y029974D01*
X036851Y029974D01*
X036601Y030224D01*
X036351Y029974D01*
X035851Y029974D01*
X035601Y030224D01*
X035351Y029974D01*
X034851Y029974D01*
X034601Y030224D01*
X034351Y029974D01*
X033851Y029974D01*
X033601Y030224D01*
X033601Y031724D01*
X033851Y031974D01*
X034351Y031974D01*
X034601Y031724D01*
X034851Y031974D01*
X035351Y031974D01*
X035601Y031724D01*
X035851Y031974D01*
X036351Y031974D01*
X036601Y031724D01*
X036851Y031974D01*
X037351Y031974D01*
X037601Y031724D01*
X037351Y032174D02*
X037217Y032174D01*
X037151Y032241D01*
X037151Y032307D01*
X037217Y032374D01*
X037351Y032374D01*
X037418Y032307D01*
X037418Y032241D01*
X037351Y032174D01*
X037351Y032374D02*
X037418Y032441D01*
X037418Y032507D01*
X037351Y032574D01*
X037217Y032574D01*
X037151Y032507D01*
X037151Y032441D01*
X037217Y032374D01*
X035401Y032074D02*
X033801Y032074D01*
X033801Y032874D01*
X035401Y032874D01*
X035401Y032074D01*
X034941Y032924D02*
X034941Y033324D01*
X034740Y033124D01*
X035007Y033124D01*
X034788Y033524D02*
X034521Y033524D01*
X034788Y033791D01*
X034788Y033857D01*
X034722Y033924D01*
X034588Y033924D01*
X034521Y033857D01*
X034328Y033924D02*
X034195Y033924D01*
X034261Y033924D02*
X034261Y033591D01*
X034195Y033524D01*
X034128Y033524D01*
X034061Y033591D01*
X033868Y033591D02*
X033801Y033524D01*
X033667Y033524D01*
X033601Y033591D01*
X033667Y033724D02*
X033801Y033724D01*
X033868Y033657D01*
X033868Y033591D01*
X033667Y033724D02*
X033601Y033791D01*
X033601Y033857D01*
X033667Y033924D01*
X033801Y033924D01*
X033868Y033857D01*
X033351Y034174D02*
X033351Y033174D01*
X033349Y033154D01*
X033343Y033136D01*
X033334Y033118D01*
X033322Y033103D01*
X033307Y033091D01*
X033289Y033082D01*
X033271Y033076D01*
X033251Y033074D01*
X031751Y033074D01*
X031731Y033076D01*
X031713Y033082D01*
X031695Y033091D01*
X031680Y033103D01*
X031668Y033118D01*
X031659Y033136D01*
X031653Y033154D01*
X031651Y033174D01*
X031651Y034174D01*
X031653Y034194D01*
X031659Y034212D01*
X031668Y034230D01*
X031680Y034245D01*
X031695Y034257D01*
X031713Y034266D01*
X031731Y034272D01*
X031751Y034274D01*
X033251Y034274D01*
X033271Y034272D01*
X033289Y034266D01*
X033307Y034257D01*
X033322Y034245D01*
X033334Y034230D01*
X033343Y034212D01*
X033349Y034194D01*
X033351Y034174D01*
X032501Y033974D02*
X032501Y033374D01*
X032101Y032674D02*
X030501Y032674D01*
X030501Y031924D01*
X032101Y031924D01*
X032101Y032674D01*
X031727Y031898D02*
X031196Y031898D01*
X031301Y031674D02*
X031301Y030874D01*
X031601Y030874D01*
X031601Y031674D01*
X031301Y031674D01*
X030675Y031660D02*
X030275Y031660D01*
X030408Y031527D01*
X030675Y031527D02*
X030675Y031794D01*
X030328Y032024D02*
X030061Y032024D01*
X030328Y032291D01*
X030328Y032357D01*
X030261Y032424D01*
X030128Y032424D01*
X030061Y032357D01*
X029868Y032357D02*
X029801Y032424D01*
X029667Y032424D01*
X029601Y032357D01*
X029601Y032091D01*
X029667Y032024D01*
X029801Y032024D01*
X029868Y032091D01*
X029808Y031516D02*
X029742Y031449D01*
X029808Y031516D02*
X029942Y031516D01*
X030008Y031449D01*
X030008Y031382D01*
X029742Y031115D01*
X030008Y031115D01*
X030275Y030979D02*
X030275Y030846D01*
X030342Y030779D01*
X030275Y030979D02*
X030342Y031046D01*
X030408Y031046D01*
X030675Y030779D01*
X030675Y031046D01*
X030801Y030724D02*
X032401Y030724D01*
X032401Y029974D01*
X030801Y029974D01*
X030801Y030724D01*
X030474Y030524D02*
X030474Y030124D01*
X030607Y030124D02*
X030340Y030124D01*
X030147Y030191D02*
X030080Y030124D01*
X029947Y030124D01*
X029880Y030191D01*
X029880Y030457D01*
X029947Y030524D01*
X030080Y030524D01*
X030147Y030457D01*
X030340Y030391D02*
X030474Y030524D01*
X030501Y029824D02*
X031501Y029824D01*
X031521Y029822D01*
X031539Y029816D01*
X031557Y029807D01*
X031572Y029795D01*
X031584Y029780D01*
X031593Y029762D01*
X031599Y029744D01*
X031601Y029724D01*
X031601Y028224D01*
X031599Y028204D01*
X031593Y028186D01*
X031584Y028168D01*
X031572Y028153D01*
X031557Y028141D01*
X031539Y028132D01*
X031521Y028126D01*
X031501Y028124D01*
X030501Y028124D01*
X030481Y028126D01*
X030463Y028132D01*
X030445Y028141D01*
X030430Y028153D01*
X030418Y028168D01*
X030409Y028186D01*
X030403Y028204D01*
X030401Y028224D01*
X030401Y029724D01*
X030403Y029744D01*
X030409Y029762D01*
X030418Y029780D01*
X030430Y029795D01*
X030445Y029807D01*
X030463Y029816D01*
X030481Y029822D01*
X030501Y029824D01*
X030151Y029561D02*
X030151Y029295D01*
X030151Y029428D02*
X029750Y029428D01*
X029884Y029295D01*
X029750Y029101D02*
X029750Y028968D01*
X029750Y029034D02*
X030084Y029034D01*
X030151Y028968D01*
X030151Y028901D01*
X030084Y028834D01*
X030084Y028641D02*
X030151Y028574D01*
X030151Y028441D01*
X030084Y028374D01*
X029951Y028441D02*
X029951Y028574D01*
X030017Y028641D01*
X030084Y028641D01*
X029951Y028441D02*
X029884Y028374D01*
X029817Y028374D01*
X029750Y028441D01*
X029750Y028574D01*
X029817Y028641D01*
X030701Y028974D02*
X031301Y028974D01*
X031209Y027997D02*
X032724Y027997D01*
X032724Y027348D01*
X033151Y027424D02*
X033418Y027424D01*
X033284Y027424D02*
X033284Y027024D01*
X033611Y027024D02*
X033611Y027424D01*
X033811Y027424D01*
X033878Y027357D01*
X033878Y027224D01*
X033811Y027157D01*
X033611Y027157D01*
X034071Y027024D02*
X034338Y027291D01*
X034338Y027357D01*
X034272Y027424D01*
X034138Y027424D01*
X034071Y027357D01*
X034071Y027024D02*
X034338Y027024D01*
X034532Y027224D02*
X034799Y027224D01*
X034732Y027424D02*
X034532Y027224D01*
X034732Y027024D02*
X034732Y027424D01*
X034201Y026774D02*
X034201Y025974D01*
X035801Y025974D01*
X035801Y026774D01*
X034201Y026774D01*
X034201Y025874D02*
X034201Y025074D01*
X035801Y025074D01*
X035801Y025874D01*
X034201Y025874D01*
X034211Y024924D02*
X034278Y024857D01*
X034278Y024724D01*
X034211Y024657D01*
X034011Y024657D01*
X034011Y024524D02*
X034011Y024924D01*
X034211Y024924D01*
X034471Y024857D02*
X034538Y024924D01*
X034672Y024924D01*
X034738Y024857D01*
X034738Y024791D01*
X034672Y024724D01*
X034738Y024657D01*
X034738Y024591D01*
X034672Y024524D01*
X034538Y024524D01*
X034471Y024591D01*
X034605Y024724D02*
X034672Y024724D01*
X034932Y024591D02*
X035199Y024857D01*
X035199Y024591D01*
X035132Y024524D01*
X034999Y024524D01*
X034932Y024591D01*
X034932Y024857D01*
X034999Y024924D01*
X035132Y024924D01*
X035199Y024857D01*
X036051Y025224D02*
X036051Y025624D01*
X036251Y025624D01*
X036318Y025557D01*
X036318Y025424D01*
X036251Y025357D01*
X036051Y025357D01*
X036184Y025357D02*
X036318Y025224D01*
X036511Y025224D02*
X036778Y025491D01*
X036778Y025557D01*
X036711Y025624D01*
X036578Y025624D01*
X036511Y025557D01*
X036511Y025224D02*
X036778Y025224D01*
X036711Y026124D02*
X036578Y026124D01*
X036511Y026191D01*
X036645Y026324D02*
X036711Y026324D01*
X036778Y026257D01*
X036778Y026191D01*
X036711Y026124D01*
X036711Y026324D02*
X036778Y026391D01*
X036778Y026457D01*
X036711Y026524D01*
X036578Y026524D01*
X036511Y026457D01*
X036318Y026457D02*
X036318Y026324D01*
X036251Y026257D01*
X036051Y026257D01*
X036051Y026124D02*
X036051Y026524D01*
X036251Y026524D01*
X036318Y026457D01*
X036184Y026257D02*
X036318Y026124D01*
X033818Y024924D02*
X033551Y024924D01*
X033684Y024924D02*
X033684Y024524D01*
X033201Y024474D02*
X032701Y024474D01*
X031072Y024762D02*
X030806Y024762D01*
X030939Y024762D02*
X030939Y025163D01*
X030806Y025029D01*
X030501Y024474D02*
X030001Y024474D01*
X029905Y025324D02*
X030038Y025457D01*
X030038Y025724D01*
X029771Y025724D02*
X029771Y025457D01*
X029905Y025324D01*
X029578Y025391D02*
X029511Y025324D01*
X029378Y025324D01*
X029311Y025391D01*
X029311Y025524D02*
X029445Y025591D01*
X029511Y025591D01*
X029578Y025524D01*
X029578Y025391D01*
X029311Y025524D02*
X029311Y025724D01*
X029578Y025724D01*
X029118Y025524D02*
X028851Y025524D01*
X028984Y025657D02*
X028984Y025391D01*
X028238Y025391D02*
X028238Y025657D01*
X028172Y025724D01*
X027971Y025724D01*
X027971Y025324D01*
X028172Y025324D01*
X028238Y025391D01*
X027778Y025324D02*
X027778Y025724D01*
X027511Y025724D02*
X027778Y025324D01*
X027511Y025324D02*
X027511Y025724D01*
X027318Y025657D02*
X027251Y025724D01*
X027117Y025724D01*
X027051Y025657D01*
X027051Y025391D01*
X027117Y025324D01*
X027251Y025324D01*
X027318Y025391D01*
X027318Y025524D01*
X027184Y025524D01*
X027276Y024323D02*
X027276Y023336D01*
X026091Y023864D02*
X026154Y023919D01*
X026221Y023971D01*
X026289Y024019D01*
X026360Y024064D01*
X026433Y024106D01*
X026508Y024144D01*
X026585Y024179D01*
X026663Y024210D01*
X026743Y024237D01*
X026823Y024260D01*
X026905Y024280D01*
X026988Y024296D01*
X027071Y024307D01*
X027155Y024315D01*
X027239Y024319D01*
X027323Y024318D01*
X027407Y024314D01*
X027490Y024306D01*
X027574Y024294D01*
X027656Y024277D01*
X027738Y024257D01*
X027818Y024234D01*
X027898Y024206D01*
X027976Y024174D01*
X028052Y024139D01*
X028127Y024101D01*
X028200Y024058D01*
X028270Y024013D01*
X028339Y023964D01*
X028405Y023912D01*
X028468Y023857D01*
X028529Y023798D01*
X028587Y023737D01*
X028642Y023674D01*
X028693Y023608D01*
X028742Y023539D01*
X028788Y023468D01*
X028829Y023395D01*
X028868Y023321D01*
X028903Y023244D01*
X028934Y023166D01*
X028961Y023087D01*
X028985Y023006D01*
X029005Y022924D01*
X029021Y022842D01*
X029033Y022758D01*
X029041Y022675D01*
X029045Y022591D01*
X029044Y022507D01*
X029040Y022423D01*
X029032Y022339D01*
X029021Y022256D01*
X029005Y022173D01*
X028985Y022092D01*
X028961Y022011D01*
X028934Y021931D01*
X028903Y021853D01*
X028868Y021777D01*
X028829Y021702D01*
X028787Y021629D01*
X028742Y021558D01*
X028693Y021490D01*
X028641Y021424D01*
X027276Y021368D02*
X027276Y021761D01*
X026251Y022549D02*
X026255Y022642D01*
X026268Y022734D01*
X026289Y022825D01*
X026318Y022914D01*
X026355Y022999D01*
X026400Y023081D01*
X026452Y023158D01*
X026511Y023231D01*
X026576Y023297D01*
X026647Y023358D01*
X026723Y023412D01*
X026804Y023458D01*
X026889Y023497D01*
X026976Y023528D01*
X027067Y023552D01*
X027159Y023566D01*
X027252Y023573D01*
X027345Y023571D01*
X027437Y023560D01*
X027529Y023541D01*
X027618Y023514D01*
X027704Y023479D01*
X027787Y023436D01*
X027866Y023386D01*
X027939Y023328D01*
X028007Y023265D01*
X028069Y023195D01*
X028125Y023120D01*
X028173Y023041D01*
X028214Y022957D01*
X028247Y022870D01*
X028273Y022780D01*
X028289Y022688D01*
X028298Y022596D01*
X028298Y022502D01*
X028289Y022410D01*
X028273Y022318D01*
X028247Y022228D01*
X028214Y022141D01*
X028173Y022057D01*
X028125Y021978D01*
X028069Y021903D01*
X028007Y021833D01*
X027939Y021770D01*
X027866Y021712D01*
X027787Y021662D01*
X027704Y021619D01*
X027618Y021584D01*
X027529Y021557D01*
X027437Y021538D01*
X027345Y021527D01*
X027252Y021525D01*
X027159Y021532D01*
X027067Y021546D01*
X026976Y021570D01*
X026889Y021601D01*
X026804Y021640D01*
X026723Y021686D01*
X026647Y021740D01*
X026576Y021801D01*
X026511Y021867D01*
X026452Y021940D01*
X026400Y022017D01*
X026355Y022099D01*
X026318Y022184D01*
X026289Y022273D01*
X026268Y022364D01*
X026255Y022456D01*
X026251Y022549D01*
X026094Y022549D02*
X026488Y022549D01*
X028063Y022549D02*
X029040Y022549D01*
X030001Y022474D02*
X030001Y023274D01*
X033201Y023274D02*
X033201Y022474D01*
X033770Y021971D02*
X033703Y021904D01*
X033703Y021637D01*
X033770Y021570D01*
X033903Y021570D01*
X033970Y021637D01*
X034163Y021570D02*
X034163Y021971D01*
X034430Y021570D01*
X034430Y021971D01*
X034624Y021837D02*
X034757Y021971D01*
X034757Y021570D01*
X034624Y021570D02*
X034891Y021570D01*
X033970Y021904D02*
X033903Y021971D01*
X033770Y021971D01*
X034984Y022424D02*
X034984Y022824D01*
X034851Y022824D02*
X035118Y022824D01*
X035311Y022824D02*
X035511Y022824D01*
X035578Y022757D01*
X035578Y022624D01*
X035511Y022557D01*
X035311Y022557D01*
X035311Y022424D02*
X035311Y022824D01*
X035771Y022691D02*
X035905Y022824D01*
X035905Y022424D01*
X036038Y022424D02*
X035771Y022424D01*
X036351Y022491D02*
X036351Y022757D01*
X036417Y022824D01*
X036551Y022824D01*
X036618Y022757D01*
X036618Y022624D02*
X036484Y022624D01*
X036618Y022624D02*
X036618Y022491D01*
X036551Y022424D01*
X036417Y022424D01*
X036351Y022491D01*
X036811Y022424D02*
X036811Y022824D01*
X037078Y022424D01*
X037078Y022824D01*
X037271Y022824D02*
X037472Y022824D01*
X037538Y022757D01*
X037538Y022491D01*
X037472Y022424D01*
X037271Y022424D01*
X037271Y022824D01*
X037299Y023424D02*
X037232Y023491D01*
X037299Y023424D02*
X037432Y023424D01*
X037499Y023491D01*
X037499Y023557D01*
X037432Y023624D01*
X037365Y023624D01*
X037432Y023624D02*
X037499Y023691D01*
X037499Y023757D01*
X037432Y023824D01*
X037299Y023824D01*
X037232Y023757D01*
X037038Y023757D02*
X036972Y023824D01*
X036838Y023824D01*
X036771Y023757D01*
X036578Y023757D02*
X036578Y023624D01*
X036511Y023557D01*
X036311Y023557D01*
X036311Y023424D02*
X036311Y023824D01*
X036511Y023824D01*
X036578Y023757D01*
X036771Y023424D02*
X037038Y023691D01*
X037038Y023757D01*
X037038Y023424D02*
X036771Y023424D01*
X036118Y023824D02*
X035851Y023824D01*
X035984Y023824D02*
X035984Y023424D01*
X032481Y025408D02*
X032481Y025675D01*
X032414Y025741D01*
X032281Y025741D01*
X032214Y025675D01*
X032214Y025608D01*
X032281Y025541D01*
X032481Y025541D01*
X032481Y025408D02*
X032414Y025341D01*
X032281Y025341D01*
X032214Y025408D01*
X032021Y025408D02*
X031954Y025341D01*
X031820Y025341D01*
X031754Y025408D01*
X031754Y025675D01*
X031820Y025741D01*
X031954Y025741D01*
X032021Y025675D01*
X032724Y025950D02*
X031209Y025950D01*
X030677Y026482D01*
X030677Y026600D01*
X029938Y026991D02*
X029872Y026924D01*
X029738Y026924D01*
X029671Y026991D01*
X029805Y027124D02*
X029872Y027124D01*
X029938Y027057D01*
X029938Y026991D01*
X029872Y027124D02*
X029938Y027191D01*
X029938Y027257D01*
X029872Y027324D01*
X029738Y027324D01*
X029671Y027257D01*
X029478Y027257D02*
X029478Y027124D01*
X029411Y027057D01*
X029211Y027057D01*
X029211Y026924D02*
X029211Y027324D01*
X029411Y027324D01*
X029478Y027257D01*
X029018Y027324D02*
X028751Y027324D01*
X028884Y027324D02*
X028884Y026924D01*
X028038Y026924D02*
X027771Y026924D01*
X028038Y027191D01*
X028038Y027257D01*
X027972Y027324D01*
X027838Y027324D01*
X027771Y027257D01*
X027578Y027257D02*
X027511Y027324D01*
X027311Y027324D01*
X027311Y026924D01*
X027311Y027057D02*
X027511Y027057D01*
X027578Y027124D01*
X027578Y027257D01*
X027118Y027324D02*
X026851Y027324D01*
X026984Y027324D02*
X026984Y026924D01*
X030677Y027348D02*
X030677Y027466D01*
X031209Y027997D01*
X030796Y027309D02*
X030819Y027366D01*
X030846Y027421D01*
X030876Y027475D01*
X030910Y027527D01*
X030947Y027576D01*
X030987Y027623D01*
X031030Y027668D01*
X031076Y027709D01*
X031124Y027748D01*
X031175Y027783D01*
X031228Y027815D01*
X031283Y027844D01*
X031339Y027869D01*
X031397Y027890D01*
X031456Y027908D01*
X031517Y027921D01*
X031578Y027931D01*
X031639Y027937D01*
X031701Y027939D01*
X031763Y027937D01*
X031824Y027931D01*
X031885Y027921D01*
X031946Y027908D01*
X032005Y027890D01*
X032063Y027869D01*
X032119Y027844D01*
X032174Y027815D01*
X032227Y027783D01*
X032278Y027748D01*
X032326Y027709D01*
X032372Y027668D01*
X032415Y027623D01*
X032455Y027576D01*
X032492Y027527D01*
X032526Y027475D01*
X032556Y027421D01*
X032583Y027366D01*
X032606Y027309D01*
X032606Y026639D02*
X032583Y026582D01*
X032556Y026527D01*
X032526Y026473D01*
X032492Y026421D01*
X032455Y026372D01*
X032415Y026325D01*
X032372Y026280D01*
X032326Y026239D01*
X032278Y026200D01*
X032227Y026165D01*
X032174Y026133D01*
X032119Y026104D01*
X032063Y026079D01*
X032005Y026058D01*
X031946Y026040D01*
X031885Y026027D01*
X031824Y026017D01*
X031763Y026011D01*
X031701Y026009D01*
X031639Y026011D01*
X031578Y026017D01*
X031517Y026027D01*
X031456Y026040D01*
X031397Y026058D01*
X031339Y026079D01*
X031283Y026104D01*
X031228Y026133D01*
X031175Y026165D01*
X031124Y026200D01*
X031076Y026239D01*
X031030Y026280D01*
X030987Y026325D01*
X030947Y026372D01*
X030910Y026421D01*
X030876Y026473D01*
X030846Y026527D01*
X030819Y026582D01*
X030796Y026639D01*
X032724Y026600D02*
X032724Y025950D01*
X036384Y027424D02*
X036384Y027824D01*
X036251Y027824D02*
X036518Y027824D01*
X036711Y027824D02*
X036911Y027824D01*
X036978Y027757D01*
X036978Y027624D01*
X036911Y027557D01*
X036711Y027557D01*
X036711Y027424D02*
X036711Y027824D01*
X037171Y027691D02*
X037305Y027824D01*
X037305Y027424D01*
X037438Y027424D02*
X037171Y027424D01*
X037632Y027424D02*
X037899Y027424D01*
X037765Y027424D02*
X037765Y027824D01*
X037632Y027691D01*
X038751Y027991D02*
X038817Y027924D01*
X038951Y027924D01*
X039018Y027991D01*
X039018Y028124D01*
X038884Y028124D01*
X038751Y028257D02*
X038751Y027991D01*
X038751Y028257D02*
X038817Y028324D01*
X038951Y028324D01*
X039018Y028257D01*
X039211Y028324D02*
X039478Y027924D01*
X039478Y028324D01*
X039671Y028324D02*
X039872Y028324D01*
X039938Y028257D01*
X039938Y027991D01*
X039872Y027924D01*
X039671Y027924D01*
X039671Y028324D01*
X039571Y028524D02*
X039838Y028791D01*
X039838Y028857D01*
X039772Y028924D01*
X039638Y028924D01*
X039571Y028857D01*
X039378Y028857D02*
X039378Y028724D01*
X039311Y028657D01*
X039111Y028657D01*
X039111Y028524D02*
X039111Y028924D01*
X039311Y028924D01*
X039378Y028857D01*
X039571Y028524D02*
X039838Y028524D01*
X040032Y028591D02*
X040099Y028524D01*
X040232Y028524D01*
X040299Y028591D01*
X040299Y028724D01*
X040232Y028791D01*
X040165Y028791D01*
X040032Y028724D01*
X040032Y028924D01*
X040299Y028924D01*
X039211Y028324D02*
X039211Y027924D01*
X038784Y028524D02*
X038784Y028924D01*
X038651Y028924D02*
X038918Y028924D01*
X041541Y030629D02*
X043257Y030629D01*
X044101Y031274D02*
X044101Y032874D01*
X044901Y032874D01*
X044901Y031274D01*
X044101Y031274D01*
X045401Y031274D02*
X045401Y032874D01*
X046201Y032874D01*
X046201Y031274D01*
X045401Y031274D01*
X045717Y033074D02*
X045984Y033074D01*
X046051Y033141D01*
X046051Y033274D01*
X045984Y033341D01*
X046051Y033534D02*
X046051Y033801D01*
X046051Y033668D02*
X045650Y033668D01*
X045784Y033534D01*
X045717Y033341D02*
X045650Y033274D01*
X045650Y033141D01*
X045717Y033074D01*
X044751Y033141D02*
X044751Y033274D01*
X044684Y033341D01*
X044684Y033534D02*
X044751Y033601D01*
X044751Y033734D01*
X044684Y033801D01*
X044617Y033801D01*
X044551Y033734D01*
X044551Y033534D01*
X044684Y033534D01*
X044551Y033534D02*
X044417Y033668D01*
X044350Y033801D01*
X044417Y033341D02*
X044350Y033274D01*
X044350Y033141D01*
X044417Y033074D01*
X044684Y033074D01*
X044751Y033141D01*
X045650Y034061D02*
X045650Y034195D01*
X045717Y034261D01*
X045784Y034261D01*
X045851Y034195D01*
X045917Y034261D01*
X045984Y034261D01*
X046051Y034195D01*
X046051Y034061D01*
X045984Y033995D01*
X045851Y034128D02*
X045851Y034195D01*
X045717Y033995D02*
X045650Y034061D01*
X050350Y034128D02*
X050751Y034128D01*
X050751Y033995D02*
X050751Y034261D01*
X050484Y033995D02*
X050350Y034128D01*
X050350Y033668D02*
X050751Y033668D01*
X050751Y033801D02*
X050751Y033534D01*
X050684Y033341D02*
X050751Y033274D01*
X050751Y033141D01*
X050684Y033074D01*
X050417Y033074D01*
X050350Y033141D01*
X050350Y033274D01*
X050417Y033341D01*
X050484Y033534D02*
X050350Y033668D01*
X050201Y032874D02*
X050201Y031274D01*
X051001Y031274D01*
X051001Y032874D01*
X050201Y032874D01*
X035499Y028857D02*
X035499Y028791D01*
X035232Y028524D01*
X035499Y028524D01*
X035499Y028857D02*
X035432Y028924D01*
X035299Y028924D01*
X035232Y028857D01*
X034905Y028924D02*
X034905Y028524D01*
X035038Y028524D02*
X034771Y028524D01*
X034771Y028791D02*
X034905Y028924D01*
X034578Y028857D02*
X034578Y028724D01*
X034511Y028657D01*
X034311Y028657D01*
X034311Y028524D02*
X034311Y028924D01*
X034511Y028924D01*
X034578Y028857D01*
X034118Y028924D02*
X033851Y028924D01*
X033984Y028924D02*
X033984Y028524D01*
X033951Y029374D02*
X034218Y029374D01*
X034084Y029374D02*
X034084Y029774D01*
X033951Y029641D01*
X033334Y030443D02*
X033401Y030509D01*
X033401Y030643D01*
X033334Y030710D01*
X033401Y030903D02*
X033000Y030903D01*
X033401Y031170D01*
X033000Y031170D01*
X033201Y031363D02*
X033201Y031630D01*
X033401Y031564D02*
X033000Y031564D01*
X033201Y031363D01*
X032565Y031373D02*
X032565Y031239D01*
X032498Y031173D01*
X032365Y031306D02*
X032365Y031373D01*
X032432Y031440D01*
X032498Y031440D01*
X032565Y031373D01*
X032365Y031373D02*
X032298Y031440D01*
X032231Y031440D01*
X032165Y031373D01*
X032165Y031239D01*
X032231Y031173D01*
X031727Y030701D02*
X031196Y030701D01*
X029548Y031182D02*
X029548Y031516D01*
X029281Y031516D02*
X029281Y031182D01*
X029348Y031115D01*
X029481Y031115D01*
X029548Y031182D01*
X028924Y033224D02*
X029057Y033357D01*
X029057Y033624D01*
X028991Y033824D02*
X028991Y034224D01*
X028790Y034024D01*
X029057Y034024D01*
X028597Y034024D02*
X028530Y033957D01*
X028330Y033957D01*
X028330Y033824D02*
X028330Y034224D01*
X028530Y034224D01*
X028597Y034157D01*
X028597Y034024D01*
X028530Y033624D02*
X028597Y033557D01*
X028597Y033491D01*
X028530Y033424D01*
X028597Y033357D01*
X028597Y033291D01*
X028530Y033224D01*
X028397Y033224D01*
X028330Y033291D01*
X028166Y033291D02*
X028166Y033224D01*
X028100Y033224D01*
X028100Y033291D01*
X028166Y033291D01*
X027906Y033291D02*
X027840Y033224D01*
X027706Y033224D01*
X027639Y033291D01*
X027773Y033424D02*
X027840Y033424D01*
X027906Y033357D01*
X027906Y033291D01*
X027840Y033424D02*
X027906Y033491D01*
X027906Y033557D01*
X027840Y033624D01*
X027706Y033624D01*
X027639Y033557D01*
X027446Y033424D02*
X027179Y033424D01*
X027312Y033557D02*
X027312Y033291D01*
X028003Y033824D02*
X028003Y034224D01*
X027870Y034224D02*
X028137Y034224D01*
X028397Y033624D02*
X028530Y033624D01*
X028397Y033624D02*
X028330Y033557D01*
X028463Y033424D02*
X028530Y033424D01*
X028790Y033357D02*
X028924Y033224D01*
X028790Y033357D02*
X028790Y033624D01*
X034280Y033257D02*
X034280Y032991D01*
X034347Y032924D01*
X034480Y032924D01*
X034547Y032991D01*
X034547Y033257D02*
X034480Y033324D01*
X034347Y033324D01*
X034280Y033257D01*
X033067Y030710D02*
X033000Y030643D01*
X033000Y030509D01*
X033067Y030443D01*
X033334Y030443D01*
X046150Y023597D02*
X046551Y023597D01*
X046551Y023730D02*
X046551Y023463D01*
X046551Y023270D02*
X046150Y023003D01*
X046150Y023270D02*
X046551Y023003D01*
X046284Y023463D02*
X046150Y023597D01*
X046201Y022024D02*
X046067Y022024D01*
X046001Y021957D01*
X046001Y021691D01*
X046067Y021624D01*
X046201Y021624D01*
X046268Y021691D01*
X046461Y021691D02*
X046461Y021757D01*
X046528Y021824D01*
X046661Y021824D01*
X046728Y021757D01*
X046728Y021691D01*
X046661Y021624D01*
X046528Y021624D01*
X046461Y021691D01*
X046528Y021824D02*
X046461Y021891D01*
X046461Y021957D01*
X046528Y022024D01*
X046661Y022024D01*
X046728Y021957D01*
X046728Y021891D01*
X046661Y021824D01*
X046268Y021957D02*
X046201Y022024D01*
X047201Y022174D02*
X047201Y021374D01*
X048801Y021374D01*
X048801Y022174D01*
X047201Y022174D01*
D12*
X047811Y032614D02*
X047951Y032614D01*
X048021Y032684D01*
X048021Y033034D01*
X048201Y032894D02*
X048341Y033034D01*
X048341Y032614D01*
X048201Y032614D02*
X048481Y032614D01*
X047811Y032614D02*
X047741Y032684D01*
X047741Y033034D01*
D13*
X041701Y032274D03*
D14*
X027351Y017824D02*
X027151Y018024D01*
X027351Y017824D02*
X027751Y017824D01*
X027951Y018024D01*
X027951Y018224D01*
X027751Y018424D01*
X027351Y018424D01*
X027151Y018625D01*
X027151Y018825D01*
X027351Y019025D01*
X027751Y019025D01*
X027951Y018825D01*
X028532Y019025D02*
X028932Y019025D01*
X028732Y019025D02*
X028732Y017824D01*
X028532Y017824D02*
X028932Y017824D01*
X029453Y017824D02*
X030253Y017824D01*
X030834Y017824D02*
X030834Y019025D01*
X031034Y018424D02*
X031634Y017824D01*
X030834Y018224D02*
X031634Y019025D01*
X033596Y018825D02*
X033596Y018625D01*
X033796Y018424D01*
X034197Y018424D01*
X034397Y018224D01*
X034397Y018024D01*
X034197Y017824D01*
X033796Y017824D01*
X033596Y018024D01*
X033596Y018825D02*
X033796Y019025D01*
X034197Y019025D01*
X034397Y018825D01*
X034977Y018825D02*
X034977Y018024D01*
X035177Y017824D01*
X035578Y017824D01*
X035778Y018024D01*
X036358Y018224D02*
X036959Y018224D01*
X037159Y018424D01*
X037159Y018825D01*
X036959Y019025D01*
X036358Y019025D01*
X036358Y017824D01*
X036759Y018224D02*
X037159Y017824D01*
X037740Y017824D02*
X038540Y017824D01*
X039121Y017824D02*
X039921Y017824D01*
X040502Y017824D02*
X040502Y019025D01*
X041302Y017824D01*
X041302Y019025D01*
X039921Y019025D02*
X039121Y019025D01*
X039121Y017824D01*
X039121Y018424D02*
X039521Y018424D01*
X038540Y019025D02*
X037740Y019025D01*
X037740Y017824D01*
X037740Y018424D02*
X038140Y018424D01*
X035778Y018825D02*
X035578Y019025D01*
X035177Y019025D01*
X034977Y018825D01*
X029453Y019025D02*
X029453Y017824D01*
X043264Y018224D02*
X043664Y017824D01*
X044185Y018024D02*
X044385Y017824D01*
X044785Y017824D01*
X044986Y018024D01*
X045566Y018024D02*
X045766Y017824D01*
X046166Y017824D01*
X046367Y018024D01*
X046367Y018825D01*
X046166Y019025D01*
X045766Y019025D01*
X045566Y018825D01*
X045566Y018024D01*
X044185Y018024D02*
X044185Y018825D01*
X044385Y019025D01*
X044785Y019025D01*
X044986Y018825D01*
X043664Y019025D02*
X043264Y018625D01*
X043264Y018224D01*
X046947Y017824D02*
X046947Y019025D01*
X047347Y018625D01*
X047748Y019025D01*
X047748Y017824D01*
X048328Y017824D02*
X048328Y019025D01*
X048929Y019025D01*
X049129Y018825D01*
X049129Y018424D01*
X048929Y018224D01*
X048328Y018224D01*
X049709Y018024D02*
X049910Y017824D01*
X050310Y017824D01*
X050510Y018024D01*
X050510Y018825D01*
X050310Y019025D01*
X049910Y019025D01*
X049709Y018825D01*
X049709Y018024D01*
X051091Y017824D02*
X051091Y019025D01*
X051891Y017824D01*
X051891Y019025D01*
X052472Y019025D02*
X052472Y017824D01*
X053272Y017824D01*
X053853Y017824D02*
X053853Y019025D01*
X054654Y017824D01*
X054654Y019025D01*
X055234Y019025D02*
X056035Y019025D01*
X055634Y019025D02*
X055634Y017824D01*
X057996Y018024D02*
X058196Y017824D01*
X058597Y017824D01*
X058797Y018024D01*
X058797Y018224D01*
X058597Y018424D01*
X058196Y018424D01*
X057996Y018625D01*
X057996Y018825D01*
X058196Y019025D01*
X058597Y019025D01*
X058797Y018825D01*
X059377Y019025D02*
X059778Y019025D01*
X059578Y019025D02*
X059578Y017824D01*
X059778Y017824D02*
X059377Y017824D01*
X060298Y017824D02*
X060899Y017824D01*
X061099Y018024D01*
X061099Y018825D01*
X060899Y019025D01*
X060298Y019025D01*
X060298Y017824D01*
X061679Y017824D02*
X061679Y019025D01*
X062480Y019025D01*
X063060Y019025D02*
X063461Y018625D01*
X063461Y018224D01*
X063060Y017824D01*
X062480Y017824D02*
X061679Y017824D01*
X061679Y018424D02*
X062080Y018424D01*
X053272Y019025D02*
X052472Y019025D01*
X052472Y018424D02*
X052872Y018424D01*
D15*
X041251Y023574D03*
D16*
X041059Y036474D02*
X041059Y037541D01*
X040525Y038075D01*
X039992Y037541D01*
X039992Y036474D01*
X039218Y036474D02*
X039218Y038075D01*
X038150Y038075D02*
X039218Y036474D01*
X038150Y036474D02*
X038150Y038075D01*
X039992Y037275D02*
X041059Y037275D01*
X041833Y036474D02*
X041833Y038075D01*
X042367Y037541D01*
X042901Y038075D01*
X042901Y036474D01*
X043675Y036474D02*
X044742Y036474D01*
X045516Y036474D02*
X045516Y036741D01*
X045783Y036741D01*
X045783Y036474D01*
X045516Y036474D01*
X045516Y037275D02*
X045516Y037541D01*
X045783Y037541D01*
X045783Y037275D01*
X045516Y037275D01*
X044208Y037275D02*
X043675Y037275D01*
X043675Y038075D02*
X043675Y036474D01*
X043675Y038075D02*
X044742Y038075D01*
X048278Y038075D02*
X048278Y036474D01*
X049346Y036474D02*
X049346Y038075D01*
X050120Y038075D02*
X050120Y036474D01*
X051188Y036474D01*
X051961Y036474D02*
X051961Y038075D01*
X052762Y038075D01*
X053029Y037808D01*
X053029Y037275D01*
X052762Y037008D01*
X051961Y037008D01*
X052495Y037008D02*
X053029Y036474D01*
X053803Y036474D02*
X054604Y036474D01*
X054871Y036741D01*
X054871Y037808D01*
X054604Y038075D01*
X053803Y038075D01*
X053803Y036474D01*
X055645Y036474D02*
X056712Y036474D01*
X056178Y036474D02*
X056178Y038075D01*
X055645Y037541D01*
X051188Y038075D02*
X050120Y038075D01*
X049346Y036474D02*
X048278Y038075D01*
X050120Y037275D02*
X050654Y037275D01*
X035534Y036741D02*
X035534Y037808D01*
X035268Y038075D01*
X034467Y038075D01*
X034467Y036474D01*
X035268Y036474D01*
X035534Y036741D01*
X033693Y036474D02*
X033159Y037008D01*
X033426Y037008D02*
X032625Y037008D01*
X032625Y036474D02*
X032625Y038075D01*
X033426Y038075D01*
X033693Y037808D01*
X033693Y037275D01*
X033426Y037008D01*
X031851Y037275D02*
X030784Y037275D01*
X030784Y037541D02*
X030784Y036474D01*
X030010Y036741D02*
X030010Y037808D01*
X029743Y038075D01*
X029209Y038075D01*
X028942Y037808D01*
X028942Y036741D01*
X029209Y036474D01*
X029743Y036474D01*
X030010Y036741D01*
X030784Y037541D02*
X031318Y038075D01*
X031851Y037541D01*
X031851Y036474D01*
X028168Y036741D02*
X027901Y036474D01*
X027101Y036474D01*
X027101Y038075D01*
X027901Y038075D01*
X028168Y037808D01*
X028168Y037541D01*
X027901Y037275D01*
X027101Y037275D01*
X027901Y037275D02*
X028168Y037008D01*
X028168Y036741D01*
M02*
