G75*
G70*
%OFA0B0*%
%FSLAX24Y24*%
%IPPOS*%
%LPD*%
%AMOC8*
5,1,8,0,0,1.08239X$1,22.5*
%
%ADD10C,0.0336*%
%ADD11C,0.0300*%
%ADD12C,0.0400*%
%ADD13R,0.0236X0.0827*%
%ADD14R,0.0827X0.0236*%
%ADD15R,0.0614X0.0693*%
%ADD16C,0.0624*%
%ADD17R,0.0359X0.0359*%
%ADD18R,0.0472X0.1654*%
%ADD19R,0.0709X0.1496*%
%ADD20R,0.0236X0.0925*%
%ADD21C,0.0425*%
%ADD22C,0.1063*%
%ADD23R,0.1100X0.0600*%
%ADD24R,0.0693X0.0614*%
%ADD25C,0.2362*%
%ADD26R,0.0913X0.0283*%
%ADD27OC8,0.1020*%
%ADD28OC8,0.0720*%
%ADD29R,0.0600X0.1100*%
%ADD30R,0.1134X0.0661*%
%ADD31R,0.0661X0.1134*%
%ADD32O,0.0672X0.1232*%
%ADD33C,0.0992*%
%ADD34C,0.0571*%
%ADD35C,0.0528*%
D10*
X061521Y021514D03*
X061549Y022190D03*
X061731Y022820D03*
X062100Y023392D03*
X062621Y023834D03*
X063218Y024093D03*
X063837Y024179D03*
X064460Y024093D03*
X065056Y023834D03*
X065578Y023392D03*
X065946Y022820D03*
X066129Y022190D03*
X066156Y021514D03*
D11*
X027351Y017824D02*
X027151Y018024D01*
X027351Y017824D02*
X027751Y017824D01*
X027951Y018024D01*
X027951Y018224D01*
X027751Y018424D01*
X027351Y018424D01*
X027151Y018625D01*
X027151Y018825D01*
X027351Y019025D01*
X027751Y019025D01*
X027951Y018825D01*
X028532Y018825D02*
X028532Y018024D01*
X028732Y017824D01*
X029132Y017824D01*
X029333Y018024D01*
X029333Y018825D01*
X029132Y019025D01*
X028732Y019025D01*
X028532Y018825D01*
X029913Y019025D02*
X029913Y017824D01*
X030714Y017824D01*
X031294Y017824D02*
X031895Y017824D01*
X032095Y018024D01*
X032095Y018825D01*
X031895Y019025D01*
X031294Y019025D01*
X031294Y017824D01*
X032675Y017824D02*
X033476Y017824D01*
X034056Y017824D02*
X034056Y019025D01*
X034657Y019025D01*
X034857Y018825D01*
X034857Y018424D01*
X034657Y018224D01*
X034056Y018224D01*
X034457Y018224D02*
X034857Y017824D01*
X036819Y017824D02*
X036819Y019025D01*
X037219Y018625D01*
X037619Y019025D01*
X037619Y017824D01*
X038200Y017824D02*
X038200Y018625D01*
X038600Y019025D01*
X039001Y018625D01*
X039001Y017824D01*
X039001Y018424D02*
X038200Y018424D01*
X039581Y018625D02*
X039581Y018825D01*
X039781Y019025D01*
X040182Y019025D01*
X040382Y018825D01*
X040182Y018424D02*
X039781Y018424D01*
X039581Y018625D01*
X039581Y018024D02*
X039781Y017824D01*
X040182Y017824D01*
X040382Y018024D01*
X040382Y018224D01*
X040182Y018424D01*
X040962Y018224D02*
X041763Y019025D01*
X040962Y019025D02*
X040962Y017824D01*
X041162Y018424D02*
X041763Y017824D01*
X043724Y018224D02*
X043724Y018625D01*
X044125Y019025D01*
X044645Y018825D02*
X044645Y018024D01*
X044845Y017824D01*
X045246Y017824D01*
X045446Y018024D01*
X046026Y018024D02*
X046227Y017824D01*
X046627Y017824D01*
X046827Y018024D01*
X046827Y018825D01*
X046627Y019025D01*
X046227Y019025D01*
X046026Y018825D01*
X046026Y018024D01*
X044125Y017824D02*
X043724Y018224D01*
X044645Y018825D02*
X044845Y019025D01*
X045246Y019025D01*
X045446Y018825D01*
X047408Y019025D02*
X047408Y017824D01*
X048208Y017824D02*
X048208Y019025D01*
X047808Y018625D01*
X047408Y019025D01*
X048789Y019025D02*
X049389Y019025D01*
X049589Y018825D01*
X049589Y018424D01*
X049389Y018224D01*
X048789Y018224D01*
X048789Y017824D02*
X048789Y019025D01*
X050170Y018825D02*
X050170Y018024D01*
X050370Y017824D01*
X050770Y017824D01*
X050970Y018024D01*
X050970Y018825D01*
X050770Y019025D01*
X050370Y019025D01*
X050170Y018825D01*
X051551Y019025D02*
X052352Y017824D01*
X052352Y019025D01*
X052932Y019025D02*
X052932Y017824D01*
X053733Y017824D01*
X054313Y017824D02*
X054313Y019025D01*
X055114Y017824D01*
X055114Y019025D01*
X055694Y019025D02*
X056495Y019025D01*
X056095Y019025D02*
X056095Y017824D01*
X053733Y019025D02*
X052932Y019025D01*
X052932Y018424D02*
X053332Y018424D01*
X051551Y017824D02*
X051551Y019025D01*
X058457Y018825D02*
X058457Y018625D01*
X058657Y018424D01*
X059057Y018424D01*
X059257Y018224D01*
X059257Y018024D01*
X059057Y017824D01*
X058657Y017824D01*
X058457Y018024D01*
X059838Y017824D02*
X060238Y017824D01*
X060038Y017824D02*
X060038Y019025D01*
X059838Y019025D02*
X060238Y019025D01*
X060759Y019025D02*
X061359Y019025D01*
X061559Y018825D01*
X061559Y018024D01*
X061359Y017824D01*
X060759Y017824D01*
X060759Y019025D01*
X062140Y019025D02*
X062140Y017824D01*
X062940Y017824D01*
X063521Y017824D02*
X063921Y018224D01*
X063921Y018625D01*
X063521Y019025D01*
X062940Y019025D02*
X062140Y019025D01*
X062140Y018424D02*
X062540Y018424D01*
X059257Y018825D02*
X059057Y019025D01*
X058657Y019025D01*
X058457Y018825D01*
X033476Y019025D02*
X032675Y019025D01*
X032675Y017824D01*
X032675Y018424D02*
X033076Y018424D01*
D12*
X032625Y036474D02*
X032625Y038075D01*
X033426Y038075D01*
X033693Y037808D01*
X033693Y037275D01*
X033426Y037008D01*
X032625Y037008D01*
X033159Y037008D02*
X033693Y036474D01*
X034467Y036474D02*
X035268Y036474D01*
X035534Y036741D01*
X035534Y037808D01*
X035268Y038075D01*
X034467Y038075D01*
X034467Y036474D01*
X031851Y036474D02*
X031851Y037541D01*
X031318Y038075D01*
X030784Y037541D01*
X030784Y036474D01*
X030784Y037275D02*
X031851Y037275D01*
X030010Y037808D02*
X029743Y038075D01*
X029209Y038075D01*
X028942Y037808D01*
X028942Y036741D01*
X029209Y036474D01*
X029743Y036474D01*
X030010Y036741D01*
X030010Y037808D01*
X028168Y037808D02*
X028168Y037541D01*
X027901Y037275D01*
X027101Y037275D01*
X027101Y038075D02*
X027101Y036474D01*
X027901Y036474D01*
X028168Y036741D01*
X028168Y037008D01*
X027901Y037275D01*
X028168Y037808D02*
X027901Y038075D01*
X027101Y038075D01*
X038150Y038075D02*
X038150Y036474D01*
X039218Y036474D02*
X039218Y038075D01*
X039992Y037541D02*
X040525Y038075D01*
X041059Y037541D01*
X041059Y036474D01*
X041833Y036474D02*
X041833Y038075D01*
X042367Y037541D01*
X042901Y038075D01*
X042901Y036474D01*
X043675Y036474D02*
X044742Y036474D01*
X045516Y036474D02*
X045516Y036741D01*
X045783Y036741D01*
X045783Y036474D01*
X045516Y036474D01*
X045516Y037275D02*
X045516Y037541D01*
X045783Y037541D01*
X045783Y037275D01*
X045516Y037275D01*
X044208Y037275D02*
X043675Y037275D01*
X043675Y038075D02*
X043675Y036474D01*
X041059Y037275D02*
X039992Y037275D01*
X039992Y037541D02*
X039992Y036474D01*
X039218Y036474D02*
X038150Y038075D01*
X043675Y038075D02*
X044742Y038075D01*
X048278Y038075D02*
X048278Y036474D01*
X049346Y036474D02*
X049346Y038075D01*
X050120Y038075D02*
X050120Y036474D01*
X051188Y036474D01*
X051961Y036474D02*
X051961Y038075D01*
X052762Y038075D01*
X053029Y037808D01*
X053029Y037275D01*
X052762Y037008D01*
X051961Y037008D01*
X052495Y037008D02*
X053029Y036474D01*
X053803Y036474D02*
X054604Y036474D01*
X054871Y036741D01*
X054871Y037808D01*
X054604Y038075D01*
X053803Y038075D01*
X053803Y036474D01*
X055645Y036474D02*
X056712Y036474D01*
X056178Y036474D02*
X056178Y038075D01*
X055645Y037541D01*
X051188Y038075D02*
X050120Y038075D01*
X049346Y036474D02*
X048278Y038075D01*
X050120Y037275D02*
X050654Y037275D01*
D13*
X049776Y032015D03*
X049461Y032015D03*
X049146Y032015D03*
X048831Y032015D03*
X048516Y032015D03*
X048201Y032015D03*
X047886Y032015D03*
X047571Y032015D03*
X047256Y032015D03*
X046941Y032015D03*
X046626Y032015D03*
X046626Y027133D03*
X046941Y027133D03*
X047256Y027133D03*
X047571Y027133D03*
X047886Y027133D03*
X048201Y027133D03*
X048516Y027133D03*
X048831Y027133D03*
X049146Y027133D03*
X049461Y027133D03*
X049776Y027133D03*
D14*
X050642Y027999D03*
X050642Y028314D03*
X050642Y028629D03*
X050642Y028944D03*
X050642Y029259D03*
X050642Y029574D03*
X050642Y029889D03*
X050642Y030204D03*
X050642Y030519D03*
X050642Y030834D03*
X050642Y031149D03*
X045760Y031149D03*
X045760Y030834D03*
X045760Y030519D03*
X045760Y030204D03*
X045760Y029889D03*
X045760Y029574D03*
X045760Y029259D03*
X045760Y028944D03*
X045760Y028629D03*
X045760Y028314D03*
X045760Y027999D03*
D15*
X051766Y026574D03*
X052435Y026574D03*
X052435Y025574D03*
X051766Y025574D03*
X050335Y021774D03*
X049666Y021774D03*
X048335Y021774D03*
X047666Y021774D03*
X035335Y025474D03*
X034666Y025474D03*
X034666Y026374D03*
X035335Y026374D03*
X031935Y030374D03*
X031266Y030374D03*
X030966Y032274D03*
X031635Y032274D03*
X034266Y032474D03*
X034935Y032474D03*
D16*
X047951Y023324D03*
X049851Y023324D03*
D17*
X031902Y031300D03*
X031001Y031674D03*
X031001Y030926D03*
D18*
X064283Y031956D03*
X065070Y031956D03*
X065858Y031956D03*
X066645Y031956D03*
X067432Y031956D03*
X068220Y031956D03*
X069007Y031956D03*
X069795Y031956D03*
X070582Y031956D03*
X071369Y031956D03*
X072157Y031956D03*
X072944Y031956D03*
X073732Y031956D03*
X074519Y031956D03*
X075306Y031956D03*
X075287Y024174D03*
X074500Y024174D03*
X073713Y024174D03*
X072925Y024174D03*
X072138Y024174D03*
X071350Y024174D03*
X070563Y024174D03*
X069776Y024174D03*
X068988Y024174D03*
X068201Y024174D03*
X076075Y024174D03*
X076862Y024174D03*
X077650Y024174D03*
X078437Y024174D03*
X079224Y024174D03*
D19*
X080307Y022107D03*
X067118Y022107D03*
X063200Y034023D03*
X076389Y034023D03*
D20*
X032236Y024179D03*
X031921Y024179D03*
X031606Y024179D03*
X031291Y024179D03*
X030976Y024179D03*
D21*
X030917Y023144D03*
X032295Y023144D03*
D22*
X033043Y023931D03*
X030169Y023931D03*
X030169Y021845D03*
X033043Y021845D03*
D23*
X031001Y028474D03*
X031001Y029474D03*
D24*
X039101Y031739D03*
X039901Y031739D03*
X039901Y032409D03*
X039101Y032409D03*
X044501Y032409D03*
X045801Y032409D03*
X045801Y031739D03*
X044501Y031739D03*
X044501Y028409D03*
X044501Y027739D03*
X045801Y027409D03*
X045801Y026739D03*
X050601Y026739D03*
X050601Y025809D03*
X050601Y025139D03*
X050601Y027409D03*
X050601Y031739D03*
X050601Y032409D03*
D25*
X027275Y022549D03*
D26*
X040990Y030824D03*
X040990Y031324D03*
X040990Y031824D03*
X040990Y032324D03*
X043612Y032324D03*
X043612Y031824D03*
X043612Y031324D03*
X043612Y030824D03*
D27*
X038101Y028474D03*
X037101Y028474D03*
X036101Y028474D03*
X035301Y027474D03*
X029501Y026374D03*
X027601Y026374D03*
X034301Y023974D03*
X035301Y023974D03*
X034301Y022974D03*
X046901Y025774D03*
X053401Y025674D03*
X065701Y028474D03*
X066701Y028474D03*
X067701Y028474D03*
X068701Y028474D03*
X069701Y028474D03*
X070701Y028474D03*
X071701Y028474D03*
X072701Y028474D03*
X074201Y028474D03*
X072201Y029974D03*
X029701Y033674D03*
D28*
X034101Y031474D03*
X035101Y031474D03*
X036101Y031474D03*
X037101Y031474D03*
X037101Y030474D03*
X036101Y030474D03*
X035101Y030474D03*
X034101Y030474D03*
D29*
X033001Y033674D03*
X032001Y033674D03*
D30*
X032508Y026974D03*
X030894Y026974D03*
D31*
X075701Y028667D03*
X075701Y030281D03*
D32*
X056401Y025674D03*
X055401Y025674D03*
X054401Y025674D03*
D33*
X051710Y024074D03*
X057891Y024074D03*
D34*
X056376Y024074D03*
X054801Y024074D03*
X054013Y024074D03*
X053226Y024074D03*
D35*
X051001Y021924D03*
X049001Y021774D03*
X047001Y021924D03*
X048601Y026274D03*
X049401Y026274D03*
X051401Y027174D03*
X051901Y027974D03*
X051901Y028574D03*
X051901Y029174D03*
X051501Y029574D03*
X051901Y029974D03*
X051901Y030574D03*
X051901Y031174D03*
X051501Y031574D03*
X051251Y032224D03*
X049601Y031074D03*
X045151Y031724D03*
X045001Y030874D03*
X044401Y030174D03*
X046601Y028574D03*
X049651Y028074D03*
X045151Y026724D03*
X044601Y026274D03*
X044001Y026874D03*
X033051Y032074D03*
X032651Y032374D03*
X033051Y032674D03*
X032251Y032674D03*
X032251Y032074D03*
X035601Y032974D03*
X036201Y032974D03*
X036801Y032974D03*
X036801Y033574D03*
X036201Y033574D03*
X035601Y033574D03*
X045151Y032424D03*
X055701Y030774D03*
X056501Y030574D03*
X056501Y029974D03*
X056101Y029574D03*
X057901Y029774D03*
X057901Y029174D03*
X057901Y028574D03*
X057901Y027974D03*
X069151Y025424D03*
X069701Y025424D03*
X070251Y025424D03*
X072101Y026274D03*
X072901Y025874D03*
X073701Y025474D03*
X074401Y022874D03*
X075201Y022474D03*
X076001Y022074D03*
X076801Y021674D03*
X077101Y028474D03*
X077101Y029074D03*
X077101Y029674D03*
X076501Y029674D03*
X076501Y029074D03*
X076501Y028474D03*
X074601Y029574D03*
X074901Y030074D03*
X075001Y030674D03*
X074401Y030674D03*
X073801Y030674D03*
X074101Y030074D03*
X032401Y026374D03*
X032401Y024974D03*
M02*
