G75*
G70*
%OFA0B0*%
%FSLAX24Y24*%
%IPPOS*%
%LPD*%
%AMOC8*
5,1,8,0,0,1.08239X$1,22.5*
%
%ADD10C,0.0300*%
%ADD11C,0.0400*%
%ADD12OC8,0.0600*%
%ADD13C,0.0120*%
D10*
X004106Y007884D02*
X004506Y007884D01*
X004706Y008084D01*
X005287Y008084D02*
X005487Y007884D01*
X005887Y007884D01*
X006087Y008084D01*
X006087Y008885D01*
X005887Y009085D01*
X005487Y009085D01*
X005287Y008885D01*
X005287Y008084D01*
X004106Y007884D02*
X003905Y008084D01*
X003905Y008885D01*
X004106Y009085D01*
X004506Y009085D01*
X004706Y008885D01*
X006668Y009085D02*
X007068Y008685D01*
X007468Y009085D01*
X007468Y007884D01*
X008049Y007884D02*
X008049Y009085D01*
X008649Y009085D01*
X008850Y008885D01*
X008850Y008484D01*
X008649Y008284D01*
X008049Y008284D01*
X009430Y008084D02*
X009430Y008885D01*
X009630Y009085D01*
X010031Y009085D01*
X010231Y008885D01*
X010231Y008084D01*
X010031Y007884D01*
X009630Y007884D01*
X009430Y008084D01*
X010811Y007884D02*
X010811Y009085D01*
X011612Y007884D01*
X011612Y009085D01*
X012192Y009085D02*
X012192Y007884D01*
X012993Y007884D01*
X013573Y007884D02*
X013573Y009085D01*
X014374Y007884D01*
X014374Y009085D01*
X014955Y009085D02*
X015755Y009085D01*
X015355Y009085D02*
X015355Y007884D01*
X017717Y008084D02*
X017917Y007884D01*
X018317Y007884D01*
X018518Y008084D01*
X018518Y008284D01*
X018317Y008484D01*
X017917Y008484D01*
X017717Y008685D01*
X017717Y008885D01*
X017917Y009085D01*
X018317Y009085D01*
X018518Y008885D01*
X019098Y009085D02*
X019498Y009085D01*
X019298Y009085D02*
X019298Y007884D01*
X019098Y007884D02*
X019498Y007884D01*
X020019Y007884D02*
X020619Y007884D01*
X020819Y008084D01*
X020819Y008885D01*
X020619Y009085D01*
X020019Y009085D01*
X020019Y007884D01*
X021400Y007884D02*
X022201Y007884D01*
X021400Y007884D02*
X021400Y009085D01*
X022201Y009085D01*
X021800Y008484D02*
X021400Y008484D01*
X012993Y009085D02*
X012192Y009085D01*
X012192Y008484D02*
X012593Y008484D01*
X006668Y007884D02*
X006668Y009085D01*
D11*
X006564Y023434D02*
X007098Y023434D01*
X007365Y023701D01*
X007365Y024768D01*
X007098Y025035D01*
X006564Y025035D01*
X006297Y024768D01*
X006297Y023701D01*
X006564Y023434D01*
X005523Y023701D02*
X005256Y023434D01*
X004455Y023434D01*
X004455Y025035D01*
X005256Y025035D01*
X005523Y024768D01*
X005523Y024501D01*
X005256Y024235D01*
X004455Y024235D01*
X005256Y024235D02*
X005523Y023968D01*
X005523Y023701D01*
X008139Y023434D02*
X008139Y024501D01*
X008672Y025035D01*
X009206Y024501D01*
X009206Y023434D01*
X009980Y023434D02*
X009980Y025035D01*
X010781Y025035D01*
X011048Y024768D01*
X011048Y024235D01*
X010781Y023968D01*
X009980Y023968D01*
X010514Y023968D02*
X011048Y023434D01*
X011822Y023434D02*
X012622Y023434D01*
X012889Y023701D01*
X012889Y024768D01*
X012622Y025035D01*
X011822Y025035D01*
X011822Y023434D01*
X009206Y024235D02*
X008139Y024235D01*
X015505Y023434D02*
X015505Y025035D01*
X016572Y023434D01*
X016572Y025035D01*
X017346Y024501D02*
X017880Y025035D01*
X018414Y024501D01*
X018414Y023434D01*
X019188Y023434D02*
X019188Y025035D01*
X019721Y024501D01*
X020255Y025035D01*
X020255Y023434D01*
X021029Y023434D02*
X022097Y023434D01*
X022871Y023434D02*
X022871Y023701D01*
X023138Y023701D01*
X023138Y023434D01*
X022871Y023434D01*
X022871Y024235D02*
X022871Y024501D01*
X023138Y024501D01*
X023138Y024235D01*
X022871Y024235D01*
X021563Y024235D02*
X021029Y024235D01*
X021029Y025035D02*
X021029Y023434D01*
X018414Y024235D02*
X017346Y024235D01*
X017346Y024501D02*
X017346Y023434D01*
X021029Y025035D02*
X022097Y025035D01*
X025633Y024768D02*
X025633Y023701D01*
X025900Y023434D01*
X026434Y023434D01*
X026701Y023701D01*
X027475Y023434D02*
X027475Y024501D01*
X028008Y025035D01*
X028542Y024501D01*
X028542Y023434D01*
X029316Y023434D02*
X030117Y023434D01*
X030384Y023701D01*
X030384Y023968D01*
X030117Y024235D01*
X029316Y024235D01*
X028542Y024235D02*
X027475Y024235D01*
X026701Y024768D02*
X026434Y025035D01*
X025900Y025035D01*
X025633Y024768D01*
X029316Y025035D02*
X029316Y023434D01*
X030117Y024235D02*
X030384Y024501D01*
X030384Y024768D01*
X030117Y025035D01*
X029316Y025035D01*
X031158Y025035D02*
X031158Y023434D01*
X032225Y023434D01*
X032999Y023434D02*
X034067Y023434D01*
X033533Y024235D02*
X032999Y024235D01*
X032999Y025035D02*
X032999Y023434D01*
X032999Y025035D02*
X034067Y025035D01*
X036682Y025035D02*
X036682Y023434D01*
X037750Y023434D01*
X038524Y023434D02*
X039591Y025035D01*
X040365Y025035D02*
X041433Y025035D01*
X040899Y025035D02*
X040899Y023434D01*
X042207Y023434D02*
X043274Y023434D01*
X044048Y023434D02*
X044048Y025035D01*
X045116Y023434D01*
X045116Y025035D01*
X045890Y024768D02*
X045890Y024501D01*
X046157Y024235D01*
X046691Y024235D01*
X046958Y023968D01*
X046958Y023701D01*
X046691Y023434D01*
X046157Y023434D01*
X045890Y023701D01*
X045890Y024768D02*
X046157Y025035D01*
X046691Y025035D01*
X046958Y024768D01*
X047731Y025035D02*
X048265Y025035D01*
X047998Y025035D02*
X047998Y023434D01*
X047731Y023434D02*
X048265Y023434D01*
X048959Y023701D02*
X049226Y023434D01*
X049760Y023434D01*
X050027Y023701D01*
X050027Y024768D01*
X049760Y025035D01*
X049226Y025035D01*
X048959Y024768D01*
X048959Y023701D01*
X050801Y023434D02*
X050801Y025035D01*
X051868Y023434D01*
X051868Y025035D01*
X054484Y025035D02*
X055284Y025035D01*
X055551Y024768D01*
X055551Y024501D01*
X055284Y024235D01*
X054484Y024235D01*
X055284Y024235D02*
X055551Y023968D01*
X055551Y023701D01*
X055284Y023434D01*
X054484Y023434D01*
X054484Y025035D01*
X056325Y024768D02*
X056325Y023701D01*
X056592Y023434D01*
X057126Y023434D01*
X057393Y023701D01*
X057393Y024768D01*
X057126Y025035D01*
X056592Y025035D01*
X056325Y024768D01*
X058167Y024501D02*
X058701Y025035D01*
X059234Y024501D01*
X059234Y023434D01*
X060008Y023434D02*
X060008Y025035D01*
X060809Y025035D01*
X061076Y024768D01*
X061076Y024235D01*
X060809Y023968D01*
X060008Y023968D01*
X060542Y023968D02*
X061076Y023434D01*
X061850Y023434D02*
X062651Y023434D01*
X062917Y023701D01*
X062917Y024768D01*
X062651Y025035D01*
X061850Y025035D01*
X061850Y023434D01*
X059234Y024235D02*
X058167Y024235D01*
X058167Y024501D02*
X058167Y023434D01*
X043274Y025035D02*
X042207Y025035D01*
X042207Y023434D01*
X042207Y024235D02*
X042741Y024235D01*
X039591Y023434D02*
X038524Y025035D01*
X037750Y025035D02*
X036682Y025035D01*
X036682Y024235D02*
X037216Y024235D01*
D12*
X026755Y020234D03*
X025755Y020234D03*
X024755Y020234D03*
X023755Y020234D03*
X022755Y020234D03*
X021755Y020234D03*
X020755Y020234D03*
X019755Y020234D03*
X018755Y020234D03*
X017755Y020234D03*
X016755Y020234D03*
X015755Y020234D03*
X014755Y020234D03*
X014755Y019234D03*
X015755Y019234D03*
X016755Y019234D03*
X017755Y019234D03*
X018755Y019234D03*
X019755Y019234D03*
X020755Y019234D03*
X021755Y019234D03*
X022755Y019234D03*
X023755Y019234D03*
X024755Y019234D03*
X025755Y019234D03*
X026755Y019234D03*
X026375Y016394D03*
X025285Y016394D03*
X024205Y016394D03*
X023115Y016394D03*
X022025Y016394D03*
X020945Y016394D03*
X019855Y016394D03*
X018765Y016394D03*
X017685Y016394D03*
X016595Y016394D03*
X015505Y016394D03*
X014425Y016394D03*
X013335Y016394D03*
X013875Y015274D03*
X014965Y015274D03*
X016055Y015274D03*
X017135Y015274D03*
X018225Y015274D03*
X019315Y015274D03*
X020395Y015274D03*
X021485Y015274D03*
X022575Y015274D03*
X023655Y015274D03*
X024745Y015274D03*
X025835Y015274D03*
X032755Y015234D03*
X033755Y015234D03*
X033755Y016234D03*
X032755Y016234D03*
X037695Y016374D03*
X038815Y016914D03*
X037695Y017454D03*
X038815Y017994D03*
X042755Y016234D03*
X043755Y016234D03*
X043755Y015234D03*
X042755Y015234D03*
X042755Y014234D03*
X043755Y014234D03*
X043755Y013234D03*
X042755Y013234D03*
X042755Y012234D03*
X043755Y012234D03*
X047695Y014214D03*
X048815Y013674D03*
X048815Y014754D03*
X047695Y015294D03*
X048815Y015834D03*
X047695Y016374D03*
X048815Y016914D03*
X047695Y017454D03*
X048815Y017994D03*
X038815Y015834D03*
X037695Y015294D03*
X038815Y014754D03*
X037695Y014214D03*
X038815Y013674D03*
X033755Y013234D03*
X032755Y013234D03*
X032755Y014234D03*
X033755Y014234D03*
X033755Y012234D03*
X032755Y012234D03*
D13*
X033255Y012734D02*
X032755Y013234D01*
X033255Y013734D02*
X033755Y013234D01*
X033255Y012734D02*
X038755Y012734D01*
X039755Y013734D01*
X039755Y014734D01*
X039195Y015294D01*
X037695Y015294D01*
X037695Y016374D02*
X034895Y016374D01*
X034255Y015734D01*
X033555Y015734D01*
X033255Y015434D01*
X033255Y013734D01*
X032755Y014234D02*
X032255Y014734D01*
X032255Y016734D01*
X032975Y017454D01*
X037695Y017454D01*
X042255Y016734D02*
X042255Y014734D01*
X042755Y014234D01*
X043255Y013734D02*
X043755Y013234D01*
X043255Y012734D02*
X042755Y013234D01*
X043255Y012734D02*
X048755Y012734D01*
X049755Y013734D01*
X049755Y014734D01*
X049195Y015294D01*
X047695Y015294D01*
X047695Y016374D02*
X044895Y016374D01*
X044255Y015734D01*
X043555Y015734D01*
X043255Y015434D01*
X043255Y013734D01*
X043755Y014234D02*
X044315Y013674D01*
X048815Y013674D01*
X042975Y017454D02*
X042255Y016734D01*
X042975Y017454D02*
X047695Y017454D01*
X038815Y013674D02*
X034315Y013674D01*
X033755Y014234D01*
X025835Y015274D02*
X025835Y018154D01*
X025255Y018734D01*
X025255Y019534D01*
X025055Y019734D01*
X021255Y019734D01*
X020755Y020234D01*
X019755Y020234D02*
X019255Y019734D01*
X019255Y019034D01*
X019855Y018434D01*
X023055Y018434D01*
X023655Y017834D01*
X023655Y015274D01*
X024745Y015274D02*
X024745Y017744D01*
X023755Y018734D01*
X020255Y018734D01*
X019755Y019234D01*
X018755Y019234D02*
X018755Y018634D01*
X019255Y018134D01*
X022155Y018134D01*
X022575Y017714D01*
X022575Y015274D01*
X021485Y015274D02*
X021485Y017204D01*
X020855Y017834D01*
X019155Y017834D01*
X018255Y018734D01*
X018255Y019734D01*
X018755Y020234D01*
X017755Y020234D02*
X017255Y019734D01*
X017255Y018934D01*
X019315Y016874D01*
X019315Y015274D01*
X020395Y015274D02*
X020395Y017194D01*
X020055Y017534D01*
X019055Y017534D01*
X017755Y018834D01*
X017755Y019234D01*
X016755Y019234D02*
X016755Y018734D01*
X018225Y017264D01*
X018225Y015274D01*
X017135Y015274D02*
X017135Y017854D01*
X016255Y018734D01*
X016255Y019734D01*
X016755Y020234D01*
X015755Y020234D02*
X015255Y019734D01*
X015255Y018934D01*
X014965Y018644D01*
X014965Y015274D01*
X016055Y015274D02*
X016055Y018334D01*
X015755Y018634D01*
X015755Y019234D01*
M02*
