G75*
G70*
%OFA0B0*%
%FSLAX24Y24*%
%IPPOS*%
%LPD*%
%AMOC8*
5,1,8,0,0,1.08239X$1,22.5*
%
%ADD10C,0.0000*%
%ADD11C,0.0100*%
%ADD12C,0.0200*%
%ADD13C,0.0140*%
%ADD14C,0.0400*%
%ADD15C,0.0300*%
D10*
X003255Y010734D02*
X058767Y010734D01*
X058767Y020970D01*
X003255Y020970D01*
X003255Y010734D01*
X005027Y015852D02*
X005031Y015941D01*
X005043Y016030D01*
X005063Y016117D01*
X005092Y016203D01*
X005127Y016285D01*
X005170Y016363D01*
X005220Y016438D01*
X005277Y016507D01*
X005339Y016571D01*
X005408Y016629D01*
X005481Y016681D01*
X005558Y016726D01*
X005640Y016763D01*
X005724Y016793D01*
X005811Y016815D01*
X005899Y016830D01*
X005989Y016836D01*
X006078Y016834D01*
X006167Y016824D01*
X006255Y016805D01*
X006341Y016779D01*
X006423Y016745D01*
X006503Y016704D01*
X006578Y016656D01*
X006649Y016601D01*
X006715Y016540D01*
X006774Y016473D01*
X006828Y016401D01*
X006874Y016324D01*
X006914Y016244D01*
X006945Y016160D01*
X006970Y016074D01*
X006986Y015986D01*
X006994Y015897D01*
X006994Y015807D01*
X006986Y015718D01*
X006970Y015630D01*
X006945Y015544D01*
X006914Y015460D01*
X006874Y015380D01*
X006828Y015303D01*
X006774Y015231D01*
X006715Y015164D01*
X006649Y015103D01*
X006578Y015048D01*
X006503Y015000D01*
X006423Y014959D01*
X006341Y014925D01*
X006255Y014899D01*
X006167Y014880D01*
X006078Y014870D01*
X005989Y014868D01*
X005899Y014874D01*
X005811Y014889D01*
X005724Y014911D01*
X005640Y014941D01*
X005558Y014978D01*
X005481Y015023D01*
X005408Y015075D01*
X005339Y015133D01*
X005277Y015197D01*
X005220Y015266D01*
X005170Y015341D01*
X005127Y015419D01*
X005092Y015501D01*
X005063Y015587D01*
X005043Y015674D01*
X005031Y015763D01*
X005027Y015852D01*
X054633Y015852D02*
X054637Y015941D01*
X054649Y016030D01*
X054669Y016117D01*
X054698Y016203D01*
X054733Y016285D01*
X054776Y016363D01*
X054826Y016438D01*
X054883Y016507D01*
X054945Y016571D01*
X055014Y016629D01*
X055087Y016681D01*
X055164Y016726D01*
X055246Y016763D01*
X055330Y016793D01*
X055417Y016815D01*
X055505Y016830D01*
X055595Y016836D01*
X055684Y016834D01*
X055773Y016824D01*
X055861Y016805D01*
X055947Y016779D01*
X056029Y016745D01*
X056109Y016704D01*
X056184Y016656D01*
X056255Y016601D01*
X056321Y016540D01*
X056380Y016473D01*
X056434Y016401D01*
X056480Y016324D01*
X056520Y016244D01*
X056551Y016160D01*
X056576Y016074D01*
X056592Y015986D01*
X056600Y015897D01*
X056600Y015807D01*
X056592Y015718D01*
X056576Y015630D01*
X056551Y015544D01*
X056520Y015460D01*
X056480Y015380D01*
X056434Y015303D01*
X056380Y015231D01*
X056321Y015164D01*
X056255Y015103D01*
X056184Y015048D01*
X056109Y015000D01*
X056029Y014959D01*
X055947Y014925D01*
X055861Y014899D01*
X055773Y014880D01*
X055684Y014870D01*
X055595Y014868D01*
X055505Y014874D01*
X055417Y014889D01*
X055330Y014911D01*
X055246Y014941D01*
X055164Y014978D01*
X055087Y015023D01*
X055014Y015075D01*
X054945Y015133D01*
X054883Y015197D01*
X054826Y015266D01*
X054776Y015341D01*
X054733Y015419D01*
X054698Y015501D01*
X054669Y015587D01*
X054649Y015674D01*
X054637Y015763D01*
X054633Y015852D01*
D11*
X054767Y015852D02*
X053867Y015852D01*
X054593Y015852D02*
X054597Y015945D01*
X054610Y016037D01*
X054631Y016128D01*
X054660Y016217D01*
X054697Y016302D01*
X054742Y016384D01*
X054794Y016461D01*
X054853Y016534D01*
X054918Y016600D01*
X054989Y016661D01*
X055065Y016715D01*
X055146Y016761D01*
X055231Y016800D01*
X055318Y016831D01*
X055409Y016855D01*
X055501Y016869D01*
X055594Y016876D01*
X055687Y016874D01*
X055779Y016863D01*
X055871Y016844D01*
X055960Y016817D01*
X056046Y016782D01*
X056129Y016739D01*
X056208Y016689D01*
X056281Y016631D01*
X056349Y016568D01*
X056411Y016498D01*
X056467Y016423D01*
X056515Y016344D01*
X056556Y016260D01*
X056589Y016173D01*
X056615Y016083D01*
X056631Y015991D01*
X056640Y015899D01*
X056640Y015805D01*
X056631Y015713D01*
X056615Y015621D01*
X056589Y015531D01*
X056556Y015444D01*
X056515Y015360D01*
X056467Y015281D01*
X056411Y015206D01*
X056349Y015136D01*
X056281Y015073D01*
X056208Y015015D01*
X056129Y014965D01*
X056046Y014922D01*
X055960Y014887D01*
X055871Y014860D01*
X055779Y014841D01*
X055687Y014830D01*
X055594Y014828D01*
X055501Y014835D01*
X055409Y014849D01*
X055318Y014873D01*
X055231Y014904D01*
X055146Y014943D01*
X055065Y014989D01*
X054989Y015043D01*
X054918Y015104D01*
X054853Y015170D01*
X054794Y015243D01*
X054742Y015320D01*
X054697Y015402D01*
X054660Y015487D01*
X054631Y015576D01*
X054610Y015667D01*
X054597Y015759D01*
X054593Y015852D01*
X053847Y015852D02*
X053854Y016013D01*
X053876Y016173D01*
X053913Y016330D01*
X053963Y016483D01*
X054027Y016630D01*
X054105Y016772D01*
X054195Y016905D01*
X054296Y017030D01*
X054409Y017146D01*
X054532Y017250D01*
X054663Y017343D01*
X054803Y017424D01*
X054949Y017491D01*
X055101Y017545D01*
X055257Y017585D01*
X055416Y017611D01*
X055577Y017622D01*
X055738Y017618D01*
X055898Y017600D01*
X056056Y017567D01*
X056210Y017520D01*
X056359Y017459D01*
X056502Y017385D01*
X056638Y017298D01*
X056765Y017199D01*
X056883Y017089D01*
X056990Y016969D01*
X057086Y016840D01*
X057170Y016702D01*
X057240Y016557D01*
X057298Y016407D01*
X057341Y016251D01*
X057371Y016093D01*
X057385Y015933D01*
X057385Y015771D01*
X057371Y015611D01*
X057341Y015453D01*
X057298Y015297D01*
X057240Y015147D01*
X057170Y015002D01*
X057086Y014864D01*
X056990Y014735D01*
X056883Y014615D01*
X056765Y014505D01*
X056638Y014406D01*
X056502Y014319D01*
X056359Y014245D01*
X056210Y014184D01*
X056056Y014137D01*
X055898Y014104D01*
X055738Y014086D01*
X055577Y014082D01*
X055416Y014093D01*
X055257Y014119D01*
X055101Y014159D01*
X054949Y014213D01*
X054803Y014280D01*
X054663Y014361D01*
X054532Y014454D01*
X054409Y014558D01*
X054296Y014674D01*
X054195Y014799D01*
X054105Y014932D01*
X054027Y015074D01*
X053963Y015221D01*
X053913Y015374D01*
X053876Y015531D01*
X053854Y015691D01*
X053847Y015852D01*
X055617Y015002D02*
X055617Y014102D01*
X056467Y015852D02*
X057367Y015852D01*
X055617Y016702D02*
X055617Y017602D01*
X050555Y017734D02*
X050555Y018234D01*
X050055Y017984D01*
X050555Y017734D01*
X050555Y017829D02*
X050365Y017829D01*
X050555Y017928D02*
X050168Y017928D01*
X050140Y018026D02*
X050555Y018026D01*
X050555Y018125D02*
X050337Y018125D01*
X050534Y018223D02*
X050555Y018223D01*
X049955Y018584D02*
X049955Y013084D01*
X049805Y013084D02*
X049805Y018584D01*
X049955Y018584D02*
X049953Y018636D01*
X049947Y018688D01*
X049937Y018739D01*
X049923Y018790D01*
X049905Y018839D01*
X049884Y018887D01*
X049859Y018933D01*
X049830Y018976D01*
X049799Y019018D01*
X049764Y019057D01*
X049726Y019093D01*
X049686Y019126D01*
X049643Y019156D01*
X049598Y019183D01*
X049551Y019206D01*
X049502Y019225D01*
X049452Y019240D01*
X049401Y019252D01*
X049350Y019260D01*
X049298Y019264D01*
X049245Y019263D01*
X049193Y019259D01*
X049142Y019251D01*
X049175Y019254D02*
X047095Y018944D01*
X047095Y018794D02*
X049175Y019104D01*
X049171Y019104D02*
X049215Y019111D01*
X049260Y019114D01*
X049304Y019113D01*
X049349Y019109D01*
X049393Y019101D01*
X049436Y019089D01*
X049477Y019074D01*
X049518Y019055D01*
X049557Y019033D01*
X049593Y019008D01*
X049628Y018979D01*
X049660Y018948D01*
X049689Y018915D01*
X049716Y018879D01*
X049739Y018841D01*
X049759Y018801D01*
X049775Y018759D01*
X049788Y018716D01*
X049798Y018673D01*
X049803Y018629D01*
X049805Y018584D01*
X049555Y018018D02*
X049555Y017825D01*
X049555Y017921D02*
X049265Y017921D01*
X049362Y017825D01*
X049362Y016968D02*
X049314Y016968D01*
X049265Y016920D01*
X049265Y016823D01*
X049314Y016775D01*
X049362Y016968D02*
X049555Y016775D01*
X049555Y016968D01*
X047235Y017373D02*
X047235Y017470D01*
X047187Y017518D01*
X047139Y017518D01*
X047090Y017470D01*
X047090Y017325D01*
X047187Y017325D01*
X047235Y017373D01*
X047090Y017325D02*
X046994Y017421D01*
X046945Y017518D01*
X046705Y018284D02*
X046705Y013384D01*
X046555Y013384D02*
X046555Y018284D01*
X046557Y018335D01*
X046563Y018387D01*
X046572Y018437D01*
X046586Y018487D01*
X046603Y018535D01*
X046624Y018582D01*
X046648Y018628D01*
X046676Y018671D01*
X046707Y018712D01*
X046741Y018751D01*
X046777Y018787D01*
X046817Y018820D01*
X046859Y018850D01*
X046902Y018877D01*
X046948Y018901D01*
X046996Y018920D01*
X047044Y018937D01*
X047094Y018949D01*
X047145Y018958D01*
X047102Y018797D02*
X047060Y018784D01*
X047019Y018768D01*
X046980Y018749D01*
X046943Y018726D01*
X046908Y018701D01*
X046875Y018673D01*
X046844Y018642D01*
X046816Y018608D01*
X046791Y018573D01*
X046768Y018535D01*
X046749Y018496D01*
X046733Y018455D01*
X046721Y018413D01*
X046712Y018371D01*
X046707Y018328D01*
X046705Y018284D01*
X043802Y017054D02*
X043802Y016764D01*
X043705Y016764D02*
X043899Y016764D01*
X043705Y016957D02*
X043802Y017054D01*
X042899Y017006D02*
X042851Y017054D01*
X042754Y017054D01*
X042705Y017006D01*
X042899Y017006D02*
X042899Y016957D01*
X042705Y016764D01*
X042899Y016764D01*
X044455Y016234D02*
X044955Y015984D01*
X044955Y016484D01*
X044455Y016234D01*
X044492Y016252D02*
X044955Y016252D01*
X044955Y016154D02*
X044616Y016154D01*
X044689Y016351D02*
X044955Y016351D01*
X044955Y016449D02*
X044886Y016449D01*
X044955Y016055D02*
X044813Y016055D01*
X046895Y016225D02*
X046895Y016418D01*
X046944Y016418D01*
X047137Y016225D01*
X047185Y016225D01*
X047137Y015318D02*
X047185Y015270D01*
X047185Y015173D01*
X047137Y015125D01*
X047089Y015125D01*
X047040Y015173D01*
X047040Y015270D01*
X047089Y015318D01*
X047137Y015318D01*
X047040Y015270D02*
X046992Y015318D01*
X046944Y015318D01*
X046895Y015270D01*
X046895Y015173D01*
X046944Y015125D01*
X046992Y015125D01*
X047040Y015173D01*
X047040Y014218D02*
X047040Y014073D01*
X046992Y014025D01*
X046944Y014025D01*
X046895Y014073D01*
X046895Y014170D01*
X046944Y014218D01*
X047137Y014218D01*
X047185Y014170D01*
X047185Y014073D01*
X047137Y014025D01*
X046555Y013384D02*
X046557Y013332D01*
X046563Y013281D01*
X046573Y013231D01*
X046586Y013181D01*
X046603Y013132D01*
X046624Y013085D01*
X046649Y013040D01*
X046676Y012996D01*
X046707Y012955D01*
X046741Y012916D01*
X046778Y012880D01*
X046818Y012847D01*
X046859Y012817D01*
X046903Y012790D01*
X046949Y012767D01*
X046997Y012747D01*
X047046Y012731D01*
X047096Y012718D01*
X047147Y012710D01*
X047198Y012705D01*
X047125Y012714D02*
X049165Y012414D01*
X049165Y012564D02*
X047105Y012874D01*
X047111Y012869D02*
X047069Y012881D01*
X047027Y012896D01*
X046987Y012915D01*
X046949Y012938D01*
X046913Y012963D01*
X046879Y012991D01*
X046848Y013022D01*
X046819Y013056D01*
X046793Y013092D01*
X046770Y013130D01*
X046751Y013169D01*
X046734Y013210D01*
X046722Y013253D01*
X046712Y013296D01*
X046707Y013340D01*
X046705Y013384D01*
X049265Y013525D02*
X049410Y013525D01*
X049362Y013621D01*
X049362Y013670D01*
X049410Y013718D01*
X049507Y013718D01*
X049555Y013670D01*
X049555Y013573D01*
X049507Y013525D01*
X049265Y013525D02*
X049265Y013718D01*
X049955Y013084D02*
X049953Y013032D01*
X049947Y012980D01*
X049937Y012929D01*
X049923Y012878D01*
X049905Y012829D01*
X049884Y012781D01*
X049859Y012736D01*
X049830Y012692D01*
X049799Y012650D01*
X049764Y012611D01*
X049726Y012575D01*
X049686Y012542D01*
X049643Y012512D01*
X049598Y012486D01*
X049551Y012462D01*
X049502Y012443D01*
X049452Y012428D01*
X049402Y012416D01*
X049350Y012408D01*
X049298Y012404D01*
X049245Y012405D01*
X049193Y012409D01*
X049142Y012417D01*
X049162Y012566D02*
X049206Y012558D01*
X049251Y012555D01*
X049296Y012554D01*
X049341Y012558D01*
X049386Y012566D01*
X049429Y012577D01*
X049472Y012592D01*
X049513Y012610D01*
X049552Y012632D01*
X049590Y012657D01*
X049625Y012686D01*
X049657Y012717D01*
X049687Y012751D01*
X049714Y012787D01*
X049738Y012825D01*
X049758Y012865D01*
X049775Y012907D01*
X049788Y012950D01*
X049797Y012994D01*
X049803Y013039D01*
X049805Y013084D01*
X049410Y014625D02*
X049410Y014818D01*
X049265Y014770D02*
X049410Y014625D01*
X049555Y014770D02*
X049265Y014770D01*
X049314Y015675D02*
X049265Y015723D01*
X049265Y015820D01*
X049314Y015868D01*
X049362Y015868D01*
X049410Y015820D01*
X049459Y015868D01*
X049507Y015868D01*
X049555Y015820D01*
X049555Y015723D01*
X049507Y015675D01*
X049410Y015771D02*
X049410Y015820D01*
X040555Y017734D02*
X040555Y018234D01*
X040055Y017984D01*
X040555Y017734D01*
X040555Y017829D02*
X040365Y017829D01*
X040555Y017928D02*
X040168Y017928D01*
X040140Y018026D02*
X040555Y018026D01*
X040555Y018125D02*
X040337Y018125D01*
X040534Y018223D02*
X040555Y018223D01*
X039955Y018584D02*
X039955Y013084D01*
X039805Y013084D02*
X039805Y018584D01*
X039955Y018584D02*
X039953Y018636D01*
X039947Y018688D01*
X039937Y018739D01*
X039923Y018790D01*
X039905Y018839D01*
X039884Y018887D01*
X039859Y018933D01*
X039830Y018976D01*
X039799Y019018D01*
X039764Y019057D01*
X039726Y019093D01*
X039686Y019126D01*
X039643Y019156D01*
X039598Y019183D01*
X039551Y019206D01*
X039502Y019225D01*
X039452Y019240D01*
X039401Y019252D01*
X039350Y019260D01*
X039298Y019264D01*
X039245Y019263D01*
X039193Y019259D01*
X039142Y019251D01*
X039175Y019254D02*
X037095Y018944D01*
X037095Y018794D02*
X039175Y019104D01*
X039171Y019104D02*
X039215Y019111D01*
X039260Y019114D01*
X039304Y019113D01*
X039349Y019109D01*
X039393Y019101D01*
X039436Y019089D01*
X039477Y019074D01*
X039518Y019055D01*
X039557Y019033D01*
X039593Y019008D01*
X039628Y018979D01*
X039660Y018948D01*
X039689Y018915D01*
X039716Y018879D01*
X039739Y018841D01*
X039759Y018801D01*
X039775Y018759D01*
X039788Y018716D01*
X039798Y018673D01*
X039803Y018629D01*
X039805Y018584D01*
X039555Y018018D02*
X039555Y017825D01*
X039555Y017921D02*
X039265Y017921D01*
X039362Y017825D01*
X039362Y016968D02*
X039314Y016968D01*
X039265Y016920D01*
X039265Y016823D01*
X039314Y016775D01*
X039362Y016968D02*
X039555Y016775D01*
X039555Y016968D01*
X037235Y017373D02*
X037235Y017470D01*
X037187Y017518D01*
X037139Y017518D01*
X037090Y017470D01*
X037090Y017325D01*
X037187Y017325D01*
X037235Y017373D01*
X037090Y017325D02*
X036994Y017421D01*
X036945Y017518D01*
X036705Y018284D02*
X036705Y013384D01*
X036555Y013384D02*
X036555Y018284D01*
X036557Y018335D01*
X036563Y018387D01*
X036572Y018437D01*
X036586Y018487D01*
X036603Y018535D01*
X036624Y018582D01*
X036648Y018628D01*
X036676Y018671D01*
X036707Y018712D01*
X036741Y018751D01*
X036777Y018787D01*
X036817Y018820D01*
X036859Y018850D01*
X036902Y018877D01*
X036948Y018901D01*
X036996Y018920D01*
X037044Y018937D01*
X037094Y018949D01*
X037145Y018958D01*
X037102Y018797D02*
X037060Y018784D01*
X037019Y018768D01*
X036980Y018749D01*
X036943Y018726D01*
X036908Y018701D01*
X036875Y018673D01*
X036844Y018642D01*
X036816Y018608D01*
X036791Y018573D01*
X036768Y018535D01*
X036749Y018496D01*
X036733Y018455D01*
X036721Y018413D01*
X036712Y018371D01*
X036707Y018328D01*
X036705Y018284D01*
X033802Y017054D02*
X033802Y016764D01*
X033705Y016764D02*
X033899Y016764D01*
X033705Y016957D02*
X033802Y017054D01*
X032899Y017006D02*
X032851Y017054D01*
X032754Y017054D01*
X032705Y017006D01*
X032899Y017006D02*
X032899Y016957D01*
X032705Y016764D01*
X032899Y016764D01*
X034405Y016234D02*
X034905Y015984D01*
X034905Y016484D01*
X034405Y016234D01*
X034442Y016252D02*
X034905Y016252D01*
X034905Y016154D02*
X034566Y016154D01*
X034639Y016351D02*
X034905Y016351D01*
X034905Y016449D02*
X034836Y016449D01*
X034905Y016055D02*
X034763Y016055D01*
X036895Y016225D02*
X036895Y016418D01*
X036944Y016418D01*
X037137Y016225D01*
X037185Y016225D01*
X039265Y015820D02*
X039314Y015868D01*
X039362Y015868D01*
X039410Y015820D01*
X039459Y015868D01*
X039507Y015868D01*
X039555Y015820D01*
X039555Y015723D01*
X039507Y015675D01*
X039410Y015771D02*
X039410Y015820D01*
X039265Y015820D02*
X039265Y015723D01*
X039314Y015675D01*
X039410Y014818D02*
X039410Y014625D01*
X039265Y014770D01*
X039555Y014770D01*
X039507Y013718D02*
X039555Y013670D01*
X039555Y013573D01*
X039507Y013525D01*
X039410Y013525D02*
X039362Y013621D01*
X039362Y013670D01*
X039410Y013718D01*
X039507Y013718D01*
X039410Y013525D02*
X039265Y013525D01*
X039265Y013718D01*
X039955Y013084D02*
X039953Y013032D01*
X039947Y012980D01*
X039937Y012929D01*
X039923Y012878D01*
X039905Y012829D01*
X039884Y012781D01*
X039859Y012736D01*
X039830Y012692D01*
X039799Y012650D01*
X039764Y012611D01*
X039726Y012575D01*
X039686Y012542D01*
X039643Y012512D01*
X039598Y012486D01*
X039551Y012462D01*
X039502Y012443D01*
X039452Y012428D01*
X039402Y012416D01*
X039350Y012408D01*
X039298Y012404D01*
X039245Y012405D01*
X039193Y012409D01*
X039142Y012417D01*
X039165Y012414D02*
X037125Y012714D01*
X037105Y012874D02*
X039165Y012564D01*
X039162Y012566D02*
X039206Y012558D01*
X039251Y012555D01*
X039296Y012554D01*
X039341Y012558D01*
X039386Y012566D01*
X039429Y012577D01*
X039472Y012592D01*
X039513Y012610D01*
X039552Y012632D01*
X039590Y012657D01*
X039625Y012686D01*
X039657Y012717D01*
X039687Y012751D01*
X039714Y012787D01*
X039738Y012825D01*
X039758Y012865D01*
X039775Y012907D01*
X039788Y012950D01*
X039797Y012994D01*
X039803Y013039D01*
X039805Y013084D01*
X037198Y012705D02*
X037147Y012710D01*
X037096Y012718D01*
X037046Y012731D01*
X036997Y012747D01*
X036949Y012767D01*
X036903Y012790D01*
X036859Y012817D01*
X036818Y012847D01*
X036778Y012880D01*
X036741Y012916D01*
X036707Y012955D01*
X036676Y012996D01*
X036649Y013040D01*
X036624Y013085D01*
X036603Y013132D01*
X036586Y013181D01*
X036573Y013231D01*
X036563Y013281D01*
X036557Y013332D01*
X036555Y013384D01*
X036705Y013384D02*
X036707Y013340D01*
X036712Y013296D01*
X036722Y013253D01*
X036734Y013210D01*
X036751Y013169D01*
X036770Y013130D01*
X036793Y013092D01*
X036819Y013056D01*
X036848Y013022D01*
X036879Y012991D01*
X036913Y012963D01*
X036949Y012938D01*
X036987Y012915D01*
X037027Y012896D01*
X037069Y012881D01*
X037111Y012869D01*
X037137Y014025D02*
X037185Y014073D01*
X037185Y014170D01*
X037137Y014218D01*
X036944Y014218D01*
X036895Y014170D01*
X036895Y014073D01*
X036944Y014025D01*
X036992Y014025D01*
X037040Y014073D01*
X037040Y014218D01*
X036992Y015125D02*
X036944Y015125D01*
X036895Y015173D01*
X036895Y015270D01*
X036944Y015318D01*
X036992Y015318D01*
X037040Y015270D01*
X037040Y015173D01*
X036992Y015125D01*
X037040Y015173D02*
X037089Y015125D01*
X037137Y015125D01*
X037185Y015173D01*
X037185Y015270D01*
X037137Y015318D01*
X037089Y015318D01*
X037040Y015270D01*
X030305Y013634D02*
X030305Y018034D01*
X030303Y018064D01*
X030298Y018094D01*
X030289Y018123D01*
X030276Y018150D01*
X030261Y018176D01*
X030242Y018200D01*
X030221Y018221D01*
X030197Y018240D01*
X030171Y018255D01*
X030144Y018268D01*
X030115Y018277D01*
X030085Y018282D01*
X030055Y018284D01*
X009655Y018284D01*
X009625Y018282D01*
X009595Y018277D01*
X009566Y018268D01*
X009539Y018255D01*
X009513Y018240D01*
X009489Y018221D01*
X009468Y018200D01*
X009449Y018176D01*
X009434Y018150D01*
X009421Y018123D01*
X009412Y018094D01*
X009407Y018064D01*
X009405Y018034D01*
X009405Y013634D01*
X009407Y013604D01*
X009412Y013574D01*
X009421Y013545D01*
X009434Y013518D01*
X009449Y013492D01*
X009468Y013468D01*
X009489Y013447D01*
X009513Y013428D01*
X009539Y013413D01*
X009566Y013400D01*
X009595Y013391D01*
X009625Y013386D01*
X009655Y013384D01*
X030055Y013384D01*
X030085Y013386D01*
X030115Y013391D01*
X030144Y013400D01*
X030171Y013413D01*
X030197Y013428D01*
X030221Y013447D01*
X030242Y013468D01*
X030261Y013492D01*
X030276Y013518D01*
X030289Y013545D01*
X030298Y013574D01*
X030303Y013604D01*
X030305Y013634D01*
X027165Y014684D02*
X027475Y016744D01*
X027473Y016741D02*
X027481Y016785D01*
X027484Y016830D01*
X027485Y016875D01*
X027481Y016920D01*
X027473Y016965D01*
X027462Y017008D01*
X027447Y017051D01*
X027429Y017092D01*
X027407Y017131D01*
X027382Y017169D01*
X027353Y017204D01*
X027322Y017236D01*
X027288Y017266D01*
X027252Y017293D01*
X027214Y017317D01*
X027174Y017337D01*
X027132Y017354D01*
X027089Y017367D01*
X027045Y017376D01*
X027000Y017382D01*
X026955Y017384D01*
X012755Y017384D01*
X013105Y017077D02*
X013202Y017174D01*
X013202Y016884D01*
X013105Y016884D02*
X013299Y016884D01*
X013465Y016932D02*
X013513Y016884D01*
X013610Y016884D01*
X013658Y016932D01*
X013658Y016981D01*
X013610Y017029D01*
X013561Y017029D01*
X013610Y017029D02*
X013658Y017077D01*
X013658Y017126D01*
X013610Y017174D01*
X013513Y017174D01*
X013465Y017126D01*
X014205Y017077D02*
X014302Y017174D01*
X014302Y016884D01*
X014205Y016884D02*
X014399Y016884D01*
X014565Y016884D02*
X014758Y017077D01*
X014758Y017126D01*
X014710Y017174D01*
X014613Y017174D01*
X014565Y017126D01*
X014565Y016884D02*
X014758Y016884D01*
X015305Y016884D02*
X015499Y016884D01*
X015402Y016884D02*
X015402Y017174D01*
X015305Y017077D01*
X015665Y017077D02*
X015761Y017174D01*
X015761Y016884D01*
X015665Y016884D02*
X015858Y016884D01*
X016355Y016884D02*
X016549Y016884D01*
X016452Y016884D02*
X016452Y017174D01*
X016355Y017077D01*
X016715Y017126D02*
X016763Y017174D01*
X016860Y017174D01*
X016908Y017126D01*
X016715Y016932D01*
X016763Y016884D01*
X016860Y016884D01*
X016908Y016932D01*
X016908Y017126D01*
X016715Y017126D02*
X016715Y016932D01*
X017555Y016932D02*
X017604Y016884D01*
X017701Y016884D01*
X017749Y016932D01*
X017749Y017126D01*
X017701Y017174D01*
X017604Y017174D01*
X017555Y017126D01*
X017555Y017077D01*
X017604Y017029D01*
X017749Y017029D01*
X018655Y017077D02*
X018655Y017126D01*
X018704Y017174D01*
X018801Y017174D01*
X018849Y017126D01*
X018849Y017077D01*
X018801Y017029D01*
X018704Y017029D01*
X018655Y017077D01*
X018704Y017029D02*
X018655Y016981D01*
X018655Y016932D01*
X018704Y016884D01*
X018801Y016884D01*
X018849Y016932D01*
X018849Y016981D01*
X018801Y017029D01*
X019755Y016932D02*
X019755Y016884D01*
X019755Y016932D02*
X019949Y017126D01*
X019949Y017174D01*
X019755Y017174D01*
X020805Y017029D02*
X020951Y017029D01*
X020999Y016981D01*
X020999Y016932D01*
X020951Y016884D01*
X020854Y016884D01*
X020805Y016932D01*
X020805Y017029D01*
X020902Y017126D01*
X020999Y017174D01*
X021905Y017174D02*
X021905Y017029D01*
X022002Y017077D01*
X022051Y017077D01*
X022099Y017029D01*
X022099Y016932D01*
X022051Y016884D01*
X021954Y016884D01*
X021905Y016932D01*
X021905Y017174D02*
X022099Y017174D01*
X023005Y017029D02*
X023199Y017029D01*
X023151Y017174D02*
X023005Y017029D01*
X023151Y016884D02*
X023151Y017174D01*
X024105Y017126D02*
X024154Y017174D01*
X024251Y017174D01*
X024299Y017126D01*
X024299Y017077D01*
X024251Y017029D01*
X024299Y016981D01*
X024299Y016932D01*
X024251Y016884D01*
X024154Y016884D01*
X024105Y016932D01*
X024202Y017029D02*
X024251Y017029D01*
X025155Y017126D02*
X025204Y017174D01*
X025301Y017174D01*
X025349Y017126D01*
X025349Y017077D01*
X025155Y016884D01*
X025349Y016884D01*
X026305Y016884D02*
X026499Y016884D01*
X026402Y016884D02*
X026402Y017174D01*
X026305Y017077D01*
X026355Y017534D02*
X026605Y018034D01*
X026105Y018034D01*
X026355Y017534D01*
X026306Y017632D02*
X026404Y017632D01*
X026454Y017730D02*
X026257Y017730D01*
X026208Y017829D02*
X026503Y017829D01*
X026552Y017928D02*
X026159Y017928D01*
X026109Y018026D02*
X026602Y018026D01*
X027905Y019234D02*
X028405Y018984D01*
X028405Y019484D01*
X027905Y019234D01*
X027956Y019209D02*
X028405Y019209D01*
X028405Y019307D02*
X028052Y019307D01*
X028249Y019406D02*
X028405Y019406D01*
X028405Y019110D02*
X028153Y019110D01*
X028350Y019011D02*
X028405Y019011D01*
X027459Y019124D02*
X027265Y019124D01*
X027362Y019124D02*
X027362Y019414D01*
X027265Y019317D01*
X027265Y020124D02*
X027459Y020317D01*
X027459Y020366D01*
X027411Y020414D01*
X027314Y020414D01*
X027265Y020366D01*
X027265Y020124D02*
X027459Y020124D01*
X035815Y020514D02*
X035815Y011194D01*
X033849Y011362D02*
X033801Y011314D01*
X033704Y011314D01*
X033655Y011362D01*
X033704Y011459D02*
X033849Y011459D01*
X033849Y011556D02*
X033801Y011604D01*
X033704Y011604D01*
X033655Y011556D01*
X033655Y011507D01*
X033704Y011459D01*
X033849Y011362D02*
X033849Y011556D01*
X033058Y011556D02*
X032865Y011362D01*
X032913Y011314D01*
X033010Y011314D01*
X033058Y011362D01*
X033058Y011556D01*
X033010Y011604D01*
X032913Y011604D01*
X032865Y011556D01*
X032865Y011362D01*
X032699Y011314D02*
X032505Y011314D01*
X032602Y011314D02*
X032602Y011604D01*
X032505Y011507D01*
X026655Y014284D02*
X013055Y014284D01*
X013011Y014286D01*
X012968Y014291D01*
X012926Y014300D01*
X012884Y014312D01*
X012843Y014328D01*
X012804Y014347D01*
X012766Y014370D01*
X012731Y014395D01*
X012697Y014423D01*
X012666Y014454D01*
X012638Y014487D01*
X012613Y014522D01*
X012590Y014559D01*
X012571Y014598D01*
X012555Y014639D01*
X012542Y014681D01*
X012545Y014674D02*
X012235Y016754D01*
X012235Y016750D02*
X012228Y016794D01*
X012225Y016839D01*
X012226Y016883D01*
X012230Y016928D01*
X012238Y016972D01*
X012250Y017015D01*
X012265Y017056D01*
X012284Y017097D01*
X012306Y017136D01*
X012331Y017172D01*
X012360Y017207D01*
X012391Y017239D01*
X012424Y017268D01*
X012460Y017295D01*
X012498Y017318D01*
X012538Y017338D01*
X012580Y017354D01*
X012623Y017367D01*
X012666Y017377D01*
X012710Y017382D01*
X012755Y017384D01*
X013765Y019124D02*
X013959Y019317D01*
X013959Y019366D01*
X013911Y019414D01*
X013814Y019414D01*
X013765Y019366D01*
X013765Y019124D02*
X013959Y019124D01*
X014125Y019172D02*
X014173Y019124D01*
X014270Y019124D01*
X014318Y019172D01*
X014318Y019269D01*
X014270Y019317D01*
X014221Y019317D01*
X014125Y019269D01*
X014125Y019414D01*
X014318Y019414D01*
X014270Y020124D02*
X014318Y020172D01*
X014318Y020221D01*
X014270Y020269D01*
X014125Y020269D01*
X014125Y020172D01*
X014173Y020124D01*
X014270Y020124D01*
X014125Y020269D02*
X014221Y020366D01*
X014318Y020414D01*
X013959Y020366D02*
X013911Y020414D01*
X013814Y020414D01*
X013765Y020366D01*
X013959Y020366D02*
X013959Y020317D01*
X013765Y020124D01*
X013959Y020124D01*
X006011Y017602D02*
X006011Y016702D01*
X004987Y015852D02*
X004991Y015945D01*
X005004Y016037D01*
X005025Y016128D01*
X005054Y016217D01*
X005091Y016302D01*
X005136Y016384D01*
X005188Y016461D01*
X005247Y016534D01*
X005312Y016600D01*
X005383Y016661D01*
X005459Y016715D01*
X005540Y016761D01*
X005625Y016800D01*
X005712Y016831D01*
X005803Y016855D01*
X005895Y016869D01*
X005988Y016876D01*
X006081Y016874D01*
X006173Y016863D01*
X006265Y016844D01*
X006354Y016817D01*
X006440Y016782D01*
X006523Y016739D01*
X006602Y016689D01*
X006675Y016631D01*
X006743Y016568D01*
X006805Y016498D01*
X006861Y016423D01*
X006909Y016344D01*
X006950Y016260D01*
X006983Y016173D01*
X007009Y016083D01*
X007025Y015991D01*
X007034Y015899D01*
X007034Y015805D01*
X007025Y015713D01*
X007009Y015621D01*
X006983Y015531D01*
X006950Y015444D01*
X006909Y015360D01*
X006861Y015281D01*
X006805Y015206D01*
X006743Y015136D01*
X006675Y015073D01*
X006602Y015015D01*
X006523Y014965D01*
X006440Y014922D01*
X006354Y014887D01*
X006265Y014860D01*
X006173Y014841D01*
X006081Y014830D01*
X005988Y014828D01*
X005895Y014835D01*
X005803Y014849D01*
X005712Y014873D01*
X005625Y014904D01*
X005540Y014943D01*
X005459Y014989D01*
X005383Y015043D01*
X005312Y015104D01*
X005247Y015170D01*
X005188Y015243D01*
X005136Y015320D01*
X005091Y015402D01*
X005054Y015487D01*
X005025Y015576D01*
X005004Y015667D01*
X004991Y015759D01*
X004987Y015852D01*
X005161Y015852D02*
X004261Y015852D01*
X004241Y015852D02*
X004248Y016013D01*
X004270Y016173D01*
X004307Y016330D01*
X004357Y016483D01*
X004421Y016630D01*
X004499Y016772D01*
X004589Y016905D01*
X004690Y017030D01*
X004803Y017146D01*
X004926Y017250D01*
X005057Y017343D01*
X005197Y017424D01*
X005343Y017491D01*
X005495Y017545D01*
X005651Y017585D01*
X005810Y017611D01*
X005971Y017622D01*
X006132Y017618D01*
X006292Y017600D01*
X006450Y017567D01*
X006604Y017520D01*
X006753Y017459D01*
X006896Y017385D01*
X007032Y017298D01*
X007159Y017199D01*
X007277Y017089D01*
X007384Y016969D01*
X007480Y016840D01*
X007564Y016702D01*
X007634Y016557D01*
X007692Y016407D01*
X007735Y016251D01*
X007765Y016093D01*
X007779Y015933D01*
X007779Y015771D01*
X007765Y015611D01*
X007735Y015453D01*
X007692Y015297D01*
X007634Y015147D01*
X007564Y015002D01*
X007480Y014864D01*
X007384Y014735D01*
X007277Y014615D01*
X007159Y014505D01*
X007032Y014406D01*
X006896Y014319D01*
X006753Y014245D01*
X006604Y014184D01*
X006450Y014137D01*
X006292Y014104D01*
X006132Y014086D01*
X005971Y014082D01*
X005810Y014093D01*
X005651Y014119D01*
X005495Y014159D01*
X005343Y014213D01*
X005197Y014280D01*
X005057Y014361D01*
X004926Y014454D01*
X004803Y014558D01*
X004690Y014674D01*
X004589Y014799D01*
X004499Y014932D01*
X004421Y015074D01*
X004357Y015221D01*
X004307Y015374D01*
X004270Y015531D01*
X004248Y015691D01*
X004241Y015852D01*
X006011Y015002D02*
X006011Y014102D01*
X006861Y015852D02*
X007761Y015852D01*
X013555Y014726D02*
X013604Y014774D01*
X013701Y014774D01*
X013749Y014726D01*
X013749Y014677D01*
X013555Y014484D01*
X013749Y014484D01*
X013915Y014532D02*
X013963Y014484D01*
X014060Y014484D01*
X014108Y014532D01*
X014108Y014629D01*
X014060Y014677D01*
X014011Y014677D01*
X013915Y014629D01*
X013915Y014774D01*
X014108Y014774D01*
X014655Y014726D02*
X014704Y014774D01*
X014801Y014774D01*
X014849Y014726D01*
X014849Y014677D01*
X014655Y014484D01*
X014849Y014484D01*
X015015Y014629D02*
X015208Y014629D01*
X015160Y014774D02*
X015015Y014629D01*
X015160Y014484D02*
X015160Y014774D01*
X015805Y014726D02*
X015854Y014774D01*
X015951Y014774D01*
X015999Y014726D01*
X015999Y014677D01*
X015805Y014484D01*
X015999Y014484D01*
X016165Y014532D02*
X016213Y014484D01*
X016310Y014484D01*
X016358Y014532D01*
X016358Y014581D01*
X016310Y014629D01*
X016261Y014629D01*
X016310Y014629D02*
X016358Y014677D01*
X016358Y014726D01*
X016310Y014774D01*
X016213Y014774D01*
X016165Y014726D01*
X016905Y014726D02*
X016954Y014774D01*
X017051Y014774D01*
X017099Y014726D01*
X017099Y014677D01*
X016905Y014484D01*
X017099Y014484D01*
X017265Y014484D02*
X017458Y014677D01*
X017458Y014726D01*
X017410Y014774D01*
X017313Y014774D01*
X017265Y014726D01*
X017265Y014484D02*
X017458Y014484D01*
X017955Y014484D02*
X018149Y014677D01*
X018149Y014726D01*
X018101Y014774D01*
X018004Y014774D01*
X017955Y014726D01*
X017955Y014484D02*
X018149Y014484D01*
X018315Y014484D02*
X018508Y014484D01*
X018411Y014484D02*
X018411Y014774D01*
X018315Y014677D01*
X019005Y014726D02*
X019054Y014774D01*
X019151Y014774D01*
X019199Y014726D01*
X019199Y014677D01*
X019005Y014484D01*
X019199Y014484D01*
X019365Y014532D02*
X019558Y014726D01*
X019558Y014532D01*
X019510Y014484D01*
X019413Y014484D01*
X019365Y014532D01*
X019365Y014726D01*
X019413Y014774D01*
X019510Y014774D01*
X019558Y014726D01*
X020155Y014677D02*
X020252Y014774D01*
X020252Y014484D01*
X020155Y014484D02*
X020349Y014484D01*
X020515Y014532D02*
X020563Y014484D01*
X020660Y014484D01*
X020708Y014532D01*
X020708Y014726D01*
X020660Y014774D01*
X020563Y014774D01*
X020515Y014726D01*
X020515Y014677D01*
X020563Y014629D01*
X020708Y014629D01*
X021205Y014677D02*
X021302Y014774D01*
X021302Y014484D01*
X021205Y014484D02*
X021399Y014484D01*
X021565Y014532D02*
X021565Y014581D01*
X021613Y014629D01*
X021710Y014629D01*
X021758Y014581D01*
X021758Y014532D01*
X021710Y014484D01*
X021613Y014484D01*
X021565Y014532D01*
X021613Y014629D02*
X021565Y014677D01*
X021565Y014726D01*
X021613Y014774D01*
X021710Y014774D01*
X021758Y014726D01*
X021758Y014677D01*
X021710Y014629D01*
X022255Y014677D02*
X022352Y014774D01*
X022352Y014484D01*
X022255Y014484D02*
X022449Y014484D01*
X022615Y014484D02*
X022615Y014532D01*
X022808Y014726D01*
X022808Y014774D01*
X022615Y014774D01*
X023355Y014677D02*
X023452Y014774D01*
X023452Y014484D01*
X023355Y014484D02*
X023549Y014484D01*
X023715Y014532D02*
X023763Y014484D01*
X023860Y014484D01*
X023908Y014532D01*
X023908Y014581D01*
X023860Y014629D01*
X023715Y014629D01*
X023715Y014532D01*
X023715Y014629D02*
X023811Y014726D01*
X023908Y014774D01*
X024455Y014677D02*
X024552Y014774D01*
X024552Y014484D01*
X024455Y014484D02*
X024649Y014484D01*
X024815Y014532D02*
X024863Y014484D01*
X024960Y014484D01*
X025008Y014532D01*
X025008Y014629D01*
X024960Y014677D01*
X024911Y014677D01*
X024815Y014629D01*
X024815Y014774D01*
X025008Y014774D01*
X025555Y014677D02*
X025652Y014774D01*
X025652Y014484D01*
X025555Y014484D02*
X025749Y014484D01*
X025915Y014629D02*
X026108Y014629D01*
X026060Y014774D02*
X025915Y014629D01*
X026060Y014484D02*
X026060Y014774D01*
X026655Y014284D02*
X026699Y014286D01*
X026743Y014291D01*
X026786Y014301D01*
X026829Y014313D01*
X026870Y014330D01*
X026909Y014349D01*
X026947Y014372D01*
X026983Y014398D01*
X027017Y014427D01*
X027048Y014458D01*
X027076Y014492D01*
X027101Y014528D01*
X027124Y014566D01*
X027143Y014606D01*
X027158Y014648D01*
X027170Y014690D01*
X040695Y011194D02*
X040695Y020514D01*
X045815Y020514D02*
X045815Y011194D01*
X043849Y011362D02*
X043849Y011556D01*
X043801Y011604D01*
X043704Y011604D01*
X043655Y011556D01*
X043655Y011507D01*
X043704Y011459D01*
X043849Y011459D01*
X043849Y011362D02*
X043801Y011314D01*
X043704Y011314D01*
X043655Y011362D01*
X043058Y011362D02*
X043010Y011314D01*
X042913Y011314D01*
X042865Y011362D01*
X043058Y011556D01*
X043058Y011362D01*
X042865Y011362D02*
X042865Y011556D01*
X042913Y011604D01*
X043010Y011604D01*
X043058Y011556D01*
X042699Y011314D02*
X042505Y011314D01*
X042602Y011314D02*
X042602Y011604D01*
X042505Y011507D01*
X050695Y011194D02*
X050695Y020514D01*
D12*
X045423Y014634D02*
X044889Y014634D01*
X044755Y014500D01*
X044755Y014234D01*
X044889Y014100D01*
X044889Y013713D02*
X044755Y013580D01*
X044755Y013313D01*
X044889Y013179D01*
X045423Y013179D01*
X045556Y013313D01*
X045556Y013580D01*
X045423Y013713D01*
X044889Y013713D01*
X045423Y014100D02*
X045556Y014234D01*
X045556Y014500D01*
X045423Y014634D01*
X045556Y012792D02*
X044755Y012792D01*
X045289Y012525D02*
X045556Y012259D01*
X044755Y012259D01*
X044755Y011872D02*
X044755Y011338D01*
X044755Y011605D02*
X045556Y011605D01*
X045289Y011872D01*
X045289Y012525D02*
X045556Y012792D01*
X035556Y012792D02*
X035289Y012525D01*
X035556Y012259D01*
X034755Y012259D01*
X034755Y011872D02*
X035289Y011338D01*
X035423Y011338D01*
X035556Y011471D01*
X035556Y011738D01*
X035423Y011872D01*
X034755Y011872D02*
X034755Y011338D01*
X034755Y012792D02*
X035556Y012792D01*
X035423Y013179D02*
X035556Y013313D01*
X035556Y013580D01*
X035423Y013713D01*
X034889Y013713D01*
X034755Y013580D01*
X034755Y013313D01*
X034889Y013179D01*
X035423Y013179D01*
X035423Y014100D02*
X035556Y014234D01*
X035556Y014500D01*
X035423Y014634D01*
X034889Y014634D01*
X034755Y014500D01*
X034755Y014234D01*
X034889Y014100D01*
X030334Y012334D02*
X029801Y012334D01*
X029801Y013135D01*
X029414Y013135D02*
X028880Y013135D01*
X028880Y012334D01*
X029414Y012334D01*
X029147Y012734D02*
X028880Y012734D01*
X028493Y012334D02*
X027959Y012334D01*
X027959Y013135D01*
X027038Y013135D02*
X027038Y012334D01*
X027572Y012334D01*
X026651Y012334D02*
X026651Y012868D01*
X026385Y013135D01*
X026118Y012868D01*
X026118Y012334D01*
X025731Y012334D02*
X025464Y012601D01*
X025597Y012601D02*
X025197Y012601D01*
X025197Y012334D02*
X025197Y013135D01*
X025597Y013135D01*
X025731Y013001D01*
X025731Y012734D01*
X025597Y012601D01*
X026118Y012734D02*
X026651Y012734D01*
X024810Y012734D02*
X024276Y012734D01*
X024276Y012868D02*
X024543Y013135D01*
X024810Y012868D01*
X024810Y012334D01*
X024276Y012334D02*
X024276Y012868D01*
X023889Y013001D02*
X023889Y012734D01*
X023756Y012601D01*
X023355Y012601D01*
X023355Y012334D02*
X023355Y013135D01*
X023756Y013135D01*
X023889Y013001D01*
D13*
X019222Y013114D02*
X018849Y013114D01*
X018849Y012554D01*
X019222Y012554D01*
X019036Y012834D02*
X018849Y012834D01*
X018578Y012554D02*
X018204Y012554D01*
X018204Y013114D01*
X017933Y012927D02*
X017933Y012554D01*
X017933Y012834D02*
X017560Y012834D01*
X017560Y012927D02*
X017747Y013114D01*
X017933Y012927D01*
X017560Y012927D02*
X017560Y012554D01*
X017289Y012554D02*
X017289Y013114D01*
X017102Y012927D01*
X016915Y013114D01*
X016915Y012554D01*
X016644Y012554D02*
X016271Y012554D01*
X016271Y013114D01*
X016644Y013114D01*
X016458Y012834D02*
X016271Y012834D01*
X016000Y013114D02*
X015626Y013114D01*
X015626Y012554D01*
X015626Y012834D02*
X015813Y012834D01*
X015355Y012834D02*
X014982Y012834D01*
X014711Y012834D02*
X014617Y012741D01*
X014337Y012741D01*
X014337Y012554D02*
X014337Y013114D01*
X014617Y013114D01*
X014711Y013021D01*
X014711Y012834D01*
X014066Y012834D02*
X014066Y012647D01*
X013973Y012554D01*
X013786Y012554D01*
X013693Y012647D01*
X013693Y012834D02*
X013879Y012927D01*
X013973Y012927D01*
X014066Y012834D01*
X014066Y013114D02*
X013693Y013114D01*
X013693Y012834D01*
X013422Y012927D02*
X013048Y012554D01*
X013422Y012554D01*
X013422Y012927D02*
X013422Y013021D01*
X013328Y013114D01*
X013141Y013114D01*
X013048Y013021D01*
X012777Y012834D02*
X012404Y012834D01*
X012133Y012741D02*
X012133Y012647D01*
X012039Y012554D01*
X011759Y012554D01*
X011759Y013114D01*
X012039Y013114D01*
X012133Y013021D01*
X012133Y012927D01*
X012039Y012834D01*
X011759Y012834D01*
X012039Y012834D02*
X012133Y012741D01*
X011488Y012647D02*
X011395Y012554D01*
X011208Y012554D01*
X011114Y012647D01*
X011114Y013114D01*
X010844Y013021D02*
X010750Y013114D01*
X010563Y013114D01*
X010470Y013021D01*
X010470Y012927D01*
X010563Y012834D01*
X010750Y012834D01*
X010844Y012741D01*
X010844Y012647D01*
X010750Y012554D01*
X010563Y012554D01*
X010470Y012647D01*
X010199Y012647D02*
X010199Y013021D01*
X010106Y013114D01*
X009825Y013114D01*
X009825Y012554D01*
X010106Y012554D01*
X010199Y012647D01*
X011488Y012647D02*
X011488Y013114D01*
X011395Y018554D02*
X011208Y018554D01*
X011114Y018647D01*
X011301Y018834D02*
X011395Y018834D01*
X011488Y018741D01*
X011488Y018647D01*
X011395Y018554D01*
X011395Y018834D02*
X011488Y018927D01*
X011488Y019021D01*
X011395Y019114D01*
X011208Y019114D01*
X011114Y019021D01*
X010844Y019114D02*
X010844Y018554D01*
X010470Y019114D01*
X010470Y018554D01*
X010199Y018647D02*
X010106Y018554D01*
X009919Y018554D01*
X009825Y018647D01*
X009825Y019021D01*
X009919Y019114D01*
X010106Y019114D01*
X010199Y019021D01*
X034975Y018850D02*
X034975Y018664D01*
X035068Y018570D01*
X035442Y018570D01*
X035535Y018664D01*
X035535Y018850D01*
X035442Y018944D01*
X035535Y019215D02*
X034975Y019215D01*
X035535Y019588D01*
X034975Y019588D01*
X035068Y019859D02*
X034975Y019953D01*
X034975Y020140D01*
X035068Y020233D01*
X035162Y020233D01*
X035535Y019859D01*
X035535Y020233D01*
X035068Y018944D02*
X034975Y018850D01*
X040975Y018795D02*
X041069Y018701D01*
X041536Y018701D01*
X041536Y018430D02*
X041536Y018150D01*
X041442Y018057D01*
X041349Y018057D01*
X041256Y018150D01*
X041256Y018430D01*
X041536Y018430D02*
X040975Y018430D01*
X040975Y018150D01*
X041069Y018057D01*
X041162Y018057D01*
X041256Y018150D01*
X041256Y017786D02*
X041256Y017412D01*
X041349Y017141D02*
X041256Y017048D01*
X041256Y016768D01*
X041442Y016768D02*
X041536Y016861D01*
X041536Y017048D01*
X041442Y017141D01*
X041349Y017141D01*
X041069Y017141D02*
X040975Y017048D01*
X040975Y016861D01*
X041069Y016768D01*
X041442Y016768D01*
X041536Y016497D02*
X041536Y016216D01*
X041442Y016123D01*
X041256Y016123D01*
X041162Y016216D01*
X041162Y016497D01*
X040975Y016497D02*
X041536Y016497D01*
X041256Y015852D02*
X041256Y015479D01*
X041536Y015208D02*
X041349Y015021D01*
X041536Y014834D01*
X040975Y014834D01*
X040975Y014563D02*
X041349Y014563D01*
X041536Y014376D01*
X041349Y014189D01*
X040975Y014189D01*
X040975Y013919D02*
X040975Y013545D01*
X040975Y013274D02*
X040975Y012900D01*
X041256Y013087D02*
X041256Y013274D01*
X041536Y013274D02*
X040975Y013274D01*
X041536Y013274D02*
X041536Y012900D01*
X041536Y013919D02*
X040975Y013919D01*
X041256Y014189D02*
X041256Y014563D01*
X040975Y015208D02*
X041536Y015208D01*
X044975Y018664D02*
X045068Y018570D01*
X045442Y018570D01*
X045535Y018664D01*
X045535Y018850D01*
X045442Y018944D01*
X045535Y019215D02*
X044975Y019215D01*
X045535Y019588D01*
X044975Y019588D01*
X045162Y019859D02*
X044975Y020046D01*
X045535Y020046D01*
X045535Y019859D02*
X045535Y020233D01*
X045068Y018944D02*
X044975Y018850D01*
X044975Y018664D01*
X041536Y019075D02*
X041069Y019075D01*
X040975Y018981D01*
X040975Y018795D01*
X041069Y019346D02*
X040975Y019439D01*
X040975Y019626D01*
X041069Y019719D01*
X041256Y019626D02*
X041256Y019439D01*
X041162Y019346D01*
X041069Y019346D01*
X041256Y019626D02*
X041349Y019719D01*
X041442Y019719D01*
X041536Y019626D01*
X041536Y019439D01*
X041442Y019346D01*
X041442Y019990D02*
X041536Y020084D01*
X041536Y020364D01*
X040975Y020364D01*
X040975Y020084D01*
X041069Y019990D01*
X041442Y019990D01*
X050975Y020084D02*
X051069Y019990D01*
X051442Y019990D01*
X051536Y020084D01*
X051536Y020364D01*
X050975Y020364D01*
X050975Y020084D01*
X051069Y019719D02*
X050975Y019626D01*
X050975Y019439D01*
X051069Y019346D01*
X051162Y019346D01*
X051256Y019439D01*
X051256Y019626D01*
X051349Y019719D01*
X051442Y019719D01*
X051536Y019626D01*
X051536Y019439D01*
X051442Y019346D01*
X051536Y019075D02*
X051069Y019075D01*
X050975Y018981D01*
X050975Y018795D01*
X051069Y018701D01*
X051536Y018701D01*
X051536Y018430D02*
X050975Y018430D01*
X050975Y018150D01*
X051069Y018057D01*
X051162Y018057D01*
X051256Y018150D01*
X051256Y018430D01*
X051536Y018430D02*
X051536Y018150D01*
X051442Y018057D01*
X051349Y018057D01*
X051256Y018150D01*
X051256Y017786D02*
X051256Y017412D01*
X051349Y017141D02*
X051256Y017048D01*
X051256Y016768D01*
X051442Y016768D02*
X051069Y016768D01*
X050975Y016861D01*
X050975Y017048D01*
X051069Y017141D01*
X051349Y017141D02*
X051442Y017141D01*
X051536Y017048D01*
X051536Y016861D01*
X051442Y016768D01*
X051536Y016497D02*
X050975Y016497D01*
X051162Y016497D02*
X051162Y016216D01*
X051256Y016123D01*
X051442Y016123D01*
X051536Y016216D01*
X051536Y016497D01*
X051256Y015852D02*
X051256Y015479D01*
X051536Y015208D02*
X051349Y015021D01*
X051536Y014834D01*
X050975Y014834D01*
X050975Y014563D02*
X051349Y014563D01*
X051536Y014376D01*
X051349Y014189D01*
X050975Y014189D01*
X050975Y013919D02*
X050975Y013545D01*
X050975Y013274D02*
X050975Y012900D01*
X051256Y013087D02*
X051256Y013274D01*
X051536Y013274D02*
X050975Y013274D01*
X051536Y013274D02*
X051536Y012900D01*
X051536Y013919D02*
X050975Y013919D01*
X051256Y014189D02*
X051256Y014563D01*
X050975Y015208D02*
X051536Y015208D01*
D14*
X051868Y023434D02*
X051868Y025035D01*
X050801Y025035D02*
X051868Y023434D01*
X050801Y023434D02*
X050801Y025035D01*
X050027Y024768D02*
X049760Y025035D01*
X049226Y025035D01*
X048959Y024768D01*
X048959Y023701D01*
X049226Y023434D01*
X049760Y023434D01*
X050027Y023701D01*
X050027Y024768D01*
X048265Y025035D02*
X047731Y025035D01*
X047998Y025035D02*
X047998Y023434D01*
X047731Y023434D02*
X048265Y023434D01*
X046958Y023701D02*
X046691Y023434D01*
X046157Y023434D01*
X045890Y023701D01*
X046157Y024235D02*
X046691Y024235D01*
X046958Y023968D01*
X046958Y023701D01*
X046157Y024235D02*
X045890Y024501D01*
X045890Y024768D01*
X046157Y025035D01*
X046691Y025035D01*
X046958Y024768D01*
X045116Y025035D02*
X045116Y023434D01*
X044048Y025035D01*
X044048Y023434D01*
X043274Y023434D02*
X042207Y023434D01*
X042207Y025035D01*
X043274Y025035D01*
X042741Y024235D02*
X042207Y024235D01*
X040899Y023434D02*
X040899Y025035D01*
X040365Y025035D02*
X041433Y025035D01*
X039591Y025035D02*
X038524Y023434D01*
X037750Y023434D02*
X036682Y023434D01*
X036682Y025035D01*
X037750Y025035D01*
X038524Y025035D02*
X039591Y023434D01*
X037216Y024235D02*
X036682Y024235D01*
X034067Y025035D02*
X032999Y025035D01*
X032999Y023434D01*
X034067Y023434D01*
X033533Y024235D02*
X032999Y024235D01*
X032225Y023434D02*
X031158Y023434D01*
X031158Y025035D01*
X030384Y024768D02*
X030384Y024501D01*
X030117Y024235D01*
X029316Y024235D01*
X028542Y024235D02*
X027475Y024235D01*
X027475Y024501D02*
X028008Y025035D01*
X028542Y024501D01*
X028542Y023434D01*
X029316Y023434D02*
X030117Y023434D01*
X030384Y023701D01*
X030384Y023968D01*
X030117Y024235D01*
X030384Y024768D02*
X030117Y025035D01*
X029316Y025035D01*
X029316Y023434D01*
X027475Y023434D02*
X027475Y024501D01*
X026701Y024768D02*
X026434Y025035D01*
X025900Y025035D01*
X025633Y024768D01*
X025633Y023701D01*
X025900Y023434D01*
X026434Y023434D01*
X026701Y023701D01*
X023138Y023701D02*
X023138Y023434D01*
X022871Y023434D01*
X022871Y023701D01*
X023138Y023701D01*
X023138Y024235D02*
X022871Y024235D01*
X022871Y024501D01*
X023138Y024501D01*
X023138Y024235D01*
X022097Y023434D02*
X021029Y023434D01*
X021029Y025035D01*
X022097Y025035D01*
X021563Y024235D02*
X021029Y024235D01*
X020255Y025035D02*
X019721Y024501D01*
X019188Y025035D01*
X019188Y023434D01*
X018414Y023434D02*
X018414Y024501D01*
X017880Y025035D01*
X017346Y024501D01*
X017346Y023434D01*
X016572Y023434D02*
X016572Y025035D01*
X015505Y025035D02*
X016572Y023434D01*
X015505Y023434D02*
X015505Y025035D01*
X017346Y024235D02*
X018414Y024235D01*
X020255Y025035D02*
X020255Y023434D01*
X012889Y023701D02*
X012889Y024768D01*
X012622Y025035D01*
X011822Y025035D01*
X011822Y023434D01*
X012622Y023434D01*
X012889Y023701D01*
X011048Y023434D02*
X010514Y023968D01*
X010781Y023968D02*
X009980Y023968D01*
X009980Y023434D02*
X009980Y025035D01*
X010781Y025035D01*
X011048Y024768D01*
X011048Y024235D01*
X010781Y023968D01*
X009206Y024235D02*
X008139Y024235D01*
X008139Y024501D02*
X008672Y025035D01*
X009206Y024501D01*
X009206Y023434D01*
X008139Y023434D02*
X008139Y024501D01*
X007365Y024768D02*
X007098Y025035D01*
X006564Y025035D01*
X006297Y024768D01*
X006297Y023701D01*
X006564Y023434D01*
X007098Y023434D01*
X007365Y023701D01*
X007365Y024768D01*
X005523Y024768D02*
X005523Y024501D01*
X005256Y024235D01*
X004455Y024235D01*
X005256Y024235D02*
X005523Y023968D01*
X005523Y023701D01*
X005256Y023434D01*
X004455Y023434D01*
X004455Y025035D01*
X005256Y025035D01*
X005523Y024768D01*
X054484Y025035D02*
X054484Y023434D01*
X055284Y023434D01*
X055551Y023701D01*
X055551Y023968D01*
X055284Y024235D01*
X054484Y024235D01*
X055284Y024235D02*
X055551Y024501D01*
X055551Y024768D01*
X055284Y025035D01*
X054484Y025035D01*
X056325Y024768D02*
X056325Y023701D01*
X056592Y023434D01*
X057126Y023434D01*
X057393Y023701D01*
X057393Y024768D01*
X057126Y025035D01*
X056592Y025035D01*
X056325Y024768D01*
X058167Y024501D02*
X058701Y025035D01*
X059234Y024501D01*
X059234Y023434D01*
X060008Y023434D02*
X060008Y025035D01*
X060809Y025035D01*
X061076Y024768D01*
X061076Y024235D01*
X060809Y023968D01*
X060008Y023968D01*
X060542Y023968D02*
X061076Y023434D01*
X061850Y023434D02*
X062651Y023434D01*
X062917Y023701D01*
X062917Y024768D01*
X062651Y025035D01*
X061850Y025035D01*
X061850Y023434D01*
X059234Y024235D02*
X058167Y024235D01*
X058167Y024501D02*
X058167Y023434D01*
D15*
X004106Y007884D02*
X003905Y008084D01*
X004106Y007884D02*
X004506Y007884D01*
X004706Y008084D01*
X004706Y008284D01*
X004506Y008484D01*
X004106Y008484D01*
X003905Y008685D01*
X003905Y008885D01*
X004106Y009085D01*
X004506Y009085D01*
X004706Y008885D01*
X005287Y009085D02*
X005687Y009085D01*
X005487Y009085D02*
X005487Y007884D01*
X005287Y007884D02*
X005687Y007884D01*
X006207Y007884D02*
X007008Y007884D01*
X007588Y007884D02*
X007588Y009085D01*
X007588Y008284D02*
X008389Y009085D01*
X007789Y008484D02*
X008389Y007884D01*
X010351Y008084D02*
X010551Y007884D01*
X010951Y007884D01*
X011151Y008084D01*
X011151Y008284D01*
X010951Y008484D01*
X010551Y008484D01*
X010351Y008685D01*
X010351Y008885D01*
X010551Y009085D01*
X010951Y009085D01*
X011151Y008885D01*
X011732Y008885D02*
X011932Y009085D01*
X012332Y009085D01*
X012533Y008885D01*
X013113Y009085D02*
X013714Y009085D01*
X013914Y008885D01*
X013914Y008484D01*
X013714Y008284D01*
X013113Y008284D01*
X013113Y007884D02*
X013113Y009085D01*
X014494Y009085D02*
X014494Y007884D01*
X015295Y007884D01*
X015875Y007884D02*
X016676Y007884D01*
X017256Y007884D02*
X017256Y009085D01*
X018057Y007884D01*
X018057Y009085D01*
X016676Y009085D02*
X015875Y009085D01*
X015875Y007884D01*
X015875Y008484D02*
X016276Y008484D01*
X015295Y009085D02*
X014494Y009085D01*
X014494Y008484D02*
X014894Y008484D01*
X013914Y007884D02*
X013513Y008284D01*
X012533Y008084D02*
X012332Y007884D01*
X011932Y007884D01*
X011732Y008084D01*
X011732Y008885D01*
X006207Y009085D02*
X006207Y007884D01*
X020019Y008284D02*
X020019Y008685D01*
X020419Y009085D01*
X020939Y008885D02*
X021140Y009085D01*
X021540Y009085D01*
X021740Y008885D01*
X022321Y008885D02*
X022521Y009085D01*
X022921Y009085D01*
X023121Y008885D01*
X023121Y008084D01*
X022921Y007884D01*
X022521Y007884D01*
X022321Y008084D01*
X022321Y008885D01*
X020939Y008885D02*
X020939Y008084D01*
X021140Y007884D01*
X021540Y007884D01*
X021740Y008084D01*
X020419Y007884D02*
X020019Y008284D01*
X023702Y007884D02*
X023702Y009085D01*
X024102Y008685D01*
X024502Y009085D01*
X024502Y007884D01*
X025083Y007884D02*
X025083Y009085D01*
X025683Y009085D01*
X025884Y008885D01*
X025884Y008484D01*
X025683Y008284D01*
X025083Y008284D01*
X026464Y008084D02*
X026464Y008885D01*
X026664Y009085D01*
X027065Y009085D01*
X027265Y008885D01*
X027265Y008084D01*
X027065Y007884D01*
X026664Y007884D01*
X026464Y008084D01*
X027845Y007884D02*
X027845Y009085D01*
X028646Y007884D01*
X028646Y009085D01*
X029226Y009085D02*
X029226Y007884D01*
X030027Y007884D01*
X030607Y007884D02*
X030607Y009085D01*
X031408Y007884D01*
X031408Y009085D01*
X031989Y009085D02*
X032789Y009085D01*
X032389Y009085D02*
X032389Y007884D01*
X034751Y008084D02*
X034951Y007884D01*
X035351Y007884D01*
X035552Y008084D01*
X035552Y008284D01*
X035351Y008484D01*
X034951Y008484D01*
X034751Y008685D01*
X034751Y008885D01*
X034951Y009085D01*
X035351Y009085D01*
X035552Y008885D01*
X036132Y009085D02*
X036532Y009085D01*
X036332Y009085D02*
X036332Y007884D01*
X036132Y007884D02*
X036532Y007884D01*
X037053Y007884D02*
X037653Y007884D01*
X037853Y008084D01*
X037853Y008885D01*
X037653Y009085D01*
X037053Y009085D01*
X037053Y007884D01*
X038434Y007884D02*
X039235Y007884D01*
X039815Y007884D02*
X040215Y008284D01*
X040215Y008685D01*
X039815Y009085D01*
X039235Y009085D02*
X038434Y009085D01*
X038434Y007884D01*
X038434Y008484D02*
X038834Y008484D01*
X030027Y009085D02*
X029226Y009085D01*
X029226Y008484D02*
X029627Y008484D01*
M02*
