G75*
G70*
%OFA0B0*%
%FSLAX24Y24*%
%IPPOS*%
%LPD*%
%AMOC8*
5,1,8,0,0,1.08239X$1,22.5*
%
%ADD10C,0.0400*%
%ADD11C,0.0300*%
%ADD12OC8,0.0720*%
%ADD13C,0.2362*%
D10*
X004455Y023434D02*
X005256Y023434D01*
X005523Y023701D01*
X005523Y023968D01*
X005256Y024235D01*
X004455Y024235D01*
X005256Y024235D02*
X005523Y024501D01*
X005523Y024768D01*
X005256Y025035D01*
X004455Y025035D01*
X004455Y023434D01*
X006297Y023701D02*
X006564Y023434D01*
X007098Y023434D01*
X007365Y023701D01*
X007365Y024768D01*
X007098Y025035D01*
X006564Y025035D01*
X006297Y024768D01*
X006297Y023701D01*
X008139Y023434D02*
X008139Y024501D01*
X008672Y025035D01*
X009206Y024501D01*
X009206Y023434D01*
X009980Y023434D02*
X009980Y025035D01*
X010781Y025035D01*
X011048Y024768D01*
X011048Y024235D01*
X010781Y023968D01*
X009980Y023968D01*
X010514Y023968D02*
X011048Y023434D01*
X011822Y023434D02*
X012622Y023434D01*
X012889Y023701D01*
X012889Y024768D01*
X012622Y025035D01*
X011822Y025035D01*
X011822Y023434D01*
X009206Y024235D02*
X008139Y024235D01*
X015505Y023434D02*
X015505Y025035D01*
X016572Y023434D01*
X016572Y025035D01*
X017346Y024501D02*
X017880Y025035D01*
X018414Y024501D01*
X018414Y023434D01*
X019188Y023434D02*
X019188Y025035D01*
X019721Y024501D01*
X020255Y025035D01*
X020255Y023434D01*
X021029Y023434D02*
X022097Y023434D01*
X022871Y023434D02*
X022871Y023701D01*
X023138Y023701D01*
X023138Y023434D01*
X022871Y023434D01*
X022871Y024235D02*
X022871Y024501D01*
X023138Y024501D01*
X023138Y024235D01*
X022871Y024235D01*
X021563Y024235D02*
X021029Y024235D01*
X021029Y025035D02*
X021029Y023434D01*
X018414Y024235D02*
X017346Y024235D01*
X017346Y024501D02*
X017346Y023434D01*
X021029Y025035D02*
X022097Y025035D01*
X025633Y024768D02*
X025633Y023701D01*
X025900Y023434D01*
X026434Y023434D01*
X026701Y023701D01*
X027475Y023434D02*
X027475Y024501D01*
X028008Y025035D01*
X028542Y024501D01*
X028542Y023434D01*
X029316Y023434D02*
X030117Y023434D01*
X030384Y023701D01*
X030384Y023968D01*
X030117Y024235D01*
X029316Y024235D01*
X028542Y024235D02*
X027475Y024235D01*
X026701Y024768D02*
X026434Y025035D01*
X025900Y025035D01*
X025633Y024768D01*
X029316Y025035D02*
X029316Y023434D01*
X030117Y024235D02*
X030384Y024501D01*
X030384Y024768D01*
X030117Y025035D01*
X029316Y025035D01*
X031158Y025035D02*
X031158Y023434D01*
X032225Y023434D01*
X032999Y023434D02*
X034067Y023434D01*
X033533Y024235D02*
X032999Y024235D01*
X032999Y025035D02*
X032999Y023434D01*
X032999Y025035D02*
X034067Y025035D01*
X036682Y025035D02*
X036682Y023434D01*
X037750Y023434D01*
X038524Y023434D02*
X039591Y025035D01*
X040365Y025035D02*
X041433Y025035D01*
X040899Y025035D02*
X040899Y023434D01*
X042207Y023434D02*
X043274Y023434D01*
X044048Y023434D02*
X044048Y025035D01*
X045116Y023434D01*
X045116Y025035D01*
X045890Y024768D02*
X045890Y024501D01*
X046157Y024235D01*
X046691Y024235D01*
X046958Y023968D01*
X046958Y023701D01*
X046691Y023434D01*
X046157Y023434D01*
X045890Y023701D01*
X045890Y024768D02*
X046157Y025035D01*
X046691Y025035D01*
X046958Y024768D01*
X047731Y025035D02*
X048265Y025035D01*
X047998Y025035D02*
X047998Y023434D01*
X047731Y023434D02*
X048265Y023434D01*
X048959Y023701D02*
X049226Y023434D01*
X049760Y023434D01*
X050027Y023701D01*
X050027Y024768D01*
X049760Y025035D01*
X049226Y025035D01*
X048959Y024768D01*
X048959Y023701D01*
X050801Y023434D02*
X050801Y025035D01*
X051868Y023434D01*
X051868Y025035D01*
X054484Y025035D02*
X055284Y025035D01*
X055551Y024768D01*
X055551Y024501D01*
X055284Y024235D01*
X054484Y024235D01*
X055284Y024235D02*
X055551Y023968D01*
X055551Y023701D01*
X055284Y023434D01*
X054484Y023434D01*
X054484Y025035D01*
X056325Y024768D02*
X056325Y023701D01*
X056592Y023434D01*
X057126Y023434D01*
X057393Y023701D01*
X057393Y024768D01*
X057126Y025035D01*
X056592Y025035D01*
X056325Y024768D01*
X058167Y024501D02*
X058701Y025035D01*
X059234Y024501D01*
X059234Y023434D01*
X060008Y023434D02*
X060008Y025035D01*
X060809Y025035D01*
X061076Y024768D01*
X061076Y024235D01*
X060809Y023968D01*
X060008Y023968D01*
X060542Y023968D02*
X061076Y023434D01*
X061850Y023434D02*
X062651Y023434D01*
X062917Y023701D01*
X062917Y024768D01*
X062651Y025035D01*
X061850Y025035D01*
X061850Y023434D01*
X059234Y024235D02*
X058167Y024235D01*
X058167Y024501D02*
X058167Y023434D01*
X043274Y025035D02*
X042207Y025035D01*
X042207Y023434D01*
X042207Y024235D02*
X042741Y024235D01*
X039591Y023434D02*
X038524Y025035D01*
X037750Y025035D02*
X036682Y025035D01*
X036682Y024235D02*
X037216Y024235D01*
D11*
X004106Y007884D02*
X003905Y008084D01*
X004106Y007884D02*
X004506Y007884D01*
X004706Y008084D01*
X004706Y008284D01*
X004506Y008484D01*
X004106Y008484D01*
X003905Y008685D01*
X003905Y008885D01*
X004106Y009085D01*
X004506Y009085D01*
X004706Y008885D01*
X005287Y008885D02*
X005287Y008084D01*
X005487Y007884D01*
X005887Y007884D01*
X006087Y008084D01*
X006087Y008885D01*
X005887Y009085D01*
X005487Y009085D01*
X005287Y008885D01*
X006668Y009085D02*
X006668Y007884D01*
X007468Y007884D01*
X008049Y007884D02*
X008649Y007884D01*
X008850Y008084D01*
X008850Y008885D01*
X008649Y009085D01*
X008049Y009085D01*
X008049Y007884D01*
X009430Y007884D02*
X010231Y007884D01*
X010811Y007884D02*
X010811Y009085D01*
X011412Y009085D01*
X011612Y008885D01*
X011612Y008484D01*
X011412Y008284D01*
X010811Y008284D01*
X011211Y008284D02*
X011612Y007884D01*
X009830Y008484D02*
X009430Y008484D01*
X009430Y007884D02*
X009430Y009085D01*
X010231Y009085D01*
X013573Y009085D02*
X013573Y007884D01*
X014374Y007884D02*
X014374Y009085D01*
X013974Y008685D01*
X013573Y009085D01*
X014955Y008685D02*
X015355Y009085D01*
X015755Y008685D01*
X015755Y007884D01*
X016336Y008084D02*
X016536Y007884D01*
X016936Y007884D01*
X017136Y008084D01*
X017136Y008284D01*
X016936Y008484D01*
X016536Y008484D01*
X016336Y008685D01*
X016336Y008885D01*
X016536Y009085D01*
X016936Y009085D01*
X017136Y008885D01*
X017717Y009085D02*
X017717Y007884D01*
X017717Y008284D02*
X018518Y009085D01*
X017917Y008484D02*
X018518Y007884D01*
X020479Y008284D02*
X020879Y007884D01*
X021400Y008084D02*
X021600Y007884D01*
X022000Y007884D01*
X022201Y008084D01*
X022201Y008284D01*
X022000Y008484D01*
X021600Y008484D01*
X021400Y008685D01*
X021400Y008885D01*
X021600Y009085D01*
X022000Y009085D01*
X022201Y008885D01*
X022781Y008885D02*
X022981Y009085D01*
X023382Y009085D01*
X023582Y008885D01*
X023582Y008084D01*
X023382Y007884D01*
X022981Y007884D01*
X022781Y008084D01*
X022781Y008885D01*
X024162Y009085D02*
X024162Y007884D01*
X024963Y007884D01*
X025543Y007884D02*
X026144Y007884D01*
X026344Y008084D01*
X026344Y008885D01*
X026144Y009085D01*
X025543Y009085D01*
X025543Y007884D01*
X026924Y007884D02*
X027725Y007884D01*
X028306Y007884D02*
X028306Y009085D01*
X028906Y009085D01*
X029106Y008885D01*
X029106Y008484D01*
X028906Y008284D01*
X028306Y008284D01*
X028706Y008284D02*
X029106Y007884D01*
X027325Y008484D02*
X026924Y008484D01*
X026924Y007884D02*
X026924Y009085D01*
X027725Y009085D01*
X031068Y008885D02*
X031068Y008685D01*
X031268Y008484D01*
X031668Y008484D01*
X031869Y008284D01*
X031869Y008084D01*
X031668Y007884D01*
X031268Y007884D01*
X031068Y008084D01*
X032449Y007884D02*
X032849Y007884D01*
X032649Y007884D02*
X032649Y009085D01*
X032449Y009085D02*
X032849Y009085D01*
X033370Y009085D02*
X033970Y009085D01*
X034170Y008885D01*
X034170Y008084D01*
X033970Y007884D01*
X033370Y007884D01*
X033370Y009085D01*
X034751Y009085D02*
X034751Y007884D01*
X035552Y007884D01*
X036132Y007884D02*
X036532Y008284D01*
X036532Y008685D01*
X036132Y009085D01*
X035552Y009085D02*
X034751Y009085D01*
X034751Y008484D02*
X035151Y008484D01*
X031869Y008885D02*
X031668Y009085D01*
X031268Y009085D01*
X031068Y008885D01*
X020879Y009085D02*
X020479Y008685D01*
X020479Y008284D01*
X015755Y008484D02*
X014955Y008484D01*
X014955Y008685D02*
X014955Y007884D01*
D12*
X014965Y015274D03*
X013875Y015274D03*
X013335Y016394D03*
X014425Y016394D03*
X015505Y016394D03*
X016595Y016394D03*
X017685Y016394D03*
X018765Y016394D03*
X019855Y016394D03*
X020945Y016394D03*
X022025Y016394D03*
X023115Y016394D03*
X024205Y016394D03*
X025285Y016394D03*
X026375Y016394D03*
X025835Y015274D03*
X024745Y015274D03*
X023655Y015274D03*
X022575Y015274D03*
X021485Y015274D03*
X020395Y015274D03*
X019315Y015274D03*
X018225Y015274D03*
X017135Y015274D03*
X016055Y015274D03*
X015755Y019234D03*
X014755Y019234D03*
X014755Y020234D03*
X015755Y020234D03*
X016755Y020234D03*
X017755Y020234D03*
X018755Y020234D03*
X019755Y020234D03*
X020755Y020234D03*
X021755Y020234D03*
X022755Y020234D03*
X023755Y020234D03*
X024755Y020234D03*
X025755Y020234D03*
X026755Y020234D03*
X026755Y019234D03*
X025755Y019234D03*
X024755Y019234D03*
X023755Y019234D03*
X022755Y019234D03*
X021755Y019234D03*
X020755Y019234D03*
X019755Y019234D03*
X018755Y019234D03*
X017755Y019234D03*
X016755Y019234D03*
X032755Y016234D03*
X033755Y016234D03*
X033755Y015234D03*
X032755Y015234D03*
X032755Y014234D03*
X033755Y014234D03*
X033755Y013234D03*
X032755Y013234D03*
X032755Y012234D03*
X033755Y012234D03*
X037695Y014214D03*
X038815Y014754D03*
X037695Y015294D03*
X038815Y015834D03*
X037695Y016374D03*
X038815Y016914D03*
X037695Y017454D03*
X038815Y017994D03*
X042755Y016234D03*
X043755Y016234D03*
X043755Y015234D03*
X042755Y015234D03*
X042755Y014234D03*
X043755Y014234D03*
X043755Y013234D03*
X042755Y013234D03*
X042755Y012234D03*
X043755Y012234D03*
X047695Y014214D03*
X048815Y013674D03*
X048815Y014754D03*
X047695Y015294D03*
X048815Y015834D03*
X047695Y016374D03*
X048815Y016914D03*
X047695Y017454D03*
X048815Y017994D03*
X038815Y013674D03*
D13*
X055617Y015852D03*
X006011Y015852D03*
M02*
